<svg width="24" height="26" viewBox="0 0 24 26" fill="none" xmlns="http://www.w3.org/2000/svg">
<g clip-path="url(#clip0_10_138)">
<path d="M12 2.75C14.717 2.75 15.056 2.76028 16.122 2.81167C17.187 2.86306 17.912 3.03469 18.55 3.28958C19.21 3.55064 19.766 3.90419 20.322 4.47461C20.8305 4.98839 21.224 5.60988 21.475 6.29583C21.722 6.95053 21.89 7.69669 21.94 8.79128C21.987 9.88689 22 10.2353 22 13.0278C22 15.8203 21.99 16.1687 21.94 17.2643C21.89 18.3589 21.722 19.104 21.475 19.7597C21.2247 20.446 20.8311 21.0677 20.322 21.5809C19.822 22.1034 19.2173 22.5077 18.55 22.766C17.913 23.0198 17.187 23.1925 16.122 23.2439C15.056 23.2922 14.717 23.3056 12 23.3056C9.283 23.3056 8.944 23.2953 7.878 23.2439C6.813 23.1925 6.088 23.0198 5.45 22.766C4.78233 22.5085 4.17753 22.104 3.678 21.5809C3.16941 21.0672 2.77593 20.4457 2.525 19.7597C2.277 19.105 2.11 18.3589 2.06 17.2643C2.013 16.1687 2 15.8203 2 13.0278C2 10.2353 2.01 9.88689 2.06 8.79128C2.11 7.69567 2.277 6.95156 2.525 6.29583C2.77524 5.60946 3.1688 4.9878 3.678 4.47461C4.17767 3.95171 4.78243 3.54728 5.45 3.28958C6.088 3.03469 6.812 2.86306 7.878 2.81167C8.944 2.76336 9.283 2.75 12 2.75ZM12 7.88889C10.6739 7.88889 9.40215 8.43031 8.46447 9.39404C7.52678 10.3578 7 11.6649 7 13.0278C7 14.3907 7.52678 15.6978 8.46447 16.6615C9.40215 17.6253 10.6739 18.1667 12 18.1667C13.3261 18.1667 14.5979 17.6253 15.5355 16.6615C16.4732 15.6978 17 14.3907 17 13.0278C17 11.6649 16.4732 10.3578 15.5355 9.39404C14.5979 8.43031 13.3261 7.88889 12 7.88889ZM18.5 7.63195C18.5 7.29122 18.3683 6.96444 18.1339 6.72351C17.8995 6.48258 17.5815 6.34722 17.25 6.34722C16.9185 6.34722 16.6005 6.48258 16.3661 6.72351C16.1317 6.96444 16 7.29122 16 7.63195C16 7.97267 16.1317 8.29945 16.3661 8.54038C16.6005 8.78131 16.9185 8.91667 17.25 8.91667C17.5815 8.91667 17.8995 8.78131 18.1339 8.54038C18.3683 8.29945 18.5 7.97267 18.5 7.63195ZM12 9.94445C12.7956 9.94445 13.5587 10.2693 14.1213 10.8475C14.6839 11.4258 15 12.21 15 13.0278C15 13.8455 14.6839 14.6298 14.1213 15.208C13.5587 15.7863 12.7956 16.1111 12 16.1111C11.2044 16.1111 10.4413 15.7863 9.87868 15.208C9.31607 14.6298 9 13.8455 9 13.0278C9 12.21 9.31607 11.4258 9.87868 10.8475C10.4413 10.2693 11.2044 9.94445 12 9.94445Z" fill="#454444"/>
</g>
<defs>
<clipPath id="clip0_10_138">
<rect width="24" height="24.6667" fill="white" transform="translate(0 0.694458)"/>
</clipPath>
</defs>
</svg>
