<svg width="24" height="26" viewBox="0 0 24 26" fill="none" xmlns="http://www.w3.org/2000/svg">
<g clip-path="url(#clip0_10_16)">
<path d="M18.335 19.5429H15.67V15.2499C15.67 14.2262 15.65 12.9086 14.28 12.9086C12.891 12.9086 12.679 14.0227 12.679 15.1749V19.5429H10.013V10.7153H12.573V11.9178H12.608C12.966 11.2251 13.836 10.4923 15.136 10.4923C17.836 10.4923 18.336 12.3197 18.336 14.6969V19.5429H18.335ZM7.003 9.50769C6.79956 9.50796 6.59806 9.46696 6.41006 9.38704C6.22207 9.30712 6.05127 9.18984 5.90746 9.04194C5.76365 8.89404 5.64965 8.71842 5.57201 8.52515C5.49437 8.33188 5.4546 8.12476 5.455 7.91567C5.4552 7.601 5.54618 7.29345 5.71644 7.03193C5.8867 6.7704 6.12859 6.56664 6.41153 6.44641C6.69447 6.32618 7.00574 6.29488 7.30598 6.35647C7.60622 6.41805 7.88196 6.56976 8.09831 6.79241C8.31466 7.01506 8.46191 7.29865 8.52145 7.60731C8.58099 7.91598 8.55013 8.23585 8.43278 8.52649C8.31544 8.81713 8.11687 9.06548 7.86219 9.24013C7.60751 9.41478 7.30817 9.5079 7.002 9.50769H7.003ZM8.339 19.5429H5.666V10.7153H8.34V19.5429H8.339ZM19.67 3.77783H4.329C3.593 3.77783 3 4.37394 3 5.11086V20.9448C3 21.6817 3.594 22.2778 4.328 22.2778H19.666C20.4 22.2778 21 21.6817 21 20.9448V5.11086C21 4.37394 20.4 3.77783 19.666 3.77783H19.669H19.67Z" fill="white"/>
</g>
<defs>
<clipPath id="clip0_10_16">
<rect width="24" height="24.6667" fill="white" transform="translate(0 0.694458)"/>
</clipPath>
</defs>
</svg>
