<?xml version="1.0" encoding="UTF-8"?>
<svg xmlns="http://www.w3.org/2000/svg" xmlns:xlink="http://www.w3.org/1999/xlink" viewBox="0 0 30 30" width="30px" height="30px">
<g id="surface32193566">
<path style=" stroke:none;fill-rule:nonzero;fill:rgb(100%,100%,100%);fill-opacity:1;" d="M 14.984375 0.988281 C 14.433594 0.996094 13.992188 1.449219 14 2 L 14 5 C 13.996094 5.359375 14.183594 5.695312 14.496094 5.878906 C 14.808594 6.058594 15.191406 6.058594 15.503906 5.878906 C 15.816406 5.695312 16.003906 5.359375 16 5 L 16 2 C 16.003906 1.730469 15.898438 1.46875 15.707031 1.277344 C 15.515625 1.085938 15.253906 0.980469 14.984375 0.988281 Z M 5.796875 4.796875 C 5.390625 4.800781 5.023438 5.046875 4.871094 5.421875 C 4.71875 5.800781 4.808594 6.230469 5.101562 6.515625 L 7.222656 8.636719 C 7.472656 8.898438 7.847656 9.003906 8.195312 8.910156 C 8.546875 8.820312 8.820312 8.546875 8.910156 8.195312 C 9.003906 7.847656 8.898438 7.472656 8.636719 7.222656 L 6.515625 5.101562 C 6.328125 4.90625 6.066406 4.796875 5.796875 4.796875 Z M 24.171875 4.796875 C 23.910156 4.804688 23.664062 4.914062 23.484375 5.101562 L 21.363281 7.222656 C 21.101562 7.472656 20.996094 7.847656 21.089844 8.195312 C 21.179688 8.546875 21.453125 8.820312 21.804688 8.910156 C 22.152344 9.003906 22.527344 8.898438 22.777344 8.636719 L 24.898438 6.515625 C 25.195312 6.226562 25.28125 5.789062 25.121094 5.410156 C 24.960938 5.027344 24.585938 4.785156 24.171875 4.796875 Z M 15 8 C 11.132812 8 8 11.132812 8 15 C 8 18.867188 11.132812 22 15 22 C 18.867188 22 22 18.867188 22 15 C 22 11.132812 18.867188 8 15 8 Z M 2 14 C 1.640625 13.996094 1.304688 14.183594 1.121094 14.496094 C 0.941406 14.808594 0.941406 15.191406 1.121094 15.503906 C 1.304688 15.816406 1.640625 16.003906 2 16 L 5 16 C 5.359375 16.003906 5.695312 15.816406 5.878906 15.503906 C 6.058594 15.191406 6.058594 14.808594 5.878906 14.496094 C 5.695312 14.183594 5.359375 13.996094 5 14 Z M 25 14 C 24.640625 13.996094 24.304688 14.183594 24.121094 14.496094 C 23.941406 14.808594 23.941406 15.191406 24.121094 15.503906 C 24.304688 15.816406 24.640625 16.003906 25 16 L 28 16 C 28.359375 16.003906 28.695312 15.816406 28.878906 15.503906 C 29.058594 15.191406 29.058594 14.808594 28.878906 14.496094 C 28.695312 14.183594 28.359375 13.996094 28 14 Z M 7.910156 21.0625 C 7.648438 21.066406 7.402344 21.175781 7.222656 21.363281 L 5.101562 23.484375 C 4.839844 23.734375 4.734375 24.109375 4.828125 24.457031 C 4.917969 24.808594 5.191406 25.082031 5.542969 25.171875 C 5.890625 25.265625 6.265625 25.160156 6.515625 24.898438 L 8.636719 22.777344 C 8.933594 22.488281 9.019531 22.050781 8.859375 21.671875 C 8.699219 21.289062 8.324219 21.046875 7.910156 21.058594 Z M 22.0625 21.0625 C 21.652344 21.0625 21.289062 21.308594 21.132812 21.683594 C 20.980469 22.0625 21.070312 22.492188 21.363281 22.777344 L 23.484375 24.898438 C 23.734375 25.160156 24.109375 25.265625 24.457031 25.171875 C 24.808594 25.082031 25.082031 24.808594 25.171875 24.457031 C 25.265625 24.109375 25.160156 23.734375 24.898438 23.484375 L 22.777344 21.363281 C 22.589844 21.167969 22.332031 21.0625 22.058594 21.0625 Z M 14.984375 23.984375 C 14.433594 23.996094 13.992188 24.449219 14 25 L 14 28 C 13.996094 28.359375 14.183594 28.695312 14.496094 28.878906 C 14.808594 29.058594 15.191406 29.058594 15.503906 28.878906 C 15.816406 28.695312 16.003906 28.359375 16 28 L 16 25 C 16.003906 24.730469 15.898438 24.46875 15.707031 24.277344 C 15.515625 24.085938 15.253906 23.980469 14.984375 23.984375 Z M 14.984375 23.984375 "/>
</g>
</svg>
