<svg width="482" height="482" viewBox="0 0 482 482" fill="none" xmlns="http://www.w3.org/2000/svg">
<path d="M477.37 457.59L347.05 327.27C377.21 292.543 395.53 247.274 395.53 197.77C395.53 88.73 306.815 0 197.76 0C88.71 0.003906 0 88.727 0 197.77C0 306.81 88.707 395.53 197.76 395.53C247.252 395.53 292.522 377.214 327.24 347.05L457.57 477.37C460.304 480.104 463.886 481.468 467.472 481.468C471.05 481.468 474.636 480.101 477.363 477.37C482.832 471.905 482.832 463.038 477.359 457.573L477.37 457.59ZM28.01 197.78C28.01 104.171 104.166 28.01 197.77 28.01C291.379 28.01 367.54 104.17 367.54 197.78C367.54 291.39 291.384 367.54 197.77 367.54C104.165 367.54 28.01 291.388 28.01 197.78Z" fill="white"/>
</svg>
