<svg width="24" height="26" viewBox="0 0 24 26" fill="none" xmlns="http://www.w3.org/2000/svg">
<g clip-path="url(#clip0_10_13)">
<path d="M22.1621 6.50758C21.3986 6.85465 20.589 7.08259 19.7601 7.18385C20.6338 6.64677 21.2878 5.80151 21.6001 4.80558C20.7801 5.30713 19.8811 5.65863 18.9441 5.84877C18.3147 5.15664 17.4804 4.69762 16.571 4.54306C15.6616 4.38851 14.728 4.54708 13.9153 4.99412C13.1026 5.44117 12.4564 6.15164 12.0772 7.01508C11.6979 7.87853 11.6068 8.84657 11.8181 9.76872C10.1552 9.68305 8.52838 9.23892 7.04334 8.46515C5.55829 7.69137 4.24818 6.60526 3.19805 5.27733C2.82634 5.93351 2.63101 6.67945 2.63205 7.43874C2.63205 8.92902 3.37005 10.2456 4.49205 11.0164C3.82806 10.995 3.17869 10.8107 2.59805 10.4789V10.5324C2.59825 11.5249 2.93242 12.4868 3.5439 13.255C4.15538 14.0232 5.00653 14.5504 5.95305 14.7473C5.33667 14.9189 4.69036 14.9443 4.06305 14.8213C4.32992 15.6756 4.85006 16.4228 5.55064 16.9581C6.25123 17.4935 7.09718 17.7903 7.97005 17.807C7.10253 18.5072 6.10923 19.0249 5.04693 19.3303C3.98464 19.6358 2.87418 19.723 1.77905 19.5871C3.69075 20.8507 5.91615 21.5215 8.18905 21.5193C15.8821 21.5193 20.0891 14.9693 20.0891 9.28874C20.0891 9.10374 20.0841 8.91669 20.0761 8.73374C20.8949 8.12547 21.6017 7.37196 22.1631 6.5086L22.1621 6.50758Z" fill="white"/>
</g>
<defs>
<clipPath id="clip0_10_13">
<rect width="24" height="24.6667" fill="white" transform="translate(0 0.694458)"/>
</clipPath>
</defs>
</svg>
