<svg width="24" height="26" viewBox="0 0 24 26" fill="none" xmlns="http://www.w3.org/2000/svg">
<g clip-path="url(#clip0_10_141)">
<path d="M22.162 6.50758C21.3986 6.85465 20.589 7.08259 19.76 7.18385C20.6338 6.64677 21.2877 5.80151 21.6 4.80558C20.78 5.30713 19.881 5.65863 18.944 5.84877C18.3146 5.15664 17.4804 4.69762 16.571 4.54306C15.6615 4.38851 14.7279 4.54708 13.9153 4.99412C13.1026 5.44117 12.4564 6.15164 12.0771 7.01508C11.6978 7.87853 11.6067 8.84657 11.818 9.76871C10.1551 9.68305 8.52833 9.23892 7.04329 8.46515C5.55824 7.69138 4.24813 6.60526 3.198 5.27733C2.82629 5.93351 2.63095 6.67945 2.632 7.43874C2.632 8.92902 3.37 10.2456 4.492 11.0164C3.82801 10.995 3.17863 10.8107 2.598 10.4789V10.5324C2.5982 11.5249 2.93237 12.4868 3.54385 13.255C4.15533 14.0232 5.00648 14.5504 5.953 14.7473C5.33661 14.9189 4.69031 14.9443 4.063 14.8213C4.32987 15.6756 4.85001 16.4228 5.55059 16.9581C6.25118 17.4935 7.09713 17.7903 7.97 17.807C7.10248 18.5072 6.10918 19.0249 5.04688 19.3303C3.98458 19.6358 2.87413 19.723 1.779 19.5871C3.6907 20.8507 5.9161 21.5215 8.189 21.5193C15.882 21.5193 20.089 14.9693 20.089 9.28874C20.089 9.10374 20.084 8.91669 20.076 8.73374C20.8949 8.12547 21.6016 7.37196 22.163 6.5086L22.162 6.50758Z" fill="#454444"/>
</g>
<defs>
<clipPath id="clip0_10_141">
<rect width="24" height="24.6667" fill="white" transform="translate(0 0.694458)"/>
</clipPath>
</defs>
</svg>
