<svg width="400" height="223" viewBox="0 0 400 223" fill="none" xmlns="http://www.w3.org/2000/svg">
<g clip-path="url(#clip0_519_1146)">
<rect width="400" height="222.11" fill="white"/>
<rect width="400" height="222.111" fill="url(#paint0_linear_519_1146)"/>
<g filter="url(#filter0_d_519_1146)">
<path d="M68 222L199.573 0H400V222H68Z" fill="#1253E0"/>
</g>
<g filter="url(#filter1_d_519_1146)">
<path d="M232.8 85.125H226.55L225.1 88H219.95L229.475 70.375H235.125L238.425 88H233.25L232.8 85.125ZM232.225 81.4L231.35 75.675L228.45 81.4H232.225ZM248.197 69.5L244.922 88H239.997L243.272 69.5H248.197ZM255.888 69.5L252.613 88H247.688L250.963 69.5H255.888ZM222.1 109.15C222.4 107.417 223.033 105.875 224 104.525C224.967 103.158 226.183 102.1 227.65 101.35C229.117 100.583 230.717 100.2 232.45 100.2C233.9 100.2 235.167 100.467 236.25 101C237.333 101.533 238.175 102.292 238.775 103.275C239.375 104.258 239.7 105.417 239.75 106.75H234.475C234.275 106.1 233.925 105.6 233.425 105.25C232.925 104.9 232.308 104.725 231.575 104.725C230.442 104.725 229.467 105.125 228.65 105.925C227.833 106.725 227.308 107.8 227.075 109.15C227.008 109.5 226.975 109.875 226.975 110.275C226.975 111.308 227.242 112.125 227.775 112.725C228.325 113.308 229.075 113.6 230.025 113.6C230.758 113.6 231.433 113.425 232.05 113.075C232.683 112.725 233.208 112.225 233.625 111.575H238.925C238.125 113.592 236.867 115.192 235.15 116.375C233.433 117.542 231.475 118.125 229.275 118.125C227.758 118.125 226.442 117.833 225.325 117.25C224.225 116.667 223.383 115.842 222.8 114.775C222.217 113.708 221.925 112.475 221.925 111.075C221.925 110.425 221.983 109.783 222.1 109.15ZM246.595 118.175C245.379 118.175 244.295 117.933 243.345 117.45C242.412 116.967 241.687 116.283 241.17 115.4C240.654 114.517 240.395 113.483 240.395 112.3C240.395 110.7 240.77 109.25 241.52 107.95C242.287 106.65 243.337 105.633 244.67 104.9C246.004 104.167 247.495 103.8 249.145 103.8C250.362 103.8 251.437 104.042 252.37 104.525C253.32 105.008 254.054 105.7 254.57 106.6C255.104 107.483 255.37 108.517 255.37 109.7C255.37 111.317 254.987 112.775 254.22 114.075C253.454 115.358 252.404 116.367 251.07 117.1C249.737 117.817 248.245 118.175 246.595 118.175ZM247.345 113.95C247.929 113.95 248.445 113.767 248.895 113.4C249.362 113.033 249.712 112.558 249.945 111.975C250.195 111.392 250.32 110.792 250.32 110.175C250.32 109.475 250.137 108.942 249.77 108.575C249.42 108.208 248.962 108.025 248.395 108.025C247.795 108.025 247.27 108.208 246.82 108.575C246.387 108.942 246.045 109.417 245.795 110C245.562 110.583 245.445 111.192 245.445 111.825C245.445 112.525 245.62 113.058 245.97 113.425C246.32 113.775 246.779 113.95 247.345 113.95ZM276.789 103.85C278.306 103.85 279.472 104.25 280.289 105.05C281.122 105.85 281.539 106.958 281.539 108.375C281.539 108.925 281.497 109.408 281.414 109.825L279.964 118H275.089L276.414 110.475C276.447 110.208 276.464 110.025 276.464 109.925C276.464 109.342 276.289 108.892 275.939 108.575C275.606 108.258 275.131 108.1 274.514 108.1C273.847 108.1 273.272 108.283 272.789 108.65C272.322 109 272.006 109.5 271.839 110.15L270.439 118H265.539L266.864 110.475C266.897 110.342 266.914 110.142 266.914 109.875C266.914 109.308 266.739 108.875 266.389 108.575C266.056 108.258 265.589 108.1 264.989 108.1C264.289 108.1 263.697 108.3 263.214 108.7C262.731 109.083 262.406 109.633 262.239 110.35L260.889 118H255.964L258.464 103.975H263.364L263.039 105.8C263.556 105.2 264.189 104.725 264.939 104.375C265.706 104.025 266.547 103.85 267.464 103.85C268.497 103.85 269.372 104.075 270.089 104.525C270.822 104.975 271.347 105.608 271.664 106.425C272.297 105.658 273.064 105.042 273.964 104.575C274.864 104.092 275.806 103.85 276.789 103.85ZM289.698 105.925C290.198 105.275 290.832 104.758 291.598 104.375C292.365 103.992 293.223 103.8 294.173 103.8C295.64 103.8 296.815 104.283 297.698 105.25C298.598 106.217 299.048 107.542 299.048 109.225C299.048 109.758 298.998 110.342 298.898 110.975C298.632 112.425 298.14 113.7 297.423 114.8C296.707 115.883 295.84 116.717 294.823 117.3C293.823 117.883 292.765 118.175 291.648 118.175C290.698 118.175 289.907 117.983 289.273 117.6C288.657 117.217 288.207 116.7 287.923 116.05L286.398 124.7H281.498L285.148 103.975H290.048L289.698 105.925ZM293.898 110.975C293.948 110.725 293.973 110.483 293.973 110.25C293.973 109.567 293.773 109.033 293.373 108.65C292.99 108.267 292.49 108.075 291.873 108.075C291.157 108.075 290.498 108.333 289.898 108.85C289.315 109.367 288.948 110.075 288.798 110.975C288.748 111.225 288.723 111.458 288.723 111.675C288.723 112.375 288.915 112.925 289.298 113.325C289.698 113.708 290.207 113.9 290.823 113.9C291.557 113.9 292.215 113.642 292.798 113.125C293.382 112.592 293.748 111.875 293.898 110.975ZM306.166 118.175C304.949 118.175 303.866 117.933 302.916 117.45C301.982 116.967 301.257 116.283 300.741 115.4C300.224 114.517 299.966 113.483 299.966 112.3C299.966 110.7 300.341 109.25 301.091 107.95C301.857 106.65 302.907 105.633 304.241 104.9C305.574 104.167 307.066 103.8 308.716 103.8C309.932 103.8 311.007 104.042 311.941 104.525C312.891 105.008 313.624 105.7 314.141 106.6C314.674 107.483 314.941 108.517 314.941 109.7C314.941 111.317 314.557 112.775 313.791 114.075C313.024 115.358 311.974 116.367 310.641 117.1C309.307 117.817 307.816 118.175 306.166 118.175ZM306.916 113.95C307.499 113.95 308.016 113.767 308.466 113.4C308.932 113.033 309.282 112.558 309.516 111.975C309.766 111.392 309.891 110.792 309.891 110.175C309.891 109.475 309.707 108.942 309.341 108.575C308.991 108.208 308.532 108.025 307.966 108.025C307.366 108.025 306.841 108.208 306.391 108.575C305.957 108.942 305.616 109.417 305.366 110C305.132 110.583 305.016 111.192 305.016 111.825C305.016 112.525 305.191 113.058 305.541 113.425C305.891 113.775 306.349 113.95 306.916 113.95ZM327.234 103.85C328.601 103.85 329.668 104.25 330.434 105.05C331.218 105.833 331.609 106.925 331.609 108.325C331.609 108.792 331.559 109.292 331.459 109.825L330.009 118H325.109L326.434 110.475C326.484 110.225 326.509 110 326.509 109.8C326.509 109.2 326.334 108.733 325.984 108.4C325.651 108.067 325.176 107.9 324.559 107.9C323.859 107.9 323.268 108.117 322.784 108.55C322.301 108.983 321.976 109.583 321.809 110.35L320.459 118H315.534L318.034 103.975H322.934L322.584 105.975C323.134 105.342 323.809 104.833 324.609 104.45C325.409 104.05 326.284 103.85 327.234 103.85ZM341.523 103.8C343.356 103.8 344.806 104.292 345.873 105.275C346.956 106.258 347.498 107.6 347.498 109.3C347.498 109.867 347.456 110.367 347.373 110.8C347.273 111.333 347.173 111.717 347.073 111.95H337.798C337.781 112.05 337.773 112.2 337.773 112.4C337.773 113.033 337.923 113.5 338.223 113.8C338.54 114.1 338.956 114.25 339.473 114.25C340.29 114.25 340.94 113.883 341.423 113.15H346.623C346.24 114.117 345.665 114.983 344.898 115.75C344.148 116.5 343.256 117.092 342.223 117.525C341.206 117.958 340.123 118.175 338.973 118.175C337.14 118.175 335.681 117.675 334.598 116.675C333.515 115.675 332.973 114.3 332.973 112.55C332.973 112.05 333.023 111.525 333.123 110.975C333.39 109.508 333.915 108.242 334.698 107.175C335.498 106.092 336.481 105.258 337.648 104.675C338.831 104.092 340.123 103.8 341.523 103.8ZM342.548 109.75C342.581 109.517 342.598 109.367 342.598 109.3C342.598 108.767 342.431 108.367 342.098 108.1C341.765 107.817 341.331 107.675 340.798 107.675C340.181 107.675 339.648 107.85 339.198 108.2C338.748 108.55 338.415 109.067 338.198 109.75H342.548ZM359.778 103.85C361.145 103.85 362.211 104.25 362.978 105.05C363.761 105.833 364.153 106.925 364.153 108.325C364.153 108.792 364.103 109.292 364.003 109.825L362.553 118H357.653L358.978 110.475C359.028 110.225 359.053 110 359.053 109.8C359.053 109.2 358.878 108.733 358.528 108.4C358.195 108.067 357.72 107.9 357.103 107.9C356.403 107.9 355.811 108.117 355.328 108.55C354.845 108.983 354.52 109.583 354.353 110.35L353.003 118H348.078L350.578 103.975H355.478L355.128 105.975C355.678 105.342 356.353 104.833 357.153 104.45C357.953 104.05 358.828 103.85 359.778 103.85ZM371.842 112.75C371.825 112.833 371.817 112.933 371.817 113.05C371.817 113.317 371.892 113.517 372.042 113.65C372.208 113.767 372.475 113.825 372.842 113.825H374.267L373.517 118H371.367C368.317 118 366.792 116.717 366.792 114.15C366.792 113.717 366.842 113.225 366.942 112.675L367.767 108.05H366.042L366.767 103.975H368.492L369.092 100.575H374.017L373.417 103.975H375.942L375.217 108.05H372.692L371.842 112.75ZM381.864 118.175C380.698 118.175 379.656 118 378.739 117.65C377.823 117.3 377.106 116.808 376.589 116.175C376.073 115.525 375.814 114.783 375.814 113.95C375.814 113.8 375.831 113.575 375.864 113.275H380.589C380.573 113.742 380.714 114.1 381.014 114.35C381.314 114.6 381.731 114.725 382.264 114.725C382.681 114.725 383.023 114.642 383.289 114.475C383.573 114.308 383.714 114.092 383.714 113.825C383.714 113.508 383.539 113.267 383.189 113.1C382.839 112.917 382.256 112.692 381.439 112.425C380.489 112.125 379.706 111.833 379.089 111.55C378.473 111.267 377.931 110.85 377.464 110.3C377.014 109.75 376.789 109.042 376.789 108.175C376.789 107.342 377.031 106.592 377.514 105.925C378.014 105.258 378.714 104.742 379.614 104.375C380.514 103.992 381.556 103.8 382.739 103.8C384.006 103.8 385.098 104.017 386.014 104.45C386.948 104.867 387.639 105.45 388.089 106.2C388.556 106.95 388.764 107.783 388.714 108.7H384.314C384.331 108.25 384.198 107.9 383.914 107.65C383.631 107.383 383.223 107.25 382.689 107.25C382.306 107.25 381.989 107.333 381.739 107.5C381.489 107.667 381.364 107.883 381.364 108.15C381.364 108.467 381.539 108.717 381.889 108.9C382.256 109.083 382.864 109.317 383.714 109.6C384.648 109.9 385.423 110.2 386.039 110.5C386.673 110.783 387.214 111.192 387.664 111.725C388.114 112.242 388.339 112.908 388.339 113.725C388.339 115.108 387.739 116.2 386.539 117C385.339 117.783 383.781 118.175 381.864 118.175Z" fill="white"/>
</g>
<mask id="mask0_519_1146" style="mask-type:alpha" maskUnits="userSpaceOnUse" x="352" y="13" width="24" height="24">
<circle r="11.6056" transform="matrix(-4.37114e-08 1 1 4.37114e-08 363.959 24.6056)" fill="#C4C4C4"/>
</mask>
<g mask="url(#mask0_519_1146)">
<path d="M356.117 8.81604C356.117 8.81604 355.226 13.624 352.109 14.8645C349.121 16.0508 348.318 20.9379 348.318 20.9379" stroke="url(#paint1_linear_519_1146)" stroke-width="0.25" stroke-miterlimit="10"/>
<path d="M357.615 8.81604C357.615 8.81604 356.587 14.7146 352.825 16.234C349.233 17.6826 348.318 23.6728 348.318 23.6728" stroke="url(#paint2_linear_519_1146)" stroke-width="0.25" stroke-miterlimit="10"/>
<path d="M359.118 8.81604C359.118 8.81604 357.948 15.8011 353.549 17.5994C349.342 19.3144 348.318 26.4077 348.318 26.4077" stroke="url(#paint3_linear_519_1146)" stroke-width="0.25" stroke-miterlimit="10"/>
<path d="M360.616 8.81604C360.616 8.81604 359.309 16.8917 354.265 18.9689C349.454 20.9462 348.318 29.1426 348.318 29.1426" stroke="url(#paint4_linear_519_1146)" stroke-width="0.25" stroke-miterlimit="10"/>
<path d="M362.114 8.81604C362.114 8.81604 360.67 17.9824 354.985 20.3384C349.566 22.578 348.318 31.8734 348.318 31.8734" stroke="url(#paint5_linear_519_1146)" stroke-width="0.25" stroke-miterlimit="10"/>
<path d="M363.616 8.81604C363.616 8.81604 362.035 19.0688 355.705 21.7038C349.674 24.2139 348.318 34.6083 348.318 34.6083" stroke="url(#paint6_linear_519_1146)" stroke-width="0.25" stroke-miterlimit="10"/>
<path d="M365.115 8.81604C365.115 8.81604 363.392 20.1595 356.425 23.0734C349.787 25.8457 348.318 37.3432 348.318 37.3432" stroke="url(#paint7_linear_519_1146)" stroke-width="0.25" stroke-miterlimit="10"/>
<path d="M366.613 8.81604C366.613 8.81604 364.753 21.2501 357.141 24.4387C349.899 27.4775 348.318 40.0781 348.318 40.0781" stroke="url(#paint8_linear_519_1146)" stroke-width="0.25" stroke-miterlimit="10"/>
<path d="M368.115 8.81604C368.115 8.81604 366.118 22.3365 357.865 25.8083C350.007 29.1093 348.318 42.8088 348.318 42.8088" stroke="url(#paint9_linear_519_1146)" stroke-width="0.25" stroke-miterlimit="10"/>
<path d="M369.613 8.81604C369.613 8.81604 367.478 23.4272 358.585 27.1737C350.12 30.7411 348.318 45.5437 348.318 45.5437" stroke="url(#paint10_linear_519_1146)" stroke-width="0.25" stroke-miterlimit="10"/>
<path d="M371.116 8.81604C371.116 8.81604 368.839 24.5178 359.305 28.5432C350.232 32.3729 348.318 48.2786 348.318 48.2786" stroke="url(#paint11_linear_519_1146)" stroke-width="0.25" stroke-miterlimit="10"/>
<path d="M372.614 8.81604C372.614 8.81604 370.2 25.6043 360.025 29.9085C350.34 34.0047 348.318 51.0135 348.318 51.0135" stroke="url(#paint12_linear_519_1146)" stroke-width="0.25" stroke-miterlimit="10"/>
<path d="M374.112 8.81604C374.112 8.81604 371.561 26.6949 360.741 31.2781C350.453 35.6365 348.318 53.7484 348.318 53.7484" stroke="url(#paint13_linear_519_1146)" stroke-width="0.25" stroke-miterlimit="10"/>
<path d="M375.615 8.81604C375.615 8.81604 372.922 27.7856 361.465 32.6476C350.565 37.2682 348.318 56.4792 348.318 56.4792" stroke="url(#paint14_linear_519_1146)" stroke-width="0.25" stroke-miterlimit="10"/>
<path d="M377.113 8.81604C377.113 8.81604 374.283 28.872 362.181 34.013C350.673 38.9 348.318 59.2141 348.318 59.2141" stroke="url(#paint15_linear_519_1146)" stroke-width="0.25" stroke-miterlimit="10"/>
<path d="M378.611 8.81604C378.611 8.81604 375.644 29.9627 362.901 35.3825C350.786 40.5318 348.318 61.949 348.318 61.949" stroke="url(#paint16_linear_519_1146)" stroke-width="0.25" stroke-miterlimit="10"/>
<path d="M380.114 8.81604C380.114 8.81604 377.009 31.0533 363.621 36.7479C350.898 42.1636 348.318 64.6839 348.318 64.6839" stroke="url(#paint17_linear_519_1146)" stroke-width="0.25" stroke-miterlimit="10"/>
<path d="M381.612 8.81604C381.612 8.81604 378.366 32.1398 364.341 38.1174C351.006 43.7954 348.318 67.4147 348.318 67.4147" stroke="url(#paint18_linear_519_1146)" stroke-width="0.25" stroke-miterlimit="10"/>
</g>
<path fill-rule="evenodd" clip-rule="evenodd" d="M340.112 18.0548H338L338.988 25.9609H340.826L343.053 21.1663H343.115L343.737 25.9609H345.578L349.187 18.0548H347.08L345.026 23.247H344.964L344.455 18.0548H342.733L340.517 23.2354H340.451L340.112 18.0548ZM342.835 18.2101L340.619 23.3907H340.306L339.966 18.2101H338.176L339.125 25.8056H340.727L342.954 21.011H343.251L343.873 25.8056H345.478L348.946 18.2101H347.185L345.131 23.4023H344.823L344.314 18.2101H342.835ZM350.432 20.3402C349.948 20.5949 349.547 20.9527 349.228 21.4133C348.911 21.8714 348.702 22.4068 348.599 23.0193C348.493 23.6498 348.523 24.1941 348.687 24.6522C348.852 25.1077 349.138 25.459 349.544 25.7061C349.954 25.9506 350.468 26.0728 351.089 26.0728C351.608 26.0728 352.077 25.9943 352.494 25.8373C352.913 25.6778 353.268 25.4552 353.559 25.1695C353.811 24.9199 354.006 24.6327 354.144 24.3078C354.165 24.2575 354.185 24.2063 354.204 24.1542L352.482 24.104C352.41 24.2353 352.316 24.3472 352.2 24.4399C352.087 24.53 351.958 24.5982 351.814 24.6445C351.67 24.6882 351.516 24.7101 351.351 24.7101C351.104 24.7101 350.902 24.6638 350.745 24.5711C350.588 24.4759 350.477 24.3395 350.413 24.1619C350.356 24.0051 350.34 23.8201 350.366 23.6069C350.369 23.5788 350.373 23.5502 350.378 23.5211L350.391 23.4516H354.339L354.412 22.9807C354.495 22.4943 354.497 22.0632 354.42 21.6874C354.343 21.3117 354.197 20.9951 353.984 20.7378C353.77 20.4778 353.5 20.2823 353.173 20.151C352.846 20.0197 352.472 19.9541 352.05 19.9541C351.455 19.9541 350.916 20.0828 350.432 20.3402ZM354.206 23.2963L354.259 22.9547C354.339 22.4821 354.34 22.0711 354.268 21.7187C354.195 21.3642 354.059 21.072 353.864 20.837C353.668 20.5981 353.419 20.4171 353.115 20.2951C352.81 20.1726 352.456 20.1094 352.05 20.1094C351.479 20.1094 350.965 20.2328 350.505 20.4773C350.044 20.7201 349.661 21.0611 349.356 21.5018C349.053 21.939 348.851 22.4524 348.752 23.045C348.649 23.6571 348.68 24.1731 348.833 24.5995C348.986 25.0221 349.249 25.3448 349.625 25.5731C350.003 25.7993 350.488 25.9175 351.089 25.9175C351.593 25.9175 352.042 25.8414 352.439 25.6921C352.84 25.5394 353.176 25.3279 353.45 25.0589C353.673 24.8381 353.848 24.5864 353.976 24.303L352.569 24.2619C352.495 24.3758 352.404 24.4758 352.297 24.5612C352.169 24.6634 352.023 24.7405 351.862 24.7923L351.859 24.7931C351.699 24.8417 351.53 24.8654 351.351 24.8654C351.086 24.8654 350.854 24.8158 350.666 24.7049L350.664 24.7039C350.476 24.5898 350.343 24.4247 350.267 24.2148C350.202 24.0346 350.185 23.8305 350.21 23.6069H349.007L349.23 22.2H350.473C350.524 22.0387 350.602 21.8898 350.707 21.7542C350.847 21.575 351.017 21.432 351.216 21.3264C351.422 21.2166 351.642 21.1615 351.876 21.1615C352.104 21.1615 352.308 21.2115 352.479 21.3201C352.651 21.4249 352.777 21.5728 352.854 21.7598C352.931 21.9476 352.948 22.1558 352.914 22.3789L352.893 22.5106H350.72L350.577 23.2963H354.206ZM350.404 22.5106L350.261 23.2963H349.371L349.496 22.5106H350.404ZM350.592 22.3553C350.603 22.3021 350.618 22.2503 350.637 22.2C350.682 22.0741 350.746 21.9573 350.83 21.8496C350.956 21.6874 351.109 21.5588 351.289 21.4635C351.472 21.3657 351.668 21.3168 351.876 21.3168C352.082 21.3168 352.256 21.3619 352.397 21.4519C352.541 21.5395 352.646 21.6617 352.71 21.8187C352.774 21.9757 352.791 22.1545 352.76 22.3553H350.592ZM358.409 18.0548H356.521L355.208 25.9609H357.077L357.231 24.9996H357.305C357.306 25.0037 357.307 25.0078 357.308 25.0119C357.322 25.0666 357.34 25.1203 357.361 25.1729C357.408 25.2916 357.472 25.405 357.552 25.5131C357.673 25.6726 357.834 25.8013 358.034 25.8991C358.238 25.9969 358.489 26.0458 358.787 26.0458C359.225 26.0458 359.641 25.9326 360.038 25.7061C360.437 25.4796 360.78 25.1399 361.069 24.687C361.357 24.234 361.556 23.6717 361.667 23C361.783 22.3025 361.767 21.7286 361.621 21.2782C361.474 20.8279 361.24 20.4946 360.918 20.2784C360.596 20.0622 360.23 19.9541 359.818 19.9541C359.506 19.9541 359.23 20.0082 358.988 20.1163C358.746 20.2218 358.539 20.3582 358.366 20.5255C358.272 20.6182 358.188 20.7129 358.115 20.8095C358.056 20.8873 358.003 20.9663 357.957 21.0466H357.918L358.409 18.0548ZM358.475 20.6364C358.314 20.7951 358.187 20.9576 358.092 21.1237L358.047 21.2019H357.736L358.226 18.2101H356.653L355.392 25.8056H356.945L357.099 24.8443H357.426L357.455 24.9615C357.496 25.1232 357.569 25.2758 357.676 25.4198C357.78 25.5574 357.921 25.6711 358.102 25.7593C358.278 25.8442 358.505 25.8905 358.787 25.8905C359.196 25.8905 359.587 25.7849 359.961 25.5713C360.334 25.3593 360.661 25.0388 360.938 24.6036C361.212 24.1724 361.406 23.6311 361.514 22.9747C361.627 22.2907 361.609 21.7442 361.473 21.3263C361.335 20.9014 361.118 20.6001 360.831 20.4073C360.537 20.2094 360.201 20.1094 359.818 20.1094C359.524 20.1094 359.27 20.1603 359.051 20.258L359.05 20.2586C358.824 20.3573 358.633 20.4836 358.475 20.6364ZM357.826 24.382C357.687 24.2507 357.593 24.0667 357.544 23.8299C357.498 23.5932 357.5 23.3152 357.552 22.9961C357.603 22.6718 357.691 22.3926 357.814 22.1584C357.94 21.9242 358.095 21.7441 358.277 21.6179C358.463 21.4918 358.671 21.4288 358.903 21.4288C359.137 21.4288 359.324 21.4931 359.463 21.6218C359.602 21.7505 359.693 21.9319 359.737 22.1661C359.783 22.4003 359.78 22.677 359.729 22.9961C359.678 23.3152 359.59 23.5932 359.466 23.8299C359.343 24.0667 359.19 24.2507 359.007 24.382C358.824 24.5107 358.617 24.575 358.386 24.575C358.154 24.575 357.967 24.5107 357.826 24.382ZM359.889 22.137C359.94 22.3942 359.936 22.69 359.882 23.0208C359.829 23.3531 359.737 23.6475 359.604 23.9018C359.471 24.1561 359.304 24.3603 359.098 24.5081L359.097 24.509C358.887 24.6568 358.648 24.7303 358.386 24.7303C358.124 24.7303 357.897 24.6568 357.721 24.4969L357.719 24.4949C357.552 24.3366 357.446 24.121 357.392 23.8614L357.392 23.8598C357.341 23.6001 357.345 23.303 357.398 22.9717" fill="#39EFAD"/>
<path fill-rule="evenodd" clip-rule="evenodd" d="M365.212 23.6444H368.814L369.076 22.0925H363.564L362.251 29.9986H367.764L368.026 28.4467H364.424L364.687 26.8215H368.007L368.269 25.2658H364.949L365.212 23.6444ZM368.086 25.4211H364.767L365.08 23.4891H368.682L368.892 22.2478H363.695L362.434 29.8433H367.632L367.842 28.602H364.242L364.555 26.6662H367.876L368.086 25.4211ZM371.881 24.069H369.966L371.109 27.0338L368.893 29.9986H370.808L372.193 28.0298L372.958 29.9986H374.845L373.622 27.0338L375.772 24.069H373.869L372.529 26.0224L371.881 24.069ZM373.951 24.2243L372.48 26.3682L371.769 24.2243H370.192L371.284 27.0581L369.203 29.8433H370.727L372.233 27.7034L373.064 29.8433H374.613L373.445 27.0129L375.467 24.2243H373.951ZM378.848 24.069H376.979L375.613 32.2222H377.508L378.033 29.0374H378.087C378.088 29.0405 378.089 29.0436 378.09 29.0467C378.107 29.1137 378.129 29.1792 378.157 29.2431C378.202 29.35 378.261 29.4526 378.334 29.5508C378.453 29.7104 378.613 29.839 378.817 29.9368C379.023 30.0346 379.275 30.0835 379.573 30.0835C380.008 30.0835 380.424 29.9703 380.82 29.7438C381.217 29.5173 381.559 29.1776 381.847 28.7247C382.138 28.2717 382.339 27.7094 382.449 27.0377C382.565 26.3402 382.55 25.7663 382.403 25.316C382.256 24.8656 382.022 24.5323 381.7 24.3161C381.379 24.0999 381.012 23.9918 380.6 23.9918C380.289 23.9918 380.012 24.0459 379.77 24.154C379.528 24.2595 379.321 24.3959 379.149 24.5632C379.044 24.6665 378.952 24.7722 378.872 24.8805C378.823 24.9475 378.779 25.0154 378.74 25.0843H378.682L378.848 24.069ZM379.257 24.6743C379.096 24.8329 378.969 24.9954 378.874 25.1614L378.83 25.2396H378.499L378.665 24.2243H377.111L375.796 32.0669H377.376L377.901 28.8821H378.208L378.238 28.9992C378.279 29.1612 378.352 29.3141 378.459 29.4583C378.56 29.5949 378.7 29.7084 378.884 29.7968C379.063 29.882 379.291 29.9282 379.573 29.9282C379.98 29.9282 380.369 29.8227 380.743 29.609C381.114 29.397 381.439 29.0767 381.716 28.6413L381.716 28.6408C381.993 28.2097 382.188 27.6686 382.296 27.0124C382.41 26.3284 382.391 25.7819 382.255 25.364C382.117 24.9391 381.901 24.6378 381.614 24.445C381.319 24.2471 380.983 24.1471 380.6 24.1471C380.307 24.1471 380.052 24.198 379.834 24.2958L379.832 24.2963C379.606 24.3951 379.415 24.5214 379.257 24.6743ZM378.608 28.4197C378.467 28.2884 378.373 28.1044 378.326 27.8677C378.28 27.6309 378.283 27.3529 378.334 27.0338C378.386 26.7095 378.473 26.4303 378.597 26.1961C378.72 25.9619 378.875 25.7818 379.06 25.6557C379.248 25.5296 379.456 25.4665 379.685 25.4665C379.92 25.4665 380.106 25.5308 380.245 25.6595C380.384 25.7882 380.475 25.9696 380.519 26.2038C380.566 26.438 380.564 26.7147 380.515 27.0338C380.459 27.3529 380.369 27.6309 380.245 27.8677C380.122 28.1044 379.968 28.2884 379.786 28.4197C379.606 28.5484 379.4 28.6127 379.168 28.6127C378.939 28.6127 378.752 28.5484 378.608 28.4197ZM378.181 27.0094C378.127 27.3407 378.123 27.6379 378.174 27.8975C378.225 28.1584 378.332 28.3749 378.503 28.5336L378.505 28.5355C378.683 28.6942 378.908 28.768 379.168 28.768C379.43 28.768 379.668 28.6945 379.876 28.5461L379.876 28.5458C380.082 28.398 380.25 28.1938 380.383 27.9395C380.515 27.6861 380.609 27.3925 380.668 27.061L380.669 27.0573C380.72 26.7266 380.722 26.4312 380.672 26.1745C380.623 25.9164 380.52 25.702 380.351 25.5456C380.177 25.3844 379.949 25.3112 379.685 25.3112C379.426 25.3112 379.187 25.3832 378.973 25.5267L378.973 25.5273C378.763 25.67 378.593 25.8711 378.459 26.1237C378.326 26.376 378.234 26.6722 378.181 27.0094ZM385.373 24.3779C384.889 24.6327 384.487 24.9904 384.168 25.4511C383.852 25.9092 383.642 26.4445 383.539 27.057C383.433 27.6875 383.463 28.2318 383.628 28.6899C383.792 29.1455 384.078 29.4967 384.485 29.7438C384.894 29.9883 385.409 30.1105 386.029 30.1105C386.549 30.1105 387.017 30.0321 387.434 29.8751C387.854 29.7155 388.209 29.4929 388.499 29.2072C388.751 28.9576 388.946 28.6704 389.084 28.3456C389.106 28.2953 389.126 28.244 389.144 28.1919L387.422 28.1418C387.35 28.273 387.256 28.385 387.141 28.4776C387.027 28.5677 386.899 28.6359 386.755 28.6822C386.61 28.726 386.456 28.7478 386.291 28.7478C386.044 28.7478 385.842 28.7015 385.685 28.6089C385.528 28.5136 385.418 28.3772 385.353 28.1997C385.296 28.0428 385.281 27.8578 385.306 27.6446C385.31 27.6165 385.314 27.5879 385.319 27.5588L385.331 27.4893H389.279L389.353 27.0184C389.435 26.532 389.438 26.1009 389.36 25.7252C389.283 25.3494 389.138 25.0329 388.924 24.7755C388.711 24.5156 388.44 24.32 388.113 24.1887C387.787 24.0575 387.412 23.9918 386.99 23.9918C386.396 23.9918 385.856 24.1205 385.373 24.3779ZM389.146 27.334L389.2 26.9925C389.28 26.5198 389.281 26.1088 389.208 25.7564C389.135 25.4019 389 25.1097 388.805 24.8747L388.804 24.8741C388.608 24.6353 388.359 24.4548 388.056 24.3328C387.75 24.2103 387.396 24.1471 386.99 24.1471C386.419 24.1471 385.905 24.2706 385.446 24.515L385.445 24.5153C384.984 24.7581 384.601 25.0988 384.296 25.5395C383.994 25.9767 383.792 26.4901 383.692 27.0826C383.59 27.6948 383.62 28.2108 383.774 28.6372C383.927 29.0598 384.189 29.3825 384.565 29.6107C384.944 29.837 385.429 29.9553 386.029 29.9553C386.533 29.9553 386.982 29.8792 387.379 29.7298C387.78 29.5772 388.117 29.3657 388.39 29.0966C388.613 28.8758 388.788 28.6241 388.917 28.3407L387.509 28.2996C387.435 28.4136 387.344 28.5135 387.238 28.5989L387.237 28.5991C387.109 28.7014 386.963 28.7783 386.802 28.8301L386.8 28.8308C386.64 28.8794 386.47 28.9031 386.291 28.9031C386.026 28.9031 385.794 28.8535 385.606 28.7426L385.605 28.7416C385.417 28.6275 385.283 28.4624 385.207 28.2526C385.142 28.0723 385.125 27.8682 385.15 27.6446H383.948L384.171 26.2377H385.413C385.464 26.0764 385.542 25.9276 385.648 25.7919C385.787 25.6127 385.957 25.4697 386.157 25.3641C386.362 25.2543 386.583 25.1993 386.816 25.1993C387.044 25.1993 387.248 25.2492 387.42 25.3578C387.592 25.4626 387.717 25.6105 387.794 25.7975C387.871 25.9853 387.888 26.1935 387.854 26.4166L387.834 26.5483H385.66L385.517 27.334H389.146ZM385.345 26.5483L385.202 27.334H384.311L384.436 26.5483H385.345ZM385.532 26.393C385.544 26.3398 385.559 26.288 385.577 26.2377C385.622 26.1118 385.686 25.995 385.77 25.8873C385.896 25.7252 386.049 25.5965 386.23 25.5012C386.412 25.4035 386.608 25.3546 386.816 25.3546C387.022 25.3546 387.196 25.3996 387.338 25.4897C387.482 25.5772 387.586 25.6994 387.65 25.8564C387.715 26.0134 387.731 26.1923 387.7 26.393H385.532Z" fill="#39EFAD"/>
<path d="M339.609 25.3397L338.621 17.4336H340.733L341.073 22.6142H341.138L343.354 17.4336H345.076L345.585 22.6258H345.647L347.701 17.4336H349.809L346.199 25.3397H344.358L343.736 20.5451H343.674L341.447 25.3397H339.609Z" fill="white"/>
<path d="M351.71 25.4516C351.09 25.4516 350.575 25.3294 350.166 25.0849C349.759 24.8378 349.473 24.4865 349.309 24.031C349.144 23.5729 349.114 23.0286 349.22 22.398C349.323 21.7855 349.533 21.2502 349.849 20.7921C350.168 20.3315 350.57 19.9737 351.053 19.7189C351.537 19.4616 352.076 19.3329 352.671 19.3329C353.093 19.3329 353.468 19.3985 353.794 19.5298C354.121 19.661 354.391 19.8566 354.605 20.1166C354.819 20.3739 354.964 20.6905 355.041 21.0662C355.118 21.442 355.116 21.873 355.034 22.3594L354.96 22.8304H349.81L349.984 21.7341H353.381C353.412 21.5333 353.395 21.3545 353.331 21.1975C353.267 21.0405 353.163 20.9182 353.018 20.8307C352.877 20.7407 352.703 20.6956 352.497 20.6956C352.289 20.6956 352.093 20.7445 351.91 20.8423C351.73 20.9375 351.577 21.0662 351.451 21.2284C351.325 21.3905 351.243 21.5732 351.204 21.7765L350.999 22.8999C350.958 23.1495 350.97 23.3631 351.034 23.5407C351.099 23.7183 351.209 23.8547 351.366 23.9499C351.523 24.0426 351.725 24.0889 351.972 24.0889C352.137 24.0889 352.291 24.067 352.436 24.0233C352.58 23.9769 352.708 23.9087 352.822 23.8187C352.937 23.726 353.031 23.6141 353.103 23.4828L354.825 23.533C354.686 23.9216 354.471 24.26 354.18 24.5483C353.89 24.834 353.534 25.0566 353.115 25.2161C352.698 25.3731 352.23 25.4516 351.71 25.4516Z" fill="white"/>
<path d="M355.83 25.3397L357.142 17.4336H359.03L358.54 20.4254H358.578C358.681 20.2452 358.818 20.0715 358.987 19.9042C359.16 19.737 359.367 19.6006 359.609 19.495C359.851 19.3869 360.128 19.3329 360.439 19.3329C360.851 19.3329 361.217 19.441 361.539 19.6572C361.861 19.8734 362.095 20.2066 362.242 20.657C362.388 21.1074 362.404 21.6813 362.288 22.3787C362.177 23.0505 361.978 23.6128 361.69 24.0657C361.401 24.5187 361.058 24.8584 360.659 25.0849C360.263 25.3114 359.846 25.4246 359.408 25.4246C359.11 25.4246 358.859 25.3757 358.655 25.2779C358.455 25.1801 358.294 25.0514 358.173 24.8919C358.055 24.7323 357.972 24.5612 357.926 24.3784H357.853L357.698 25.3397H355.83ZM358.173 22.3749C358.121 22.694 358.119 22.972 358.165 23.2087C358.214 23.4455 358.308 23.6295 358.447 23.7608C358.589 23.8894 358.775 23.9538 359.007 23.9538C359.238 23.9538 359.446 23.8894 359.628 23.7608C359.811 23.6295 359.964 23.4455 360.088 23.2087C360.211 22.972 360.299 22.694 360.35 22.3749C360.402 22.0558 360.404 21.7791 360.358 21.5449C360.314 21.3107 360.223 21.1293 360.084 21.0006C359.945 20.8719 359.758 20.8076 359.524 20.8076C359.292 20.8076 359.084 20.8706 358.899 20.9967C358.716 21.1228 358.562 21.303 358.435 21.5372C358.312 21.7714 358.224 22.0506 358.173 22.3749Z" fill="white"/>
<path d="M362.872 29.3774L364.185 21.4713H369.697L369.435 23.0232H365.833L365.571 24.6445H368.891L368.628 26.2003H365.308L365.046 27.8255H368.647L368.385 29.3774H362.872Z" fill="white"/>
<path d="M372.502 23.4478L373.15 25.4012L374.49 23.4478H376.393L374.243 26.4126L375.467 29.3774H373.579L372.815 27.4086L371.429 29.3774H369.514L371.73 26.4126L370.587 23.4478H372.502Z" fill="white"/>
<path d="M376.234 31.601L377.6 23.4478H379.469L379.303 24.4631H379.361C379.464 24.283 379.6 24.1092 379.77 23.942C379.942 23.7747 380.15 23.6383 380.391 23.5328C380.633 23.4247 380.91 23.3706 381.221 23.3706C381.633 23.3706 382 23.4787 382.322 23.6949C382.643 23.9111 382.878 24.2444 383.024 24.6947C383.171 25.1451 383.186 25.719 383.071 26.4165C382.96 27.0882 382.759 27.6505 382.468 28.1035C382.18 28.5564 381.838 28.8961 381.441 29.1226C381.045 29.3491 380.63 29.4623 380.195 29.4623C379.896 29.4623 379.644 29.4134 379.438 29.3156C379.235 29.2178 379.074 29.0891 378.955 28.9296C378.837 28.77 378.755 28.5989 378.708 28.4161H378.654L378.129 31.601H376.234ZM378.955 26.4126C378.904 26.7317 378.901 27.0097 378.948 27.2464C378.994 27.4832 379.088 27.6672 379.229 27.7985C379.374 27.9272 379.56 27.9915 379.789 27.9915C380.021 27.9915 380.227 27.9272 380.407 27.7985C380.59 27.6672 380.743 27.4832 380.866 27.2464C380.99 27.0097 381.08 26.7317 381.137 26.4126C381.185 26.0935 381.187 25.8168 381.14 25.5826C381.097 25.3484 381.005 25.167 380.866 25.0383C380.727 24.9096 380.541 24.8453 380.307 24.8453C380.077 24.8453 379.869 24.9083 379.681 25.0344C379.496 25.1606 379.341 25.3407 379.218 25.5749C379.094 25.8091 379.007 26.0883 378.955 26.4126Z" fill="white"/>
<path d="M386.65 29.4893C386.03 29.4893 385.515 29.3671 385.106 29.1226C384.699 28.8755 384.414 28.5242 384.249 28.0687C384.084 27.6106 384.055 27.0663 384.16 26.4358C384.263 25.8233 384.473 25.2879 384.789 24.8298C385.108 24.3692 385.51 24.0114 385.994 23.7567C386.478 23.4993 387.017 23.3706 387.611 23.3706C388.033 23.3706 388.408 23.4362 388.735 23.5675C389.062 23.6988 389.332 23.8943 389.545 24.1543C389.759 24.4116 389.904 24.7282 389.982 25.1039C390.059 25.4797 390.056 25.9108 389.974 26.3972L389.9 26.8681H384.751L384.924 25.7718H388.322C388.352 25.571 388.336 25.3922 388.271 25.2352C388.207 25.0782 388.103 24.956 387.959 24.8685C387.817 24.7784 387.643 24.7333 387.438 24.7333C387.229 24.7333 387.034 24.7822 386.851 24.88C386.671 24.9753 386.518 25.1039 386.391 25.2661C386.265 25.4282 386.183 25.6109 386.144 25.8142L385.94 26.9376C385.899 27.1873 385.91 27.4009 385.974 27.5784C386.039 27.756 386.149 27.8924 386.306 27.9876C386.463 28.0803 386.665 28.1266 386.913 28.1266C387.077 28.1266 387.232 28.1047 387.376 28.061C387.52 28.0147 387.649 27.9465 387.762 27.8564C387.878 27.7637 387.972 27.6518 388.044 27.5205L389.765 27.5707C389.626 27.9593 389.412 28.2978 389.121 28.586C388.83 28.8717 388.475 29.0943 388.055 29.2538C387.638 29.4108 387.17 29.4893 386.65 29.4893Z" fill="white"/>
<g filter="url(#filter2_d_519_1146)">
<path d="M334.006 158.552C333.985 158.701 333.974 158.797 333.974 158.84C333.974 159.064 334.043 159.229 334.182 159.336C334.321 159.432 334.55 159.48 334.87 159.48H335.99L335.718 161H334.278C333.574 161 333.035 160.861 332.662 160.584C332.289 160.296 332.102 159.843 332.102 159.224C332.102 158.989 332.123 158.765 332.166 158.552L333.03 153.672H331.99L332.246 152.184H333.302L333.686 149.992H335.526L335.142 152.184H337.27L337.014 153.672H334.87L334.006 158.552ZM346.935 152.184L345.383 161H343.559L343.735 159.96C343.383 160.323 342.957 160.611 342.455 160.824C341.965 161.027 341.458 161.128 340.935 161.128C340.007 161.128 339.266 160.877 338.711 160.376C338.157 159.875 337.879 159.165 337.879 158.248C337.879 158.003 337.906 157.709 337.959 157.368L338.871 152.184H340.679L339.815 157.096C339.773 157.395 339.751 157.608 339.751 157.736C339.751 158.323 339.911 158.771 340.231 159.08C340.562 159.389 341.015 159.544 341.591 159.544C342.263 159.544 342.834 159.347 343.303 158.952C343.773 158.547 344.082 157.965 344.231 157.208L345.111 152.184H346.935ZM350.35 158.552C350.329 158.701 350.318 158.797 350.318 158.84C350.318 159.064 350.387 159.229 350.526 159.336C350.665 159.432 350.894 159.48 351.214 159.48H352.334L352.062 161H350.622C349.918 161 349.379 160.861 349.006 160.584C348.633 160.296 348.446 159.843 348.446 159.224C348.446 158.989 348.467 158.765 348.51 158.552L349.374 153.672H348.334L348.59 152.184H349.646L350.03 149.992H351.87L351.486 152.184H353.614L353.358 153.672H351.214L350.35 158.552ZM357.599 161.144C356.852 161.144 356.196 160.989 355.631 160.68C355.066 160.371 354.623 159.933 354.303 159.368C353.994 158.803 353.839 158.157 353.839 157.432C353.839 156.44 354.068 155.533 354.527 154.712C354.996 153.891 355.636 153.24 356.447 152.76C357.268 152.28 358.18 152.04 359.183 152.04C359.93 152.04 360.591 152.2 361.167 152.52C361.743 152.829 362.191 153.267 362.511 153.832C362.842 154.387 363.007 155.032 363.007 155.768C363.007 156.76 362.767 157.667 362.287 158.488C361.807 159.309 361.156 159.96 360.335 160.44C359.514 160.909 358.602 161.144 357.599 161.144ZM357.823 159.608C358.431 159.608 358.986 159.437 359.487 159.096C359.999 158.744 360.399 158.285 360.687 157.72C360.975 157.144 361.119 156.531 361.119 155.88C361.119 155.144 360.911 154.579 360.495 154.184C360.079 153.779 359.556 153.576 358.927 153.576C358.308 153.576 357.754 153.752 357.263 154.104C356.783 154.445 356.404 154.909 356.127 155.496C355.86 156.072 355.727 156.691 355.727 157.352C355.727 158.067 355.919 158.621 356.303 159.016C356.698 159.411 357.204 159.608 357.823 159.608ZM367.05 153.736C367.413 153.203 367.839 152.787 368.33 152.488C368.831 152.189 369.386 152.04 369.994 152.04L369.658 153.928H369.194C368.49 153.928 367.925 154.104 367.498 154.456C367.071 154.808 366.773 155.416 366.602 156.28L365.77 161H363.946L365.498 152.184H367.322L367.05 153.736ZM372.775 151.016C372.487 151.016 372.252 150.925 372.071 150.744C371.889 150.563 371.799 150.333 371.799 150.056C371.799 149.683 371.937 149.363 372.215 149.096C372.503 148.819 372.828 148.68 373.191 148.68C373.479 148.68 373.708 148.771 373.879 148.952C374.06 149.133 374.151 149.363 374.151 149.64C374.151 150.013 374.012 150.339 373.735 150.616C373.457 150.883 373.137 151.016 372.775 151.016ZM373.463 152.184L371.911 161H370.087L371.639 152.184H373.463ZM374.482 156.552C374.642 155.667 374.962 154.883 375.442 154.2C375.932 153.517 376.53 152.989 377.234 152.616C377.938 152.232 378.674 152.04 379.442 152.04C380.135 152.04 380.716 152.179 381.186 152.456C381.655 152.723 382.007 153.059 382.242 153.464L382.466 152.184H384.306L382.753 161H380.914L381.154 159.688C380.77 160.104 380.284 160.451 379.698 160.728C379.122 161.005 378.492 161.144 377.81 161.144C377.148 161.144 376.556 160.995 376.034 160.696C375.522 160.397 375.116 159.976 374.818 159.432C374.53 158.877 374.386 158.243 374.386 157.528C374.386 157.208 374.418 156.883 374.482 156.552ZM381.698 156.584C381.74 156.381 381.762 156.163 381.762 155.928C381.762 155.213 381.548 154.653 381.122 154.248C380.706 153.832 380.183 153.624 379.554 153.624C379.084 153.624 378.626 153.741 378.178 153.976C377.73 154.2 377.34 154.536 377.01 154.984C376.679 155.421 376.46 155.944 376.354 156.552C376.311 156.755 376.289 156.973 376.289 157.208C376.289 157.933 376.498 158.509 376.914 158.936C377.34 159.352 377.868 159.56 378.498 159.56C378.967 159.56 379.426 159.443 379.874 159.208C380.322 158.973 380.711 158.632 381.042 158.184C381.372 157.725 381.591 157.192 381.698 156.584ZM389.069 149.16L386.973 161H385.149L387.245 149.16H389.069Z" fill="white"/>
</g>
<path d="M340.397 201.608L339.133 206H338.349L337.141 202.424L335.925 206H335.133L333.885 201.608H334.621L335.557 205.304L336.773 201.608H337.533L338.757 205.296L339.701 201.608H340.397ZM345.116 203.56C345.116 203.715 345.106 203.848 345.084 203.96H341.572C341.588 204.461 341.73 204.837 341.996 205.088C342.268 205.339 342.599 205.464 342.988 205.464C343.34 205.464 343.634 205.376 343.868 205.2C344.108 205.019 344.255 204.779 344.308 204.48H345.084C345.031 204.784 344.911 205.056 344.724 205.296C344.543 205.536 344.306 205.723 344.012 205.856C343.719 205.989 343.388 206.056 343.02 206.056C342.599 206.056 342.226 205.965 341.9 205.784C341.575 205.603 341.319 205.344 341.132 205.008C340.951 204.667 340.86 204.267 340.86 203.808C340.86 203.349 340.951 202.949 341.132 202.608C341.319 202.267 341.575 202.005 341.9 201.824C342.226 201.643 342.599 201.552 343.02 201.552C343.447 201.552 343.818 201.643 344.132 201.824C344.452 202.005 344.695 202.248 344.86 202.552C345.031 202.856 345.116 203.192 345.116 203.56ZM344.38 203.608C344.396 203.283 344.343 203.011 344.22 202.792C344.098 202.573 343.93 202.411 343.716 202.304C343.503 202.197 343.271 202.144 343.02 202.144C342.62 202.144 342.284 202.269 342.012 202.52C341.74 202.765 341.594 203.128 341.572 203.608H344.38ZM348.492 201.552C348.882 201.552 349.228 201.643 349.532 201.824C349.836 202.005 350.074 202.267 350.244 202.608C350.42 202.949 350.508 203.349 350.508 203.808C350.508 204.267 350.42 204.667 350.244 205.008C350.074 205.344 349.836 205.603 349.532 205.784C349.228 205.965 348.882 206.056 348.492 206.056C348.066 206.056 347.703 205.949 347.404 205.736C347.111 205.517 346.908 205.232 346.796 204.88V206H346.068V200.08H346.796V202.728C346.908 202.376 347.111 202.093 347.404 201.88C347.703 201.661 348.066 201.552 348.492 201.552ZM348.284 202.2C348.002 202.2 347.746 202.267 347.516 202.4C347.287 202.528 347.108 202.715 346.98 202.96C346.852 203.205 346.788 203.488 346.788 203.808C346.788 204.128 346.852 204.411 346.98 204.656C347.108 204.896 347.287 205.083 347.516 205.216C347.746 205.349 348.002 205.416 348.284 205.416C348.738 205.416 349.098 205.275 349.364 204.992C349.636 204.704 349.772 204.309 349.772 203.808C349.772 203.307 349.636 202.915 349.364 202.632C349.098 202.344 348.738 202.2 348.284 202.2ZM355.499 203.56C355.499 203.715 355.488 203.848 355.467 203.96H351.955C351.971 204.461 352.112 204.837 352.379 205.088C352.651 205.339 352.982 205.464 353.371 205.464C353.723 205.464 354.016 205.376 354.251 205.2C354.491 205.019 354.638 204.779 354.691 204.48H355.467C355.414 204.784 355.294 205.056 355.107 205.296C354.926 205.536 354.688 205.723 354.395 205.856C354.102 205.989 353.771 206.056 353.403 206.056C352.982 206.056 352.608 205.965 352.283 205.784C351.958 205.603 351.702 205.344 351.515 205.008C351.334 204.667 351.243 204.267 351.243 203.808C351.243 203.349 351.334 202.949 351.515 202.608C351.702 202.267 351.958 202.005 352.283 201.824C352.608 201.643 352.982 201.552 353.403 201.552C353.83 201.552 354.2 201.643 354.515 201.824C354.835 202.005 355.078 202.248 355.243 202.552C355.414 202.856 355.499 203.192 355.499 203.56ZM354.763 203.608C354.779 203.283 354.726 203.011 354.603 202.792C354.48 202.573 354.312 202.411 354.099 202.304C353.886 202.197 353.654 202.144 353.403 202.144C353.003 202.144 352.667 202.269 352.395 202.52C352.123 202.765 351.976 203.128 351.955 203.608H354.763ZM358.979 206L357.835 204.32L356.803 206H355.995L357.435 203.736L355.987 201.608H356.819L357.931 203.24L358.947 201.608H359.755L358.323 203.816L359.811 206H358.979ZM362.914 201.552C363.304 201.552 363.65 201.643 363.954 201.824C364.258 202.005 364.496 202.267 364.666 202.608C364.842 202.949 364.93 203.349 364.93 203.808C364.93 204.267 364.842 204.667 364.666 205.008C364.496 205.344 364.258 205.603 363.954 205.784C363.65 205.965 363.304 206.056 362.914 206.056C362.488 206.056 362.125 205.949 361.826 205.736C361.533 205.517 361.33 205.232 361.218 204.88V208.08H360.49V201.608H361.218V202.728C361.33 202.376 361.533 202.093 361.826 201.88C362.125 201.661 362.488 201.552 362.914 201.552ZM362.706 202.2C362.424 202.2 362.168 202.267 361.938 202.4C361.709 202.528 361.53 202.715 361.402 202.96C361.274 203.205 361.21 203.488 361.21 203.808C361.21 204.128 361.274 204.411 361.402 204.656C361.53 204.896 361.709 205.083 361.938 205.216C362.168 205.349 362.424 205.416 362.706 205.416C363.16 205.416 363.52 205.275 363.786 204.992C364.058 204.704 364.194 204.309 364.194 203.808C364.194 203.307 364.058 202.915 363.786 202.632C363.52 202.344 363.16 202.2 362.706 202.2ZM369.921 203.56C369.921 203.715 369.91 203.848 369.889 203.96H366.377C366.393 204.461 366.534 204.837 366.801 205.088C367.073 205.339 367.404 205.464 367.793 205.464C368.145 205.464 368.438 205.376 368.673 205.2C368.913 205.019 369.06 204.779 369.113 204.48H369.889C369.836 204.784 369.716 205.056 369.529 205.296C369.348 205.536 369.11 205.723 368.817 205.856C368.524 205.989 368.193 206.056 367.825 206.056C367.404 206.056 367.03 205.965 366.705 205.784C366.38 205.603 366.124 205.344 365.937 205.008C365.756 204.667 365.665 204.267 365.665 203.808C365.665 203.349 365.756 202.949 365.937 202.608C366.124 202.267 366.38 202.005 366.705 201.824C367.03 201.643 367.404 201.552 367.825 201.552C368.252 201.552 368.622 201.643 368.937 201.824C369.257 202.005 369.5 202.248 369.665 202.552C369.836 202.856 369.921 203.192 369.921 203.56ZM369.185 203.608C369.201 203.283 369.148 203.011 369.025 202.792C368.902 202.573 368.734 202.411 368.521 202.304C368.308 202.197 368.076 202.144 367.825 202.144C367.425 202.144 367.089 202.269 366.817 202.52C366.545 202.765 366.398 203.128 366.377 203.608H369.185ZM371.409 205.144V206H370.529V205.144H371.409ZM374.184 201.552C374.744 201.552 375.208 201.701 375.576 202C375.944 202.299 376.171 202.699 376.256 203.2H375.488C375.435 202.885 375.288 202.64 375.048 202.464C374.814 202.283 374.52 202.192 374.168 202.192C373.912 202.192 373.678 202.251 373.464 202.368C373.256 202.485 373.088 202.667 372.96 202.912C372.832 203.152 372.768 203.451 372.768 203.808C372.768 204.165 372.832 204.467 372.96 204.712C373.088 204.952 373.256 205.131 373.464 205.248C373.678 205.365 373.912 205.424 374.168 205.424C374.52 205.424 374.814 205.333 375.048 205.152C375.288 204.971 375.435 204.723 375.488 204.408H376.256C376.171 204.915 375.944 205.317 375.576 205.616C375.208 205.909 374.744 206.056 374.184 206.056C373.763 206.056 373.39 205.965 373.064 205.784C372.739 205.603 372.483 205.344 372.296 205.008C372.115 204.667 372.024 204.267 372.024 203.808C372.024 203.349 372.115 202.949 372.296 202.608C372.483 202.267 372.739 202.005 373.064 201.824C373.39 201.643 373.763 201.552 374.184 201.552ZM379.201 201.552C379.622 201.552 379.998 201.643 380.329 201.824C380.665 202.005 380.926 202.267 381.113 202.608C381.305 202.949 381.401 203.349 381.401 203.808C381.401 204.267 381.305 204.667 381.113 205.008C380.926 205.344 380.665 205.603 380.329 205.784C379.998 205.965 379.622 206.056 379.201 206.056C378.78 206.056 378.401 205.965 378.065 205.784C377.734 205.603 377.473 205.344 377.281 205.008C377.089 204.667 376.993 204.267 376.993 203.808C376.993 203.349 377.089 202.949 377.281 202.608C377.473 202.267 377.734 202.005 378.065 201.824C378.401 201.643 378.78 201.552 379.201 201.552ZM379.201 202.192C378.94 202.192 378.697 202.251 378.473 202.368C378.254 202.485 378.076 202.667 377.937 202.912C377.804 203.152 377.737 203.451 377.737 203.808C377.737 204.16 377.804 204.459 377.937 204.704C378.076 204.944 378.254 205.123 378.473 205.24C378.697 205.357 378.94 205.416 379.201 205.416C379.462 205.416 379.702 205.357 379.921 205.24C380.145 205.123 380.324 204.944 380.457 204.704C380.596 204.459 380.665 204.16 380.665 203.808C380.665 203.451 380.596 203.152 380.457 202.912C380.324 202.667 380.145 202.485 379.921 202.368C379.702 202.251 379.462 202.192 379.201 202.192ZM387.75 201.536C388.262 201.536 388.672 201.701 388.982 202.032C389.296 202.357 389.454 202.829 389.454 203.448V206H388.726V203.512C388.726 203.08 388.619 202.749 388.406 202.52C388.198 202.291 387.91 202.176 387.542 202.176C387.158 202.176 386.848 202.304 386.614 202.56C386.384 202.811 386.27 203.181 386.27 203.672V206H385.542V203.512C385.542 203.08 385.435 202.749 385.222 202.52C385.008 202.291 384.72 202.176 384.358 202.176C383.968 202.176 383.656 202.304 383.422 202.56C383.192 202.811 383.078 203.181 383.078 203.672V206H382.35V201.608H383.078V202.608C383.184 202.261 383.374 201.997 383.646 201.816C383.923 201.629 384.24 201.536 384.598 201.536C384.971 201.536 385.294 201.632 385.566 201.824C385.843 202.011 386.04 202.288 386.158 202.656C386.28 202.299 386.486 202.024 386.774 201.832C387.062 201.635 387.387 201.536 387.75 201.536Z" fill="white"/>
<g clip-path="url(#clip1_519_1146)">
<path d="M38.022 203L37.8549 202.938C32.1948 200.803 27.7603 196.287 25.7295 190.589C25.1793 189.006 24.8307 187.359 24.6919 185.689L24.6782 185.529L24.8357 185.557C26.7154 185.895 28.6887 186.081 29.5679 186.154L24.6353 182.891L24.6443 182.721C24.7211 181.128 25.7596 179.741 27.2672 179.22C28.7892 178.658 30.5 179.078 31.5881 180.282C32.0785 180.814 32.5969 181.349 33.0982 181.868C34.821 183.648 36.6024 185.489 37.7289 187.662C39.423 191.011 39.5149 194.945 37.9791 198.369L38.022 203H38.022Z" fill="#F2F2F2"/>
<path d="M137.825 199.838L137.823 199.82C137.605 194.979 136.717 190.192 135.184 185.596L135.182 185.588C135.093 185.116 135.119 184.629 135.258 184.169C135.686 182.851 137.014 182.044 138.381 182.271C139.794 182.537 141.254 182.287 142.499 181.568C143.289 181.11 144.248 181.047 145.092 181.397C145.887 181.721 146.482 182.403 146.696 183.235C146.713 183.3 146.728 183.366 146.74 183.434C146.785 188.297 147.678 193.115 149.38 197.671L149.381 197.677C149.559 198.618 149.275 199.587 148.618 200.283C148.036 200.873 147.222 201.173 146.397 201.099C144.915 200.998 143.392 201.299 141.74 202.018C141.162 202.275 140.513 202.32 139.906 202.147C138.832 201.832 138.027 200.939 137.825 199.838V199.838Z" fill="#0A9E8B"/>
<path d="M90.4786 133.343V196.909H135.015V133.343C135.017 132.404 134.406 131.575 133.509 131.298C133.303 131.23 133.087 131.196 132.871 131.198H92.6295C91.4439 131.196 90.4809 132.155 90.4786 133.341V133.343V133.343ZM107.859 155.184C107.884 152.559 110.032 150.45 112.657 150.474C115.249 150.498 117.344 152.593 117.368 155.184V162.56C117.356 165.186 115.217 167.304 112.591 167.291C109.983 167.279 107.872 165.168 107.859 162.56V155.184V155.184Z" fill="#F2F2F2"/>
<path d="M90.3423 194.876V201.006C90.3443 201.667 90.8777 202.203 91.5386 202.208H133.955C134.617 202.205 135.152 201.668 135.152 201.006V194.876H90.3423V194.876Z" fill="#E6E6E6"/>
<path d="M20.4163 37.572V153.635C20.4187 156.715 22.9149 159.211 25.995 159.213H198.005C201.085 159.211 203.581 156.715 203.584 153.635V37.572C203.576 34.4953 201.082 32.0039 198.005 32H25.995C22.918 32.0039 20.4236 34.4953 20.4163 37.572H20.4163Z" fill="#E6E6E6"/>
<path d="M196.57 36.0287H27.4299C25.7824 36.0323 24.4486 37.3687 24.4484 39.0161V152.203C24.4513 153.849 25.7845 155.182 27.4299 155.185H196.57C198.216 155.182 199.549 153.849 199.552 152.203V39.0161C199.551 37.3687 198.218 36.0323 196.57 36.0287V36.0287ZM153.904 116.443C153.398 117.442 152.373 118.07 151.254 118.068L151.236 118.066C149.614 117.841 147.987 117.692 146.353 117.62C146.607 117.801 146.83 118.022 147.015 118.273C147.489 118.953 147.634 119.808 147.412 120.606C147.042 122.044 147.06 123.596 147.466 125.352C147.613 125.966 147.539 126.613 147.258 127.178C146.752 128.177 145.727 128.805 144.607 128.803L144.59 128.801C140.717 128.262 136.797 128.158 132.902 128.49C132.886 128.588 132.867 128.687 132.842 128.785C132.472 130.223 132.49 131.775 132.895 133.531C133.043 134.145 132.969 134.792 132.688 135.357C132.182 136.356 131.157 136.984 130.037 136.982L130.019 136.98C126.043 136.427 122.015 136.332 118.017 136.698C117.987 137.696 118.09 138.694 118.325 139.665C118.472 140.279 118.399 140.926 118.117 141.491C117.612 142.49 116.586 143.119 115.467 143.116L115.449 143.115C110.65 142.446 105.78 142.446 100.981 143.115H100.973C100.493 143.116 100.019 143.002 99.5919 142.781C98.3739 142.12 97.8227 140.667 98.2953 139.365C98.4403 138.954 98.5481 138.532 98.6173 138.103C94.2187 137.596 89.7736 137.648 85.3881 138.258H85.3803C84.8998 138.26 84.426 138.146 83.9992 137.925C82.7812 137.264 82.23 135.811 82.7026 134.508C83.2212 133.168 83.2424 131.687 82.7625 130.332C82.5363 129.697 82.5363 129.003 82.7624 128.368C79.4562 128.2 76.1415 128.345 72.8628 128.801H72.855C72.3745 128.803 71.9007 128.689 71.4738 128.468C70.2559 127.807 69.7047 126.354 70.1773 125.051C70.6959 123.711 70.7171 122.23 70.2372 120.875C69.9306 120.015 70.0432 119.06 70.5415 118.295C71.0055 117.572 71.7844 117.111 72.6416 117.052C72.709 117.048 72.7767 117.045 72.8451 117.045C74.5249 117.339 76.221 117.531 77.924 117.619C76.8376 116.905 76.3825 115.539 76.8234 114.316C77.342 112.976 77.3632 111.495 76.8833 110.14C76.5767 109.28 76.6892 108.325 77.1876 107.56C77.2091 107.527 77.2343 107.497 77.257 107.466C76.045 107.549 74.8359 107.675 73.6296 107.843H73.6219C73.1414 107.845 72.6675 107.73 72.2407 107.509C71.0227 106.848 70.4715 105.395 70.9441 104.093C71.4627 102.753 71.484 101.271 71.004 99.9164C70.6975 99.0559 70.81 98.1016 71.3083 97.3359C71.7724 96.6128 72.5513 96.152 73.4085 96.0935C73.4759 96.089 73.5435 96.0866 73.6119 96.0866C75.6318 96.4402 77.6749 96.6459 79.7247 96.702C79.2017 95.9483 79.0733 94.9892 79.3796 94.1245C79.8982 92.7843 79.9194 91.3027 79.4395 89.9483C79.1329 89.0877 79.2454 88.1334 79.7438 87.3677C80.2078 86.6447 80.9867 86.1839 81.8439 86.1253C81.9113 86.1208 81.9789 86.1185 82.0473 86.1185C83.7567 86.4174 85.4828 86.6106 87.2159 86.697C86.8436 85.9921 86.7828 85.1637 87.0481 84.4119C87.5667 83.0718 87.588 81.5902 87.108 80.2357C86.8015 79.3751 86.914 78.4208 87.4123 77.6552C87.8763 76.9321 88.6552 76.4713 89.5124 76.4128C89.5798 76.4083 89.6475 76.4059 89.7159 76.4059C91.7272 76.7579 93.7615 76.9633 95.8026 77.0204C95.5247 76.3639 95.5021 75.6273 95.7391 74.955C96.2578 73.6148 96.279 72.1332 95.7991 70.7787C95.4925 69.9182 95.605 68.9638 96.1034 68.1982C96.5674 67.4751 97.3463 67.0143 98.2035 66.9558C98.2709 66.9513 98.3385 66.9489 98.4069 66.9489C103.197 67.792 108.098 67.7926 112.889 66.9508H112.895C113.265 67.027 113.646 67.027 114.016 66.9508H114.022C118.812 67.7926 123.713 67.792 128.504 66.9489C128.572 66.9489 128.64 66.9513 128.707 66.9558C129.564 67.0143 130.343 67.4751 130.807 68.1982C131.305 68.9638 131.418 69.9182 131.111 70.7787C130.631 72.1332 130.653 73.6148 131.171 74.955C131.408 75.6273 131.386 76.3639 131.108 77.0204C133.149 76.9633 135.183 76.7579 137.195 76.4059C137.263 76.4059 137.331 76.4083 137.398 76.4128C138.255 76.4713 139.034 76.9321 139.498 77.6552C139.996 78.4208 140.109 79.3751 139.802 80.2357C139.322 81.5902 139.344 83.0718 139.862 84.4119C140.128 85.1637 140.067 85.9921 139.695 86.697C141.428 86.6106 143.154 86.4174 144.863 86.1185C144.932 86.1185 144.999 86.1208 145.067 86.1253C145.924 86.1839 146.703 86.6447 147.167 87.3677C147.665 88.1334 147.778 89.0877 147.471 89.9483C146.991 91.3027 147.012 92.7843 147.531 94.1245C147.838 94.9913 147.708 95.9531 147.182 96.7074C147.41 96.8797 147.612 97.0843 147.782 97.3148C148.256 97.994 148.401 98.8495 148.179 99.6472C147.809 101.085 147.827 102.637 148.233 104.393C148.38 105.007 148.306 105.654 148.025 106.219C147.922 106.421 147.796 106.61 147.651 106.783C148.847 106.678 150.041 106.521 151.232 106.312H151.238C152.195 106.309 153.096 106.765 153.661 107.539C154.135 108.218 154.281 109.073 154.058 109.871C153.688 111.309 153.706 112.861 154.112 114.617C154.259 115.231 154.185 115.878 153.904 116.443L153.904 116.443Z" fill="white"/>
<path d="M191.084 51.6207H32.8203C32.4727 51.6131 32.1971 51.3251 32.2048 50.9776C32.2122 50.6408 32.4835 50.3695 32.8203 50.3621H191.084C191.432 50.3698 191.707 50.6577 191.7 51.0053C191.692 51.3421 191.421 51.6133 191.084 51.6207Z" fill="#E6E6E6"/>
<path d="M113.864 140.101L113.846 140.1C109.047 139.431 104.178 139.431 99.3781 140.1H99.3703C98.8898 140.101 98.416 139.987 97.9891 139.766C96.7711 139.105 96.22 137.652 96.6926 136.35C97.2112 135.009 97.2324 133.528 96.7525 132.173C96.4459 131.313 96.5584 130.358 97.0568 129.593C97.5208 128.87 98.2997 128.409 99.1569 128.35C99.2243 128.346 99.2919 128.344 99.3603 128.344C104.151 129.187 109.052 129.187 113.842 128.345H113.848C114.806 128.342 115.707 128.798 116.271 129.572C116.745 130.251 116.891 131.106 116.669 131.904C116.299 133.342 116.317 134.894 116.722 136.65C116.87 137.264 116.796 137.911 116.514 138.476C116.009 139.475 114.984 140.104 113.864 140.101V140.101Z" fill="#0A9E8B"/>
<path d="M128.624 115.041L124.763 111.846C121.868 113.363 117.462 119.422 117.462 119.422L107.297 126.732C106.076 126.79 105.134 127.826 105.192 129.047C105.25 130.267 106.287 131.21 107.508 131.152C108.3 131.114 109.011 130.655 109.372 129.949L123.183 122.652L128.624 115.041V115.041Z" fill="#FFB8B8"/>
<path d="M135.139 102.881C137.367 104.768 137.644 108.104 135.757 110.332C135.545 110.582 135.311 110.812 135.057 111.018L132.602 113.014C132.602 113.014 126.477 121.83 123.289 122.853L115.104 127.129L111.413 123.429L118.831 117.384C118.831 117.384 122.243 114.157 122.585 111.795C122.794 110.349 125.242 106.409 127.696 103.486C129.58 101.264 132.908 100.99 135.13 102.873L135.139 102.881V102.881Z" fill="#3F3D56"/>
<path d="M127.204 198.563L123.715 198.563L122.056 185.109L127.204 185.109L127.204 198.563Z" fill="#FFB6B6"/>
<path d="M127.326 202.202L116.599 202.202V202.066C116.599 199.76 118.468 197.891 120.774 197.891H120.775L122.734 196.405L126.39 197.891L127.327 197.891L127.326 202.202V202.202Z" fill="#2F2E41"/>
<path d="M153.784 180.204L152.132 183.276L139.494 178.367L141.933 173.832L153.784 180.204Z" fill="#FFB6B6"/>
<path d="M157.047 181.819L151.967 191.266L151.848 191.202C149.817 190.11 149.055 187.579 150.147 185.548L150.147 185.548L149.766 183.118L152.807 180.602L153.25 179.777L157.047 181.819V181.819Z" fill="#2F2E41"/>
<path d="M120.608 136.95L117.529 161.578L119.069 169.836L146.779 181.974L148.318 176.972C141.235 172.638 133.663 166.079 128.893 165.597C128.893 165.597 128.497 161.226 131.915 158.529C132.604 157.984 132.453 157.248 132.732 156.581C132.924 156.122 133.687 155.644 133.882 155.173C134.136 154.563 133.822 153.956 134.077 153.336C134.22 152.988 134.763 152.966 134.905 152.617C135.148 152.022 134.989 151.1 135.225 150.512C135.73 149.256 136.216 148.027 136.66 146.875C138.04 143.29 139.012 140.449 138.889 139.836C138.504 137.912 120.608 136.95 120.608 136.95V136.95Z" fill="#2F2E41"/>
<path d="M120.078 161.507L118.467 171.908L122.532 193.134H127.921C129.856 186.002 129.956 176.628 128.113 168.698L120.078 161.507V161.507Z" fill="#2F2E41"/>
<path d="M123.54 106.858L126.023 102.53L128.69 100.391L133.693 99.6213L135.083 100.69C140.086 108.335 141.951 117.613 140.293 126.597L139.902 128.711L139.654 130.054L139.762 131.658L138.927 133.994L139.041 135.705L139.103 136.618L139.164 137.535L139.25 138.815C139.404 139.545 138.63 139.449 138.739 140.093C138.931 141.224 139.794 142.899 138.483 142.904L124.936 140.093C121.494 140.107 118.29 136.003 121.613 132.681L123.539 106.858H123.54Z" fill="#3F3D56"/>
<path d="M129.881 98.4157C133.514 98.4157 136.46 95.4705 136.46 91.8376C136.46 88.2046 133.514 85.2595 129.881 85.2595C126.248 85.2595 123.302 88.2046 123.302 91.8376C123.302 95.4705 126.248 98.4157 129.881 98.4157Z" fill="#FFB8B8"/>
<path d="M129.992 98.2288C130.955 98.2438 131.917 98.1766 132.868 98.0278C133.811 97.8361 135.92 96.2907 136.508 95.3608C136.945 94.6698 137.224 93.5908 137.382 92.8074C137.81 90.7109 137.33 88.5308 136.06 86.8086C135.819 86.4523 135.485 86.168 135.096 85.9856C135.061 85.9721 135.025 85.9601 134.99 85.9499C134.422 85.8004 133.911 85.4847 133.524 85.0432C133.449 84.9539 133.368 84.8701 133.281 84.7925C132.843 84.4232 132.324 84.1628 131.767 84.0324C130.867 83.7916 129.564 84.0306 127.896 84.7436C127.057 85.1018 126.14 84.9722 125.435 84.8192C125.355 84.8037 125.272 84.832 125.218 84.8937C124.918 85.1753 124.522 85.333 124.111 85.335C123.859 85.3461 123.594 85.6951 123.274 86.1502C123.202 86.2535 123.117 86.3741 123.056 86.4475L123.048 86.3066L122.905 86.4637C122.172 87.2723 122.233 88.5224 123.041 89.256C123.259 89.4531 123.517 89.5994 123.798 89.6842C124.052 89.7517 124.311 89.7931 124.573 89.8078C124.732 89.8221 124.896 89.8368 125.053 89.8641C126.081 90.0744 126.922 90.8088 127.268 91.7981C127.414 92.2033 127.86 92.414 128.265 92.2687C128.329 92.2459 128.389 92.2149 128.445 92.1765C128.777 91.9175 129.216 91.8377 129.618 91.9628C129.79 92.0581 129.923 92.2094 129.996 92.3914C130.085 92.5942 130.232 92.7658 130.419 92.8846C131.058 93.214 131.102 94.6731 130.872 95.8894C130.651 97.0618 130.214 97.91 129.809 97.9519C129.498 97.9841 129.462 98.0063 129.439 98.0614L129.419 98.1107L129.454 98.1569C129.626 98.2193 129.81 98.2438 129.992 98.2288V98.2288Z" fill="#2F2E41"/>
<path d="M116.676 94.3495L116.658 94.3483C111.859 93.6796 106.989 93.6796 102.19 94.3483H102.182C101.702 94.3501 101.228 94.2358 100.801 94.0151C99.5829 93.3537 99.0317 91.9011 99.5044 90.5983C100.023 89.2581 100.044 87.7765 99.5643 86.422C99.2577 85.5615 99.3702 84.6071 99.8686 83.8415C100.333 83.1184 101.111 82.6576 101.969 82.5991C102.036 82.5946 102.104 82.5922 102.172 82.5922C106.963 83.4353 111.863 83.436 116.654 82.5941H116.66C117.618 82.5907 118.519 83.0468 119.083 83.8204C119.557 84.4996 119.703 85.3551 119.48 86.1528C119.111 87.5905 119.128 89.1429 119.534 90.8988C119.681 91.5131 119.608 92.1595 119.326 92.725C118.821 93.7237 117.795 94.3522 116.676 94.3495V94.3495Z" fill="#0A9E8B"/>
<path d="M122.828 109.843L125.55 105.635C123.705 102.937 117.172 99.2693 117.172 99.2693L108.724 90.0298C108.523 88.8244 107.384 88.0096 106.178 88.21C104.973 88.4103 104.158 89.5499 104.358 90.7553C104.488 91.5376 105.027 92.1905 105.771 92.4666L114.632 105.328L122.828 109.843H122.828Z" fill="#FFB8B8"/>
<path d="M135.667 114.891C134.053 117.324 130.772 117.989 128.338 116.375C128.065 116.194 127.81 115.989 127.575 115.76L125.306 113.555C125.306 113.555 115.793 108.589 114.404 105.542L108.171 96.7021L112.351 92.9322L119.615 99.5352C119.615 99.5352 122.96 103.402 125.346 103.466C126.807 103.504 131.007 105.475 134.196 107.571C136.623 109.182 137.285 112.455 135.674 114.881L135.667 114.891V114.891Z" fill="#3F3D56"/>
<path d="M72.297 202.164L72.2793 202.163C67.4796 201.494 62.6105 201.494 57.8108 202.163H57.8031C57.3226 202.165 56.8487 202.05 56.4219 201.829C55.2039 201.168 54.6527 199.715 55.1254 198.413C55.644 197.072 55.6652 195.591 55.1853 194.236C54.8787 193.376 54.9912 192.422 55.4896 191.656C55.9536 190.933 56.7325 190.472 57.5897 190.413C57.6571 190.409 57.7247 190.407 57.7931 190.407C62.5835 191.25 67.4844 191.25 72.275 190.408H72.281C73.2386 190.405 74.1398 190.861 74.7041 191.635C75.1782 192.314 75.3239 193.169 75.1013 193.967C74.7319 195.405 74.7493 196.957 75.1552 198.713C75.3025 199.327 75.2289 199.974 74.9473 200.539C74.4418 201.538 73.4164 202.167 72.297 202.164H72.297Z" fill="#0A9E8B"/>
<path d="M76.3869 191.429L76.3692 191.428C71.5695 190.759 66.7004 190.759 61.9007 191.428H61.893C61.4125 191.43 60.9386 191.315 60.5118 191.094C59.2938 190.433 58.7426 188.98 59.2152 187.678C59.7338 186.337 59.7551 184.856 59.2752 183.501C58.9686 182.641 59.0811 181.687 59.5795 180.921C60.0435 180.198 60.8224 179.737 61.6796 179.678C61.747 179.674 61.8146 179.672 61.883 179.672C66.6734 180.515 71.5743 180.515 76.3649 179.674H76.3709C77.3285 179.67 78.2297 180.126 78.794 180.9C79.2681 181.579 79.4138 182.434 79.1912 183.232C78.8217 184.67 78.8392 186.222 79.2451 187.978C79.3924 188.592 79.3188 189.239 79.0372 189.804C78.5317 190.803 77.5063 191.432 76.3869 191.429H76.3869Z" fill="#0A9E8B"/>
<path d="M40.597 194.355L40.6079 194.341C43.8512 190.741 46.5795 186.708 48.7149 182.359L48.7193 182.352C48.987 181.953 49.3472 181.625 49.7692 181.395C50.9996 180.757 52.5116 181.114 53.326 182.236C54.1456 183.416 55.361 184.264 56.7519 184.626C57.6365 184.854 58.3639 185.482 58.719 186.323C59.0579 187.113 59.0032 188.016 58.5714 188.759C58.5373 188.817 58.5014 188.875 58.4631 188.931C55.0805 192.426 52.3339 196.485 50.347 200.924L50.3436 200.929C49.8098 201.724 48.9271 202.215 47.9701 202.249C47.1419 202.261 46.3516 201.902 45.8155 201.271C44.8316 200.159 43.5358 199.304 41.8539 198.656C41.2626 198.434 40.7683 198.011 40.4577 197.461C39.9137 196.482 39.9675 195.281 40.597 194.355V194.355Z" fill="#0A9E8B"/>
<path d="M207.697 202.554L16.3028 202.632C16.1347 202.631 15.9991 202.494 16 202.326C16.0009 202.16 16.1359 202.024 16.3028 202.024L207.697 201.945C207.865 201.946 208.001 202.083 208 202.251C207.999 202.418 207.864 202.553 207.697 202.554Z" fill="#CACACA"/>
<path d="M56.9633 45.7786C58.1571 45.7786 59.1249 44.7893 59.1249 43.5689C59.1249 42.3486 58.1571 41.3593 56.9633 41.3593C55.7694 41.3593 54.8016 42.3486 54.8016 43.5689C54.8016 44.7893 55.7694 45.7786 56.9633 45.7786Z" fill="#3F3D56"/>
<path d="M64.4308 45.7786C65.6247 45.7786 66.5925 44.7893 66.5925 43.5689C66.5925 42.3486 65.6247 41.3593 64.4308 41.3593C63.237 41.3593 62.2692 42.3486 62.2692 43.5689C62.2692 44.7893 63.237 45.7786 64.4308 45.7786Z" fill="#3F3D56"/>
<path d="M71.8984 45.7786C73.0923 45.7786 74.0601 44.7893 74.0601 43.5689C74.0601 42.3486 73.0923 41.3593 71.8984 41.3593C70.7046 41.3593 69.7368 42.3486 69.7368 43.5689C69.7368 44.7893 70.7046 45.7786 71.8984 45.7786Z" fill="#3F3D56"/>
<path d="M80.4135 45.3153C80.3471 45.3153 80.2808 45.2896 80.2307 45.2385L78.7722 43.7476C78.6749 43.6482 78.6749 43.4895 78.7722 43.3901L80.2307 41.8994C80.3297 41.7985 80.4917 41.7969 80.5922 41.8954C80.6932 41.9941 80.6949 42.156 80.5962 42.2568L79.3125 43.5689L80.5962 44.881C80.6949 44.9819 80.6932 45.1437 80.5922 45.2424C80.5425 45.2911 80.478 45.3153 80.4135 45.3153V45.3153Z" fill="#3F3D56"/>
<path d="M82.8644 45.3153C82.7999 45.3153 82.7354 45.2911 82.6857 45.2425C82.5847 45.1437 82.583 44.982 82.6817 44.881L83.9653 43.5689L82.6817 42.2568C82.583 42.156 82.5847 41.9941 82.6857 41.8954C82.7864 41.7966 82.9484 41.7984 83.0472 41.8994L84.5056 43.3901C84.6028 43.4895 84.6028 43.6482 84.5056 43.7476L83.0472 45.2385C82.9971 45.2896 82.9308 45.3153 82.8644 45.3153V45.3153Z" fill="#3F3D56"/>
<path d="M159.169 41.6151H156.457C156.148 41.6151 155.897 41.8656 155.897 42.1749V44.8893C155.897 45.1985 156.148 45.449 156.457 45.449H159.169C159.478 45.449 159.731 45.1985 159.731 44.8893V42.1749C159.731 41.8656 159.478 41.6151 159.169 41.6151Z" fill="#3F3D56"/>
<path d="M152.523 41.6151H149.811C149.502 41.6151 149.251 41.8656 149.251 42.1749V44.8893C149.251 45.1985 149.502 45.449 149.811 45.449H152.523C152.832 45.449 153.085 45.1985 153.085 44.8893V42.1749C153.085 41.8656 152.832 41.6151 152.523 41.6151Z" fill="#3F3D56"/>
<path d="M165.432 41.7429H162.72C162.41 41.7429 162.16 41.9934 162.16 42.3027V45.0171C162.16 45.3264 162.41 45.5768 162.72 45.5768H165.432C165.741 45.5768 165.994 45.3264 165.994 45.0171V42.3027C165.994 41.9934 165.741 41.7429 165.432 41.7429Z" fill="#3F3D56"/>
<path d="M124.553 42.7755H102.874C102.495 42.7755 102.191 43.0822 102.191 43.458C102.191 43.8337 102.495 44.1404 102.874 44.1404H124.553C124.929 44.1404 125.235 43.8337 125.235 43.458C125.235 43.0822 124.929 42.7755 124.553 42.7755V42.7755Z" fill="#3F3D56"/>
</g>
</g>
<defs>
<filter id="filter0_d_519_1146" x="61" y="-5" width="342" height="232" filterUnits="userSpaceOnUse" color-interpolation-filters="sRGB">
<feFlood flood-opacity="0" result="BackgroundImageFix"/>
<feColorMatrix in="SourceAlpha" type="matrix" values="0 0 0 0 0 0 0 0 0 0 0 0 0 0 0 0 0 0 127 0" result="hardAlpha"/>
<feOffset dx="-2"/>
<feGaussianBlur stdDeviation="2.5"/>
<feComposite in2="hardAlpha" operator="out"/>
<feColorMatrix type="matrix" values="0 0 0 0 0 0 0 0 0 0 0 0 0 0 0 0 0 0 0.15 0"/>
<feBlend mode="normal" in2="BackgroundImageFix" result="effect1_dropShadow_519_1146"/>
<feBlend mode="normal" in="SourceGraphic" in2="effect1_dropShadow_519_1146" result="shape"/>
</filter>
<filter id="filter1_d_519_1146" x="219.95" y="69.5" width="170.839" height="57.2" filterUnits="userSpaceOnUse" color-interpolation-filters="sRGB">
<feFlood flood-opacity="0" result="BackgroundImageFix"/>
<feColorMatrix in="SourceAlpha" type="matrix" values="0 0 0 0 0 0 0 0 0 0 0 0 0 0 0 0 0 0 127 0" result="hardAlpha"/>
<feOffset dx="2" dy="2"/>
<feComposite in2="hardAlpha" operator="out"/>
<feColorMatrix type="matrix" values="0 0 0 0 0 0 0 0 0 0 0 0 0 0 0 0 0 0 1 0"/>
<feBlend mode="normal" in2="BackgroundImageFix" result="effect1_dropShadow_519_1146"/>
<feBlend mode="normal" in="SourceGraphic" in2="effect1_dropShadow_519_1146" result="shape"/>
</filter>
<filter id="filter2_d_519_1146" x="331.99" y="148.68" width="58.0791" height="14.464" filterUnits="userSpaceOnUse" color-interpolation-filters="sRGB">
<feFlood flood-opacity="0" result="BackgroundImageFix"/>
<feColorMatrix in="SourceAlpha" type="matrix" values="0 0 0 0 0 0 0 0 0 0 0 0 0 0 0 0 0 0 127 0" result="hardAlpha"/>
<feOffset dx="1" dy="2"/>
<feComposite in2="hardAlpha" operator="out"/>
<feColorMatrix type="matrix" values="0 0 0 0 0 0 0 0 0 0 0 0 0 0 0 0 0 0 1 0"/>
<feBlend mode="normal" in2="BackgroundImageFix" result="effect1_dropShadow_519_1146"/>
<feBlend mode="normal" in="SourceGraphic" in2="effect1_dropShadow_519_1146" result="shape"/>
</filter>
<linearGradient id="paint0_linear_519_1146" x1="0" y1="0" x2="400" y2="241" gradientUnits="userSpaceOnUse">
<stop stop-color="#3C82F6"/>
<stop offset="1" stop-color="#3C78D2"/>
</linearGradient>
<linearGradient id="paint1_linear_519_1146" x1="348.318" y1="14.877" x2="356.117" y2="14.877" gradientUnits="userSpaceOnUse">
<stop stop-color="#1884E8"/>
<stop offset="0.453125" stop-color="#149BBE"/>
<stop offset="1" stop-color="#14BD80"/>
</linearGradient>
<linearGradient id="paint2_linear_519_1146" x1="348.318" y1="16.2444" x2="357.615" y2="16.2444" gradientUnits="userSpaceOnUse">
<stop stop-color="#1884E8"/>
<stop offset="0.453125" stop-color="#149BBE"/>
<stop offset="1" stop-color="#14BD80"/>
</linearGradient>
<linearGradient id="paint3_linear_519_1146" x1="348.318" y1="17.6119" x2="359.118" y2="17.6119" gradientUnits="userSpaceOnUse">
<stop stop-color="#1884E8"/>
<stop offset="0.453125" stop-color="#149BBE"/>
<stop offset="1" stop-color="#14BD80"/>
</linearGradient>
<linearGradient id="paint4_linear_519_1146" x1="348.318" y1="18.9793" x2="360.616" y2="18.9793" gradientUnits="userSpaceOnUse">
<stop stop-color="#1884E8"/>
<stop offset="0.453125" stop-color="#149BBE"/>
<stop offset="1" stop-color="#14BD80"/>
</linearGradient>
<linearGradient id="paint5_linear_519_1146" x1="348.318" y1="20.3447" x2="362.114" y2="20.3447" gradientUnits="userSpaceOnUse">
<stop stop-color="#1884E8"/>
<stop offset="0.453125" stop-color="#149BBE"/>
<stop offset="1" stop-color="#14BD80"/>
</linearGradient>
<linearGradient id="paint6_linear_519_1146" x1="348.318" y1="21.7121" x2="363.616" y2="21.7121" gradientUnits="userSpaceOnUse">
<stop stop-color="#1884E8"/>
<stop offset="0.453125" stop-color="#149BBE"/>
<stop offset="1" stop-color="#14BD80"/>
</linearGradient>
<linearGradient id="paint7_linear_519_1146" x1="348.318" y1="23.0796" x2="365.115" y2="23.0796" gradientUnits="userSpaceOnUse">
<stop stop-color="#1884E8"/>
<stop offset="0.453125" stop-color="#149BBE"/>
<stop offset="1" stop-color="#14BD80"/>
</linearGradient>
<linearGradient id="paint8_linear_519_1146" x1="348.318" y1="24.4471" x2="366.613" y2="24.4471" gradientUnits="userSpaceOnUse">
<stop stop-color="#1884E8"/>
<stop offset="0.453125" stop-color="#149BBE"/>
<stop offset="1" stop-color="#14BD80"/>
</linearGradient>
<linearGradient id="paint9_linear_519_1146" x1="348.318" y1="25.8124" x2="368.115" y2="25.8124" gradientUnits="userSpaceOnUse">
<stop stop-color="#1884E8"/>
<stop offset="0.453125" stop-color="#149BBE"/>
<stop offset="1" stop-color="#14BD80"/>
</linearGradient>
<linearGradient id="paint10_linear_519_1146" x1="348.318" y1="27.1799" x2="369.613" y2="27.1799" gradientUnits="userSpaceOnUse">
<stop stop-color="#1884E8"/>
<stop offset="0.453125" stop-color="#149BBE"/>
<stop offset="1" stop-color="#14BD80"/>
</linearGradient>
<linearGradient id="paint11_linear_519_1146" x1="348.318" y1="28.5473" x2="371.116" y2="28.5473" gradientUnits="userSpaceOnUse">
<stop stop-color="#1884E8"/>
<stop offset="0.453125" stop-color="#149BBE"/>
<stop offset="1" stop-color="#14BD80"/>
</linearGradient>
<linearGradient id="paint12_linear_519_1146" x1="348.318" y1="29.9148" x2="372.614" y2="29.9148" gradientUnits="userSpaceOnUse">
<stop stop-color="#1884E8"/>
<stop offset="0.453125" stop-color="#149BBE"/>
<stop offset="1" stop-color="#14BD80"/>
</linearGradient>
<linearGradient id="paint13_linear_519_1146" x1="348.318" y1="31.2822" x2="374.112" y2="31.2822" gradientUnits="userSpaceOnUse">
<stop stop-color="#1884E8"/>
<stop offset="0.453125" stop-color="#149BBE"/>
<stop offset="1" stop-color="#14BD80"/>
</linearGradient>
<linearGradient id="paint14_linear_519_1146" x1="348.318" y1="32.6476" x2="375.615" y2="32.6476" gradientUnits="userSpaceOnUse">
<stop stop-color="#1884E8"/>
<stop offset="0.453125" stop-color="#149BBE"/>
<stop offset="1" stop-color="#14BD80"/>
</linearGradient>
<linearGradient id="paint15_linear_519_1146" x1="348.318" y1="34.0151" x2="377.113" y2="34.0151" gradientUnits="userSpaceOnUse">
<stop stop-color="#1884E8"/>
<stop offset="0.453125" stop-color="#149BBE"/>
<stop offset="1" stop-color="#14BD80"/>
</linearGradient>
<linearGradient id="paint16_linear_519_1146" x1="348.318" y1="35.3825" x2="378.611" y2="35.3825" gradientUnits="userSpaceOnUse">
<stop stop-color="#1884E8"/>
<stop offset="0.453125" stop-color="#149BBE"/>
<stop offset="1" stop-color="#14BD80"/>
</linearGradient>
<linearGradient id="paint17_linear_519_1146" x1="348.318" y1="36.75" x2="380.114" y2="36.75" gradientUnits="userSpaceOnUse">
<stop stop-color="#1884E8"/>
<stop offset="0.453125" stop-color="#149BBE"/>
<stop offset="1" stop-color="#14BD80"/>
</linearGradient>
<linearGradient id="paint18_linear_519_1146" x1="348.318" y1="38.1154" x2="381.612" y2="38.1154" gradientUnits="userSpaceOnUse">
<stop stop-color="#1884E8"/>
<stop offset="0.453125" stop-color="#149BBE"/>
<stop offset="1" stop-color="#14BD80"/>
</linearGradient>
<clipPath id="clip0_519_1146">
<rect width="400" height="222.11" fill="white"/>
</clipPath>
<clipPath id="clip1_519_1146">
<rect width="192" height="171" fill="white" transform="translate(16 32)"/>
</clipPath>
</defs>
</svg>
