<svg width="400" height="223" viewBox="0 0 400 223" fill="none" xmlns="http://www.w3.org/2000/svg">
<g clip-path="url(#clip0_521_1476)">
<rect width="400" height="222.11" fill="white"/>
<rect width="400" height="222.111" fill="url(#paint0_linear_521_1476)"/>
<g filter="url(#filter0_d_521_1476)">
<path d="M68 222L199.573 0H400V222H68Z" fill="#1253E0"/>
</g>
<g clip-path="url(#clip1_521_1476)">
<path d="M238.221 181.119C237.284 173.555 232.614 166.103 225.426 163.642C228.261 171.427 228.26 179.967 225.425 187.752C224.32 190.75 222.781 193.969 223.82 196.991C224.466 198.871 226.047 200.31 227.815 201.209C229.582 202.109 231.544 202.538 233.481 202.958L233.862 203.274C236.937 196.305 239.158 188.683 238.221 181.119Z" fill="#F0F0F0"/>
<path d="M225.355 163.785C229.541 168.491 232.142 174.402 232.79 180.677C232.953 182.026 232.904 183.392 232.643 184.725C232.348 186.015 231.713 187.202 230.806 188.163C229.978 189.076 229.026 189.914 228.433 191.013C228.138 191.58 227.966 192.204 227.928 192.842C227.89 193.481 227.987 194.12 228.212 194.719C228.735 196.225 229.766 197.452 230.816 198.617C231.982 199.911 233.213 201.236 233.708 202.951C233.768 203.158 234.086 203.053 234.026 202.845C233.164 199.862 230.278 198.167 228.902 195.479C228.26 194.225 227.99 192.77 228.592 191.446C229.119 190.288 230.1 189.424 230.946 188.506C231.845 187.582 232.505 186.451 232.868 185.211C233.195 183.896 233.296 182.534 233.168 181.185C232.929 178.142 232.214 175.155 231.049 172.335C229.739 169.109 227.888 166.132 225.577 163.533C225.434 163.372 225.213 163.625 225.355 163.785H225.355Z" fill="white"/>
<path d="M232.7 178.644C233.734 178.392 234.645 177.78 235.271 176.916C235.897 176.051 236.196 174.992 236.115 173.927C236.098 173.712 235.764 173.728 235.781 173.944C235.858 174.936 235.579 175.922 234.995 176.726C234.41 177.529 233.559 178.097 232.595 178.326C232.385 178.376 232.491 178.694 232.7 178.644Z" fill="white"/>
<path d="M231.287 187.756C229.419 186.636 228.04 184.851 227.425 182.757C227.364 182.549 227.046 182.655 227.107 182.862C227.751 185.04 229.19 186.895 231.136 188.056C231.322 188.166 231.471 187.866 231.287 187.756V187.756Z" fill="white"/>
<path d="M229.428 169.428C229.048 169.609 228.629 169.692 228.209 169.671C227.789 169.65 227.381 169.524 227.021 169.305C226.837 169.192 226.688 169.493 226.871 169.605C227.269 169.845 227.72 169.983 228.184 170.008C228.648 170.033 229.112 169.943 229.533 169.747C229.574 169.731 229.608 169.701 229.628 169.662C229.648 169.622 229.652 169.577 229.64 169.534C229.625 169.492 229.595 169.457 229.556 169.437C229.516 169.417 229.47 169.414 229.428 169.428Z" fill="white"/>
<path d="M203.519 177.151C203.632 177.225 203.745 177.299 203.858 177.375C205.372 178.374 206.802 179.495 208.135 180.726C208.239 180.82 208.344 180.916 208.446 181.013C211.625 184.014 214.222 187.581 216.104 191.534C216.851 193.107 217.478 194.736 217.979 196.405C218.671 198.71 219.239 201.264 220.609 203.149C220.75 203.348 220.903 203.537 221.067 203.716H233.448C233.476 203.702 233.504 203.691 233.533 203.677L234.027 203.699C234.007 203.612 233.985 203.521 233.965 203.433C233.954 203.382 233.939 203.331 233.928 203.28C233.92 203.246 233.911 203.212 233.906 203.181C233.903 203.169 233.9 203.158 233.897 203.149C233.891 203.118 233.883 203.09 233.877 203.062C233.753 202.554 233.625 202.047 233.493 201.539C233.493 201.536 233.493 201.536 233.49 201.533C232.476 197.669 231.132 193.856 229.253 190.369C229.197 190.264 229.14 190.156 229.078 190.051C228.223 188.484 227.241 186.99 226.143 185.583C225.539 184.815 224.897 184.077 224.219 183.374C222.464 181.561 220.436 180.036 218.208 178.855C213.768 176.502 208.626 175.6 203.881 177.038C203.759 177.075 203.641 177.111 203.519 177.151Z" fill="#F0F0F0"/>
<path d="M203.547 177.309C209.712 178.538 215.335 181.685 219.617 186.304C220.556 187.282 221.336 188.403 221.927 189.624C222.466 190.833 222.671 192.164 222.523 193.48C222.41 194.709 222.152 195.954 222.338 197.189C222.443 197.82 222.68 198.422 223.032 198.955C223.385 199.488 223.846 199.94 224.385 200.282C225.706 201.168 227.265 201.525 228.802 201.821C230.509 202.149 232.287 202.463 233.711 203.533C233.884 203.663 234.074 203.387 233.902 203.257C231.424 201.396 228.103 201.786 225.392 200.472C224.127 199.859 223.038 198.859 222.725 197.439C222.451 196.196 222.716 194.913 222.841 193.669C223.004 192.388 222.852 191.086 222.399 189.877C221.871 188.63 221.135 187.481 220.223 186.481C218.207 184.196 215.844 182.243 213.223 180.695C210.241 178.912 206.977 177.653 203.573 176.974C203.362 176.932 203.338 177.267 203.547 177.309V177.309Z" fill="white"/>
<path d="M218.325 184.736C219 183.909 219.36 182.869 219.341 181.801C219.322 180.733 218.926 179.707 218.222 178.905C218.08 178.743 217.822 178.959 217.966 179.121C218.622 179.866 218.991 180.822 219.007 181.817C219.022 182.811 218.683 183.779 218.05 184.544C217.913 184.711 218.189 184.901 218.325 184.736H218.325Z" fill="white"/>
<path d="M222.663 192.864C220.5 193.099 218.328 192.507 216.58 191.206C216.407 191.077 216.217 191.354 216.39 191.483C218.211 192.833 220.472 193.444 222.722 193.195C222.937 193.171 222.876 192.84 222.663 192.864V192.864Z" fill="white"/>
<path d="M210.184 179.353C209.99 179.728 209.705 180.047 209.357 180.284C209.009 180.521 208.607 180.667 208.189 180.71C207.974 180.731 208.035 181.061 208.249 181.04C208.711 180.991 209.154 180.829 209.539 180.568C209.925 180.308 210.241 179.956 210.459 179.545C210.483 179.507 210.492 179.463 210.484 179.419C210.476 179.376 210.452 179.337 210.417 179.311C210.38 179.286 210.336 179.276 210.292 179.284C210.248 179.292 210.21 179.317 210.184 179.353V179.353Z" fill="white"/>
<path d="M183.584 48.2119L35.8234 21.041C35.5226 20.9829 35.2132 20.9866 34.9138 21.0517C34.6423 21.1114 34.3874 21.2309 34.1675 21.4016C33.9526 21.5698 33.7796 21.786 33.6624 22.033C33.5377 22.2997 33.4743 22.5912 33.4768 22.8858V155.747C33.4741 156.042 33.5373 156.333 33.6619 156.6C33.7789 156.847 33.9516 157.064 34.1664 157.232C34.3861 157.403 34.6409 157.523 34.9124 157.582C35.2117 157.648 35.5211 157.652 35.822 157.594L183.584 130.423C183.706 130.397 183.82 130.34 183.912 130.255C184.02 130.158 184.111 130.043 184.18 129.915C184.26 129.769 184.32 129.613 184.36 129.451C184.403 129.275 184.426 129.094 184.426 128.912V49.7267C184.426 49.5446 184.404 49.3632 184.36 49.1866C184.32 49.0246 184.26 48.8684 184.18 48.7222C184.111 48.5941 184.021 48.479 183.912 48.382C183.82 48.2977 183.706 48.2398 183.584 48.2144L183.584 48.2119Z" fill="#E4E4E4"/>
<path d="M185.844 48.2119L38.0832 21.041C37.7824 20.9829 37.473 20.9866 37.1736 21.0517C36.9021 21.1114 36.6472 21.2309 36.4273 21.4016C36.2124 21.5698 36.0395 21.786 35.9223 22.033C35.7975 22.2997 35.7341 22.5912 35.7367 22.8858V155.747C35.7339 156.042 35.7972 156.333 35.9217 156.6C36.0387 156.847 36.2115 157.064 36.4262 157.232C36.6459 157.403 36.9008 157.523 37.1722 157.582C37.4716 157.648 37.781 157.652 38.0818 157.594L185.844 130.423C185.966 130.397 186.079 130.34 186.172 130.255C186.28 130.158 186.371 130.043 186.44 129.915C186.519 129.769 186.58 129.613 186.619 129.451C186.663 129.275 186.685 129.094 186.686 128.912V49.7267C186.686 49.5446 186.664 49.3632 186.62 49.1866C186.58 49.0246 186.52 48.8684 186.44 48.7222C186.371 48.5941 186.28 48.479 186.172 48.382C186.08 48.2977 185.966 48.2398 185.844 48.2144L185.844 48.2119Z" fill="white"/>
<path d="M185.844 48.2119L38.0832 21.041C37.7824 20.9829 37.473 20.9866 37.1736 21.0517C36.9021 21.1114 36.6472 21.2309 36.4273 21.4016C36.2124 21.5698 36.0395 21.786 35.9223 22.033C35.7975 22.2997 35.7341 22.5912 35.7367 22.8858V155.747C35.7339 156.042 35.7972 156.333 35.9217 156.6C36.0387 156.847 36.2115 157.064 36.4262 157.232C36.6459 157.403 36.9008 157.523 37.1722 157.582C37.4716 157.648 37.781 157.652 38.0818 157.594L185.844 130.423C185.966 130.397 186.079 130.34 186.172 130.255C186.28 130.158 186.371 130.043 186.44 129.915C186.519 129.769 186.58 129.613 186.619 129.451C186.663 129.275 186.685 129.094 186.686 128.912V49.7267C186.686 49.5446 186.664 49.3632 186.62 49.1866C186.58 49.0246 186.52 48.8684 186.44 48.7222C186.371 48.5941 186.28 48.479 186.172 48.382C186.08 48.2977 185.966 48.2398 185.844 48.2144L185.844 48.2119ZM186.406 128.96C186.406 129.082 186.391 129.203 186.362 129.321C186.335 129.429 186.295 129.533 186.242 129.631C186.196 129.716 186.135 129.793 186.063 129.858C186.001 129.914 185.926 129.952 185.844 129.969L38.0846 156.838C37.8842 156.876 37.6781 156.874 37.4787 156.83C37.2981 156.79 37.1286 156.71 36.9824 156.596C36.8396 156.484 36.7247 156.339 36.6468 156.175C36.5641 155.998 36.522 155.804 36.5237 155.608V23.027C36.5219 22.8311 36.5639 22.6374 36.6465 22.46C36.7242 22.2953 36.839 22.1511 36.9818 22.0387C37.1279 21.9247 37.2973 21.8447 37.4779 21.8045C37.6772 21.7605 37.8833 21.7575 38.0838 21.7957L185.844 48.6661C185.926 48.6828 186.001 48.7212 186.063 48.7772C186.135 48.8418 186.196 48.9186 186.242 49.004C186.295 49.1015 186.335 49.2056 186.362 49.3136C186.391 49.4316 186.406 49.5527 186.406 49.6742V128.96L186.406 128.96Z" fill="#CACACA"/>
<path d="M12.0002 62.4692C11.9931 61.5628 12.1841 60.6659 12.5598 59.8416C12.9109 59.0802 13.4298 58.4087 14.0773 57.878C14.729 57.3474 15.4899 56.9685 16.3052 56.7686C17.1872 56.5551 18.1037 56.5274 18.9969 56.6872C19.9338 56.851 20.8327 57.1859 21.6491 57.6753C22.4557 58.1569 23.1776 58.7686 23.7861 59.4858C24.3894 60.1928 24.8715 60.9955 25.2126 61.8611C25.5526 62.72 25.7291 63.6353 25.7329 64.5596C25.7393 65.4336 25.562 66.2992 25.2126 67.0999C24.8845 67.8439 24.3975 68.5065 23.7861 69.0408C23.1663 69.579 22.4371 69.9749 21.6491 70.201C20.7871 70.4452 19.8839 70.5068 18.9969 70.3818V70.3818C18.0521 70.2512 17.1397 69.9451 16.3066 69.4791C15.4695 69.013 14.7166 68.4087 14.0795 67.6916C13.4397 66.9759 12.9264 66.1558 12.5618 65.2667C12.1961 64.3794 12.0054 63.4294 12.0002 62.4692V62.4692Z" fill="#E4E4E4"/>
<path d="M12.0002 89.9701C11.9931 89.0638 12.1841 88.1668 12.5598 87.3425C12.9109 86.5811 13.4298 85.9096 14.0773 85.3789C14.729 84.8483 15.4899 84.4694 16.3052 84.2695C17.1872 84.056 18.1037 84.0283 18.9969 84.1882C19.9338 84.3519 20.8327 84.6868 21.6491 85.1762C22.4557 85.6579 23.1776 86.2696 23.7861 86.9867C24.3894 87.6937 24.8715 88.4964 25.2126 89.362C25.5526 90.221 25.7291 91.1363 25.7329 92.0605C25.7393 92.9346 25.562 93.8001 25.2126 94.6008C24.8845 95.3448 24.3975 96.0074 23.7861 96.5417C23.1663 97.0799 22.4371 97.4758 21.6491 97.7019C20.7871 97.9461 19.8839 98.0077 18.9969 97.8828V97.8828C18.0521 97.7521 17.1397 97.446 16.3066 96.98C15.4695 96.5139 14.7166 95.9096 14.0795 95.1925C13.4397 94.4768 12.9264 93.6567 12.5618 92.7676C12.1961 91.8803 12.0054 90.9303 12.0002 89.9701Z" fill="#E4E4E4"/>
<path d="M12.0002 117.471C11.9931 116.565 12.1841 115.668 12.5598 114.843C12.9109 114.082 13.4298 113.411 14.0773 112.88C14.729 112.349 15.4899 111.97 16.3052 111.77C17.1872 111.557 18.1037 111.529 18.9969 111.689C19.9338 111.853 20.8327 112.188 21.6491 112.677C22.4557 113.159 23.1776 113.77 23.7861 114.488C24.3894 115.195 24.8715 115.997 25.2126 116.863C25.5526 117.722 25.7291 118.637 25.7329 119.561C25.7393 120.435 25.562 121.301 25.2126 122.102C24.8845 122.846 24.3975 123.508 23.7861 124.043C23.1663 124.581 22.4371 124.977 21.6491 125.203C20.7871 125.447 19.8839 125.509 18.9969 125.384V125.384C18.0521 125.253 17.1397 124.947 16.3066 124.481C15.4695 124.015 14.7166 123.411 14.0795 122.693C13.4397 121.978 12.9264 121.158 12.5618 120.269C12.1961 119.381 12.0054 118.431 12.0002 117.471Z" fill="#E4E4E4"/>
<path d="M13.6951 62.4692C13.688 61.5628 13.879 60.6659 14.2547 59.8416C14.6058 59.0802 15.1247 58.4087 15.7721 57.878C16.4239 57.3474 17.1848 56.9685 18.0001 56.7686C18.8821 56.5551 19.7986 56.5274 20.6918 56.6872C21.6287 56.851 22.5276 57.1859 23.344 57.6753C24.1505 58.1569 24.8725 58.7686 25.481 59.4858C26.0843 60.1928 26.5664 60.9955 26.9075 61.8611C27.2475 62.72 27.4239 63.6353 27.4278 64.5596C27.4342 65.4336 27.2569 66.2992 26.9075 67.0999C26.5794 67.8439 26.0924 68.5065 25.481 69.0408C24.8612 69.579 24.132 69.9749 23.344 70.201C22.482 70.4452 21.5788 70.5068 20.6918 70.3818V70.3818C19.747 70.2512 18.8346 69.9451 18.0015 69.4791C17.1644 69.013 16.4115 68.4087 15.7744 67.6916C15.1346 66.9759 14.6213 66.1558 14.2566 65.2667C13.891 64.3794 13.7003 63.4294 13.6951 62.4692V62.4692Z" fill="#0A9E8B"/>
<path d="M13.6951 89.7827C13.6907 88.8629 13.8815 87.9527 14.2547 87.1126C14.609 86.3211 15.1262 85.6139 15.7721 85.0372C16.4183 84.4611 17.1771 84.0265 18.0001 83.7614C18.8687 83.484 19.7848 83.3883 20.6918 83.4805C21.6182 83.5715 22.5185 83.8402 23.344 84.2718C24.1479 84.6916 24.8714 85.2509 25.481 85.9238C26.0864 86.5892 26.5694 87.3571 26.9075 88.1919C27.2499 89.0378 27.4265 89.942 27.4275 90.855C27.4314 91.7416 27.2543 92.6196 26.9072 93.4349C26.5743 94.2108 26.0863 94.9098 25.4734 95.4887C24.8604 96.0676 24.1356 96.514 23.3437 96.8003C22.4946 97.1065 21.592 97.2349 20.6915 97.1776V97.1776C19.7579 97.12 18.8442 96.8813 18.0012 96.4745C16.3181 95.6623 14.9872 94.263 14.2569 92.5379C13.8889 91.6662 13.6979 90.7295 13.6951 89.7827V89.7827Z" fill="#0A9E8B"/>
<path d="M13.6951 117.096C13.6939 116.181 13.8773 115.275 14.2343 114.433C14.5913 113.591 15.1144 112.831 15.7721 112.197C16.581 111.42 17.5662 110.852 18.6426 110.542C19.7191 110.233 20.8545 110.191 21.9507 110.42C23.0468 110.65 24.0709 111.144 24.9342 111.86C25.7976 112.575 26.4744 113.491 26.9061 114.528C27.3304 115.56 27.4964 116.681 27.3896 117.792C27.2828 118.903 26.9064 119.971 26.2933 120.903C25.6802 121.835 24.8491 122.601 23.8727 123.136C22.8962 123.671 21.8041 123.957 20.6918 123.97C19.3301 123.99 17.9929 123.606 16.848 122.866C15.7032 122.126 14.8017 121.062 14.2569 119.81C13.8864 118.953 13.6951 118.03 13.6951 117.096V117.096Z" fill="#0A9E8B"/>
<path d="M17.9631 62.4381L20.0144 62.7545V60.7245C20.0134 60.6366 20.0314 60.5496 20.067 60.4693C20.1003 60.3951 20.1498 60.3294 20.2119 60.2771C20.2746 60.2246 20.3481 60.1868 20.4271 60.1663C20.5132 60.1442 20.603 60.1403 20.6907 60.1549C20.7836 60.17 20.8729 60.2021 20.9542 60.2496C21.0353 60.2968 21.108 60.3572 21.1695 60.4282C21.2308 60.4986 21.28 60.5788 21.315 60.6655C21.3498 60.7515 21.3682 60.8434 21.3689 60.9363V62.9634L23.3813 63.2733C23.4727 63.2878 23.5607 63.3192 23.6406 63.366C23.8009 63.4594 23.9256 63.6039 23.9948 63.7765C24.029 63.8619 24.0467 63.953 24.0471 64.045C24.0478 64.132 24.0299 64.2181 23.9948 64.2976C23.9624 64.371 23.9142 64.4363 23.8536 64.4887C23.7921 64.5411 23.7199 64.5793 23.642 64.6004C23.5575 64.6231 23.4692 64.6277 23.3827 64.614L21.3675 64.3115V66.3341C21.3682 66.422 21.3501 66.509 21.3144 66.5893C21.281 66.6638 21.2316 66.7299 21.1698 66.7829C21.1073 66.836 21.034 66.8747 20.9551 66.8963C20.8693 66.9196 20.7797 66.9249 20.6918 66.9116C20.599 66.8981 20.5096 66.8673 20.428 66.8209C20.3468 66.7748 20.274 66.7154 20.2124 66.6451C20.151 66.5753 20.1018 66.4956 20.067 66.4092C20.0323 66.323 20.0145 66.2309 20.0144 66.1379V64.108L17.9631 63.7989C17.8688 63.7844 17.778 63.7526 17.6953 63.7051C17.6129 63.6581 17.5389 63.5976 17.4763 63.5262C17.4141 63.4559 17.3642 63.3756 17.3286 63.2886C17.2931 63.2016 17.2747 63.1085 17.2744 63.0144C17.2737 62.9258 17.2922 62.8381 17.3286 62.7573C17.3628 62.6824 17.4133 62.6161 17.4763 62.5634C17.5401 62.5099 17.6149 62.4712 17.6953 62.45C17.7828 62.4276 17.8739 62.4235 17.9631 62.4381V62.4381Z" fill="white"/>
<path d="M19.4028 92.143L25.0993 92.5575H25.1202L22.4488 87.6895C22.4322 87.659 22.4085 87.6329 22.3796 87.6136C22.3655 87.6041 22.3502 87.5964 22.3341 87.5906C22.318 87.5848 22.3012 87.581 22.2841 87.5795C22.2675 87.578 22.2508 87.5788 22.2344 87.5818C22.2186 87.5848 22.2033 87.5899 22.1889 87.5971C22.1602 87.6114 22.1361 87.6338 22.1197 87.6615L20.302 90.6605L20.2144 90.8048L19.4028 92.143Z" fill="white"/>
<path d="M16.1518 91.9063L21.1777 92.272L20.2144 90.8045L20.1449 90.6985L18.8817 88.7737C18.8593 88.7439 18.8314 88.7186 18.7995 88.6994C18.784 88.6901 18.7676 88.6824 18.7506 88.6762C18.733 88.6699 18.7149 88.6654 18.6964 88.6629C18.6785 88.6603 18.6604 88.6596 18.6424 88.6609C18.6249 88.6621 18.6076 88.6651 18.5907 88.6699C18.5741 88.6748 18.5581 88.6814 18.543 88.6898C18.5278 88.6982 18.5135 88.7082 18.5006 88.7198L18.4964 88.725L18.491 88.7301L18.4868 88.7354L18.4825 88.7408L16.1518 91.9063Z" fill="white"/>
<path d="M19.9526 86.8883C20.0684 86.8984 20.1813 86.9308 20.285 86.9836C20.3867 87.0355 20.4785 87.1051 20.5559 87.1891C20.6333 87.2727 20.6951 87.3695 20.7384 87.4749C20.7824 87.5815 20.8051 87.6958 20.8054 87.8112C20.8059 87.923 20.7831 88.0336 20.7384 88.1361C20.696 88.233 20.6339 88.3199 20.5559 88.3912C20.4776 88.4627 20.3854 88.517 20.285 88.5509C20.1781 88.5867 20.0649 88.6001 19.9526 88.5903C19.8365 88.5805 19.7235 88.5485 19.6195 88.4959C19.5173 88.4442 19.4251 88.3747 19.3472 88.2906C19.2693 88.207 19.207 88.11 19.1633 88.0042C19.1189 87.8971 19.096 87.7823 19.0958 87.6663C19.0953 87.5541 19.1183 87.443 19.1633 87.3403C19.2061 87.2432 19.2688 87.1563 19.3472 87.0851C19.4261 87.014 19.5188 86.9601 19.6195 86.9269C19.7267 86.8913 19.8401 86.8782 19.9526 86.8883V86.8883Z" fill="white"/>
<path d="M81.4232 106.294L137.829 52.5797L138.071 53.005L81.7757 106.748L81.4232 106.294Z" fill="#E6E6E6"/>
<path d="M81.4323 45.4136L81.7859 44.9883L138.065 103.626L137.823 104.03L81.4323 45.4136Z" fill="#E6E6E6"/>
<path d="M137.258 51.7955L82.4289 44.2353C82.1754 44.199 81.9169 44.2211 81.6732 44.3C81.4412 44.3767 81.2295 44.505 81.0537 44.6753C80.872 44.8515 80.7291 45.064 80.6343 45.2991C80.5305 45.5584 80.478 45.8356 80.4797 46.115V105.353C80.479 105.636 80.5314 105.917 80.6343 106.18C80.7299 106.426 80.8723 106.65 81.0535 106.84C81.2282 107.024 81.4392 107.169 81.6729 107.266C81.9123 107.364 82.1704 107.407 82.4286 107.393L137.258 104.362C137.443 104.35 137.622 104.291 137.779 104.192C137.945 104.087 138.089 103.95 138.203 103.789C138.328 103.613 138.425 103.418 138.488 103.211C138.558 102.987 138.593 102.753 138.593 102.518V53.7478C138.593 53.5098 138.558 53.2731 138.488 53.0455C138.424 52.8319 138.328 52.6292 138.203 52.4445C138.089 52.2741 137.946 52.1257 137.779 52.0065C137.625 51.8958 137.446 51.8235 137.258 51.7955V51.7955ZM82.4289 106.783C82.2445 106.793 82.0603 106.762 81.8896 106.691C81.7228 106.622 81.5723 106.518 81.4478 106.387C81.3185 106.25 81.217 106.09 81.1489 105.914C81.0756 105.726 81.0383 105.526 81.0388 105.324V46.1885C81.0377 45.9893 81.0751 45.7918 81.1489 45.607C81.2164 45.4389 81.3182 45.2868 81.4478 45.1607C81.5732 45.0392 81.7242 44.9477 81.8896 44.8928C82.0634 44.8361 82.2479 44.8199 82.4289 44.8454L137.258 52.3033C137.392 52.3232 137.52 52.3749 137.631 52.4541C137.75 52.5389 137.853 52.6446 137.934 52.766C138.023 52.898 138.092 53.0428 138.138 53.1955C138.188 53.3582 138.213 53.5274 138.213 53.6976V102.538C138.214 102.706 138.188 102.873 138.138 103.034C138.093 103.182 138.024 103.321 137.934 103.447C137.853 103.562 137.75 103.659 137.631 103.734C137.518 103.805 137.39 103.846 137.258 103.854L82.4289 106.783Z" fill="#E6E6E6"/>
<path d="M80.6125 113.648C80.4668 113.664 80.3277 113.719 80.2094 113.806C80.0788 113.902 79.9678 114.022 79.8823 114.16C79.7851 114.314 79.7116 114.482 79.6642 114.659C79.6118 114.851 79.5864 115.05 79.5888 115.249C79.59 115.44 79.6185 115.63 79.6736 115.812C79.7215 115.973 79.796 116.124 79.8939 116.26C79.9793 116.38 80.0899 116.479 80.2179 116.55C80.3388 116.617 80.4758 116.648 80.6134 116.64L176.601 108.662C176.677 108.656 176.749 108.623 176.804 108.569C176.874 108.502 176.93 108.422 176.971 108.334C177.022 108.226 177.06 108.112 177.084 107.994C177.112 107.858 177.127 107.72 177.128 107.581C177.129 107.443 177.117 107.306 177.09 107.171C177.068 107.056 177.032 106.945 176.982 106.84C176.944 106.755 176.888 106.68 176.82 106.619C176.764 106.569 176.692 106.543 176.618 106.544H176.601L80.6125 113.648Z" fill="#E6E6E6"/>
<path d="M80.6125 122.727C80.466 122.747 80.3271 122.805 80.2094 122.895C80.0789 122.994 79.968 123.117 79.8823 123.257C79.7853 123.413 79.7118 123.583 79.6642 123.761C79.6117 123.955 79.5863 124.155 79.5888 124.355C79.5898 124.546 79.6184 124.735 79.6735 124.916C79.7212 125.075 79.7957 125.225 79.8939 125.358C79.9791 125.475 80.0897 125.572 80.2173 125.639C80.339 125.703 80.4762 125.73 80.6128 125.718L176.601 115.09C176.678 115.081 176.749 115.046 176.804 114.991C176.874 114.922 176.93 114.841 176.971 114.752C177.022 114.642 177.06 114.526 177.084 114.407C177.112 114.27 177.127 114.131 177.128 113.992C177.129 113.855 177.117 113.718 177.09 113.583C177.069 113.47 177.032 113.359 176.982 113.255C176.943 113.172 176.888 113.099 176.819 113.039C176.763 112.991 176.691 112.966 176.617 112.97H176.6L80.6125 122.727Z" fill="#E6E6E6"/>
<path d="M80.6125 131.658C80.4652 131.682 80.3266 131.744 80.2094 131.837C80.0789 131.94 79.9681 132.066 79.8823 132.208C79.7855 132.367 79.712 132.539 79.6642 132.719C79.6119 132.913 79.5865 133.113 79.5888 133.314C79.5897 133.504 79.6183 133.692 79.6735 133.873C79.721 134.03 79.7956 134.178 79.8939 134.309C79.9791 134.424 80.0899 134.517 80.2173 134.581C80.3399 134.641 80.4772 134.665 80.6128 134.649L176.601 121.414C176.678 121.403 176.75 121.366 176.804 121.309C176.874 121.239 176.93 121.156 176.971 121.065C177.022 120.954 177.059 120.837 177.084 120.717C177.112 120.58 177.127 120.441 177.128 120.301C177.129 120.165 177.117 120.028 177.09 119.894C177.069 119.781 177.032 119.671 176.982 119.568C176.944 119.487 176.888 119.415 176.819 119.357C176.762 119.311 176.69 119.288 176.617 119.293H176.6L80.6125 131.658Z" fill="#E6E6E6"/>
<path d="M23.4302 114.22L17.9506 114.154C17.8593 114.151 17.768 114.164 17.6811 114.192C17.5971 114.22 17.5185 114.262 17.4487 114.316C17.3791 114.37 17.3194 114.436 17.2724 114.511C17.2242 114.588 17.1902 114.672 17.1721 114.761C17.154 114.867 17.1595 114.976 17.1882 115.08C17.2025 115.132 17.2224 115.182 17.2475 115.229C17.2987 115.326 17.3704 115.411 17.4574 115.477C17.588 115.576 17.747 115.631 17.9108 115.632L19.5588 115.647C19.6365 115.647 19.7124 115.671 19.7771 115.714C19.8418 115.757 19.8926 115.818 19.9232 115.89C19.9437 115.938 19.9543 115.991 19.9543 116.043V119.288C19.9502 119.467 20.0096 119.642 20.122 119.781C20.2345 119.92 20.3925 120.016 20.5681 120.05C20.7272 120.077 20.8908 120.051 21.0336 119.975C21.1765 119.9 21.2908 119.78 21.359 119.633C21.404 119.536 21.4273 119.431 21.4274 119.324V116.052C21.4274 116.001 21.4375 115.951 21.457 115.904C21.4765 115.856 21.505 115.814 21.541 115.778C21.577 115.741 21.6197 115.713 21.6667 115.693C21.7137 115.674 21.7641 115.664 21.8149 115.664L21.8186 115.664L23.3929 115.676C23.5686 115.682 23.7407 115.625 23.8785 115.515C24.0162 115.406 24.1107 115.25 24.1451 115.077C24.1624 114.973 24.1569 114.865 24.1291 114.763C24.1012 114.66 24.0517 114.565 23.9838 114.484C23.9159 114.402 23.8313 114.337 23.7357 114.291C23.6402 114.245 23.536 114.221 23.4302 114.22V114.22Z" fill="white"/>
<path d="M23.4304 118.591C23.5867 118.591 23.7388 118.641 23.8642 118.735C23.9897 118.828 24.0818 118.96 24.1269 119.11C24.172 119.26 24.1678 119.421 24.1148 119.568C24.0618 119.716 23.9629 119.842 23.8327 119.929C23.7025 120.016 23.548 120.058 23.3919 120.05C23.2359 120.041 23.0867 119.983 22.9664 119.883C22.8462 119.783 22.7612 119.646 22.7242 119.494C22.6871 119.342 22.6999 119.181 22.7607 119.037C22.8161 118.905 22.9092 118.792 23.0284 118.712C23.1475 118.633 23.2874 118.591 23.4304 118.591V118.591Z" fill="white"/>
<path d="M151.859 75.5936C151.834 75.7916 151.793 75.9871 151.737 76.1786L163.159 89.9052L167.425 89.1674L169.376 95.4836L161.95 97.5263C161.35 97.6913 160.713 97.6566 160.135 97.4273C159.556 97.198 159.067 96.7866 158.742 96.2547L148.126 78.9209C147.36 78.9231 146.611 78.6912 145.98 78.256C145.349 77.8208 144.864 77.2031 144.591 76.4848C144.318 75.7666 144.27 74.982 144.452 74.2353C144.634 73.4887 145.038 72.8154 145.611 72.3049C146.184 71.7945 146.897 71.4712 147.658 71.378C148.418 71.2848 149.189 71.426 149.867 71.7831C150.545 72.1401 151.099 72.6959 151.455 73.3766C151.811 74.0573 151.952 74.8306 151.859 75.5936V75.5936Z" fill="#FFB6B6"/>
<path d="M163.665 89.1399C163.787 88.9415 163.95 88.7718 164.143 88.6425C164.337 88.5131 164.556 88.4272 164.785 88.3905L172.799 87.1079C173.932 86.7488 175.162 86.8557 176.217 87.4049C177.272 87.9542 178.068 88.901 178.428 90.0379C178.789 91.1747 178.686 92.4088 178.142 93.4695C177.598 94.5302 176.656 95.3309 175.525 95.6962L168.203 99.269C167.994 99.3709 167.765 99.4265 167.533 99.4318C167.301 99.4372 167.07 99.3923 166.857 99.3001C166.643 99.2079 166.452 99.0706 166.296 98.8976C166.141 98.7246 166.024 98.5199 165.954 98.2975L163.498 90.481C163.428 90.2586 163.407 90.0236 163.436 89.7922C163.464 89.5607 163.542 89.3382 163.665 89.1399V89.1399Z" fill="#3F3D56"/>
<path d="M164.112 200.328H160.648L159.001 186.921L164.112 186.921L164.112 200.328Z" fill="#FFB6B6"/>
<path d="M164.995 203.697L153.828 203.697V203.555C153.828 202.398 154.286 201.289 155.101 200.471C155.916 199.653 157.022 199.193 158.174 199.193H158.175L164.995 199.193L164.995 203.697Z" fill="#2F2E41"/>
<path d="M200.269 200.328H196.806L195.158 186.921L200.27 186.921L200.269 200.328Z" fill="#FFB6B6"/>
<path d="M201.152 203.697L189.985 203.697V203.555C189.986 202.398 190.444 201.289 191.259 200.471C192.074 199.653 193.179 199.193 194.332 199.193H194.332L201.152 199.193L201.152 203.697Z" fill="#2F2E41"/>
<path d="M165.464 118.662L180.471 114.31C185.937 118.201 189.712 126.002 188.49 136.095C186.519 152.359 197.924 173.272 202.843 194.462L194.338 194.73L175.714 149.997L164.795 195.661L157.198 195.901L162.278 133.026L165.464 118.662Z" fill="#2F2E41"/>
<path d="M172.146 79.108C176.434 79.108 179.909 75.6196 179.909 71.3165C179.909 67.0134 176.434 63.525 172.146 63.525C167.859 63.525 164.383 67.0134 164.383 71.3165C164.383 75.6196 167.859 79.108 172.146 79.108Z" fill="#FFB6B6"/>
<path d="M164.247 105.963C162.531 102.94 161.684 99.2683 163.177 96.1285C163.553 95.338 164.578 94.5907 165.115 93.8998L171.113 84.9239L177.886 83.8304C183.747 88.7642 178.74 105.62 183.542 116.678L163.486 127.451C164.92 121.956 166.855 110.557 164.247 105.963Z" fill="#3F3D56"/>
<path d="M164.334 68.1966C164.334 68.1966 164.86 67.2194 168.006 68.4801C169.107 68.9214 169.624 68.8199 169.695 69.7801C169.951 73.3937 171.267 76.8502 173.48 79.7129L173.503 79.7439L175.077 78.303L177.099 79.924L185.64 80.1041C185.64 80.1041 186.988 73.4402 182.493 65.8757C177.998 58.3112 168.784 62.4537 168.784 62.4537C162.491 62.8139 164.334 68.1966 164.334 68.1966Z" fill="#2F2E41"/>
<path d="M144.515 58.2374L89.6858 50.6772C89.4323 50.6409 89.1739 50.663 88.9302 50.7419C88.6982 50.8186 88.4864 50.9469 88.3107 51.1172C88.1289 51.2934 87.986 51.5059 87.8912 51.741C87.7875 52.0003 87.735 52.2774 87.7367 52.5569V111.794C87.7359 112.078 87.7883 112.359 87.8912 112.622C87.9869 112.868 88.1293 113.092 88.3104 113.282C88.4851 113.466 88.6961 113.611 88.9299 113.708C89.1692 113.806 89.4274 113.849 89.6855 113.835L144.515 110.804C144.7 110.792 144.879 110.733 145.036 110.634C145.202 110.529 145.346 110.392 145.46 110.231C145.585 110.055 145.682 109.86 145.745 109.653C145.815 109.429 145.85 109.195 145.85 108.96V60.1897C145.85 59.9517 145.815 59.715 145.745 59.4874C145.681 59.2738 145.585 59.0711 145.46 58.8864C145.346 58.716 145.203 58.5676 145.036 58.4483C144.882 58.3377 144.703 58.2654 144.515 58.2374Z" fill="#0A9E8B"/>
<path opacity="0.2" d="M144.515 58.2374L89.6858 50.6772C89.4323 50.6409 89.1739 50.663 88.9302 50.7419C88.6982 50.8186 88.4864 50.9469 88.3107 51.1172C88.1289 51.2934 87.986 51.5059 87.8912 51.741C87.7875 52.0003 87.735 52.2774 87.7367 52.5569V111.794C87.7359 112.078 87.7883 112.359 87.8912 112.622C87.9869 112.868 88.1293 113.092 88.3104 113.282C88.4851 113.466 88.6961 113.611 88.9299 113.708C89.1692 113.806 89.4274 113.849 89.6855 113.835L144.515 110.804C144.7 110.792 144.879 110.733 145.036 110.634C145.202 110.529 145.346 110.392 145.46 110.231C145.585 110.055 145.682 109.86 145.745 109.653C145.815 109.429 145.85 109.195 145.85 108.96V60.1897C145.85 59.9517 145.815 59.715 145.745 59.4874C145.681 59.2738 145.585 59.0711 145.46 58.8864C145.346 58.716 145.203 58.5676 145.036 58.4483C144.882 58.3377 144.703 58.2654 144.515 58.2374Z" fill="black"/>
<path d="M146.775 58.2374L91.9456 50.6772C91.6921 50.6409 91.4337 50.663 91.19 50.7419C90.958 50.8186 90.7463 50.9469 90.5705 51.1172C90.3888 51.2934 90.2459 51.5059 90.151 51.741C90.0473 52.0003 89.9948 52.2774 89.9965 52.5569V111.794C89.9957 112.078 90.0482 112.359 90.151 112.622C90.2467 112.868 90.3891 113.092 90.5702 113.282C90.745 113.466 90.956 113.611 91.1897 113.708C91.4291 113.806 91.6872 113.849 91.9454 113.835L146.775 110.804C146.96 110.792 147.139 110.733 147.296 110.634C147.462 110.529 147.606 110.392 147.72 110.231C147.845 110.055 147.942 109.86 148.005 109.653C148.075 109.429 148.11 109.195 148.11 108.96V60.1897C148.11 59.9517 148.074 59.715 148.005 59.4874C147.941 59.2738 147.845 59.0711 147.72 58.8864C147.606 58.716 147.462 58.5676 147.296 58.4483C147.141 58.3377 146.963 58.2654 146.775 58.2374Z" fill="#0A9E8B"/>
<path d="M146.54 105.596C146.689 105.728 146.827 105.871 146.954 106.025L164.681 104.206L166.459 100.245L172.766 102.157L170.297 109.477C170.098 110.068 169.712 110.579 169.199 110.932C168.686 111.285 168.073 111.461 167.451 111.434L147.198 110.563C146.771 111.202 146.16 111.694 145.448 111.976C144.735 112.257 143.954 112.315 143.208 112.14C142.462 111.965 141.787 111.566 141.273 110.997C140.758 110.428 140.428 109.714 140.327 108.952C140.226 108.19 140.359 107.416 140.707 106.731C141.056 106.047 141.604 105.485 142.278 105.12C142.953 104.756 143.722 104.606 144.483 104.691C145.244 104.776 145.961 105.092 146.54 105.596V105.596Z" fill="#FFB6B6"/>
<path d="M164.332 103.358C164.236 103.145 164.188 102.914 164.189 102.681C164.19 102.448 164.242 102.218 164.34 102.006L167.766 94.6229C168.104 93.4789 168.88 92.5161 169.924 91.9456C170.968 91.3752 172.195 91.2436 173.336 91.5797C174.477 91.9158 175.438 92.6923 176.009 93.7387C176.58 94.7852 176.715 96.0163 176.383 97.1621L175.235 105.252C175.202 105.483 175.121 105.704 174.995 105.9C174.869 106.096 174.703 106.263 174.508 106.389C174.312 106.515 174.092 106.597 173.862 106.629C173.632 106.662 173.397 106.645 173.175 106.579L165.346 104.247C165.123 104.18 164.917 104.067 164.742 103.913C164.567 103.76 164.427 103.57 164.332 103.358V103.358Z" fill="#3F3D56"/>
<path d="M247.718 204H140.093C140.018 204 139.946 203.97 139.893 203.917C139.84 203.864 139.81 203.792 139.81 203.716C139.81 203.641 139.84 203.569 139.893 203.516C139.946 203.463 140.018 203.433 140.093 203.433H247.718C247.792 203.433 247.864 203.463 247.917 203.516C247.97 203.569 248 203.641 248 203.716C248 203.792 247.97 203.864 247.917 203.917C247.864 203.97 247.792 204 247.718 204Z" fill="#CACACA"/>
</g>
<g filter="url(#filter1_d_521_1476)">
<path d="M230.341 84.994C230.172 85.9447 229.774 86.742 229.145 87.386C228.532 88.0147 227.796 88.444 226.937 88.674C227.719 88.858 228.325 89.2337 228.754 89.801C229.199 90.3683 229.421 91.043 229.421 91.825C229.421 92.0703 229.398 92.3233 229.352 92.584C229.122 93.964 228.463 95.045 227.374 95.827C226.285 96.609 224.875 97 223.142 97H215.115L217.99 80.785H225.764C227.236 80.785 228.378 81.084 229.191 81.682C230.004 82.2647 230.41 83.1003 230.41 84.189C230.41 84.4497 230.387 84.718 230.341 84.994ZM225.58 85.822C225.595 85.7453 225.603 85.6303 225.603 85.477C225.603 84.741 225.12 84.373 224.154 84.373H221.877L221.371 87.248H223.648C224.767 87.248 225.411 86.7727 225.58 85.822ZM224.867 91.94C224.882 91.8633 224.89 91.756 224.89 91.618C224.89 91.2347 224.76 90.9433 224.499 90.744C224.254 90.5293 223.886 90.422 223.395 90.422H220.796L220.29 93.389H222.912C224.031 93.389 224.683 92.906 224.867 91.94ZM238.09 79.98L235.077 97H230.546L233.559 79.98H238.09ZM243.624 97.161C242.505 97.161 241.508 96.9387 240.634 96.494C239.775 96.0493 239.108 95.4207 238.633 94.608C238.158 93.7953 237.92 92.8447 237.92 91.756C237.92 90.284 238.265 88.95 238.955 87.754C239.66 86.558 240.626 85.6227 241.853 84.948C243.08 84.2733 244.452 83.936 245.97 83.936C247.089 83.936 248.078 84.1583 248.937 84.603C249.811 85.0477 250.486 85.684 250.961 86.512C251.452 87.3247 251.697 88.2753 251.697 89.364C251.697 90.8513 251.344 92.193 250.639 93.389C249.934 94.5697 248.968 95.4973 247.741 96.172C246.514 96.8313 245.142 97.161 243.624 97.161ZM244.314 93.274C244.851 93.274 245.326 93.1053 245.74 92.768C246.169 92.4307 246.491 91.9937 246.706 91.457C246.936 90.9203 247.051 90.3683 247.051 89.801C247.051 89.157 246.882 88.6663 246.545 88.329C246.223 87.9917 245.801 87.823 245.28 87.823C244.728 87.823 244.245 87.9917 243.831 88.329C243.432 88.6663 243.118 89.1033 242.888 89.64C242.673 90.1767 242.566 90.7363 242.566 91.319C242.566 91.963 242.727 92.4537 243.049 92.791C243.371 93.113 243.793 93.274 244.314 93.274ZM259.327 83.936C260.201 83.936 260.929 84.1123 261.512 84.465C262.11 84.8177 262.524 85.293 262.754 85.891L263.076 84.097H267.584L265.33 96.862C265.115 98.0733 264.694 99.162 264.065 100.128C263.436 101.109 262.585 101.891 261.512 102.474C260.439 103.057 259.158 103.348 257.671 103.348C255.785 103.348 254.321 102.919 253.278 102.06C252.251 101.217 251.737 100.059 251.737 98.587L251.76 98.127H256.199C256.23 98.541 256.406 98.863 256.728 99.093C257.065 99.323 257.518 99.438 258.085 99.438C259.618 99.438 260.531 98.5793 260.822 96.862L261.121 95.206C260.676 95.804 260.094 96.2793 259.373 96.632C258.668 96.9847 257.878 97.161 257.004 97.161C255.655 97.161 254.566 96.7163 253.738 95.827C252.925 94.9223 252.519 93.6957 252.519 92.147C252.519 91.641 252.565 91.1043 252.657 90.537C252.902 89.203 253.355 88.0377 254.014 87.041C254.673 86.0443 255.463 85.2777 256.383 84.741C257.318 84.2043 258.3 83.936 259.327 83.936ZM261.949 90.537C261.995 90.307 262.018 90.0923 262.018 89.893C262.018 89.249 261.834 88.7507 261.466 88.398C261.113 88.0453 260.653 87.869 260.086 87.869C259.411 87.869 258.806 88.1067 258.269 88.582C257.732 89.042 257.395 89.6937 257.257 90.537C257.211 90.767 257.188 90.9893 257.188 91.204C257.188 91.848 257.364 92.3463 257.717 92.699C258.085 93.0517 258.553 93.228 259.12 93.228C259.795 93.228 260.4 92.9903 260.937 92.515C261.474 92.0397 261.811 91.3803 261.949 90.537ZM293.847 84.097L288.281 97H283.244L282.83 89.18L279.587 97H274.527L273.538 84.097H278.046L277.977 92.653L281.404 84.097H286.211L286.671 92.699L289.638 84.097H293.847ZM297.636 82.901C296.931 82.901 296.371 82.7247 295.957 82.372C295.559 82.0193 295.359 81.567 295.359 81.015C295.359 80.5243 295.49 80.072 295.75 79.658C296.026 79.2287 296.394 78.8913 296.854 78.646C297.33 78.3853 297.859 78.255 298.441 78.255C299.147 78.255 299.699 78.439 300.097 78.807C300.511 79.1597 300.718 79.6197 300.718 80.187C300.718 80.6777 300.58 81.13 300.304 81.544C300.044 81.958 299.676 82.2877 299.2 82.533C298.725 82.7783 298.204 82.901 297.636 82.901ZM299.66 84.097L297.383 97H292.852L295.152 84.097H299.66ZM306.023 92.17C306.007 92.2467 306 92.3387 306 92.446C306 92.6913 306.069 92.8753 306.207 92.998C306.36 93.1053 306.605 93.159 306.943 93.159H308.254L307.564 97H305.586C302.78 97 301.377 95.8193 301.377 93.458C301.377 93.0593 301.423 92.607 301.515 92.101L302.274 87.846H300.687L301.354 84.097H302.941L303.493 80.969H308.024L307.472 84.097H309.795L309.128 87.846H306.805L306.023 92.17ZM320.395 83.982C321.652 83.982 322.634 84.3423 323.339 85.063C324.044 85.7837 324.397 86.788 324.397 88.076C324.397 88.5207 324.351 88.9883 324.259 89.479L322.925 97H318.417L319.636 90.077C319.682 89.847 319.705 89.64 319.705 89.456C319.705 88.904 319.544 88.4747 319.222 88.168C318.915 87.8613 318.478 87.708 317.911 87.708C317.282 87.708 316.746 87.8997 316.301 88.283C315.856 88.6663 315.557 89.1953 315.404 89.87L314.139 97H309.608L312.621 79.98H317.152L316.094 85.937C316.6 85.3543 317.221 84.8867 317.957 84.534C318.693 84.166 319.506 83.982 320.395 83.982ZM220.75 132.161C219.677 132.161 218.718 132 217.875 131.678C217.032 131.356 216.372 130.904 215.897 130.321C215.422 129.723 215.184 129.041 215.184 128.274C215.184 128.136 215.199 127.929 215.23 127.653H219.577C219.562 128.082 219.692 128.412 219.968 128.642C220.244 128.872 220.627 128.987 221.118 128.987C221.501 128.987 221.816 128.91 222.061 128.757C222.322 128.604 222.452 128.404 222.452 128.159C222.452 127.868 222.291 127.645 221.969 127.492C221.647 127.323 221.11 127.116 220.359 126.871C219.485 126.595 218.764 126.327 218.197 126.066C217.63 125.805 217.131 125.422 216.702 124.916C216.288 124.41 216.081 123.758 216.081 122.961C216.081 122.194 216.303 121.504 216.748 120.891C217.208 120.278 217.852 119.802 218.68 119.465C219.508 119.112 220.466 118.936 221.555 118.936C222.72 118.936 223.725 119.135 224.568 119.534C225.427 119.917 226.063 120.454 226.477 121.144C226.906 121.834 227.098 122.601 227.052 123.444H223.004C223.019 123.03 222.897 122.708 222.636 122.478C222.375 122.233 222 122.11 221.509 122.11C221.156 122.11 220.865 122.187 220.635 122.34C220.405 122.493 220.29 122.693 220.29 122.938C220.29 123.229 220.451 123.459 220.773 123.628C221.11 123.797 221.67 124.011 222.452 124.272C223.311 124.548 224.024 124.824 224.591 125.1C225.174 125.361 225.672 125.736 226.086 126.227C226.5 126.702 226.707 127.316 226.707 128.067C226.707 129.34 226.155 130.344 225.051 131.08C223.947 131.801 222.513 132.161 220.75 132.161ZM232.971 117.901C232.266 117.901 231.706 117.725 231.292 117.372C230.894 117.019 230.694 116.567 230.694 116.015C230.694 115.524 230.825 115.072 231.085 114.658C231.361 114.229 231.729 113.891 232.189 113.646C232.665 113.385 233.194 113.255 233.776 113.255C234.482 113.255 235.034 113.439 235.432 113.807C235.846 114.16 236.053 114.62 236.053 115.187C236.053 115.678 235.915 116.13 235.639 116.544C235.379 116.958 235.011 117.288 234.535 117.533C234.06 117.778 233.539 117.901 232.971 117.901ZM234.995 119.097L232.718 132H228.187L230.487 119.097H234.995ZM235.676 125.537C235.922 124.203 236.374 123.038 237.033 122.041C237.693 121.044 238.49 120.278 239.425 119.741C240.361 119.204 241.342 118.936 242.369 118.936C243.197 118.936 243.903 119.112 244.485 119.465C245.083 119.802 245.513 120.27 245.773 120.868L246.808 114.98H251.339L248.326 132H243.795L244.14 130.206C243.68 130.804 243.098 131.279 242.392 131.632C241.687 131.985 240.897 132.161 240.023 132.161C238.674 132.161 237.585 131.716 236.757 130.827C235.945 129.922 235.538 128.696 235.538 127.147C235.538 126.641 235.584 126.104 235.676 125.537ZM244.968 125.537C245.014 125.307 245.037 125.092 245.037 124.893C245.037 124.249 244.853 123.751 244.485 123.398C244.133 123.045 243.673 122.869 243.105 122.869C242.431 122.869 241.825 123.107 241.288 123.582C240.752 124.042 240.414 124.694 240.276 125.537C240.23 125.767 240.207 125.989 240.207 126.204C240.207 126.848 240.384 127.346 240.736 127.699C241.104 128.052 241.572 128.228 242.139 128.228C242.814 128.228 243.42 127.99 243.956 127.515C244.493 127.04 244.83 126.38 244.968 125.537ZM259.037 118.936C260.724 118.936 262.058 119.388 263.039 120.293C264.036 121.198 264.534 122.432 264.534 123.996C264.534 124.517 264.496 124.977 264.419 125.376C264.327 125.867 264.235 126.219 264.143 126.434H255.61C255.595 126.526 255.587 126.664 255.587 126.848C255.587 127.431 255.725 127.86 256.001 128.136C256.293 128.412 256.676 128.55 257.151 128.55C257.903 128.55 258.501 128.213 258.945 127.538H263.729C263.377 128.427 262.848 129.225 262.142 129.93C261.452 130.62 260.632 131.164 259.681 131.563C258.746 131.962 257.749 132.161 256.691 132.161C255.005 132.161 253.663 131.701 252.666 130.781C251.67 129.861 251.171 128.596 251.171 126.986C251.171 126.526 251.217 126.043 251.309 125.537C251.555 124.188 252.038 123.022 252.758 122.041C253.494 121.044 254.399 120.278 255.472 119.741C256.561 119.204 257.749 118.936 259.037 118.936ZM259.98 124.41C260.011 124.195 260.026 124.057 260.026 123.996C260.026 123.505 259.873 123.137 259.566 122.892C259.26 122.631 258.861 122.501 258.37 122.501C257.803 122.501 257.312 122.662 256.898 122.984C256.484 123.306 256.178 123.781 255.978 124.41H259.98ZM271.554 120.891C271.999 120.293 272.574 119.818 273.279 119.465C274 119.112 274.797 118.936 275.671 118.936C277.02 118.936 278.101 119.381 278.914 120.27C279.742 121.159 280.156 122.378 280.156 123.927C280.156 124.418 280.11 124.954 280.018 125.537C279.773 126.871 279.32 128.044 278.661 129.056C278.002 130.053 277.204 130.819 276.269 131.356C275.349 131.893 274.375 132.161 273.348 132.161C272.459 132.161 271.723 131.992 271.14 131.655C270.573 131.302 270.166 130.819 269.921 130.206L269.599 132H265.068L268.081 114.98H272.612L271.554 120.891ZM275.418 125.537C275.464 125.307 275.487 125.085 275.487 124.87C275.487 124.241 275.303 123.751 274.935 123.398C274.582 123.045 274.122 122.869 273.555 122.869C272.896 122.869 272.29 123.107 271.738 123.582C271.201 124.057 270.864 124.709 270.726 125.537C270.68 125.767 270.657 125.982 270.657 126.181C270.657 126.825 270.833 127.331 271.186 127.699C271.554 128.052 272.022 128.228 272.589 128.228C273.264 128.228 273.869 127.99 274.406 127.515C274.943 127.024 275.28 126.365 275.418 125.537ZM281.115 125.537C281.36 124.203 281.813 123.038 282.472 122.041C283.131 121.044 283.921 120.278 284.841 119.741C285.776 119.204 286.758 118.936 287.785 118.936C288.674 118.936 289.41 119.112 289.993 119.465C290.576 119.818 290.982 120.293 291.212 120.891L291.534 119.097H296.042L293.765 132H289.257L289.579 130.206C289.134 130.804 288.552 131.279 287.831 131.632C287.11 131.985 286.313 132.161 285.439 132.161C284.09 132.161 283.009 131.716 282.196 130.827C281.383 129.922 280.977 128.696 280.977 127.147C280.977 126.641 281.023 126.104 281.115 125.537ZM290.407 125.537C290.453 125.307 290.476 125.092 290.476 124.893C290.476 124.249 290.292 123.751 289.924 123.398C289.571 123.045 289.111 122.869 288.544 122.869C287.869 122.869 287.264 123.107 286.727 123.582C286.19 124.042 285.853 124.694 285.715 125.537C285.669 125.767 285.646 125.989 285.646 126.204C285.646 126.848 285.822 127.346 286.175 127.699C286.543 128.052 287.011 128.228 287.578 128.228C288.253 128.228 288.858 127.99 289.395 127.515C289.932 127.04 290.269 126.38 290.407 125.537ZM302.728 121.443C303.356 120.692 304.069 120.094 304.867 119.649C305.664 119.204 306.477 118.982 307.305 118.982L306.477 123.789H305.212C304.261 123.789 303.517 123.965 302.981 124.318C302.444 124.671 302.084 125.284 301.9 126.158L300.865 132H296.334L298.634 119.097H303.142L302.728 121.443ZM318.792 114.98L315.779 132H311.248L314.261 114.98H318.792ZM318.737 125.537C318.982 124.203 319.435 123.038 320.094 122.041C320.753 121.044 321.543 120.278 322.463 119.741C323.398 119.204 324.38 118.936 325.407 118.936C326.296 118.936 327.032 119.112 327.615 119.465C328.198 119.818 328.604 120.293 328.834 120.891L329.156 119.097H333.664L331.387 132H326.879L327.201 130.206C326.756 130.804 326.174 131.279 325.453 131.632C324.732 131.985 323.935 132.161 323.061 132.161C321.712 132.161 320.631 131.716 319.818 130.827C319.005 129.922 318.599 128.696 318.599 127.147C318.599 126.641 318.645 126.104 318.737 125.537ZM328.029 125.537C328.075 125.307 328.098 125.092 328.098 124.893C328.098 124.249 327.914 123.751 327.546 123.398C327.193 123.045 326.733 122.869 326.166 122.869C325.491 122.869 324.886 123.107 324.349 123.582C323.812 124.042 323.475 124.694 323.337 125.537C323.291 125.767 323.268 125.989 323.268 126.204C323.268 126.848 323.444 127.346 323.797 127.699C324.165 128.052 324.633 128.228 325.2 128.228C325.875 128.228 326.48 127.99 327.017 127.515C327.554 127.04 327.891 126.38 328.029 125.537ZM339.867 119.097L341.27 126.411L345.18 119.097H350.125L338.602 138.141H333.703L337.958 131.448L334.853 119.097H339.867ZM355.03 132.161C353.911 132.161 352.914 131.939 352.04 131.494C351.181 131.049 350.514 130.421 350.039 129.608C349.564 128.795 349.326 127.845 349.326 126.756C349.326 125.284 349.671 123.95 350.361 122.754C351.066 121.558 352.032 120.623 353.259 119.948C354.486 119.273 355.858 118.936 357.376 118.936C358.495 118.936 359.484 119.158 360.343 119.603C361.217 120.048 361.892 120.684 362.367 121.512C362.858 122.325 363.103 123.275 363.103 124.364C363.103 125.851 362.75 127.193 362.045 128.389C361.34 129.57 360.374 130.497 359.147 131.172C357.92 131.831 356.548 132.161 355.03 132.161ZM355.72 128.274C356.257 128.274 356.732 128.105 357.146 127.768C357.575 127.431 357.897 126.994 358.112 126.457C358.342 125.92 358.457 125.368 358.457 124.801C358.457 124.157 358.288 123.666 357.951 123.329C357.629 122.992 357.207 122.823 356.686 122.823C356.134 122.823 355.651 122.992 355.237 123.329C354.838 123.666 354.524 124.103 354.294 124.64C354.079 125.177 353.972 125.736 353.972 126.319C353.972 126.963 354.133 127.454 354.455 127.791C354.777 128.113 355.199 128.274 355.72 128.274ZM379.151 119.097L376.851 132H372.343L372.665 130.16C372.159 130.743 371.538 131.218 370.802 131.586C370.082 131.939 369.284 132.115 368.41 132.115C367.138 132.115 366.149 131.755 365.443 131.034C364.738 130.313 364.385 129.309 364.385 128.021C364.385 127.576 364.431 127.101 364.523 126.595L365.834 119.097H370.342L369.123 126.02C369.077 126.219 369.054 126.419 369.054 126.618C369.054 127.17 369.215 127.607 369.537 127.929C369.859 128.236 370.296 128.389 370.848 128.389C371.492 128.389 372.037 128.19 372.481 127.791C372.926 127.392 373.225 126.84 373.378 126.135L374.62 119.097H379.151ZM385.512 127.17C385.496 127.247 385.489 127.339 385.489 127.446C385.489 127.691 385.558 127.875 385.696 127.998C385.849 128.105 386.094 128.159 386.432 128.159H387.743L387.053 132H385.075C382.269 132 380.866 130.819 380.866 128.458C380.866 128.059 380.912 127.607 381.004 127.101L381.763 122.846H380.176L380.843 119.097H382.43L382.982 115.969H387.513L386.961 119.097H389.284L388.617 122.846H386.294L385.512 127.17Z" fill="white"/>
</g>
<mask id="mask0_521_1476" style="mask-type:alpha" maskUnits="userSpaceOnUse" x="352" y="13" width="24" height="24">
<circle r="11.6056" transform="matrix(-4.37114e-08 1 1 4.37114e-08 363.959 24.6056)" fill="#C4C4C4"/>
</mask>
<g mask="url(#mask0_521_1476)">
<path d="M356.117 8.81604C356.117 8.81604 355.226 13.624 352.109 14.8645C349.121 16.0508 348.318 20.9379 348.318 20.9379" stroke="url(#paint1_linear_521_1476)" stroke-width="0.25" stroke-miterlimit="10"/>
<path d="M357.615 8.81604C357.615 8.81604 356.587 14.7146 352.825 16.234C349.233 17.6826 348.318 23.6728 348.318 23.6728" stroke="url(#paint2_linear_521_1476)" stroke-width="0.25" stroke-miterlimit="10"/>
<path d="M359.117 8.81604C359.117 8.81604 357.948 15.8011 353.549 17.5994C349.342 19.3144 348.318 26.4077 348.318 26.4077" stroke="url(#paint3_linear_521_1476)" stroke-width="0.25" stroke-miterlimit="10"/>
<path d="M360.616 8.81604C360.616 8.81604 359.309 16.8917 354.265 18.9689C349.454 20.9462 348.318 29.1426 348.318 29.1426" stroke="url(#paint4_linear_521_1476)" stroke-width="0.25" stroke-miterlimit="10"/>
<path d="M362.114 8.81604C362.114 8.81604 360.67 17.9824 354.985 20.3384C349.566 22.578 348.318 31.8734 348.318 31.8734" stroke="url(#paint5_linear_521_1476)" stroke-width="0.25" stroke-miterlimit="10"/>
<path d="M363.616 8.81604C363.616 8.81604 362.035 19.0688 355.705 21.7038C349.674 24.2139 348.318 34.6083 348.318 34.6083" stroke="url(#paint6_linear_521_1476)" stroke-width="0.25" stroke-miterlimit="10"/>
<path d="M365.115 8.81604C365.115 8.81604 363.392 20.1595 356.425 23.0734C349.787 25.8457 348.318 37.3432 348.318 37.3432" stroke="url(#paint7_linear_521_1476)" stroke-width="0.25" stroke-miterlimit="10"/>
<path d="M366.613 8.81604C366.613 8.81604 364.753 21.2501 357.141 24.4387C349.899 27.4775 348.318 40.0781 348.318 40.0781" stroke="url(#paint8_linear_521_1476)" stroke-width="0.25" stroke-miterlimit="10"/>
<path d="M368.115 8.81604C368.115 8.81604 366.118 22.3365 357.865 25.8083C350.007 29.1093 348.318 42.8088 348.318 42.8088" stroke="url(#paint9_linear_521_1476)" stroke-width="0.25" stroke-miterlimit="10"/>
<path d="M369.613 8.81604C369.613 8.81604 367.478 23.4272 358.585 27.1737C350.12 30.7411 348.318 45.5437 348.318 45.5437" stroke="url(#paint10_linear_521_1476)" stroke-width="0.25" stroke-miterlimit="10"/>
<path d="M371.116 8.81604C371.116 8.81604 368.839 24.5178 359.305 28.5432C350.232 32.3729 348.318 48.2786 348.318 48.2786" stroke="url(#paint11_linear_521_1476)" stroke-width="0.25" stroke-miterlimit="10"/>
<path d="M372.614 8.81604C372.614 8.81604 370.2 25.6043 360.025 29.9085C350.34 34.0047 348.318 51.0135 348.318 51.0135" stroke="url(#paint12_linear_521_1476)" stroke-width="0.25" stroke-miterlimit="10"/>
<path d="M374.112 8.81604C374.112 8.81604 371.561 26.6949 360.741 31.2781C350.453 35.6365 348.318 53.7484 348.318 53.7484" stroke="url(#paint13_linear_521_1476)" stroke-width="0.25" stroke-miterlimit="10"/>
<path d="M375.615 8.81604C375.615 8.81604 372.922 27.7856 361.465 32.6476C350.565 37.2682 348.318 56.4792 348.318 56.4792" stroke="url(#paint14_linear_521_1476)" stroke-width="0.25" stroke-miterlimit="10"/>
<path d="M377.113 8.81604C377.113 8.81604 374.283 28.872 362.181 34.013C350.673 38.9 348.318 59.2141 348.318 59.2141" stroke="url(#paint15_linear_521_1476)" stroke-width="0.25" stroke-miterlimit="10"/>
<path d="M378.611 8.81604C378.611 8.81604 375.644 29.9627 362.901 35.3825C350.786 40.5318 348.318 61.949 348.318 61.949" stroke="url(#paint16_linear_521_1476)" stroke-width="0.25" stroke-miterlimit="10"/>
<path d="M380.114 8.81604C380.114 8.81604 377.009 31.0533 363.621 36.7479C350.898 42.1636 348.318 64.6839 348.318 64.6839" stroke="url(#paint17_linear_521_1476)" stroke-width="0.25" stroke-miterlimit="10"/>
<path d="M381.612 8.81604C381.612 8.81604 378.366 32.1398 364.34 38.1174C351.006 43.7954 348.318 67.4147 348.318 67.4147" stroke="url(#paint18_linear_521_1476)" stroke-width="0.25" stroke-miterlimit="10"/>
</g>
<path fill-rule="evenodd" clip-rule="evenodd" d="M340.112 18.0548H338L338.988 25.9609H340.826L343.053 21.1663H343.115L343.737 25.9609H345.578L349.187 18.0548H347.08L345.026 23.247H344.964L344.455 18.0548H342.733L340.517 23.2354H340.451L340.112 18.0548ZM342.835 18.2101L340.619 23.3907H340.306L339.966 18.2101H338.176L339.125 25.8056H340.727L342.954 21.011H343.251L343.873 25.8056H345.478L348.946 18.2101H347.185L345.131 23.4023H344.823L344.314 18.2101H342.835ZM350.432 20.3402C349.948 20.5949 349.547 20.9527 349.228 21.4133C348.911 21.8714 348.702 22.4068 348.599 23.0193C348.493 23.6498 348.523 24.1941 348.687 24.6522C348.852 25.1077 349.138 25.459 349.544 25.7061C349.954 25.9506 350.468 26.0728 351.089 26.0728C351.608 26.0728 352.077 25.9943 352.494 25.8373C352.913 25.6778 353.268 25.4552 353.559 25.1695C353.811 24.9199 354.006 24.6327 354.144 24.3078C354.165 24.2575 354.185 24.2063 354.204 24.1542L352.482 24.104C352.41 24.2353 352.316 24.3472 352.2 24.4399C352.087 24.53 351.958 24.5982 351.814 24.6445C351.67 24.6882 351.516 24.7101 351.351 24.7101C351.104 24.7101 350.902 24.6638 350.745 24.5711C350.588 24.4759 350.477 24.3395 350.413 24.1619C350.356 24.0051 350.34 23.8201 350.366 23.6069C350.369 23.5788 350.373 23.5502 350.378 23.5211L350.391 23.4516H354.339L354.412 22.9807C354.495 22.4943 354.497 22.0632 354.42 21.6874C354.343 21.3117 354.197 20.9951 353.984 20.7378C353.77 20.4778 353.5 20.2823 353.173 20.151C352.846 20.0197 352.472 19.9541 352.05 19.9541C351.455 19.9541 350.916 20.0828 350.432 20.3402ZM354.206 23.2963L354.259 22.9547C354.339 22.4821 354.34 22.0711 354.268 21.7187C354.195 21.3642 354.059 21.072 353.864 20.837C353.668 20.5981 353.419 20.4171 353.115 20.2951C352.81 20.1726 352.456 20.1094 352.05 20.1094C351.479 20.1094 350.965 20.2328 350.505 20.4773C350.044 20.7201 349.661 21.0611 349.356 21.5018C349.053 21.939 348.851 22.4524 348.752 23.045C348.649 23.6571 348.68 24.1731 348.833 24.5995C348.986 25.0221 349.249 25.3448 349.625 25.5731C350.003 25.7993 350.488 25.9175 351.089 25.9175C351.593 25.9175 352.042 25.8414 352.439 25.6921C352.84 25.5394 353.176 25.3279 353.45 25.0589C353.673 24.8381 353.848 24.5864 353.976 24.303L352.569 24.2619C352.495 24.3758 352.404 24.4758 352.297 24.5612C352.169 24.6634 352.023 24.7405 351.862 24.7923L351.859 24.7931C351.699 24.8417 351.53 24.8654 351.351 24.8654C351.086 24.8654 350.854 24.8158 350.666 24.7049L350.664 24.7039C350.476 24.5898 350.343 24.4247 350.267 24.2148C350.202 24.0346 350.185 23.8305 350.21 23.6069H349.007L349.23 22.2H350.473C350.524 22.0387 350.602 21.8898 350.707 21.7542C350.847 21.575 351.017 21.432 351.216 21.3264C351.422 21.2166 351.642 21.1615 351.876 21.1615C352.104 21.1615 352.308 21.2115 352.479 21.3201C352.651 21.4249 352.777 21.5728 352.854 21.7598C352.931 21.9476 352.948 22.1558 352.914 22.3789L352.893 22.5106H350.72L350.577 23.2963H354.206ZM350.404 22.5106L350.261 23.2963H349.371L349.496 22.5106H350.404ZM350.592 22.3553C350.603 22.3021 350.618 22.2503 350.637 22.2C350.682 22.0741 350.746 21.9573 350.83 21.8496C350.956 21.6874 351.109 21.5588 351.289 21.4635C351.472 21.3657 351.668 21.3168 351.876 21.3168C352.082 21.3168 352.256 21.3619 352.397 21.4519C352.541 21.5395 352.646 21.6617 352.71 21.8187C352.774 21.9757 352.791 22.1545 352.76 22.3553H350.592ZM358.409 18.0548H356.521L355.208 25.9609H357.077L357.231 24.9996H357.305C357.306 25.0037 357.307 25.0078 357.308 25.0119C357.322 25.0666 357.34 25.1203 357.361 25.1729C357.408 25.2916 357.472 25.405 357.552 25.5131C357.673 25.6726 357.834 25.8013 358.034 25.8991C358.238 25.9969 358.489 26.0458 358.787 26.0458C359.225 26.0458 359.641 25.9326 360.038 25.7061C360.437 25.4796 360.78 25.1399 361.069 24.687C361.357 24.234 361.556 23.6717 361.667 23C361.783 22.3025 361.767 21.7286 361.621 21.2782C361.474 20.8279 361.24 20.4946 360.918 20.2784C360.596 20.0622 360.23 19.9541 359.818 19.9541C359.506 19.9541 359.23 20.0082 358.988 20.1163C358.746 20.2218 358.539 20.3582 358.366 20.5255C358.272 20.6182 358.188 20.7129 358.115 20.8095C358.056 20.8873 358.003 20.9663 357.957 21.0466H357.918L358.409 18.0548ZM358.475 20.6364C358.314 20.7951 358.187 20.9576 358.092 21.1237L358.047 21.2019H357.736L358.226 18.2101H356.653L355.392 25.8056H356.945L357.099 24.8443H357.426L357.455 24.9615C357.496 25.1232 357.569 25.2758 357.676 25.4198C357.78 25.5574 357.921 25.6711 358.102 25.7593C358.278 25.8442 358.505 25.8905 358.787 25.8905C359.196 25.8905 359.587 25.7849 359.961 25.5713C360.334 25.3593 360.661 25.0388 360.938 24.6036C361.212 24.1724 361.406 23.6311 361.514 22.9747C361.627 22.2907 361.609 21.7442 361.473 21.3263C361.335 20.9014 361.118 20.6001 360.831 20.4073C360.537 20.2094 360.201 20.1094 359.818 20.1094C359.524 20.1094 359.27 20.1603 359.051 20.258L359.05 20.2586C358.824 20.3573 358.633 20.4836 358.475 20.6364ZM357.826 24.382C357.687 24.2507 357.593 24.0667 357.544 23.8299C357.498 23.5932 357.5 23.3152 357.552 22.9961C357.603 22.6718 357.691 22.3926 357.814 22.1584C357.94 21.9242 358.095 21.7441 358.277 21.6179C358.463 21.4918 358.671 21.4288 358.903 21.4288C359.137 21.4288 359.324 21.4931 359.463 21.6218C359.602 21.7505 359.693 21.9319 359.737 22.1661C359.783 22.4003 359.78 22.677 359.729 22.9961C359.678 23.3152 359.59 23.5932 359.466 23.8299C359.343 24.0667 359.19 24.2507 359.007 24.382C358.824 24.5107 358.617 24.575 358.386 24.575C358.154 24.575 357.967 24.5107 357.826 24.382ZM359.889 22.137C359.94 22.3942 359.936 22.69 359.882 23.0208C359.829 23.3531 359.737 23.6475 359.604 23.9018C359.471 24.1561 359.304 24.3603 359.098 24.5081L359.097 24.509C358.887 24.6568 358.648 24.7303 358.386 24.7303C358.124 24.7303 357.897 24.6568 357.721 24.4969L357.719 24.4949C357.552 24.3366 357.446 24.121 357.392 23.8614L357.392 23.8598C357.341 23.6001 357.345 23.303 357.398 22.9717" fill="#39EFAD"/>
<path fill-rule="evenodd" clip-rule="evenodd" d="M365.212 23.6444H368.814L369.076 22.0925H363.564L362.251 29.9986H367.764L368.026 28.4467H364.424L364.687 26.8215H368.007L368.269 25.2658H364.949L365.212 23.6444ZM368.086 25.4211H364.767L365.08 23.4891H368.682L368.892 22.2478H363.695L362.434 29.8433H367.632L367.842 28.602H364.242L364.555 26.6662H367.876L368.086 25.4211ZM371.881 24.069H369.966L371.109 27.0338L368.893 29.9986H370.808L372.193 28.0298L372.958 29.9986H374.845L373.622 27.0338L375.772 24.069H373.869L372.529 26.0224L371.881 24.069ZM373.951 24.2243L372.48 26.3682L371.769 24.2243H370.192L371.284 27.0581L369.203 29.8433H370.727L372.233 27.7034L373.064 29.8433H374.613L373.445 27.0129L375.467 24.2243H373.951ZM378.848 24.069H376.979L375.613 32.2222H377.508L378.033 29.0374H378.087C378.088 29.0405 378.089 29.0436 378.09 29.0467C378.107 29.1137 378.129 29.1792 378.157 29.2431C378.202 29.35 378.261 29.4526 378.334 29.5508C378.453 29.7104 378.613 29.839 378.817 29.9368C379.023 30.0346 379.275 30.0835 379.573 30.0835C380.008 30.0835 380.424 29.9703 380.82 29.7438C381.217 29.5173 381.559 29.1776 381.847 28.7247C382.138 28.2717 382.339 27.7094 382.449 27.0377C382.565 26.3402 382.55 25.7663 382.403 25.316C382.256 24.8656 382.022 24.5323 381.7 24.3161C381.379 24.0999 381.012 23.9918 380.6 23.9918C380.289 23.9918 380.012 24.0459 379.77 24.154C379.528 24.2595 379.321 24.3959 379.149 24.5632C379.044 24.6665 378.952 24.7722 378.872 24.8805C378.823 24.9475 378.779 25.0154 378.74 25.0843H378.682L378.848 24.069ZM379.257 24.6743C379.096 24.8329 378.969 24.9954 378.874 25.1614L378.83 25.2396H378.499L378.665 24.2243H377.111L375.796 32.0669H377.376L377.901 28.8821H378.208L378.238 28.9992C378.279 29.1612 378.352 29.3141 378.459 29.4583C378.56 29.5949 378.7 29.7084 378.884 29.7968C379.063 29.882 379.291 29.9282 379.573 29.9282C379.98 29.9282 380.369 29.8227 380.743 29.609C381.114 29.397 381.439 29.0767 381.716 28.6413L381.716 28.6408C381.993 28.2097 382.188 27.6686 382.296 27.0124C382.41 26.3284 382.391 25.7819 382.255 25.364C382.117 24.9391 381.901 24.6378 381.614 24.445C381.319 24.2471 380.983 24.1471 380.6 24.1471C380.307 24.1471 380.052 24.198 379.834 24.2958L379.832 24.2963C379.606 24.3951 379.415 24.5214 379.257 24.6743ZM378.608 28.4197C378.467 28.2884 378.373 28.1044 378.326 27.8677C378.28 27.6309 378.283 27.3529 378.334 27.0338C378.386 26.7095 378.473 26.4303 378.597 26.1961C378.72 25.9619 378.875 25.7818 379.06 25.6557C379.248 25.5296 379.456 25.4665 379.685 25.4665C379.92 25.4665 380.106 25.5308 380.245 25.6595C380.384 25.7882 380.475 25.9696 380.519 26.2038C380.566 26.438 380.564 26.7147 380.515 27.0338C380.459 27.3529 380.369 27.6309 380.245 27.8677C380.122 28.1044 379.968 28.2884 379.786 28.4197C379.606 28.5484 379.4 28.6127 379.168 28.6127C378.939 28.6127 378.752 28.5484 378.608 28.4197ZM378.181 27.0094C378.127 27.3407 378.123 27.6379 378.174 27.8975C378.225 28.1584 378.332 28.3749 378.503 28.5336L378.505 28.5355C378.683 28.6942 378.908 28.768 379.168 28.768C379.43 28.768 379.668 28.6945 379.876 28.5461L379.876 28.5458C380.082 28.398 380.25 28.1938 380.383 27.9395C380.515 27.6861 380.609 27.3925 380.668 27.061L380.669 27.0573C380.72 26.7266 380.722 26.4312 380.672 26.1745C380.623 25.9164 380.52 25.702 380.351 25.5456C380.177 25.3844 379.949 25.3112 379.685 25.3112C379.426 25.3112 379.187 25.3832 378.973 25.5267L378.973 25.5273C378.763 25.67 378.593 25.8711 378.459 26.1237C378.326 26.376 378.234 26.6722 378.181 27.0094ZM385.373 24.3779C384.889 24.6327 384.487 24.9904 384.168 25.4511C383.852 25.9092 383.642 26.4445 383.539 27.057C383.433 27.6875 383.463 28.2318 383.628 28.6899C383.792 29.1455 384.078 29.4967 384.485 29.7438C384.894 29.9883 385.409 30.1105 386.029 30.1105C386.549 30.1105 387.017 30.0321 387.434 29.8751C387.854 29.7155 388.209 29.4929 388.499 29.2072C388.751 28.9576 388.946 28.6704 389.084 28.3456C389.106 28.2953 389.126 28.244 389.144 28.1919L387.422 28.1418C387.35 28.273 387.256 28.385 387.141 28.4776C387.027 28.5677 386.899 28.6359 386.755 28.6822C386.61 28.726 386.456 28.7478 386.291 28.7478C386.044 28.7478 385.842 28.7015 385.685 28.6089C385.528 28.5136 385.418 28.3772 385.353 28.1997C385.296 28.0428 385.281 27.8578 385.306 27.6446C385.31 27.6165 385.314 27.5879 385.319 27.5588L385.331 27.4893H389.279L389.353 27.0184C389.435 26.532 389.438 26.1009 389.36 25.7252C389.283 25.3494 389.138 25.0329 388.924 24.7755C388.711 24.5156 388.44 24.32 388.113 24.1887C387.787 24.0575 387.412 23.9918 386.99 23.9918C386.396 23.9918 385.856 24.1205 385.373 24.3779ZM389.146 27.334L389.2 26.9925C389.28 26.5198 389.281 26.1088 389.208 25.7564C389.135 25.4019 389 25.1097 388.805 24.8747L388.804 24.8741C388.608 24.6353 388.359 24.4548 388.056 24.3328C387.75 24.2103 387.396 24.1471 386.99 24.1471C386.419 24.1471 385.905 24.2706 385.446 24.515L385.445 24.5153C384.984 24.7581 384.601 25.0988 384.296 25.5395C383.994 25.9767 383.792 26.4901 383.692 27.0826C383.59 27.6948 383.62 28.2108 383.774 28.6372C383.927 29.0598 384.189 29.3825 384.565 29.6107C384.944 29.837 385.429 29.9553 386.029 29.9553C386.533 29.9553 386.982 29.8792 387.379 29.7298C387.78 29.5772 388.117 29.3657 388.39 29.0966C388.613 28.8758 388.788 28.6241 388.917 28.3407L387.509 28.2996C387.435 28.4136 387.344 28.5135 387.238 28.5989L387.237 28.5991C387.109 28.7014 386.963 28.7783 386.802 28.8301L386.8 28.8308C386.64 28.8794 386.47 28.9031 386.291 28.9031C386.026 28.9031 385.794 28.8535 385.606 28.7426L385.605 28.7416C385.417 28.6275 385.283 28.4624 385.207 28.2526C385.142 28.0723 385.125 27.8682 385.15 27.6446H383.948L384.171 26.2377H385.413C385.464 26.0764 385.542 25.9276 385.648 25.7919C385.787 25.6127 385.957 25.4697 386.157 25.3641C386.362 25.2543 386.583 25.1993 386.816 25.1993C387.044 25.1993 387.248 25.2492 387.42 25.3578C387.592 25.4626 387.717 25.6105 387.794 25.7975C387.871 25.9853 387.888 26.1935 387.854 26.4166L387.834 26.5483H385.66L385.517 27.334H389.146ZM385.345 26.5483L385.202 27.334H384.311L384.436 26.5483H385.345ZM385.532 26.393C385.544 26.3398 385.559 26.288 385.577 26.2377C385.622 26.1118 385.686 25.995 385.77 25.8873C385.896 25.7252 386.049 25.5965 386.23 25.5012C386.412 25.4035 386.608 25.3546 386.816 25.3546C387.022 25.3546 387.196 25.3996 387.338 25.4897C387.482 25.5772 387.586 25.6994 387.65 25.8564C387.715 26.0134 387.731 26.1923 387.7 26.393H385.532Z" fill="#39EFAD"/>
<path d="M339.609 25.3397L338.621 17.4336H340.733L341.073 22.6142H341.138L343.354 17.4336H345.076L345.585 22.6258H345.647L347.701 17.4336H349.809L346.199 25.3397H344.358L343.736 20.5451H343.674L341.447 25.3397H339.609Z" fill="white"/>
<path d="M351.71 25.4516C351.09 25.4516 350.575 25.3294 350.166 25.0849C349.759 24.8378 349.473 24.4865 349.309 24.031C349.144 23.5729 349.114 23.0286 349.22 22.398C349.323 21.7855 349.533 21.2502 349.849 20.7921C350.168 20.3315 350.57 19.9737 351.054 19.7189C351.537 19.4616 352.077 19.3329 352.671 19.3329C353.093 19.3329 353.468 19.3985 353.794 19.5298C354.121 19.661 354.391 19.8566 354.605 20.1166C354.819 20.3739 354.964 20.6905 355.041 21.0662C355.118 21.442 355.116 21.873 355.034 22.3594L354.96 22.8304H349.81L349.984 21.7341H353.381C353.412 21.5333 353.395 21.3545 353.331 21.1975C353.267 21.0405 353.163 20.9182 353.018 20.8307C352.877 20.7407 352.703 20.6956 352.497 20.6956C352.289 20.6956 352.093 20.7445 351.911 20.8423C351.73 20.9375 351.577 21.0662 351.451 21.2284C351.325 21.3905 351.243 21.5732 351.204 21.7765L350.999 22.8999C350.958 23.1495 350.97 23.3631 351.034 23.5407C351.099 23.7183 351.209 23.8547 351.366 23.9499C351.523 24.0426 351.725 24.0889 351.972 24.0889C352.137 24.0889 352.291 24.067 352.436 24.0233C352.58 23.9769 352.708 23.9087 352.822 23.8187C352.937 23.726 353.031 23.6141 353.103 23.4828L354.825 23.533C354.686 23.9216 354.471 24.26 354.18 24.5483C353.89 24.834 353.534 25.0566 353.115 25.2161C352.698 25.3731 352.23 25.4516 351.71 25.4516Z" fill="white"/>
<path d="M355.83 25.3397L357.142 17.4336H359.03L358.54 20.4254H358.578C358.681 20.2452 358.818 20.0715 358.987 19.9042C359.16 19.737 359.367 19.6006 359.609 19.495C359.851 19.3869 360.128 19.3329 360.439 19.3329C360.851 19.3329 361.218 19.441 361.539 19.6572C361.861 19.8734 362.095 20.2066 362.242 20.657C362.388 21.1074 362.404 21.6813 362.288 22.3787C362.177 23.0505 361.978 23.6128 361.69 24.0657C361.402 24.5187 361.058 24.8584 360.659 25.0849C360.263 25.3114 359.846 25.4246 359.408 25.4246C359.11 25.4246 358.859 25.3757 358.655 25.2779C358.455 25.1801 358.294 25.0514 358.173 24.8919C358.055 24.7323 357.972 24.5612 357.926 24.3784H357.853L357.698 25.3397H355.83ZM358.173 22.3749C358.121 22.694 358.119 22.972 358.165 23.2087C358.214 23.4455 358.308 23.6295 358.447 23.7608C358.589 23.8894 358.775 23.9538 359.007 23.9538C359.238 23.9538 359.446 23.8894 359.628 23.7608C359.811 23.6295 359.964 23.4455 360.088 23.2087C360.211 22.972 360.299 22.694 360.35 22.3749C360.402 22.0558 360.404 21.7791 360.358 21.5449C360.314 21.3107 360.223 21.1293 360.084 21.0006C359.945 20.8719 359.758 20.8076 359.524 20.8076C359.292 20.8076 359.084 20.8706 358.899 20.9967C358.716 21.1228 358.562 21.303 358.435 21.5372C358.312 21.7714 358.224 22.0506 358.173 22.3749Z" fill="white"/>
<path d="M362.872 29.3774L364.185 21.4713H369.697L369.435 23.0232H365.833L365.571 24.6445H368.891L368.628 26.2003H365.308L365.046 27.8255H368.647L368.385 29.3774H362.872Z" fill="white"/>
<path d="M372.502 23.4478L373.15 25.4012L374.49 23.4478H376.393L374.243 26.4126L375.467 29.3774H373.579L372.815 27.4086L371.429 29.3774H369.514L371.73 26.4126L370.587 23.4478H372.502Z" fill="white"/>
<path d="M376.234 31.601L377.6 23.4478H379.469L379.303 24.4631H379.361C379.464 24.283 379.6 24.1092 379.77 23.942C379.942 23.7747 380.15 23.6383 380.391 23.5328C380.633 23.4247 380.91 23.3706 381.221 23.3706C381.633 23.3706 382 23.4787 382.322 23.6949C382.643 23.9111 382.878 24.2444 383.024 24.6947C383.171 25.1451 383.186 25.719 383.071 26.4165C382.96 27.0882 382.759 27.6505 382.468 28.1035C382.18 28.5564 381.838 28.8961 381.442 29.1226C381.045 29.3491 380.63 29.4623 380.195 29.4623C379.896 29.4623 379.644 29.4134 379.438 29.3156C379.235 29.2178 379.074 29.0891 378.955 28.9296C378.837 28.77 378.755 28.5989 378.708 28.4161H378.654L378.129 31.601H376.234ZM378.955 26.4126C378.904 26.7317 378.901 27.0097 378.948 27.2464C378.994 27.4832 379.088 27.6672 379.23 27.7985C379.374 27.9272 379.56 27.9915 379.789 27.9915C380.021 27.9915 380.227 27.9272 380.407 27.7985C380.59 27.6672 380.743 27.4832 380.866 27.2464C380.99 27.0097 381.08 26.7317 381.137 26.4126C381.185 26.0935 381.187 25.8168 381.14 25.5826C381.097 25.3484 381.005 25.167 380.866 25.0383C380.727 24.9096 380.541 24.8453 380.307 24.8453C380.078 24.8453 379.869 24.9083 379.681 25.0344C379.496 25.1606 379.341 25.3407 379.218 25.5749C379.094 25.8091 379.007 26.0883 378.955 26.4126Z" fill="white"/>
<path d="M386.65 29.4893C386.03 29.4893 385.515 29.3671 385.106 29.1226C384.699 28.8755 384.414 28.5242 384.249 28.0687C384.084 27.6106 384.055 27.0663 384.16 26.4358C384.263 25.8233 384.473 25.2879 384.789 24.8298C385.108 24.3692 385.51 24.0114 385.994 23.7567C386.478 23.4993 387.017 23.3706 387.611 23.3706C388.033 23.3706 388.408 23.4362 388.735 23.5675C389.062 23.6988 389.332 23.8943 389.545 24.1543C389.759 24.4116 389.904 24.7282 389.982 25.1039C390.059 25.4797 390.056 25.9108 389.974 26.3972L389.901 26.8681H384.751L384.924 25.7718H388.322C388.352 25.571 388.336 25.3922 388.271 25.2352C388.207 25.0782 388.103 24.956 387.959 24.8685C387.817 24.7784 387.643 24.7333 387.438 24.7333C387.229 24.7333 387.034 24.7822 386.851 24.88C386.671 24.9753 386.518 25.1039 386.391 25.2661C386.265 25.4282 386.183 25.6109 386.144 25.8142L385.94 26.9376C385.899 27.1873 385.91 27.4009 385.974 27.5784C386.039 27.756 386.15 27.8924 386.306 27.9876C386.463 28.0803 386.666 28.1266 386.913 28.1266C387.077 28.1266 387.232 28.1047 387.376 28.061C387.52 28.0147 387.649 27.9465 387.762 27.8564C387.878 27.7637 387.972 27.6518 388.044 27.5205L389.765 27.5707C389.626 27.9593 389.412 28.2978 389.121 28.586C388.83 28.8717 388.475 29.0943 388.055 29.2538C387.638 29.4108 387.17 29.4893 386.65 29.4893Z" fill="white"/>
<g filter="url(#filter2_d_521_1476)">
<path d="M333.819 158.16L331.723 170H329.899L331.995 158.16H333.819ZM334.294 165.552C334.454 164.667 334.774 163.883 335.254 163.2C335.745 162.517 336.342 161.989 337.046 161.616C337.75 161.232 338.486 161.04 339.254 161.04C339.947 161.04 340.529 161.179 340.998 161.456C341.467 161.723 341.819 162.059 342.054 162.464L342.278 161.184H344.118L342.566 170H340.726L340.966 168.688C340.582 169.104 340.097 169.451 339.51 169.728C338.934 170.005 338.305 170.144 337.622 170.144C336.961 170.144 336.369 169.995 335.846 169.696C335.334 169.397 334.929 168.976 334.63 168.432C334.342 167.877 334.198 167.243 334.198 166.528C334.198 166.208 334.23 165.883 334.294 165.552ZM341.51 165.584C341.553 165.381 341.574 165.163 341.574 164.928C341.574 164.213 341.361 163.653 340.934 163.248C340.518 162.832 339.995 162.624 339.366 162.624C338.897 162.624 338.438 162.741 337.99 162.976C337.542 163.2 337.153 163.536 336.822 163.984C336.491 164.421 336.273 164.944 336.166 165.552C336.123 165.755 336.102 165.973 336.102 166.208C336.102 166.933 336.31 167.509 336.726 167.936C337.153 168.352 337.681 168.56 338.31 168.56C338.779 168.56 339.238 168.443 339.686 168.208C340.134 167.973 340.523 167.632 340.854 167.184C341.185 166.725 341.403 166.192 341.51 165.584ZM347.506 161.184L348.802 167.904L352.562 161.184H354.45L346.77 174.144H344.882L347.426 169.856L345.474 161.184H347.506ZM358.13 170.144C357.384 170.144 356.728 169.989 356.162 169.68C355.597 169.371 355.154 168.933 354.834 168.368C354.525 167.803 354.37 167.157 354.37 166.432C354.37 165.44 354.6 164.533 355.058 163.712C355.528 162.891 356.168 162.24 356.978 161.76C357.8 161.28 358.712 161.04 359.714 161.04C360.461 161.04 361.122 161.2 361.698 161.52C362.274 161.829 362.722 162.267 363.042 162.832C363.373 163.387 363.538 164.032 363.538 164.768C363.538 165.76 363.298 166.667 362.818 167.488C362.338 168.309 361.688 168.96 360.866 169.44C360.045 169.909 359.133 170.144 358.13 170.144ZM358.354 168.608C358.962 168.608 359.517 168.437 360.018 168.096C360.53 167.744 360.93 167.285 361.218 166.72C361.506 166.144 361.65 165.531 361.65 164.88C361.65 164.144 361.442 163.579 361.026 163.184C360.61 162.779 360.088 162.576 359.458 162.576C358.84 162.576 358.285 162.752 357.794 163.104C357.314 163.445 356.936 163.909 356.658 164.496C356.392 165.072 356.258 165.691 356.258 166.352C356.258 167.067 356.45 167.621 356.834 168.016C357.229 168.411 357.736 168.608 358.354 168.608ZM374.013 161.184L372.461 170H370.637L370.813 168.96C370.461 169.323 370.035 169.611 369.533 169.824C369.043 170.027 368.536 170.128 368.013 170.128C367.085 170.128 366.344 169.877 365.789 169.376C365.235 168.875 364.957 168.165 364.957 167.248C364.957 167.003 364.984 166.709 365.037 166.368L365.949 161.184H367.757L366.893 166.096C366.851 166.395 366.829 166.608 366.829 166.736C366.829 167.323 366.989 167.771 367.309 168.08C367.64 168.389 368.093 168.544 368.669 168.544C369.341 168.544 369.912 168.347 370.381 167.952C370.851 167.547 371.16 166.965 371.309 166.208L372.189 161.184H374.013ZM377.428 167.552C377.407 167.701 377.396 167.797 377.396 167.84C377.396 168.064 377.465 168.229 377.604 168.336C377.743 168.432 377.972 168.48 378.292 168.48H379.412L379.14 170H377.7C376.996 170 376.457 169.861 376.084 169.584C375.711 169.296 375.524 168.843 375.524 168.224C375.524 167.989 375.545 167.765 375.588 167.552L376.452 162.672H375.412L375.668 161.184H376.724L377.108 158.992H378.948L378.564 161.184H380.692L380.436 162.672H378.292L377.428 167.552ZM384.069 170.144C383.461 170.144 382.906 170.043 382.405 169.84C381.904 169.627 381.509 169.333 381.221 168.96C380.933 168.576 380.789 168.139 380.789 167.648C380.789 167.563 380.8 167.445 380.821 167.296H382.597C382.554 167.701 382.677 168.037 382.965 168.304C383.253 168.571 383.658 168.704 384.181 168.704C384.693 168.704 385.114 168.613 385.445 168.432C385.776 168.251 385.941 167.984 385.941 167.632C385.941 167.333 385.802 167.093 385.525 166.912C385.258 166.731 384.826 166.528 384.229 166.304C383.664 166.08 383.205 165.872 382.853 165.68C382.501 165.488 382.197 165.227 381.941 164.896C381.685 164.555 381.557 164.133 381.557 163.632C381.557 163.12 381.701 162.672 381.989 162.288C382.288 161.893 382.698 161.589 383.221 161.376C383.754 161.152 384.362 161.04 385.045 161.04C385.664 161.04 386.213 161.147 386.693 161.36C387.184 161.563 387.562 161.856 387.829 162.24C388.106 162.613 388.245 163.045 388.245 163.536C388.245 163.685 388.24 163.797 388.229 163.872H386.501C386.544 163.456 386.421 163.12 386.133 162.864C385.856 162.608 385.456 162.48 384.933 162.48C384.474 162.48 384.101 162.576 383.813 162.768C383.536 162.96 383.397 163.221 383.397 163.552C383.397 163.883 383.541 164.149 383.829 164.352C384.117 164.544 384.56 164.757 385.157 164.992C385.701 165.205 386.144 165.408 386.485 165.6C386.826 165.792 387.12 166.048 387.365 166.368C387.61 166.688 387.733 167.088 387.733 167.568C387.733 168.091 387.573 168.549 387.253 168.944C386.944 169.328 386.512 169.627 385.957 169.84C385.402 170.043 384.773 170.144 384.069 170.144Z" fill="white"/>
</g>
<g filter="url(#filter3_d_521_1476)">
<path d="M221.153 48.04C222.038 48.04 222.747 48.2907 223.281 48.792C223.814 49.2827 224.081 49.9867 224.081 50.904C224.081 51.1493 224.054 51.448 224.001 51.8L223.073 57H221.265L222.145 52.072C222.187 51.7733 222.209 51.56 222.209 51.432C222.209 50.8453 222.043 50.3973 221.713 50.088C221.393 49.7787 220.945 49.624 220.369 49.624C219.675 49.624 219.089 49.8373 218.609 50.264C218.139 50.68 217.841 51.2827 217.713 52.072V52.04L216.833 57H215.009L217.105 45.16H218.929L218.209 49.208C218.582 48.8347 219.025 48.5467 219.537 48.344C220.049 48.1413 220.587 48.04 221.153 48.04ZM229.255 57.144C228.509 57.144 227.853 56.9893 227.287 56.68C226.722 56.3707 226.279 55.9333 225.959 55.368C225.65 54.8027 225.495 54.1573 225.495 53.432C225.495 52.44 225.725 51.5333 226.183 50.712C226.653 49.8907 227.293 49.24 228.103 48.76C228.925 48.28 229.837 48.04 230.839 48.04C231.586 48.04 232.247 48.2 232.823 48.52C233.399 48.8293 233.847 49.2667 234.167 49.832C234.498 50.3867 234.663 51.032 234.663 51.768C234.663 52.76 234.423 53.6667 233.943 54.488C233.463 55.3093 232.813 55.96 231.991 56.44C231.17 56.9093 230.258 57.144 229.255 57.144ZM229.479 55.608C230.087 55.608 230.642 55.4373 231.143 55.096C231.655 54.744 232.055 54.2853 232.343 53.72C232.631 53.144 232.775 52.5307 232.775 51.88C232.775 51.144 232.567 50.5787 232.151 50.184C231.735 49.7787 231.213 49.576 230.583 49.576C229.965 49.576 229.41 49.752 228.919 50.104C228.439 50.4453 228.061 50.9093 227.783 51.496C227.517 52.072 227.383 52.6907 227.383 53.352C227.383 54.0667 227.575 54.6213 227.959 55.016C228.354 55.4107 228.861 55.608 229.479 55.608ZM248.994 48.184L244.706 57H242.786L242.178 50.488L239.234 57H237.314L236.114 48.184H237.97L238.578 55.272L241.682 48.184H243.586L244.146 55.24L247.202 48.184H248.994ZM256.162 54.552C256.141 54.7013 256.13 54.7973 256.13 54.84C256.13 55.064 256.2 55.2293 256.338 55.336C256.477 55.432 256.706 55.48 257.026 55.48H258.146L257.874 57H256.434C255.73 57 255.192 56.8613 254.818 56.584C254.445 56.296 254.258 55.8427 254.258 55.224C254.258 54.9893 254.28 54.7653 254.322 54.552L255.186 49.672H254.146L254.402 48.184H255.458L255.842 45.992H257.682L257.298 48.184H259.426L259.17 49.672H257.026L256.162 54.552ZM263.411 57.144C262.665 57.144 262.009 56.9893 261.444 56.68C260.878 56.3707 260.436 55.9333 260.116 55.368C259.806 54.8027 259.652 54.1573 259.652 53.432C259.652 52.44 259.881 51.5333 260.34 50.712C260.809 49.8907 261.449 49.24 262.26 48.76C263.081 48.28 263.993 48.04 264.996 48.04C265.742 48.04 266.404 48.2 266.98 48.52C267.556 48.8293 268.004 49.2667 268.324 49.832C268.654 50.3867 268.82 51.032 268.82 51.768C268.82 52.76 268.58 53.6667 268.1 54.488C267.62 55.3093 266.969 55.96 266.148 56.44C265.326 56.9093 264.414 57.144 263.411 57.144ZM263.636 55.608C264.244 55.608 264.798 55.4373 265.3 55.096C265.812 54.744 266.212 54.2853 266.5 53.72C266.788 53.144 266.932 52.5307 266.932 51.88C266.932 51.144 266.724 50.5787 266.308 50.184C265.892 49.7787 265.369 49.576 264.74 49.576C264.121 49.576 263.566 49.752 263.076 50.104C262.596 50.4453 262.217 50.9093 261.94 51.496C261.673 52.072 261.539 52.6907 261.539 53.352C261.539 54.0667 261.732 54.6213 262.116 55.016C262.51 55.4107 263.017 55.608 263.636 55.608ZM284.092 48.184L282.54 57H280.716L280.892 55.96C280.54 56.3227 280.113 56.6107 279.612 56.824C279.121 57.0267 278.614 57.128 278.092 57.128C277.164 57.128 276.422 56.8773 275.868 56.376C275.313 55.8747 275.036 55.1653 275.036 54.248C275.036 54.0027 275.062 53.7093 275.116 53.368L276.028 48.184H277.836L276.972 53.096C276.929 53.3947 276.908 53.608 276.908 53.736C276.908 54.3227 277.068 54.7707 277.388 55.08C277.718 55.3893 278.172 55.544 278.748 55.544C279.42 55.544 279.99 55.3467 280.46 54.952C280.929 54.5467 281.238 53.9653 281.388 53.208L282.267 48.184H284.092ZM288.194 57.144C287.586 57.144 287.031 57.0427 286.53 56.84C286.029 56.6267 285.634 56.3333 285.346 55.96C285.058 55.576 284.914 55.1387 284.914 54.648C284.914 54.5627 284.925 54.4453 284.946 54.296H286.722C286.679 54.7013 286.802 55.0373 287.09 55.304C287.378 55.5707 287.783 55.704 288.306 55.704C288.818 55.704 289.239 55.6133 289.57 55.432C289.901 55.2507 290.066 54.984 290.066 54.632C290.066 54.3333 289.927 54.0933 289.65 53.912C289.383 53.7307 288.951 53.528 288.354 53.304C287.789 53.08 287.33 52.872 286.978 52.68C286.626 52.488 286.322 52.2267 286.066 51.896C285.81 51.5547 285.682 51.1333 285.682 50.632C285.682 50.12 285.826 49.672 286.114 49.288C286.413 48.8933 286.823 48.5893 287.346 48.376C287.879 48.152 288.487 48.04 289.17 48.04C289.789 48.04 290.338 48.1467 290.818 48.36C291.309 48.5627 291.687 48.856 291.954 49.24C292.231 49.6133 292.37 50.0453 292.37 50.536C292.37 50.6853 292.365 50.7973 292.354 50.872H290.626C290.669 50.456 290.546 50.12 290.258 49.864C289.981 49.608 289.581 49.48 289.058 49.48C288.599 49.48 288.226 49.576 287.938 49.768C287.661 49.96 287.522 50.2213 287.522 50.552C287.522 50.8827 287.666 51.1493 287.954 51.352C288.242 51.544 288.685 51.7573 289.282 51.992C289.826 52.2053 290.269 52.408 290.61 52.6C290.951 52.792 291.245 53.048 291.49 53.368C291.735 53.688 291.858 54.088 291.858 54.568C291.858 55.0907 291.698 55.5493 291.378 55.944C291.069 56.328 290.637 56.6267 290.082 56.84C289.527 57.0427 288.898 57.144 288.194 57.144ZM298.869 48.04C299.968 48.04 300.842 48.3493 301.493 48.968C302.154 49.5867 302.485 50.4187 302.485 51.464C302.485 51.7093 302.458 52.0027 302.405 52.344C302.362 52.5787 302.288 52.8667 302.181 53.208H295.445C295.434 53.2827 295.429 53.3947 295.429 53.544C295.429 54.1733 295.621 54.6747 296.005 55.048C296.4 55.4213 296.912 55.608 297.541 55.608C298.533 55.608 299.296 55.1973 299.829 54.376H301.797C301.392 55.1867 300.794 55.8533 300.005 56.376C299.216 56.888 298.304 57.144 297.269 57.144C296.533 57.144 295.888 57 295.333 56.712C294.778 56.424 294.346 56.0133 294.037 55.48C293.728 54.936 293.573 54.3013 293.573 53.576C293.573 53.2667 293.605 52.936 293.669 52.584C293.829 51.6773 294.154 50.8827 294.645 50.2C295.136 49.5067 295.744 48.9733 296.469 48.6C297.205 48.2267 298.005 48.04 298.869 48.04ZM300.581 51.896C300.602 51.704 300.613 51.5653 300.613 51.48C300.613 50.8933 300.416 50.4293 300.021 50.088C299.637 49.7467 299.136 49.576 298.517 49.576C297.866 49.576 297.28 49.784 296.757 50.2C296.234 50.616 295.877 51.1813 295.685 51.896H300.581Z" fill="white"/>
</g>
<path d="M340.397 201.608L339.133 206H338.349L337.141 202.424L335.925 206H335.133L333.885 201.608H334.621L335.557 205.304L336.773 201.608H337.533L338.757 205.296L339.701 201.608H340.397ZM345.116 203.56C345.116 203.715 345.106 203.848 345.084 203.96H341.572C341.588 204.461 341.73 204.837 341.996 205.088C342.268 205.339 342.599 205.464 342.988 205.464C343.34 205.464 343.634 205.376 343.868 205.2C344.108 205.019 344.255 204.779 344.308 204.48H345.084C345.031 204.784 344.911 205.056 344.724 205.296C344.543 205.536 344.306 205.723 344.012 205.856C343.719 205.989 343.388 206.056 343.02 206.056C342.599 206.056 342.226 205.965 341.9 205.784C341.575 205.603 341.319 205.344 341.132 205.008C340.951 204.667 340.86 204.267 340.86 203.808C340.86 203.349 340.951 202.949 341.132 202.608C341.319 202.267 341.575 202.005 341.9 201.824C342.226 201.643 342.599 201.552 343.02 201.552C343.447 201.552 343.818 201.643 344.132 201.824C344.452 202.005 344.695 202.248 344.86 202.552C345.031 202.856 345.116 203.192 345.116 203.56ZM344.38 203.608C344.396 203.283 344.343 203.011 344.22 202.792C344.098 202.573 343.93 202.411 343.716 202.304C343.503 202.197 343.271 202.144 343.02 202.144C342.62 202.144 342.284 202.269 342.012 202.52C341.74 202.765 341.594 203.128 341.572 203.608H344.38ZM348.492 201.552C348.882 201.552 349.228 201.643 349.532 201.824C349.836 202.005 350.074 202.267 350.244 202.608C350.42 202.949 350.508 203.349 350.508 203.808C350.508 204.267 350.42 204.667 350.244 205.008C350.074 205.344 349.836 205.603 349.532 205.784C349.228 205.965 348.882 206.056 348.492 206.056C348.066 206.056 347.703 205.949 347.404 205.736C347.111 205.517 346.908 205.232 346.796 204.88V206H346.068V200.08H346.796V202.728C346.908 202.376 347.111 202.093 347.404 201.88C347.703 201.661 348.066 201.552 348.492 201.552ZM348.284 202.2C348.002 202.2 347.746 202.267 347.516 202.4C347.287 202.528 347.108 202.715 346.98 202.96C346.852 203.205 346.788 203.488 346.788 203.808C346.788 204.128 346.852 204.411 346.98 204.656C347.108 204.896 347.287 205.083 347.516 205.216C347.746 205.349 348.002 205.416 348.284 205.416C348.738 205.416 349.098 205.275 349.364 204.992C349.636 204.704 349.772 204.309 349.772 203.808C349.772 203.307 349.636 202.915 349.364 202.632C349.098 202.344 348.738 202.2 348.284 202.2ZM355.499 203.56C355.499 203.715 355.488 203.848 355.467 203.96H351.955C351.971 204.461 352.112 204.837 352.379 205.088C352.651 205.339 352.982 205.464 353.371 205.464C353.723 205.464 354.016 205.376 354.251 205.2C354.491 205.019 354.638 204.779 354.691 204.48H355.467C355.414 204.784 355.294 205.056 355.107 205.296C354.926 205.536 354.688 205.723 354.395 205.856C354.102 205.989 353.771 206.056 353.403 206.056C352.982 206.056 352.608 205.965 352.283 205.784C351.958 205.603 351.702 205.344 351.515 205.008C351.334 204.667 351.243 204.267 351.243 203.808C351.243 203.349 351.334 202.949 351.515 202.608C351.702 202.267 351.958 202.005 352.283 201.824C352.608 201.643 352.982 201.552 353.403 201.552C353.83 201.552 354.2 201.643 354.515 201.824C354.835 202.005 355.078 202.248 355.243 202.552C355.414 202.856 355.499 203.192 355.499 203.56ZM354.763 203.608C354.779 203.283 354.726 203.011 354.603 202.792C354.48 202.573 354.312 202.411 354.099 202.304C353.886 202.197 353.654 202.144 353.403 202.144C353.003 202.144 352.667 202.269 352.395 202.52C352.123 202.765 351.976 203.128 351.955 203.608H354.763ZM358.979 206L357.835 204.32L356.803 206H355.995L357.435 203.736L355.987 201.608H356.819L357.931 203.24L358.947 201.608H359.755L358.323 203.816L359.811 206H358.979ZM362.914 201.552C363.304 201.552 363.65 201.643 363.954 201.824C364.258 202.005 364.496 202.267 364.666 202.608C364.842 202.949 364.93 203.349 364.93 203.808C364.93 204.267 364.842 204.667 364.666 205.008C364.496 205.344 364.258 205.603 363.954 205.784C363.65 205.965 363.304 206.056 362.914 206.056C362.488 206.056 362.125 205.949 361.826 205.736C361.533 205.517 361.33 205.232 361.218 204.88V208.08H360.49V201.608H361.218V202.728C361.33 202.376 361.533 202.093 361.826 201.88C362.125 201.661 362.488 201.552 362.914 201.552ZM362.706 202.2C362.424 202.2 362.168 202.267 361.938 202.4C361.709 202.528 361.53 202.715 361.402 202.96C361.274 203.205 361.21 203.488 361.21 203.808C361.21 204.128 361.274 204.411 361.402 204.656C361.53 204.896 361.709 205.083 361.938 205.216C362.168 205.349 362.424 205.416 362.706 205.416C363.16 205.416 363.52 205.275 363.786 204.992C364.058 204.704 364.194 204.309 364.194 203.808C364.194 203.307 364.058 202.915 363.786 202.632C363.52 202.344 363.16 202.2 362.706 202.2ZM369.921 203.56C369.921 203.715 369.91 203.848 369.889 203.96H366.377C366.393 204.461 366.534 204.837 366.801 205.088C367.073 205.339 367.404 205.464 367.793 205.464C368.145 205.464 368.438 205.376 368.673 205.2C368.913 205.019 369.06 204.779 369.113 204.48H369.889C369.836 204.784 369.716 205.056 369.529 205.296C369.348 205.536 369.11 205.723 368.817 205.856C368.524 205.989 368.193 206.056 367.825 206.056C367.404 206.056 367.03 205.965 366.705 205.784C366.38 205.603 366.124 205.344 365.937 205.008C365.756 204.667 365.665 204.267 365.665 203.808C365.665 203.349 365.756 202.949 365.937 202.608C366.124 202.267 366.38 202.005 366.705 201.824C367.03 201.643 367.404 201.552 367.825 201.552C368.252 201.552 368.622 201.643 368.937 201.824C369.257 202.005 369.5 202.248 369.665 202.552C369.836 202.856 369.921 203.192 369.921 203.56ZM369.185 203.608C369.201 203.283 369.148 203.011 369.025 202.792C368.902 202.573 368.734 202.411 368.521 202.304C368.308 202.197 368.076 202.144 367.825 202.144C367.425 202.144 367.089 202.269 366.817 202.52C366.545 202.765 366.398 203.128 366.377 203.608H369.185ZM371.409 205.144V206H370.529V205.144H371.409ZM374.184 201.552C374.744 201.552 375.208 201.701 375.576 202C375.944 202.299 376.171 202.699 376.256 203.2H375.488C375.435 202.885 375.288 202.64 375.048 202.464C374.814 202.283 374.52 202.192 374.168 202.192C373.912 202.192 373.678 202.251 373.464 202.368C373.256 202.485 373.088 202.667 372.96 202.912C372.832 203.152 372.768 203.451 372.768 203.808C372.768 204.165 372.832 204.467 372.96 204.712C373.088 204.952 373.256 205.131 373.464 205.248C373.678 205.365 373.912 205.424 374.168 205.424C374.52 205.424 374.814 205.333 375.048 205.152C375.288 204.971 375.435 204.723 375.488 204.408H376.256C376.171 204.915 375.944 205.317 375.576 205.616C375.208 205.909 374.744 206.056 374.184 206.056C373.763 206.056 373.39 205.965 373.064 205.784C372.739 205.603 372.483 205.344 372.296 205.008C372.115 204.667 372.024 204.267 372.024 203.808C372.024 203.349 372.115 202.949 372.296 202.608C372.483 202.267 372.739 202.005 373.064 201.824C373.39 201.643 373.763 201.552 374.184 201.552ZM379.201 201.552C379.622 201.552 379.998 201.643 380.329 201.824C380.665 202.005 380.926 202.267 381.113 202.608C381.305 202.949 381.401 203.349 381.401 203.808C381.401 204.267 381.305 204.667 381.113 205.008C380.926 205.344 380.665 205.603 380.329 205.784C379.998 205.965 379.622 206.056 379.201 206.056C378.78 206.056 378.401 205.965 378.065 205.784C377.734 205.603 377.473 205.344 377.281 205.008C377.089 204.667 376.993 204.267 376.993 203.808C376.993 203.349 377.089 202.949 377.281 202.608C377.473 202.267 377.734 202.005 378.065 201.824C378.401 201.643 378.78 201.552 379.201 201.552ZM379.201 202.192C378.94 202.192 378.697 202.251 378.473 202.368C378.254 202.485 378.076 202.667 377.937 202.912C377.804 203.152 377.737 203.451 377.737 203.808C377.737 204.16 377.804 204.459 377.937 204.704C378.076 204.944 378.254 205.123 378.473 205.24C378.697 205.357 378.94 205.416 379.201 205.416C379.462 205.416 379.702 205.357 379.921 205.24C380.145 205.123 380.324 204.944 380.457 204.704C380.596 204.459 380.665 204.16 380.665 203.808C380.665 203.451 380.596 203.152 380.457 202.912C380.324 202.667 380.145 202.485 379.921 202.368C379.702 202.251 379.462 202.192 379.201 202.192ZM387.75 201.536C388.262 201.536 388.672 201.701 388.982 202.032C389.296 202.357 389.454 202.829 389.454 203.448V206H388.726V203.512C388.726 203.08 388.619 202.749 388.406 202.52C388.198 202.291 387.91 202.176 387.542 202.176C387.158 202.176 386.848 202.304 386.614 202.56C386.384 202.811 386.27 203.181 386.27 203.672V206H385.542V203.512C385.542 203.08 385.435 202.749 385.222 202.52C385.008 202.291 384.72 202.176 384.358 202.176C383.968 202.176 383.656 202.304 383.422 202.56C383.192 202.811 383.078 203.181 383.078 203.672V206H382.35V201.608H383.078V202.608C383.184 202.261 383.374 201.997 383.646 201.816C383.923 201.629 384.24 201.536 384.598 201.536C384.971 201.536 385.294 201.632 385.566 201.824C385.843 202.011 386.04 202.288 386.158 202.656C386.28 202.299 386.486 202.024 386.774 201.832C387.062 201.635 387.387 201.536 387.75 201.536Z" fill="white"/>
</g>
<defs>
<filter id="filter0_d_521_1476" x="61" y="-5" width="342" height="232" filterUnits="userSpaceOnUse" color-interpolation-filters="sRGB">
<feFlood flood-opacity="0" result="BackgroundImageFix"/>
<feColorMatrix in="SourceAlpha" type="matrix" values="0 0 0 0 0 0 0 0 0 0 0 0 0 0 0 0 0 0 127 0" result="hardAlpha"/>
<feOffset dx="-2"/>
<feGaussianBlur stdDeviation="2.5"/>
<feComposite in2="hardAlpha" operator="out"/>
<feColorMatrix type="matrix" values="0 0 0 0 0 0 0 0 0 0 0 0 0 0 0 0 0 0 0.15 0"/>
<feBlend mode="normal" in2="BackgroundImageFix" result="effect1_dropShadow_521_1476"/>
<feBlend mode="normal" in="SourceGraphic" in2="effect1_dropShadow_521_1476" result="shape"/>
</filter>
<filter id="filter1_d_521_1476" x="215.115" y="78.255" width="176.169" height="61.886" filterUnits="userSpaceOnUse" color-interpolation-filters="sRGB">
<feFlood flood-opacity="0" result="BackgroundImageFix"/>
<feColorMatrix in="SourceAlpha" type="matrix" values="0 0 0 0 0 0 0 0 0 0 0 0 0 0 0 0 0 0 127 0" result="hardAlpha"/>
<feOffset dx="2" dy="2"/>
<feComposite in2="hardAlpha" operator="out"/>
<feColorMatrix type="matrix" values="0 0 0 0 0 0 0 0 0 0 0 0 0 0 0 0 0 0 1 0"/>
<feBlend mode="normal" in2="BackgroundImageFix" result="effect1_dropShadow_521_1476"/>
<feBlend mode="normal" in="SourceGraphic" in2="effect1_dropShadow_521_1476" result="shape"/>
</filter>
<filter id="filter2_d_521_1476" x="329.899" y="158.16" width="59.3459" height="17.984" filterUnits="userSpaceOnUse" color-interpolation-filters="sRGB">
<feFlood flood-opacity="0" result="BackgroundImageFix"/>
<feColorMatrix in="SourceAlpha" type="matrix" values="0 0 0 0 0 0 0 0 0 0 0 0 0 0 0 0 0 0 127 0" result="hardAlpha"/>
<feOffset dx="1" dy="2"/>
<feComposite in2="hardAlpha" operator="out"/>
<feColorMatrix type="matrix" values="0 0 0 0 0 0 0 0 0 0 0 0 0 0 0 0 0 0 1 0"/>
<feBlend mode="normal" in2="BackgroundImageFix" result="effect1_dropShadow_521_1476"/>
<feBlend mode="normal" in="SourceGraphic" in2="effect1_dropShadow_521_1476" result="shape"/>
</filter>
<filter id="filter3_d_521_1476" x="215.009" y="45.16" width="88.4763" height="13.984" filterUnits="userSpaceOnUse" color-interpolation-filters="sRGB">
<feFlood flood-opacity="0" result="BackgroundImageFix"/>
<feColorMatrix in="SourceAlpha" type="matrix" values="0 0 0 0 0 0 0 0 0 0 0 0 0 0 0 0 0 0 127 0" result="hardAlpha"/>
<feOffset dx="1" dy="2"/>
<feComposite in2="hardAlpha" operator="out"/>
<feColorMatrix type="matrix" values="0 0 0 0 0 0 0 0 0 0 0 0 0 0 0 0 0 0 1 0"/>
<feBlend mode="normal" in2="BackgroundImageFix" result="effect1_dropShadow_521_1476"/>
<feBlend mode="normal" in="SourceGraphic" in2="effect1_dropShadow_521_1476" result="shape"/>
</filter>
<linearGradient id="paint0_linear_521_1476" x1="0" y1="0" x2="400" y2="241" gradientUnits="userSpaceOnUse">
<stop stop-color="#3C82F6"/>
<stop offset="1" stop-color="#3C78D2"/>
</linearGradient>
<linearGradient id="paint1_linear_521_1476" x1="348.318" y1="14.877" x2="356.117" y2="14.877" gradientUnits="userSpaceOnUse">
<stop stop-color="#1884E8"/>
<stop offset="0.453125" stop-color="#149BBE"/>
<stop offset="1" stop-color="#14BD80"/>
</linearGradient>
<linearGradient id="paint2_linear_521_1476" x1="348.318" y1="16.2444" x2="357.615" y2="16.2444" gradientUnits="userSpaceOnUse">
<stop stop-color="#1884E8"/>
<stop offset="0.453125" stop-color="#149BBE"/>
<stop offset="1" stop-color="#14BD80"/>
</linearGradient>
<linearGradient id="paint3_linear_521_1476" x1="348.318" y1="17.6119" x2="359.117" y2="17.6119" gradientUnits="userSpaceOnUse">
<stop stop-color="#1884E8"/>
<stop offset="0.453125" stop-color="#149BBE"/>
<stop offset="1" stop-color="#14BD80"/>
</linearGradient>
<linearGradient id="paint4_linear_521_1476" x1="348.318" y1="18.9793" x2="360.616" y2="18.9793" gradientUnits="userSpaceOnUse">
<stop stop-color="#1884E8"/>
<stop offset="0.453125" stop-color="#149BBE"/>
<stop offset="1" stop-color="#14BD80"/>
</linearGradient>
<linearGradient id="paint5_linear_521_1476" x1="348.318" y1="20.3447" x2="362.114" y2="20.3447" gradientUnits="userSpaceOnUse">
<stop stop-color="#1884E8"/>
<stop offset="0.453125" stop-color="#149BBE"/>
<stop offset="1" stop-color="#14BD80"/>
</linearGradient>
<linearGradient id="paint6_linear_521_1476" x1="348.318" y1="21.7121" x2="363.616" y2="21.7121" gradientUnits="userSpaceOnUse">
<stop stop-color="#1884E8"/>
<stop offset="0.453125" stop-color="#149BBE"/>
<stop offset="1" stop-color="#14BD80"/>
</linearGradient>
<linearGradient id="paint7_linear_521_1476" x1="348.318" y1="23.0796" x2="365.115" y2="23.0796" gradientUnits="userSpaceOnUse">
<stop stop-color="#1884E8"/>
<stop offset="0.453125" stop-color="#149BBE"/>
<stop offset="1" stop-color="#14BD80"/>
</linearGradient>
<linearGradient id="paint8_linear_521_1476" x1="348.318" y1="24.4471" x2="366.613" y2="24.4471" gradientUnits="userSpaceOnUse">
<stop stop-color="#1884E8"/>
<stop offset="0.453125" stop-color="#149BBE"/>
<stop offset="1" stop-color="#14BD80"/>
</linearGradient>
<linearGradient id="paint9_linear_521_1476" x1="348.318" y1="25.8124" x2="368.115" y2="25.8124" gradientUnits="userSpaceOnUse">
<stop stop-color="#1884E8"/>
<stop offset="0.453125" stop-color="#149BBE"/>
<stop offset="1" stop-color="#14BD80"/>
</linearGradient>
<linearGradient id="paint10_linear_521_1476" x1="348.318" y1="27.1799" x2="369.613" y2="27.1799" gradientUnits="userSpaceOnUse">
<stop stop-color="#1884E8"/>
<stop offset="0.453125" stop-color="#149BBE"/>
<stop offset="1" stop-color="#14BD80"/>
</linearGradient>
<linearGradient id="paint11_linear_521_1476" x1="348.318" y1="28.5473" x2="371.116" y2="28.5473" gradientUnits="userSpaceOnUse">
<stop stop-color="#1884E8"/>
<stop offset="0.453125" stop-color="#149BBE"/>
<stop offset="1" stop-color="#14BD80"/>
</linearGradient>
<linearGradient id="paint12_linear_521_1476" x1="348.318" y1="29.9148" x2="372.614" y2="29.9148" gradientUnits="userSpaceOnUse">
<stop stop-color="#1884E8"/>
<stop offset="0.453125" stop-color="#149BBE"/>
<stop offset="1" stop-color="#14BD80"/>
</linearGradient>
<linearGradient id="paint13_linear_521_1476" x1="348.318" y1="31.2822" x2="374.112" y2="31.2822" gradientUnits="userSpaceOnUse">
<stop stop-color="#1884E8"/>
<stop offset="0.453125" stop-color="#149BBE"/>
<stop offset="1" stop-color="#14BD80"/>
</linearGradient>
<linearGradient id="paint14_linear_521_1476" x1="348.318" y1="32.6476" x2="375.615" y2="32.6476" gradientUnits="userSpaceOnUse">
<stop stop-color="#1884E8"/>
<stop offset="0.453125" stop-color="#149BBE"/>
<stop offset="1" stop-color="#14BD80"/>
</linearGradient>
<linearGradient id="paint15_linear_521_1476" x1="348.318" y1="34.0151" x2="377.113" y2="34.0151" gradientUnits="userSpaceOnUse">
<stop stop-color="#1884E8"/>
<stop offset="0.453125" stop-color="#149BBE"/>
<stop offset="1" stop-color="#14BD80"/>
</linearGradient>
<linearGradient id="paint16_linear_521_1476" x1="348.318" y1="35.3825" x2="378.611" y2="35.3825" gradientUnits="userSpaceOnUse">
<stop stop-color="#1884E8"/>
<stop offset="0.453125" stop-color="#149BBE"/>
<stop offset="1" stop-color="#14BD80"/>
</linearGradient>
<linearGradient id="paint17_linear_521_1476" x1="348.318" y1="36.75" x2="380.114" y2="36.75" gradientUnits="userSpaceOnUse">
<stop stop-color="#1884E8"/>
<stop offset="0.453125" stop-color="#149BBE"/>
<stop offset="1" stop-color="#14BD80"/>
</linearGradient>
<linearGradient id="paint18_linear_521_1476" x1="348.318" y1="38.1154" x2="381.612" y2="38.1154" gradientUnits="userSpaceOnUse">
<stop stop-color="#1884E8"/>
<stop offset="0.453125" stop-color="#149BBE"/>
<stop offset="1" stop-color="#14BD80"/>
</linearGradient>
<clipPath id="clip0_521_1476">
<rect width="400" height="222.11" fill="white"/>
</clipPath>
<clipPath id="clip1_521_1476">
<rect width="236" height="183" fill="white" transform="translate(12 21)"/>
</clipPath>
</defs>
</svg>
