<svg width="400" height="223" viewBox="0 0 400 223" fill="none" xmlns="http://www.w3.org/2000/svg">
<g clip-path="url(#clip0_520_1353)">
<rect width="400" height="222.11" fill="white"/>
<rect width="400" height="222.111" fill="url(#paint0_linear_520_1353)"/>
<g filter="url(#filter0_d_520_1353)">
<path d="M68 222L199.573 0H400V222H68Z" fill="#1253E0"/>
</g>
<g filter="url(#filter1_d_520_1353)">
<path d="M235.83 78.85L232.11 100H226.2L227.7 91.51H220.56L219.06 100H213.15L216.9 78.85H222.78L221.37 86.83H228.54L229.95 78.85H235.83ZM243.275 100.21C241.815 100.21 240.515 99.92 239.375 99.34C238.255 98.76 237.385 97.94 236.765 96.88C236.145 95.82 235.835 94.58 235.835 93.16C235.835 91.24 236.285 89.5 237.185 87.94C238.105 86.38 239.365 85.16 240.965 84.28C242.565 83.4 244.355 82.96 246.335 82.96C247.795 82.96 249.085 83.25 250.205 83.83C251.345 84.41 252.225 85.24 252.845 86.32C253.485 87.38 253.805 88.62 253.805 90.04C253.805 91.98 253.345 93.73 252.425 95.29C251.505 96.83 250.245 98.04 248.645 98.92C247.045 99.78 245.255 100.21 243.275 100.21ZM244.175 95.14C244.875 95.14 245.495 94.92 246.035 94.48C246.595 94.04 247.015 93.47 247.295 92.77C247.595 92.07 247.745 91.35 247.745 90.61C247.745 89.77 247.525 89.13 247.085 88.69C246.665 88.25 246.115 88.03 245.435 88.03C244.715 88.03 244.085 88.25 243.545 88.69C243.025 89.13 242.615 89.7 242.315 90.4C242.035 91.1 241.895 91.83 241.895 92.59C241.895 93.43 242.105 94.07 242.525 94.51C242.945 94.93 243.495 95.14 244.175 95.14ZM279.507 83.02C281.327 83.02 282.727 83.5 283.707 84.46C284.707 85.42 285.207 86.75 285.207 88.45C285.207 89.11 285.157 89.69 285.057 90.19L283.317 100H277.467L279.057 90.97C279.097 90.65 279.117 90.43 279.117 90.31C279.117 89.61 278.907 89.07 278.487 88.69C278.087 88.31 277.517 88.12 276.777 88.12C275.977 88.12 275.287 88.34 274.707 88.78C274.147 89.2 273.767 89.8 273.567 90.58L271.887 100H266.007L267.597 90.97C267.637 90.81 267.657 90.57 267.657 90.25C267.657 89.57 267.447 89.05 267.027 88.69C266.627 88.31 266.067 88.12 265.347 88.12C264.507 88.12 263.797 88.36 263.217 88.84C262.637 89.3 262.247 89.96 262.047 90.82L260.427 100H254.517L257.517 83.17H263.397L263.007 85.36C263.627 84.64 264.387 84.07 265.287 83.65C266.207 83.23 267.217 83.02 268.317 83.02C269.557 83.02 270.607 83.29 271.467 83.83C272.347 84.37 272.977 85.13 273.357 86.11C274.117 85.19 275.037 84.45 276.117 83.89C277.197 83.31 278.327 83.02 279.507 83.02ZM297.159 82.96C299.359 82.96 301.099 83.55 302.379 84.73C303.679 85.91 304.329 87.52 304.329 89.56C304.329 90.24 304.279 90.84 304.179 91.36C304.059 92 303.939 92.46 303.819 92.74H292.689C292.669 92.86 292.659 93.04 292.659 93.28C292.659 94.04 292.839 94.6 293.199 94.96C293.579 95.32 294.079 95.5 294.699 95.5C295.679 95.5 296.459 95.06 297.039 94.18H303.279C302.819 95.34 302.129 96.38 301.209 97.3C300.309 98.2 299.239 98.91 297.999 99.43C296.779 99.95 295.479 100.21 294.099 100.21C291.899 100.21 290.149 99.61 288.849 98.41C287.549 97.21 286.899 95.56 286.899 93.46C286.899 92.86 286.959 92.23 287.079 91.57C287.399 89.81 288.029 88.29 288.969 87.01C289.929 85.71 291.109 84.71 292.509 84.01C293.929 83.31 295.479 82.96 297.159 82.96ZM298.389 90.1C298.429 89.82 298.449 89.64 298.449 89.56C298.449 88.92 298.249 88.44 297.849 88.12C297.449 87.78 296.929 87.61 296.289 87.61C295.549 87.61 294.909 87.82 294.369 88.24C293.829 88.66 293.429 89.28 293.169 90.1H298.389ZM330.26 85.9C330.04 87.18 329.54 88.35 328.76 89.41C328 90.45 326.97 91.29 325.67 91.93C324.37 92.55 322.86 92.86 321.14 92.86H318.23L316.97 100H311.06L314.81 78.85H323.6C325.82 78.85 327.51 79.36 328.67 80.38C329.83 81.38 330.41 82.73 330.41 84.43C330.41 84.85 330.36 85.34 330.26 85.9ZM321.41 88.21C323.07 88.21 324.03 87.44 324.29 85.9C324.33 85.62 324.35 85.42 324.35 85.3C324.35 84.76 324.17 84.34 323.81 84.04C323.47 83.72 322.94 83.56 322.22 83.56H319.88L319.07 88.21H321.41ZM330.672 91.57C330.992 89.83 331.582 88.31 332.442 87.01C333.302 85.71 334.332 84.71 335.532 84.01C336.752 83.31 338.032 82.96 339.372 82.96C340.532 82.96 341.492 83.19 342.252 83.65C343.012 84.11 343.542 84.73 343.842 85.51L344.262 83.17H350.142L347.172 100H341.292L341.712 97.66C341.132 98.44 340.372 99.06 339.432 99.52C338.492 99.98 337.452 100.21 336.312 100.21C334.552 100.21 333.142 99.63 332.082 98.47C331.022 97.29 330.492 95.69 330.492 93.67C330.492 93.01 330.552 92.31 330.672 91.57ZM342.792 91.57C342.852 91.27 342.882 90.99 342.882 90.73C342.882 89.89 342.642 89.24 342.162 88.78C341.702 88.32 341.102 88.09 340.362 88.09C339.482 88.09 338.692 88.4 337.992 89.02C337.292 89.62 336.852 90.47 336.672 91.57C336.612 91.87 336.582 92.16 336.582 92.44C336.582 93.28 336.812 93.93 337.272 94.39C337.752 94.85 338.362 95.08 339.102 95.08C339.982 95.08 340.772 94.77 341.472 94.15C342.172 93.53 342.612 92.67 342.792 91.57ZM359.763 82.96C360.903 82.96 361.853 83.19 362.613 83.65C363.393 84.11 363.933 84.73 364.233 85.51L364.653 83.17H370.533L367.593 99.82C367.313 101.4 366.763 102.82 365.943 104.08C365.123 105.36 364.013 106.38 362.613 107.14C361.213 107.9 359.543 108.28 357.603 108.28C355.143 108.28 353.233 107.72 351.873 106.6C350.533 105.5 349.863 103.99 349.863 102.07L349.893 101.47H355.683C355.723 102.01 355.953 102.43 356.373 102.73C356.813 103.03 357.403 103.18 358.143 103.18C360.143 103.18 361.333 102.06 361.713 99.82L362.103 97.66C361.523 98.44 360.763 99.06 359.823 99.52C358.903 99.98 357.873 100.21 356.733 100.21C354.973 100.21 353.553 99.63 352.473 98.47C351.413 97.29 350.883 95.69 350.883 93.67C350.883 93.01 350.943 92.31 351.063 91.57C351.383 89.83 351.973 88.31 352.833 87.01C353.693 85.71 354.723 84.71 355.923 84.01C357.143 83.31 358.423 82.96 359.763 82.96ZM363.183 91.57C363.243 91.27 363.273 90.99 363.273 90.73C363.273 89.89 363.033 89.24 362.553 88.78C362.093 88.32 361.493 88.09 360.753 88.09C359.873 88.09 359.083 88.4 358.383 89.02C357.683 89.62 357.243 90.47 357.063 91.57C357.003 91.87 356.973 92.16 356.973 92.44C356.973 93.28 357.203 93.93 357.663 94.39C358.143 94.85 358.753 95.08 359.493 95.08C360.373 95.08 361.163 94.77 361.863 94.15C362.563 93.53 363.003 92.67 363.183 91.57ZM381.534 82.96C383.734 82.96 385.474 83.55 386.754 84.73C388.054 85.91 388.704 87.52 388.704 89.56C388.704 90.24 388.654 90.84 388.554 91.36C388.434 92 388.314 92.46 388.194 92.74H377.064C377.044 92.86 377.034 93.04 377.034 93.28C377.034 94.04 377.214 94.6 377.574 94.96C377.954 95.32 378.454 95.5 379.074 95.5C380.054 95.5 380.834 95.06 381.414 94.18H387.654C387.194 95.34 386.504 96.38 385.584 97.3C384.684 98.2 383.614 98.91 382.374 99.43C381.154 99.95 379.854 100.21 378.474 100.21C376.274 100.21 374.524 99.61 373.224 98.41C371.924 97.21 371.274 95.56 371.274 93.46C371.274 92.86 371.334 92.23 371.454 91.57C371.774 89.81 372.404 88.29 373.344 87.01C374.304 85.71 375.484 84.71 376.884 84.01C378.304 83.31 379.854 82.96 381.534 82.96ZM382.764 90.1C382.804 89.82 382.824 89.64 382.824 89.56C382.824 88.92 382.624 88.44 382.224 88.12C381.824 87.78 381.304 87.61 380.664 87.61C379.924 87.61 379.284 87.82 378.744 88.24C378.204 88.66 377.804 89.28 377.544 90.1H382.764ZM219.87 130.53H226.44L225.63 135H213.15L216.9 113.85H222.78L219.87 130.53ZM228.426 126.57C228.746 124.83 229.336 123.31 230.196 122.01C231.056 120.71 232.086 119.71 233.286 119.01C234.506 118.31 235.786 117.96 237.126 117.96C238.286 117.96 239.246 118.19 240.006 118.65C240.766 119.11 241.296 119.73 241.596 120.51L242.016 118.17H247.896L244.926 135H239.046L239.466 132.66C238.886 133.44 238.126 134.06 237.186 134.52C236.246 134.98 235.206 135.21 234.066 135.21C232.306 135.21 230.896 134.63 229.836 133.47C228.776 132.29 228.246 130.69 228.246 128.67C228.246 128.01 228.306 127.31 228.426 126.57ZM240.546 126.57C240.606 126.27 240.636 125.99 240.636 125.73C240.636 124.89 240.396 124.24 239.916 123.78C239.456 123.32 238.856 123.09 238.116 123.09C237.236 123.09 236.446 123.4 235.746 124.02C235.046 124.62 234.606 125.47 234.426 126.57C234.366 126.87 234.336 127.16 234.336 127.44C234.336 128.28 234.566 128.93 235.026 129.39C235.506 129.85 236.116 130.08 236.856 130.08C237.736 130.08 238.526 129.77 239.226 129.15C239.926 128.53 240.366 127.67 240.546 126.57ZM255.987 118.17L257.817 127.71L262.917 118.17H269.367L254.337 143.01H247.947L253.497 134.28L249.447 118.17H255.987ZM275.765 135.21C274.305 135.21 273.005 134.92 271.865 134.34C270.745 133.76 269.875 132.94 269.255 131.88C268.635 130.82 268.325 129.58 268.325 128.16C268.325 126.24 268.775 124.5 269.675 122.94C270.595 121.38 271.855 120.16 273.455 119.28C275.055 118.4 276.845 117.96 278.825 117.96C280.285 117.96 281.575 118.25 282.695 118.83C283.835 119.41 284.715 120.24 285.335 121.32C285.975 122.38 286.295 123.62 286.295 125.04C286.295 126.98 285.835 128.73 284.915 130.29C283.995 131.83 282.735 133.04 281.135 133.92C279.535 134.78 277.745 135.21 275.765 135.21ZM276.665 130.14C277.365 130.14 277.985 129.92 278.525 129.48C279.085 129.04 279.505 128.47 279.785 127.77C280.085 127.07 280.235 126.35 280.235 125.61C280.235 124.77 280.015 124.13 279.575 123.69C279.155 123.25 278.605 123.03 277.925 123.03C277.205 123.03 276.575 123.25 276.035 123.69C275.515 124.13 275.105 124.7 274.805 125.4C274.525 126.1 274.385 126.83 274.385 127.59C274.385 128.43 274.595 129.07 275.015 129.51C275.435 129.93 275.985 130.14 276.665 130.14ZM307.227 118.17L304.227 135H298.347L298.767 132.6C298.107 133.36 297.297 133.98 296.337 134.46C295.397 134.92 294.357 135.15 293.217 135.15C291.557 135.15 290.267 134.68 289.347 133.74C288.427 132.8 287.967 131.49 287.967 129.81C287.967 129.23 288.027 128.61 288.147 127.95L289.857 118.17H295.737L294.147 127.2C294.087 127.46 294.057 127.72 294.057 127.98C294.057 128.7 294.267 129.27 294.687 129.69C295.107 130.09 295.677 130.29 296.397 130.29C297.237 130.29 297.947 130.03 298.527 129.51C299.107 128.99 299.497 128.27 299.697 127.35L301.317 118.17H307.227ZM315.524 128.7C315.504 128.8 315.494 128.92 315.494 129.06C315.494 129.38 315.584 129.62 315.764 129.78C315.964 129.92 316.284 129.99 316.724 129.99H318.434L317.534 135H314.954C311.294 135 309.464 133.46 309.464 130.38C309.464 129.86 309.524 129.27 309.644 128.61L310.634 123.06H308.564L309.434 118.17H311.504L312.224 114.09H318.134L317.414 118.17H320.444L319.574 123.06H316.544L315.524 128.7Z" fill="white"/>
</g>
<mask id="mask0_520_1353" style="mask-type:alpha" maskUnits="userSpaceOnUse" x="352" y="13" width="24" height="24">
<circle r="11.6056" transform="matrix(-4.37114e-08 1 1 4.37114e-08 363.959 24.6056)" fill="#C4C4C4"/>
</mask>
<g mask="url(#mask0_520_1353)">
<path d="M356.117 8.81604C356.117 8.81604 355.226 13.624 352.109 14.8645C349.121 16.0508 348.318 20.9379 348.318 20.9379" stroke="url(#paint1_linear_520_1353)" stroke-width="0.25" stroke-miterlimit="10"/>
<path d="M357.615 8.81604C357.615 8.81604 356.587 14.7146 352.825 16.234C349.233 17.6826 348.318 23.6728 348.318 23.6728" stroke="url(#paint2_linear_520_1353)" stroke-width="0.25" stroke-miterlimit="10"/>
<path d="M359.118 8.81604C359.118 8.81604 357.948 15.8011 353.549 17.5994C349.342 19.3144 348.318 26.4077 348.318 26.4077" stroke="url(#paint3_linear_520_1353)" stroke-width="0.25" stroke-miterlimit="10"/>
<path d="M360.616 8.81604C360.616 8.81604 359.309 16.8917 354.265 18.9689C349.454 20.9462 348.318 29.1426 348.318 29.1426" stroke="url(#paint4_linear_520_1353)" stroke-width="0.25" stroke-miterlimit="10"/>
<path d="M362.114 8.81604C362.114 8.81604 360.67 17.9824 354.985 20.3384C349.566 22.578 348.318 31.8734 348.318 31.8734" stroke="url(#paint5_linear_520_1353)" stroke-width="0.25" stroke-miterlimit="10"/>
<path d="M363.616 8.81604C363.616 8.81604 362.035 19.0688 355.705 21.7038C349.674 24.2139 348.318 34.6083 348.318 34.6083" stroke="url(#paint6_linear_520_1353)" stroke-width="0.25" stroke-miterlimit="10"/>
<path d="M365.115 8.81604C365.115 8.81604 363.392 20.1595 356.425 23.0734C349.787 25.8457 348.318 37.3432 348.318 37.3432" stroke="url(#paint7_linear_520_1353)" stroke-width="0.25" stroke-miterlimit="10"/>
<path d="M366.613 8.81604C366.613 8.81604 364.753 21.2501 357.141 24.4387C349.899 27.4775 348.318 40.0781 348.318 40.0781" stroke="url(#paint8_linear_520_1353)" stroke-width="0.25" stroke-miterlimit="10"/>
<path d="M368.115 8.81604C368.115 8.81604 366.118 22.3365 357.865 25.8083C350.007 29.1093 348.318 42.8088 348.318 42.8088" stroke="url(#paint9_linear_520_1353)" stroke-width="0.25" stroke-miterlimit="10"/>
<path d="M369.613 8.81604C369.613 8.81604 367.478 23.4272 358.585 27.1737C350.12 30.7411 348.318 45.5437 348.318 45.5437" stroke="url(#paint10_linear_520_1353)" stroke-width="0.25" stroke-miterlimit="10"/>
<path d="M371.116 8.81604C371.116 8.81604 368.839 24.5178 359.305 28.5432C350.232 32.3729 348.318 48.2786 348.318 48.2786" stroke="url(#paint11_linear_520_1353)" stroke-width="0.25" stroke-miterlimit="10"/>
<path d="M372.614 8.81604C372.614 8.81604 370.2 25.6043 360.025 29.9085C350.34 34.0047 348.318 51.0135 348.318 51.0135" stroke="url(#paint12_linear_520_1353)" stroke-width="0.25" stroke-miterlimit="10"/>
<path d="M374.112 8.81604C374.112 8.81604 371.561 26.6949 360.741 31.2781C350.453 35.6365 348.318 53.7484 348.318 53.7484" stroke="url(#paint13_linear_520_1353)" stroke-width="0.25" stroke-miterlimit="10"/>
<path d="M375.615 8.81604C375.615 8.81604 372.922 27.7856 361.465 32.6476C350.565 37.2682 348.318 56.4792 348.318 56.4792" stroke="url(#paint14_linear_520_1353)" stroke-width="0.25" stroke-miterlimit="10"/>
<path d="M377.113 8.81604C377.113 8.81604 374.283 28.872 362.181 34.013C350.673 38.9 348.318 59.2141 348.318 59.2141" stroke="url(#paint15_linear_520_1353)" stroke-width="0.25" stroke-miterlimit="10"/>
<path d="M378.611 8.81604C378.611 8.81604 375.644 29.9627 362.901 35.3825C350.786 40.5318 348.318 61.949 348.318 61.949" stroke="url(#paint16_linear_520_1353)" stroke-width="0.25" stroke-miterlimit="10"/>
<path d="M380.114 8.81604C380.114 8.81604 377.009 31.0533 363.621 36.7479C350.898 42.1636 348.318 64.6839 348.318 64.6839" stroke="url(#paint17_linear_520_1353)" stroke-width="0.25" stroke-miterlimit="10"/>
<path d="M381.612 8.81604C381.612 8.81604 378.366 32.1398 364.341 38.1174C351.006 43.7954 348.318 67.4147 348.318 67.4147" stroke="url(#paint18_linear_520_1353)" stroke-width="0.25" stroke-miterlimit="10"/>
</g>
<path fill-rule="evenodd" clip-rule="evenodd" d="M340.112 18.0548H338L338.988 25.9609H340.826L343.053 21.1663H343.115L343.737 25.9609H345.578L349.187 18.0548H347.08L345.026 23.247H344.964L344.455 18.0548H342.733L340.517 23.2354H340.451L340.112 18.0548ZM342.835 18.2101L340.619 23.3907H340.306L339.966 18.2101H338.176L339.125 25.8056H340.727L342.954 21.011H343.251L343.873 25.8056H345.478L348.946 18.2101H347.185L345.131 23.4023H344.823L344.314 18.2101H342.835ZM350.432 20.3402C349.948 20.5949 349.547 20.9527 349.228 21.4133C348.911 21.8714 348.702 22.4068 348.599 23.0193C348.493 23.6498 348.523 24.1941 348.687 24.6522C348.852 25.1077 349.138 25.459 349.544 25.7061C349.954 25.9506 350.468 26.0728 351.089 26.0728C351.608 26.0728 352.077 25.9943 352.494 25.8373C352.913 25.6778 353.268 25.4552 353.559 25.1695C353.811 24.9199 354.006 24.6327 354.144 24.3078C354.165 24.2575 354.185 24.2063 354.204 24.1542L352.482 24.104C352.41 24.2353 352.316 24.3472 352.2 24.4399C352.087 24.53 351.958 24.5982 351.814 24.6445C351.67 24.6882 351.516 24.7101 351.351 24.7101C351.104 24.7101 350.902 24.6638 350.745 24.5711C350.588 24.4759 350.477 24.3395 350.413 24.1619C350.356 24.0051 350.34 23.8201 350.366 23.6069C350.369 23.5788 350.373 23.5502 350.378 23.5211L350.391 23.4516H354.339L354.412 22.9807C354.495 22.4943 354.497 22.0632 354.42 21.6874C354.343 21.3117 354.197 20.9951 353.984 20.7378C353.77 20.4778 353.5 20.2823 353.173 20.151C352.846 20.0197 352.472 19.9541 352.05 19.9541C351.455 19.9541 350.916 20.0828 350.432 20.3402ZM354.206 23.2963L354.259 22.9547C354.339 22.4821 354.34 22.0711 354.268 21.7187C354.195 21.3642 354.059 21.072 353.864 20.837C353.668 20.5981 353.419 20.4171 353.115 20.2951C352.81 20.1726 352.456 20.1094 352.05 20.1094C351.479 20.1094 350.965 20.2328 350.505 20.4773C350.044 20.7201 349.661 21.0611 349.356 21.5018C349.053 21.939 348.851 22.4524 348.752 23.045C348.649 23.6571 348.68 24.1731 348.833 24.5995C348.986 25.0221 349.249 25.3448 349.625 25.5731C350.003 25.7993 350.488 25.9175 351.089 25.9175C351.593 25.9175 352.042 25.8414 352.439 25.6921C352.84 25.5394 353.176 25.3279 353.45 25.0589C353.673 24.8381 353.848 24.5864 353.976 24.303L352.569 24.2619C352.495 24.3758 352.404 24.4758 352.297 24.5612C352.169 24.6634 352.023 24.7405 351.862 24.7923L351.859 24.7931C351.699 24.8417 351.53 24.8654 351.351 24.8654C351.086 24.8654 350.854 24.8158 350.666 24.7049L350.664 24.7039C350.476 24.5898 350.343 24.4247 350.267 24.2148C350.202 24.0346 350.185 23.8305 350.21 23.6069H349.007L349.23 22.2H350.473C350.524 22.0387 350.602 21.8898 350.707 21.7542C350.847 21.575 351.017 21.432 351.216 21.3264C351.422 21.2166 351.642 21.1615 351.876 21.1615C352.104 21.1615 352.308 21.2115 352.479 21.3201C352.651 21.4249 352.777 21.5728 352.854 21.7598C352.931 21.9476 352.948 22.1558 352.914 22.3789L352.893 22.5106H350.72L350.577 23.2963H354.206ZM350.404 22.5106L350.261 23.2963H349.371L349.496 22.5106H350.404ZM350.592 22.3553C350.603 22.3021 350.618 22.2503 350.637 22.2C350.682 22.0741 350.746 21.9573 350.83 21.8496C350.956 21.6874 351.109 21.5588 351.289 21.4635C351.472 21.3657 351.668 21.3168 351.876 21.3168C352.082 21.3168 352.256 21.3619 352.397 21.4519C352.541 21.5395 352.646 21.6617 352.71 21.8187C352.774 21.9757 352.791 22.1545 352.76 22.3553H350.592ZM358.409 18.0548H356.521L355.208 25.9609H357.077L357.231 24.9996H357.305C357.306 25.0037 357.307 25.0078 357.308 25.0119C357.322 25.0666 357.34 25.1203 357.361 25.1729C357.408 25.2916 357.472 25.405 357.552 25.5131C357.673 25.6726 357.834 25.8013 358.034 25.8991C358.238 25.9969 358.489 26.0458 358.787 26.0458C359.225 26.0458 359.641 25.9326 360.038 25.7061C360.437 25.4796 360.78 25.1399 361.069 24.687C361.357 24.234 361.556 23.6717 361.667 23C361.783 22.3025 361.767 21.7286 361.621 21.2782C361.474 20.8279 361.24 20.4946 360.918 20.2784C360.596 20.0622 360.23 19.9541 359.818 19.9541C359.506 19.9541 359.23 20.0082 358.988 20.1163C358.746 20.2218 358.539 20.3582 358.366 20.5255C358.272 20.6182 358.188 20.7129 358.115 20.8095C358.056 20.8873 358.003 20.9663 357.957 21.0466H357.918L358.409 18.0548ZM358.475 20.6364C358.314 20.7951 358.187 20.9576 358.092 21.1237L358.047 21.2019H357.736L358.226 18.2101H356.653L355.392 25.8056H356.945L357.099 24.8443H357.426L357.455 24.9615C357.496 25.1232 357.569 25.2758 357.676 25.4198C357.78 25.5574 357.921 25.6711 358.102 25.7593C358.278 25.8442 358.505 25.8905 358.787 25.8905C359.196 25.8905 359.587 25.7849 359.961 25.5713C360.334 25.3593 360.661 25.0388 360.938 24.6036C361.212 24.1724 361.406 23.6311 361.514 22.9747C361.627 22.2907 361.609 21.7442 361.473 21.3263C361.335 20.9014 361.118 20.6001 360.831 20.4073C360.537 20.2094 360.201 20.1094 359.818 20.1094C359.524 20.1094 359.27 20.1603 359.051 20.258L359.05 20.2586C358.824 20.3573 358.633 20.4836 358.475 20.6364ZM357.826 24.382C357.687 24.2507 357.593 24.0667 357.544 23.8299C357.498 23.5932 357.5 23.3152 357.552 22.9961C357.603 22.6718 357.691 22.3926 357.814 22.1584C357.94 21.9242 358.095 21.7441 358.277 21.6179C358.463 21.4918 358.671 21.4288 358.903 21.4288C359.137 21.4288 359.324 21.4931 359.463 21.6218C359.602 21.7505 359.693 21.9319 359.737 22.1661C359.783 22.4003 359.78 22.677 359.729 22.9961C359.678 23.3152 359.59 23.5932 359.466 23.8299C359.343 24.0667 359.19 24.2507 359.007 24.382C358.824 24.5107 358.617 24.575 358.386 24.575C358.154 24.575 357.967 24.5107 357.826 24.382ZM359.889 22.137C359.94 22.3942 359.936 22.69 359.882 23.0208C359.829 23.3531 359.737 23.6475 359.604 23.9018C359.471 24.1561 359.304 24.3603 359.098 24.5081L359.097 24.509C358.887 24.6568 358.648 24.7303 358.386 24.7303C358.124 24.7303 357.897 24.6568 357.721 24.4969L357.719 24.4949C357.552 24.3366 357.446 24.121 357.392 23.8614L357.392 23.8598C357.341 23.6001 357.345 23.303 357.398 22.9717" fill="#39EFAD"/>
<path fill-rule="evenodd" clip-rule="evenodd" d="M365.212 23.6444H368.814L369.076 22.0925H363.564L362.251 29.9986H367.764L368.026 28.4467H364.424L364.687 26.8215H368.007L368.269 25.2658H364.949L365.212 23.6444ZM368.086 25.4211H364.767L365.08 23.4891H368.682L368.892 22.2478H363.695L362.434 29.8433H367.632L367.842 28.602H364.242L364.555 26.6662H367.876L368.086 25.4211ZM371.881 24.069H369.966L371.109 27.0338L368.893 29.9986H370.808L372.193 28.0298L372.958 29.9986H374.845L373.622 27.0338L375.772 24.069H373.869L372.529 26.0224L371.881 24.069ZM373.951 24.2243L372.48 26.3682L371.769 24.2243H370.192L371.284 27.0581L369.203 29.8433H370.727L372.233 27.7034L373.064 29.8433H374.613L373.445 27.0129L375.467 24.2243H373.951ZM378.848 24.069H376.979L375.613 32.2222H377.508L378.033 29.0374H378.087C378.088 29.0405 378.089 29.0436 378.09 29.0467C378.107 29.1137 378.129 29.1792 378.157 29.2431C378.202 29.35 378.261 29.4526 378.334 29.5508C378.453 29.7104 378.613 29.839 378.817 29.9368C379.023 30.0346 379.275 30.0835 379.573 30.0835C380.008 30.0835 380.424 29.9703 380.82 29.7438C381.217 29.5173 381.559 29.1776 381.847 28.7247C382.138 28.2717 382.339 27.7094 382.449 27.0377C382.565 26.3402 382.55 25.7663 382.403 25.316C382.256 24.8656 382.022 24.5323 381.7 24.3161C381.379 24.0999 381.012 23.9918 380.6 23.9918C380.289 23.9918 380.012 24.0459 379.77 24.154C379.528 24.2595 379.321 24.3959 379.149 24.5632C379.044 24.6665 378.952 24.7722 378.872 24.8805C378.823 24.9475 378.779 25.0154 378.74 25.0843H378.682L378.848 24.069ZM379.257 24.6743C379.096 24.8329 378.969 24.9954 378.874 25.1614L378.83 25.2396H378.499L378.665 24.2243H377.111L375.796 32.0669H377.376L377.901 28.8821H378.208L378.238 28.9992C378.279 29.1612 378.352 29.3141 378.459 29.4583C378.56 29.5949 378.7 29.7084 378.884 29.7968C379.063 29.882 379.291 29.9282 379.573 29.9282C379.98 29.9282 380.369 29.8227 380.743 29.609C381.114 29.397 381.439 29.0767 381.716 28.6413L381.716 28.6408C381.993 28.2097 382.188 27.6686 382.296 27.0124C382.41 26.3284 382.391 25.7819 382.255 25.364C382.117 24.9391 381.901 24.6378 381.614 24.445C381.319 24.2471 380.983 24.1471 380.6 24.1471C380.307 24.1471 380.052 24.198 379.834 24.2958L379.832 24.2963C379.606 24.3951 379.415 24.5214 379.257 24.6743ZM378.608 28.4197C378.467 28.2884 378.373 28.1044 378.326 27.8677C378.28 27.6309 378.283 27.3529 378.334 27.0338C378.386 26.7095 378.473 26.4303 378.597 26.1961C378.72 25.9619 378.875 25.7818 379.06 25.6557C379.248 25.5296 379.456 25.4665 379.685 25.4665C379.92 25.4665 380.106 25.5308 380.245 25.6595C380.384 25.7882 380.475 25.9696 380.519 26.2038C380.566 26.438 380.564 26.7147 380.515 27.0338C380.459 27.3529 380.369 27.6309 380.245 27.8677C380.122 28.1044 379.968 28.2884 379.786 28.4197C379.606 28.5484 379.4 28.6127 379.168 28.6127C378.939 28.6127 378.752 28.5484 378.608 28.4197ZM378.181 27.0094C378.127 27.3407 378.123 27.6379 378.174 27.8975C378.225 28.1584 378.332 28.3749 378.503 28.5336L378.505 28.5355C378.683 28.6942 378.908 28.768 379.168 28.768C379.43 28.768 379.668 28.6945 379.876 28.5461L379.876 28.5458C380.082 28.398 380.25 28.1938 380.383 27.9395C380.515 27.6861 380.609 27.3925 380.668 27.061L380.669 27.0573C380.72 26.7266 380.722 26.4312 380.672 26.1745C380.623 25.9164 380.52 25.702 380.351 25.5456C380.177 25.3844 379.949 25.3112 379.685 25.3112C379.426 25.3112 379.187 25.3832 378.973 25.5267L378.973 25.5273C378.763 25.67 378.593 25.8711 378.459 26.1237C378.326 26.376 378.234 26.6722 378.181 27.0094ZM385.373 24.3779C384.889 24.6327 384.487 24.9904 384.168 25.4511C383.852 25.9092 383.642 26.4445 383.539 27.057C383.433 27.6875 383.463 28.2318 383.628 28.6899C383.792 29.1455 384.078 29.4967 384.485 29.7438C384.894 29.9883 385.409 30.1105 386.029 30.1105C386.549 30.1105 387.017 30.0321 387.434 29.8751C387.854 29.7155 388.209 29.4929 388.499 29.2072C388.751 28.9576 388.946 28.6704 389.084 28.3456C389.106 28.2953 389.126 28.244 389.144 28.1919L387.422 28.1418C387.35 28.273 387.256 28.385 387.141 28.4776C387.027 28.5677 386.899 28.6359 386.755 28.6822C386.61 28.726 386.456 28.7478 386.291 28.7478C386.044 28.7478 385.842 28.7015 385.685 28.6089C385.528 28.5136 385.418 28.3772 385.353 28.1997C385.296 28.0428 385.281 27.8578 385.306 27.6446C385.31 27.6165 385.314 27.5879 385.319 27.5588L385.331 27.4893H389.279L389.353 27.0184C389.435 26.532 389.438 26.1009 389.36 25.7252C389.283 25.3494 389.138 25.0329 388.924 24.7755C388.711 24.5156 388.44 24.32 388.113 24.1887C387.787 24.0575 387.412 23.9918 386.99 23.9918C386.396 23.9918 385.856 24.1205 385.373 24.3779ZM389.146 27.334L389.2 26.9925C389.28 26.5198 389.281 26.1088 389.208 25.7564C389.135 25.4019 389 25.1097 388.805 24.8747L388.804 24.8741C388.608 24.6353 388.359 24.4548 388.056 24.3328C387.75 24.2103 387.396 24.1471 386.99 24.1471C386.419 24.1471 385.905 24.2706 385.446 24.515L385.445 24.5153C384.984 24.7581 384.601 25.0988 384.296 25.5395C383.994 25.9767 383.792 26.4901 383.692 27.0826C383.59 27.6948 383.62 28.2108 383.774 28.6372C383.927 29.0598 384.189 29.3825 384.565 29.6107C384.944 29.837 385.429 29.9553 386.029 29.9553C386.533 29.9553 386.982 29.8792 387.379 29.7298C387.78 29.5772 388.117 29.3657 388.39 29.0966C388.613 28.8758 388.788 28.6241 388.917 28.3407L387.509 28.2996C387.435 28.4136 387.344 28.5135 387.238 28.5989L387.237 28.5991C387.109 28.7014 386.963 28.7783 386.802 28.8301L386.8 28.8308C386.64 28.8794 386.47 28.9031 386.291 28.9031C386.026 28.9031 385.794 28.8535 385.606 28.7426L385.605 28.7416C385.417 28.6275 385.283 28.4624 385.207 28.2526C385.142 28.0723 385.125 27.8682 385.15 27.6446H383.948L384.171 26.2377H385.413C385.464 26.0764 385.542 25.9276 385.648 25.7919C385.787 25.6127 385.957 25.4697 386.157 25.3641C386.362 25.2543 386.583 25.1993 386.816 25.1993C387.044 25.1993 387.248 25.2492 387.42 25.3578C387.592 25.4626 387.717 25.6105 387.794 25.7975C387.871 25.9853 387.888 26.1935 387.854 26.4166L387.834 26.5483H385.66L385.517 27.334H389.146ZM385.345 26.5483L385.202 27.334H384.311L384.436 26.5483H385.345ZM385.532 26.393C385.544 26.3398 385.559 26.288 385.577 26.2377C385.622 26.1118 385.686 25.995 385.77 25.8873C385.896 25.7252 386.049 25.5965 386.23 25.5012C386.412 25.4035 386.608 25.3546 386.816 25.3546C387.022 25.3546 387.196 25.3996 387.338 25.4897C387.482 25.5772 387.586 25.6994 387.65 25.8564C387.715 26.0134 387.731 26.1923 387.7 26.393H385.532Z" fill="#39EFAD"/>
<path d="M339.609 25.3397L338.621 17.4336H340.733L341.073 22.6142H341.138L343.354 17.4336H345.076L345.585 22.6258H345.647L347.701 17.4336H349.809L346.199 25.3397H344.358L343.736 20.5451H343.674L341.447 25.3397H339.609Z" fill="white"/>
<path d="M351.71 25.4516C351.09 25.4516 350.575 25.3294 350.166 25.0849C349.759 24.8378 349.473 24.4865 349.309 24.031C349.144 23.5729 349.114 23.0286 349.22 22.398C349.323 21.7855 349.533 21.2502 349.849 20.7921C350.168 20.3315 350.57 19.9737 351.053 19.7189C351.537 19.4616 352.076 19.3329 352.671 19.3329C353.093 19.3329 353.468 19.3985 353.794 19.5298C354.121 19.661 354.391 19.8566 354.605 20.1166C354.819 20.3739 354.964 20.6905 355.041 21.0662C355.118 21.442 355.116 21.873 355.034 22.3594L354.96 22.8304H349.81L349.984 21.7341H353.381C353.412 21.5333 353.395 21.3545 353.331 21.1975C353.267 21.0405 353.163 20.9182 353.018 20.8307C352.877 20.7407 352.703 20.6956 352.497 20.6956C352.289 20.6956 352.093 20.7445 351.91 20.8423C351.73 20.9375 351.577 21.0662 351.451 21.2284C351.325 21.3905 351.243 21.5732 351.204 21.7765L350.999 22.8999C350.958 23.1495 350.97 23.3631 351.034 23.5407C351.099 23.7183 351.209 23.8547 351.366 23.9499C351.523 24.0426 351.725 24.0889 351.972 24.0889C352.137 24.0889 352.291 24.067 352.436 24.0233C352.58 23.9769 352.708 23.9087 352.822 23.8187C352.937 23.726 353.031 23.6141 353.103 23.4828L354.825 23.533C354.686 23.9216 354.471 24.26 354.18 24.5483C353.89 24.834 353.534 25.0566 353.115 25.2161C352.698 25.3731 352.23 25.4516 351.71 25.4516Z" fill="white"/>
<path d="M355.83 25.3397L357.142 17.4336H359.03L358.54 20.4254H358.578C358.681 20.2452 358.818 20.0715 358.987 19.9042C359.16 19.737 359.367 19.6006 359.609 19.495C359.851 19.3869 360.128 19.3329 360.439 19.3329C360.851 19.3329 361.217 19.441 361.539 19.6572C361.861 19.8734 362.095 20.2066 362.242 20.657C362.388 21.1074 362.404 21.6813 362.288 22.3787C362.177 23.0505 361.978 23.6128 361.69 24.0657C361.401 24.5187 361.058 24.8584 360.659 25.0849C360.263 25.3114 359.846 25.4246 359.408 25.4246C359.11 25.4246 358.859 25.3757 358.655 25.2779C358.455 25.1801 358.294 25.0514 358.173 24.8919C358.055 24.7323 357.972 24.5612 357.926 24.3784H357.853L357.698 25.3397H355.83ZM358.173 22.3749C358.121 22.694 358.119 22.972 358.165 23.2087C358.214 23.4455 358.308 23.6295 358.447 23.7608C358.589 23.8894 358.775 23.9538 359.007 23.9538C359.238 23.9538 359.446 23.8894 359.628 23.7608C359.811 23.6295 359.964 23.4455 360.088 23.2087C360.211 22.972 360.299 22.694 360.35 22.3749C360.402 22.0558 360.404 21.7791 360.358 21.5449C360.314 21.3107 360.223 21.1293 360.084 21.0006C359.945 20.8719 359.758 20.8076 359.524 20.8076C359.292 20.8076 359.084 20.8706 358.899 20.9967C358.716 21.1228 358.562 21.303 358.435 21.5372C358.312 21.7714 358.224 22.0506 358.173 22.3749Z" fill="white"/>
<path d="M362.872 29.3774L364.185 21.4713H369.697L369.435 23.0232H365.833L365.571 24.6445H368.891L368.628 26.2003H365.308L365.046 27.8255H368.647L368.385 29.3774H362.872Z" fill="white"/>
<path d="M372.502 23.4478L373.15 25.4012L374.49 23.4478H376.393L374.243 26.4126L375.467 29.3774H373.579L372.815 27.4086L371.429 29.3774H369.514L371.73 26.4126L370.587 23.4478H372.502Z" fill="white"/>
<path d="M376.234 31.601L377.6 23.4478H379.469L379.303 24.4631H379.361C379.464 24.283 379.6 24.1092 379.77 23.942C379.942 23.7747 380.15 23.6383 380.391 23.5328C380.633 23.4247 380.91 23.3706 381.221 23.3706C381.633 23.3706 382 23.4787 382.322 23.6949C382.643 23.9111 382.878 24.2444 383.024 24.6947C383.171 25.1451 383.186 25.719 383.071 26.4165C382.96 27.0882 382.759 27.6505 382.468 28.1035C382.18 28.5564 381.838 28.8961 381.441 29.1226C381.045 29.3491 380.63 29.4623 380.195 29.4623C379.896 29.4623 379.644 29.4134 379.438 29.3156C379.235 29.2178 379.074 29.0891 378.955 28.9296C378.837 28.77 378.755 28.5989 378.708 28.4161H378.654L378.129 31.601H376.234ZM378.955 26.4126C378.904 26.7317 378.901 27.0097 378.948 27.2464C378.994 27.4832 379.088 27.6672 379.229 27.7985C379.374 27.9272 379.56 27.9915 379.789 27.9915C380.021 27.9915 380.227 27.9272 380.407 27.7985C380.59 27.6672 380.743 27.4832 380.866 27.2464C380.99 27.0097 381.08 26.7317 381.137 26.4126C381.185 26.0935 381.187 25.8168 381.14 25.5826C381.097 25.3484 381.005 25.167 380.866 25.0383C380.727 24.9096 380.541 24.8453 380.307 24.8453C380.077 24.8453 379.869 24.9083 379.681 25.0344C379.496 25.1606 379.341 25.3407 379.218 25.5749C379.094 25.8091 379.007 26.0883 378.955 26.4126Z" fill="white"/>
<path d="M386.65 29.4893C386.03 29.4893 385.515 29.3671 385.106 29.1226C384.699 28.8755 384.414 28.5242 384.249 28.0687C384.084 27.6106 384.055 27.0663 384.16 26.4358C384.263 25.8233 384.473 25.2879 384.789 24.8298C385.108 24.3692 385.51 24.0114 385.994 23.7567C386.478 23.4993 387.017 23.3706 387.611 23.3706C388.033 23.3706 388.408 23.4362 388.735 23.5675C389.062 23.6988 389.332 23.8943 389.545 24.1543C389.759 24.4116 389.904 24.7282 389.982 25.1039C390.059 25.4797 390.056 25.9108 389.974 26.3972L389.9 26.8681H384.751L384.924 25.7718H388.322C388.352 25.571 388.336 25.3922 388.271 25.2352C388.207 25.0782 388.103 24.956 387.959 24.8685C387.817 24.7784 387.643 24.7333 387.438 24.7333C387.229 24.7333 387.034 24.7822 386.851 24.88C386.671 24.9753 386.518 25.1039 386.391 25.2661C386.265 25.4282 386.183 25.6109 386.144 25.8142L385.94 26.9376C385.899 27.1873 385.91 27.4009 385.974 27.5784C386.039 27.756 386.149 27.8924 386.306 27.9876C386.463 28.0803 386.665 28.1266 386.913 28.1266C387.077 28.1266 387.232 28.1047 387.376 28.061C387.52 28.0147 387.649 27.9465 387.762 27.8564C387.878 27.7637 387.972 27.6518 388.044 27.5205L389.765 27.5707C389.626 27.9593 389.412 28.2978 389.121 28.586C388.83 28.8717 388.475 29.0943 388.055 29.2538C387.638 29.4108 387.17 29.4893 386.65 29.4893Z" fill="white"/>
<g filter="url(#filter2_d_520_1353)">
<path d="M333.819 158.16L331.723 170H329.899L331.995 158.16H333.819ZM334.294 165.552C334.454 164.667 334.774 163.883 335.254 163.2C335.745 162.517 336.342 161.989 337.046 161.616C337.75 161.232 338.486 161.04 339.254 161.04C339.947 161.04 340.529 161.179 340.998 161.456C341.467 161.723 341.819 162.059 342.054 162.464L342.278 161.184H344.118L342.566 170H340.726L340.966 168.688C340.582 169.104 340.097 169.451 339.51 169.728C338.934 170.005 338.305 170.144 337.622 170.144C336.961 170.144 336.369 169.995 335.846 169.696C335.334 169.397 334.929 168.976 334.63 168.432C334.342 167.877 334.198 167.243 334.198 166.528C334.198 166.208 334.23 165.883 334.294 165.552ZM341.51 165.584C341.553 165.381 341.574 165.163 341.574 164.928C341.574 164.213 341.361 163.653 340.934 163.248C340.518 162.832 339.995 162.624 339.366 162.624C338.897 162.624 338.438 162.741 337.99 162.976C337.542 163.2 337.153 163.536 336.822 163.984C336.491 164.421 336.273 164.944 336.166 165.552C336.123 165.755 336.102 165.973 336.102 166.208C336.102 166.933 336.31 167.509 336.726 167.936C337.153 168.352 337.681 168.56 338.31 168.56C338.779 168.56 339.238 168.443 339.686 168.208C340.134 167.973 340.523 167.632 340.854 167.184C341.185 166.725 341.403 166.192 341.51 165.584ZM347.506 161.184L348.802 167.904L352.562 161.184H354.45L346.77 174.144H344.882L347.426 169.856L345.474 161.184H347.506ZM358.13 170.144C357.384 170.144 356.728 169.989 356.162 169.68C355.597 169.371 355.154 168.933 354.834 168.368C354.525 167.803 354.37 167.157 354.37 166.432C354.37 165.44 354.6 164.533 355.058 163.712C355.528 162.891 356.168 162.24 356.978 161.76C357.8 161.28 358.712 161.04 359.714 161.04C360.461 161.04 361.122 161.2 361.698 161.52C362.274 161.829 362.722 162.267 363.042 162.832C363.373 163.387 363.538 164.032 363.538 164.768C363.538 165.76 363.298 166.667 362.818 167.488C362.338 168.309 361.688 168.96 360.866 169.44C360.045 169.909 359.133 170.144 358.13 170.144ZM358.354 168.608C358.962 168.608 359.517 168.437 360.018 168.096C360.53 167.744 360.93 167.285 361.218 166.72C361.506 166.144 361.65 165.531 361.65 164.88C361.65 164.144 361.442 163.579 361.026 163.184C360.61 162.779 360.088 162.576 359.458 162.576C358.84 162.576 358.285 162.752 357.794 163.104C357.314 163.445 356.936 163.909 356.658 164.496C356.392 165.072 356.258 165.691 356.258 166.352C356.258 167.067 356.45 167.621 356.834 168.016C357.229 168.411 357.736 168.608 358.354 168.608ZM374.013 161.184L372.461 170H370.637L370.813 168.96C370.461 169.323 370.035 169.611 369.533 169.824C369.043 170.027 368.536 170.128 368.013 170.128C367.085 170.128 366.344 169.877 365.789 169.376C365.235 168.875 364.957 168.165 364.957 167.248C364.957 167.003 364.984 166.709 365.037 166.368L365.949 161.184H367.757L366.893 166.096C366.851 166.395 366.829 166.608 366.829 166.736C366.829 167.323 366.989 167.771 367.309 168.08C367.64 168.389 368.093 168.544 368.669 168.544C369.341 168.544 369.912 168.347 370.381 167.952C370.851 167.547 371.16 166.965 371.309 166.208L372.189 161.184H374.013ZM377.428 167.552C377.407 167.701 377.396 167.797 377.396 167.84C377.396 168.064 377.465 168.229 377.604 168.336C377.743 168.432 377.972 168.48 378.292 168.48H379.412L379.14 170H377.7C376.996 170 376.457 169.861 376.084 169.584C375.711 169.296 375.524 168.843 375.524 168.224C375.524 167.989 375.545 167.765 375.588 167.552L376.452 162.672H375.412L375.668 161.184H376.724L377.108 158.992H378.948L378.564 161.184H380.692L380.436 162.672H378.292L377.428 167.552ZM384.069 170.144C383.461 170.144 382.906 170.043 382.405 169.84C381.904 169.627 381.509 169.333 381.221 168.96C380.933 168.576 380.789 168.139 380.789 167.648C380.789 167.563 380.8 167.445 380.821 167.296H382.597C382.554 167.701 382.677 168.037 382.965 168.304C383.253 168.571 383.658 168.704 384.181 168.704C384.693 168.704 385.114 168.613 385.445 168.432C385.776 168.251 385.941 167.984 385.941 167.632C385.941 167.333 385.802 167.093 385.525 166.912C385.258 166.731 384.826 166.528 384.229 166.304C383.664 166.08 383.205 165.872 382.853 165.68C382.501 165.488 382.197 165.227 381.941 164.896C381.685 164.555 381.557 164.133 381.557 163.632C381.557 163.12 381.701 162.672 381.989 162.288C382.288 161.893 382.698 161.589 383.221 161.376C383.754 161.152 384.362 161.04 385.045 161.04C385.664 161.04 386.213 161.147 386.693 161.36C387.184 161.563 387.562 161.856 387.829 162.24C388.106 162.613 388.245 163.045 388.245 163.536C388.245 163.685 388.24 163.797 388.229 163.872H386.501C386.544 163.456 386.421 163.12 386.133 162.864C385.856 162.608 385.456 162.48 384.933 162.48C384.474 162.48 384.101 162.576 383.813 162.768C383.536 162.96 383.397 163.221 383.397 163.552C383.397 163.883 383.541 164.149 383.829 164.352C384.117 164.544 384.56 164.757 385.157 164.992C385.701 165.205 386.144 165.408 386.485 165.6C386.826 165.792 387.12 166.048 387.365 166.368C387.61 166.688 387.733 167.088 387.733 167.568C387.733 168.091 387.573 168.549 387.253 168.944C386.944 169.328 386.512 169.627 385.957 169.84C385.402 170.043 384.773 170.144 384.069 170.144Z" fill="white"/>
</g>
<g filter="url(#filter3_d_520_1353)">
<path d="M220.153 49.04C221.038 49.04 221.747 49.2907 222.281 49.792C222.814 50.2827 223.081 50.9867 223.081 51.904C223.081 52.1493 223.054 52.448 223.001 52.8L222.073 58H220.265L221.145 53.072C221.187 52.7733 221.209 52.56 221.209 52.432C221.209 51.8453 221.043 51.3973 220.713 51.088C220.393 50.7787 219.945 50.624 219.369 50.624C218.675 50.624 218.089 50.8373 217.609 51.264C217.139 51.68 216.841 52.2827 216.713 53.072V53.04L215.833 58H214.009L216.105 46.16H217.929L217.209 50.208C217.582 49.8347 218.025 49.5467 218.537 49.344C219.049 49.1413 219.587 49.04 220.153 49.04ZM228.255 58.144C227.509 58.144 226.853 57.9893 226.287 57.68C225.722 57.3707 225.279 56.9333 224.959 56.368C224.65 55.8027 224.495 55.1573 224.495 54.432C224.495 53.44 224.725 52.5333 225.183 51.712C225.653 50.8907 226.293 50.24 227.103 49.76C227.925 49.28 228.837 49.04 229.839 49.04C230.586 49.04 231.247 49.2 231.823 49.52C232.399 49.8293 232.847 50.2667 233.167 50.832C233.498 51.3867 233.663 52.032 233.663 52.768C233.663 53.76 233.423 54.6667 232.943 55.488C232.463 56.3093 231.813 56.96 230.991 57.44C230.17 57.9093 229.258 58.144 228.255 58.144ZM228.479 56.608C229.087 56.608 229.642 56.4373 230.143 56.096C230.655 55.744 231.055 55.2853 231.343 54.72C231.631 54.144 231.775 53.5307 231.775 52.88C231.775 52.144 231.567 51.5787 231.151 51.184C230.735 50.7787 230.213 50.576 229.583 50.576C228.965 50.576 228.41 50.752 227.919 51.104C227.439 51.4453 227.061 51.9093 226.783 52.496C226.517 53.072 226.383 53.6907 226.383 54.352C226.383 55.0667 226.575 55.6213 226.959 56.016C227.354 56.4107 227.861 56.608 228.479 56.608ZM247.994 49.184L243.706 58H241.786L241.178 51.488L238.234 58H236.314L235.114 49.184H236.97L237.578 56.272L240.682 49.184H242.586L243.146 56.24L246.202 49.184H247.994ZM255.162 55.552C255.141 55.7013 255.13 55.7973 255.13 55.84C255.13 56.064 255.2 56.2293 255.338 56.336C255.477 56.432 255.706 56.48 256.026 56.48H257.146L256.874 58H255.434C254.73 58 254.192 57.8613 253.818 57.584C253.445 57.296 253.258 56.8427 253.258 56.224C253.258 55.9893 253.28 55.7653 253.322 55.552L254.186 50.672H253.146L253.402 49.184H254.458L254.842 46.992H256.682L256.298 49.184H258.426L258.17 50.672H256.026L255.162 55.552ZM262.411 58.144C261.665 58.144 261.009 57.9893 260.444 57.68C259.878 57.3707 259.436 56.9333 259.116 56.368C258.806 55.8027 258.652 55.1573 258.652 54.432C258.652 53.44 258.881 52.5333 259.34 51.712C259.809 50.8907 260.449 50.24 261.26 49.76C262.081 49.28 262.993 49.04 263.996 49.04C264.742 49.04 265.404 49.2 265.98 49.52C266.556 49.8293 267.004 50.2667 267.324 50.832C267.654 51.3867 267.82 52.032 267.82 52.768C267.82 53.76 267.58 54.6667 267.1 55.488C266.62 56.3093 265.969 56.96 265.148 57.44C264.326 57.9093 263.414 58.144 262.411 58.144ZM262.636 56.608C263.244 56.608 263.798 56.4373 264.3 56.096C264.812 55.744 265.212 55.2853 265.5 54.72C265.788 54.144 265.932 53.5307 265.932 52.88C265.932 52.144 265.724 51.5787 265.308 51.184C264.892 50.7787 264.369 50.576 263.74 50.576C263.121 50.576 262.566 50.752 262.076 51.104C261.596 51.4453 261.217 51.9093 260.94 52.496C260.673 53.072 260.539 53.6907 260.539 54.352C260.539 55.0667 260.732 55.6213 261.116 56.016C261.51 56.4107 262.017 56.608 262.636 56.608ZM283.092 49.184L281.54 58H279.716L279.892 56.96C279.54 57.3227 279.113 57.6107 278.612 57.824C278.121 58.0267 277.614 58.128 277.092 58.128C276.164 58.128 275.422 57.8773 274.868 57.376C274.313 56.8747 274.036 56.1653 274.036 55.248C274.036 55.0027 274.062 54.7093 274.116 54.368L275.028 49.184H276.836L275.972 54.096C275.929 54.3947 275.908 54.608 275.908 54.736C275.908 55.3227 276.068 55.7707 276.388 56.08C276.718 56.3893 277.172 56.544 277.748 56.544C278.42 56.544 278.99 56.3467 279.46 55.952C279.929 55.5467 280.238 54.9653 280.388 54.208L281.267 49.184H283.092ZM287.194 58.144C286.586 58.144 286.031 58.0427 285.53 57.84C285.029 57.6267 284.634 57.3333 284.346 56.96C284.058 56.576 283.914 56.1387 283.914 55.648C283.914 55.5627 283.925 55.4453 283.946 55.296H285.722C285.679 55.7013 285.802 56.0373 286.09 56.304C286.378 56.5707 286.783 56.704 287.306 56.704C287.818 56.704 288.239 56.6133 288.57 56.432C288.901 56.2507 289.066 55.984 289.066 55.632C289.066 55.3333 288.927 55.0933 288.65 54.912C288.383 54.7307 287.951 54.528 287.354 54.304C286.789 54.08 286.33 53.872 285.978 53.68C285.626 53.488 285.322 53.2267 285.066 52.896C284.81 52.5547 284.682 52.1333 284.682 51.632C284.682 51.12 284.826 50.672 285.114 50.288C285.413 49.8933 285.823 49.5893 286.346 49.376C286.879 49.152 287.487 49.04 288.17 49.04C288.789 49.04 289.338 49.1467 289.818 49.36C290.309 49.5627 290.687 49.856 290.954 50.24C291.231 50.6133 291.37 51.0453 291.37 51.536C291.37 51.6853 291.365 51.7973 291.354 51.872H289.626C289.669 51.456 289.546 51.12 289.258 50.864C288.981 50.608 288.581 50.48 288.058 50.48C287.599 50.48 287.226 50.576 286.938 50.768C286.661 50.96 286.522 51.2213 286.522 51.552C286.522 51.8827 286.666 52.1493 286.954 52.352C287.242 52.544 287.685 52.7573 288.282 52.992C288.826 53.2053 289.269 53.408 289.61 53.6C289.951 53.792 290.245 54.048 290.49 54.368C290.735 54.688 290.858 55.088 290.858 55.568C290.858 56.0907 290.698 56.5493 290.378 56.944C290.069 57.328 289.637 57.6267 289.082 57.84C288.527 58.0427 287.898 58.144 287.194 58.144ZM297.869 49.04C298.968 49.04 299.842 49.3493 300.493 49.968C301.154 50.5867 301.485 51.4187 301.485 52.464C301.485 52.7093 301.458 53.0027 301.405 53.344C301.362 53.5787 301.288 53.8667 301.181 54.208H294.445C294.434 54.2827 294.429 54.3947 294.429 54.544C294.429 55.1733 294.621 55.6747 295.005 56.048C295.4 56.4213 295.912 56.608 296.541 56.608C297.533 56.608 298.296 56.1973 298.829 55.376H300.797C300.392 56.1867 299.794 56.8533 299.005 57.376C298.216 57.888 297.304 58.144 296.269 58.144C295.533 58.144 294.888 58 294.333 57.712C293.778 57.424 293.346 57.0133 293.037 56.48C292.728 55.936 292.573 55.3013 292.573 54.576C292.573 54.2667 292.605 53.936 292.669 53.584C292.829 52.6773 293.154 51.8827 293.645 51.2C294.136 50.5067 294.744 49.9733 295.469 49.6C296.205 49.2267 297.005 49.04 297.869 49.04ZM299.581 52.896C299.602 52.704 299.613 52.5653 299.613 52.48C299.613 51.8933 299.416 51.4293 299.021 51.088C298.637 50.7467 298.136 50.576 297.517 50.576C296.866 50.576 296.28 50.784 295.757 51.2C295.234 51.616 294.877 52.1813 294.685 52.896H299.581Z" fill="white"/>
</g>
<path d="M340.397 201.608L339.133 206H338.349L337.141 202.424L335.925 206H335.133L333.885 201.608H334.621L335.557 205.304L336.773 201.608H337.533L338.757 205.296L339.701 201.608H340.397ZM345.116 203.56C345.116 203.715 345.106 203.848 345.084 203.96H341.572C341.588 204.461 341.73 204.837 341.996 205.088C342.268 205.339 342.599 205.464 342.988 205.464C343.34 205.464 343.634 205.376 343.868 205.2C344.108 205.019 344.255 204.779 344.308 204.48H345.084C345.031 204.784 344.911 205.056 344.724 205.296C344.543 205.536 344.306 205.723 344.012 205.856C343.719 205.989 343.388 206.056 343.02 206.056C342.599 206.056 342.226 205.965 341.9 205.784C341.575 205.603 341.319 205.344 341.132 205.008C340.951 204.667 340.86 204.267 340.86 203.808C340.86 203.349 340.951 202.949 341.132 202.608C341.319 202.267 341.575 202.005 341.9 201.824C342.226 201.643 342.599 201.552 343.02 201.552C343.447 201.552 343.818 201.643 344.132 201.824C344.452 202.005 344.695 202.248 344.86 202.552C345.031 202.856 345.116 203.192 345.116 203.56ZM344.38 203.608C344.396 203.283 344.343 203.011 344.22 202.792C344.098 202.573 343.93 202.411 343.716 202.304C343.503 202.197 343.271 202.144 343.02 202.144C342.62 202.144 342.284 202.269 342.012 202.52C341.74 202.765 341.594 203.128 341.572 203.608H344.38ZM348.492 201.552C348.882 201.552 349.228 201.643 349.532 201.824C349.836 202.005 350.074 202.267 350.244 202.608C350.42 202.949 350.508 203.349 350.508 203.808C350.508 204.267 350.42 204.667 350.244 205.008C350.074 205.344 349.836 205.603 349.532 205.784C349.228 205.965 348.882 206.056 348.492 206.056C348.066 206.056 347.703 205.949 347.404 205.736C347.111 205.517 346.908 205.232 346.796 204.88V206H346.068V200.08H346.796V202.728C346.908 202.376 347.111 202.093 347.404 201.88C347.703 201.661 348.066 201.552 348.492 201.552ZM348.284 202.2C348.002 202.2 347.746 202.267 347.516 202.4C347.287 202.528 347.108 202.715 346.98 202.96C346.852 203.205 346.788 203.488 346.788 203.808C346.788 204.128 346.852 204.411 346.98 204.656C347.108 204.896 347.287 205.083 347.516 205.216C347.746 205.349 348.002 205.416 348.284 205.416C348.738 205.416 349.098 205.275 349.364 204.992C349.636 204.704 349.772 204.309 349.772 203.808C349.772 203.307 349.636 202.915 349.364 202.632C349.098 202.344 348.738 202.2 348.284 202.2ZM355.499 203.56C355.499 203.715 355.488 203.848 355.467 203.96H351.955C351.971 204.461 352.112 204.837 352.379 205.088C352.651 205.339 352.982 205.464 353.371 205.464C353.723 205.464 354.016 205.376 354.251 205.2C354.491 205.019 354.638 204.779 354.691 204.48H355.467C355.414 204.784 355.294 205.056 355.107 205.296C354.926 205.536 354.688 205.723 354.395 205.856C354.102 205.989 353.771 206.056 353.403 206.056C352.982 206.056 352.608 205.965 352.283 205.784C351.958 205.603 351.702 205.344 351.515 205.008C351.334 204.667 351.243 204.267 351.243 203.808C351.243 203.349 351.334 202.949 351.515 202.608C351.702 202.267 351.958 202.005 352.283 201.824C352.608 201.643 352.982 201.552 353.403 201.552C353.83 201.552 354.2 201.643 354.515 201.824C354.835 202.005 355.078 202.248 355.243 202.552C355.414 202.856 355.499 203.192 355.499 203.56ZM354.763 203.608C354.779 203.283 354.726 203.011 354.603 202.792C354.48 202.573 354.312 202.411 354.099 202.304C353.886 202.197 353.654 202.144 353.403 202.144C353.003 202.144 352.667 202.269 352.395 202.52C352.123 202.765 351.976 203.128 351.955 203.608H354.763ZM358.979 206L357.835 204.32L356.803 206H355.995L357.435 203.736L355.987 201.608H356.819L357.931 203.24L358.947 201.608H359.755L358.323 203.816L359.811 206H358.979ZM362.914 201.552C363.304 201.552 363.65 201.643 363.954 201.824C364.258 202.005 364.496 202.267 364.666 202.608C364.842 202.949 364.93 203.349 364.93 203.808C364.93 204.267 364.842 204.667 364.666 205.008C364.496 205.344 364.258 205.603 363.954 205.784C363.65 205.965 363.304 206.056 362.914 206.056C362.488 206.056 362.125 205.949 361.826 205.736C361.533 205.517 361.33 205.232 361.218 204.88V208.08H360.49V201.608H361.218V202.728C361.33 202.376 361.533 202.093 361.826 201.88C362.125 201.661 362.488 201.552 362.914 201.552ZM362.706 202.2C362.424 202.2 362.168 202.267 361.938 202.4C361.709 202.528 361.53 202.715 361.402 202.96C361.274 203.205 361.21 203.488 361.21 203.808C361.21 204.128 361.274 204.411 361.402 204.656C361.53 204.896 361.709 205.083 361.938 205.216C362.168 205.349 362.424 205.416 362.706 205.416C363.16 205.416 363.52 205.275 363.786 204.992C364.058 204.704 364.194 204.309 364.194 203.808C364.194 203.307 364.058 202.915 363.786 202.632C363.52 202.344 363.16 202.2 362.706 202.2ZM369.921 203.56C369.921 203.715 369.91 203.848 369.889 203.96H366.377C366.393 204.461 366.534 204.837 366.801 205.088C367.073 205.339 367.404 205.464 367.793 205.464C368.145 205.464 368.438 205.376 368.673 205.2C368.913 205.019 369.06 204.779 369.113 204.48H369.889C369.836 204.784 369.716 205.056 369.529 205.296C369.348 205.536 369.11 205.723 368.817 205.856C368.524 205.989 368.193 206.056 367.825 206.056C367.404 206.056 367.03 205.965 366.705 205.784C366.38 205.603 366.124 205.344 365.937 205.008C365.756 204.667 365.665 204.267 365.665 203.808C365.665 203.349 365.756 202.949 365.937 202.608C366.124 202.267 366.38 202.005 366.705 201.824C367.03 201.643 367.404 201.552 367.825 201.552C368.252 201.552 368.622 201.643 368.937 201.824C369.257 202.005 369.5 202.248 369.665 202.552C369.836 202.856 369.921 203.192 369.921 203.56ZM369.185 203.608C369.201 203.283 369.148 203.011 369.025 202.792C368.902 202.573 368.734 202.411 368.521 202.304C368.308 202.197 368.076 202.144 367.825 202.144C367.425 202.144 367.089 202.269 366.817 202.52C366.545 202.765 366.398 203.128 366.377 203.608H369.185ZM371.409 205.144V206H370.529V205.144H371.409ZM374.184 201.552C374.744 201.552 375.208 201.701 375.576 202C375.944 202.299 376.171 202.699 376.256 203.2H375.488C375.435 202.885 375.288 202.64 375.048 202.464C374.814 202.283 374.52 202.192 374.168 202.192C373.912 202.192 373.678 202.251 373.464 202.368C373.256 202.485 373.088 202.667 372.96 202.912C372.832 203.152 372.768 203.451 372.768 203.808C372.768 204.165 372.832 204.467 372.96 204.712C373.088 204.952 373.256 205.131 373.464 205.248C373.678 205.365 373.912 205.424 374.168 205.424C374.52 205.424 374.814 205.333 375.048 205.152C375.288 204.971 375.435 204.723 375.488 204.408H376.256C376.171 204.915 375.944 205.317 375.576 205.616C375.208 205.909 374.744 206.056 374.184 206.056C373.763 206.056 373.39 205.965 373.064 205.784C372.739 205.603 372.483 205.344 372.296 205.008C372.115 204.667 372.024 204.267 372.024 203.808C372.024 203.349 372.115 202.949 372.296 202.608C372.483 202.267 372.739 202.005 373.064 201.824C373.39 201.643 373.763 201.552 374.184 201.552ZM379.201 201.552C379.622 201.552 379.998 201.643 380.329 201.824C380.665 202.005 380.926 202.267 381.113 202.608C381.305 202.949 381.401 203.349 381.401 203.808C381.401 204.267 381.305 204.667 381.113 205.008C380.926 205.344 380.665 205.603 380.329 205.784C379.998 205.965 379.622 206.056 379.201 206.056C378.78 206.056 378.401 205.965 378.065 205.784C377.734 205.603 377.473 205.344 377.281 205.008C377.089 204.667 376.993 204.267 376.993 203.808C376.993 203.349 377.089 202.949 377.281 202.608C377.473 202.267 377.734 202.005 378.065 201.824C378.401 201.643 378.78 201.552 379.201 201.552ZM379.201 202.192C378.94 202.192 378.697 202.251 378.473 202.368C378.254 202.485 378.076 202.667 377.937 202.912C377.804 203.152 377.737 203.451 377.737 203.808C377.737 204.16 377.804 204.459 377.937 204.704C378.076 204.944 378.254 205.123 378.473 205.24C378.697 205.357 378.94 205.416 379.201 205.416C379.462 205.416 379.702 205.357 379.921 205.24C380.145 205.123 380.324 204.944 380.457 204.704C380.596 204.459 380.665 204.16 380.665 203.808C380.665 203.451 380.596 203.152 380.457 202.912C380.324 202.667 380.145 202.485 379.921 202.368C379.702 202.251 379.462 202.192 379.201 202.192ZM387.75 201.536C388.262 201.536 388.672 201.701 388.982 202.032C389.296 202.357 389.454 202.829 389.454 203.448V206H388.726V203.512C388.726 203.08 388.619 202.749 388.406 202.52C388.198 202.291 387.91 202.176 387.542 202.176C387.158 202.176 386.848 202.304 386.614 202.56C386.384 202.811 386.27 203.181 386.27 203.672V206H385.542V203.512C385.542 203.08 385.435 202.749 385.222 202.52C385.008 202.291 384.72 202.176 384.358 202.176C383.968 202.176 383.656 202.304 383.422 202.56C383.192 202.811 383.078 203.181 383.078 203.672V206H382.35V201.608H383.078V202.608C383.184 202.261 383.374 201.997 383.646 201.816C383.923 201.629 384.24 201.536 384.598 201.536C384.971 201.536 385.294 201.632 385.566 201.824C385.843 202.011 386.04 202.288 386.158 202.656C386.28 202.299 386.486 202.024 386.774 201.832C387.062 201.635 387.387 201.536 387.75 201.536Z" fill="white"/>
<g clip-path="url(#clip1_520_1353)">
<path d="M238.221 181.119C237.284 173.555 232.614 166.103 225.427 163.642C228.261 171.427 228.26 179.967 225.425 187.752C224.32 190.75 222.781 193.969 223.82 196.991C224.466 198.871 226.047 200.31 227.815 201.209C229.582 202.109 231.544 202.538 233.481 202.958L233.862 203.274C236.937 196.305 239.158 188.683 238.221 181.119Z" fill="#F0F0F0"/>
<path d="M225.355 163.785C229.541 168.491 232.142 174.402 232.79 180.677C232.953 182.026 232.904 183.392 232.643 184.725C232.348 186.015 231.713 187.202 230.806 188.163C229.978 189.076 229.026 189.914 228.433 191.013C228.138 191.58 227.966 192.204 227.928 192.842C227.89 193.481 227.987 194.12 228.212 194.719C228.735 196.225 229.766 197.452 230.816 198.617C231.982 199.911 233.213 201.236 233.708 202.951C233.768 203.158 234.086 203.053 234.026 202.845C233.164 199.862 230.278 198.167 228.902 195.479C228.26 194.225 227.99 192.77 228.592 191.446C229.119 190.288 230.1 189.424 230.946 188.506C231.845 187.582 232.505 186.451 232.868 185.211C233.195 183.896 233.296 182.534 233.168 181.185C232.929 178.142 232.214 175.155 231.049 172.335C229.739 169.109 227.888 166.132 225.577 163.533C225.434 163.372 225.213 163.625 225.355 163.785H225.355Z" fill="white"/>
<path d="M232.7 178.644C233.734 178.392 234.645 177.78 235.271 176.916C235.897 176.051 236.196 174.992 236.115 173.927C236.098 173.712 235.764 173.728 235.781 173.944C235.858 174.936 235.579 175.922 234.995 176.726C234.41 177.529 233.559 178.097 232.595 178.326C232.385 178.376 232.491 178.694 232.7 178.644Z" fill="white"/>
<path d="M231.287 187.756C229.419 186.636 228.04 184.851 227.425 182.757C227.364 182.549 227.046 182.655 227.107 182.862C227.751 185.04 229.19 186.895 231.136 188.056C231.322 188.166 231.471 187.866 231.287 187.756V187.756Z" fill="white"/>
<path d="M229.428 169.428C229.048 169.609 228.629 169.692 228.209 169.671C227.789 169.65 227.381 169.524 227.021 169.305C226.837 169.192 226.688 169.493 226.871 169.605C227.269 169.845 227.72 169.983 228.184 170.008C228.648 170.033 229.112 169.943 229.533 169.747C229.574 169.731 229.608 169.701 229.628 169.662C229.648 169.622 229.652 169.577 229.64 169.534C229.625 169.492 229.595 169.457 229.556 169.437C229.516 169.417 229.47 169.414 229.428 169.428Z" fill="white"/>
<path d="M203.519 177.151C203.632 177.225 203.745 177.299 203.858 177.375C205.372 178.374 206.802 179.495 208.135 180.726C208.239 180.82 208.344 180.916 208.446 181.013C211.625 184.014 214.222 187.581 216.104 191.534C216.851 193.107 217.478 194.736 217.979 196.405C218.671 198.71 219.239 201.264 220.609 203.149C220.75 203.348 220.903 203.537 221.067 203.716H233.448C233.476 203.702 233.504 203.691 233.533 203.677L234.027 203.699C234.007 203.612 233.985 203.521 233.965 203.433C233.954 203.382 233.939 203.331 233.928 203.28C233.92 203.246 233.911 203.212 233.906 203.181C233.903 203.169 233.9 203.158 233.897 203.149C233.891 203.118 233.883 203.09 233.877 203.062C233.753 202.554 233.625 202.047 233.493 201.539C233.493 201.536 233.493 201.536 233.49 201.533C232.476 197.669 231.132 193.856 229.253 190.369C229.197 190.264 229.14 190.156 229.078 190.051C228.223 188.484 227.241 186.99 226.143 185.583C225.539 184.815 224.897 184.077 224.219 183.374C222.464 181.561 220.436 180.036 218.208 178.855C213.768 176.502 208.626 175.6 203.881 177.038C203.759 177.075 203.641 177.111 203.519 177.151Z" fill="#F0F0F0"/>
<path d="M203.547 177.309C209.712 178.538 215.335 181.685 219.617 186.304C220.556 187.282 221.336 188.403 221.927 189.624C222.466 190.833 222.671 192.164 222.523 193.48C222.41 194.709 222.152 195.954 222.338 197.189C222.443 197.82 222.68 198.422 223.032 198.955C223.385 199.488 223.846 199.94 224.385 200.282C225.706 201.168 227.265 201.525 228.802 201.821C230.509 202.149 232.287 202.463 233.711 203.533C233.884 203.663 234.074 203.387 233.902 203.257C231.424 201.396 228.103 201.786 225.392 200.472C224.127 199.859 223.038 198.859 222.725 197.439C222.451 196.196 222.716 194.913 222.841 193.669C223.004 192.388 222.852 191.086 222.399 189.877C221.871 188.63 221.135 187.481 220.223 186.481C218.207 184.196 215.844 182.243 213.223 180.695C210.241 178.912 206.977 177.653 203.573 176.974C203.362 176.932 203.338 177.267 203.547 177.309V177.309Z" fill="white"/>
<path d="M218.325 184.736C219 183.909 219.36 182.869 219.341 181.801C219.322 180.733 218.926 179.707 218.222 178.905C218.08 178.743 217.822 178.959 217.966 179.121C218.622 179.866 218.991 180.822 219.007 181.817C219.022 182.811 218.683 183.779 218.05 184.544C217.913 184.711 218.189 184.901 218.325 184.736H218.325Z" fill="white"/>
<path d="M222.663 192.864C220.5 193.099 218.328 192.507 216.58 191.206C216.407 191.077 216.217 191.354 216.39 191.483C218.211 192.833 220.472 193.444 222.722 193.195C222.937 193.171 222.876 192.84 222.663 192.864V192.864Z" fill="white"/>
<path d="M210.184 179.353C209.99 179.728 209.705 180.047 209.357 180.284C209.009 180.521 208.607 180.667 208.189 180.71C207.974 180.731 208.035 181.061 208.249 181.04C208.711 180.991 209.154 180.829 209.539 180.568C209.925 180.308 210.241 179.956 210.459 179.545C210.483 179.507 210.492 179.463 210.484 179.419C210.476 179.376 210.452 179.337 210.417 179.311C210.38 179.286 210.336 179.276 210.292 179.284C210.248 179.292 210.21 179.317 210.184 179.353V179.353Z" fill="white"/>
<path d="M183.584 48.2119L35.8234 21.041C35.5226 20.9829 35.2132 20.9866 34.9138 21.0517C34.6423 21.1114 34.3874 21.2309 34.1675 21.4016C33.9526 21.5698 33.7796 21.786 33.6624 22.033C33.5377 22.2997 33.4743 22.5912 33.4768 22.8858V155.747C33.4741 156.042 33.5373 156.333 33.6619 156.6C33.7789 156.847 33.9516 157.064 34.1664 157.232C34.3861 157.403 34.6409 157.523 34.9124 157.582C35.2117 157.648 35.5211 157.652 35.822 157.594L183.584 130.423C183.706 130.397 183.82 130.34 183.912 130.255C184.02 130.158 184.111 130.043 184.18 129.915C184.26 129.769 184.32 129.613 184.36 129.451C184.403 129.275 184.426 129.094 184.426 128.912V49.7267C184.426 49.5446 184.404 49.3632 184.36 49.1866C184.32 49.0246 184.26 48.8684 184.18 48.7222C184.111 48.5941 184.021 48.479 183.912 48.382C183.82 48.2977 183.706 48.2398 183.584 48.2144L183.584 48.2119Z" fill="#E4E4E4"/>
<path d="M185.844 48.2119L38.0832 21.041C37.7824 20.9829 37.473 20.9866 37.1736 21.0517C36.9021 21.1114 36.6472 21.2309 36.4273 21.4016C36.2124 21.5698 36.0395 21.786 35.9223 22.033C35.7975 22.2997 35.7341 22.5912 35.7367 22.8858V155.747C35.7339 156.042 35.7972 156.333 35.9217 156.6C36.0387 156.847 36.2115 157.064 36.4262 157.232C36.6459 157.403 36.9008 157.523 37.1722 157.582C37.4716 157.648 37.781 157.652 38.0818 157.594L185.844 130.423C185.966 130.397 186.079 130.34 186.172 130.255C186.28 130.158 186.371 130.043 186.44 129.915C186.519 129.769 186.58 129.613 186.619 129.451C186.663 129.275 186.685 129.094 186.686 128.912V49.7267C186.686 49.5446 186.664 49.3632 186.62 49.1866C186.58 49.0246 186.52 48.8684 186.44 48.7222C186.371 48.5941 186.28 48.479 186.172 48.382C186.08 48.2977 185.966 48.2398 185.844 48.2144L185.844 48.2119Z" fill="white"/>
<path d="M185.844 48.2119L38.0832 21.041C37.7824 20.9829 37.473 20.9866 37.1736 21.0517C36.9021 21.1114 36.6472 21.2309 36.4273 21.4016C36.2124 21.5698 36.0395 21.786 35.9223 22.033C35.7975 22.2997 35.7341 22.5912 35.7367 22.8858V155.747C35.7339 156.042 35.7972 156.333 35.9217 156.6C36.0387 156.847 36.2115 157.064 36.4262 157.232C36.6459 157.403 36.9008 157.523 37.1722 157.582C37.4716 157.648 37.781 157.652 38.0818 157.594L185.844 130.423C185.966 130.397 186.079 130.34 186.172 130.255C186.28 130.158 186.371 130.043 186.44 129.915C186.519 129.769 186.58 129.613 186.619 129.451C186.663 129.275 186.685 129.094 186.686 128.912V49.7267C186.686 49.5446 186.664 49.3632 186.62 49.1866C186.58 49.0246 186.52 48.8684 186.44 48.7222C186.371 48.5941 186.28 48.479 186.172 48.382C186.08 48.2977 185.966 48.2398 185.844 48.2144L185.844 48.2119ZM186.406 128.96C186.406 129.082 186.391 129.203 186.362 129.321C186.335 129.429 186.295 129.533 186.242 129.631C186.196 129.716 186.135 129.793 186.063 129.858C186.001 129.914 185.926 129.952 185.844 129.969L38.0846 156.838C37.8842 156.876 37.6781 156.874 37.4787 156.83C37.2981 156.79 37.1286 156.71 36.9824 156.596C36.8396 156.484 36.7247 156.339 36.6468 156.175C36.5641 155.998 36.522 155.804 36.5237 155.608V23.027C36.5219 22.8311 36.5639 22.6374 36.6465 22.46C36.7242 22.2953 36.839 22.1511 36.9818 22.0387C37.1279 21.9247 37.2973 21.8447 37.4779 21.8045C37.6772 21.7605 37.8833 21.7575 38.0838 21.7957L185.844 48.6661C185.926 48.6828 186.001 48.7212 186.063 48.7772C186.135 48.8418 186.196 48.9186 186.242 49.004C186.295 49.1015 186.335 49.2056 186.362 49.3136C186.391 49.4316 186.406 49.5527 186.406 49.6742V128.96L186.406 128.96Z" fill="#CACACA"/>
<path d="M12.0002 62.4692C11.9931 61.5628 12.1841 60.6659 12.5598 59.8416C12.9109 59.0802 13.4298 58.4087 14.0773 57.878C14.729 57.3474 15.4899 56.9685 16.3052 56.7686C17.1872 56.5551 18.1037 56.5274 18.9969 56.6872C19.9338 56.851 20.8327 57.1859 21.6491 57.6753C22.4557 58.1569 23.1776 58.7686 23.7861 59.4858C24.3894 60.1928 24.8715 60.9955 25.2126 61.8611C25.5526 62.72 25.7291 63.6353 25.7329 64.5596C25.7393 65.4336 25.562 66.2992 25.2126 67.0999C24.8845 67.8439 24.3975 68.5065 23.7861 69.0408C23.1663 69.579 22.4371 69.9749 21.6491 70.201C20.7871 70.4452 19.8839 70.5068 18.9969 70.3818V70.3818C18.0521 70.2512 17.1397 69.9451 16.3066 69.4791C15.4695 69.013 14.7166 68.4087 14.0795 67.6916C13.4397 66.9759 12.9264 66.1558 12.5618 65.2667C12.1961 64.3794 12.0054 63.4294 12.0002 62.4692V62.4692Z" fill="#E4E4E4"/>
<path d="M12.0002 89.9701C11.9931 89.0638 12.1841 88.1668 12.5598 87.3425C12.9109 86.5811 13.4298 85.9096 14.0773 85.3789C14.729 84.8483 15.4899 84.4694 16.3052 84.2695C17.1872 84.056 18.1037 84.0283 18.9969 84.1882C19.9338 84.3519 20.8327 84.6868 21.6491 85.1762C22.4557 85.6579 23.1776 86.2696 23.7861 86.9867C24.3894 87.6937 24.8715 88.4964 25.2126 89.362C25.5526 90.221 25.7291 91.1363 25.7329 92.0605C25.7393 92.9346 25.562 93.8001 25.2126 94.6008C24.8845 95.3448 24.3975 96.0074 23.7861 96.5417C23.1663 97.0799 22.4371 97.4758 21.6491 97.7019C20.7871 97.9461 19.8839 98.0077 18.9969 97.8828V97.8828C18.0521 97.7521 17.1397 97.446 16.3066 96.98C15.4695 96.5139 14.7166 95.9096 14.0795 95.1925C13.4397 94.4768 12.9264 93.6567 12.5618 92.7676C12.1961 91.8803 12.0054 90.9303 12.0002 89.9701Z" fill="#E4E4E4"/>
<path d="M12.0002 117.471C11.9931 116.565 12.1841 115.668 12.5598 114.843C12.9109 114.082 13.4298 113.411 14.0773 112.88C14.729 112.349 15.4899 111.97 16.3052 111.77C17.1872 111.557 18.1037 111.529 18.9969 111.689C19.9338 111.853 20.8327 112.188 21.6491 112.677C22.4557 113.159 23.1776 113.77 23.7861 114.488C24.3894 115.195 24.8715 115.997 25.2126 116.863C25.5526 117.722 25.7291 118.637 25.7329 119.561C25.7393 120.435 25.562 121.301 25.2126 122.102C24.8845 122.846 24.3975 123.508 23.7861 124.043C23.1663 124.581 22.4371 124.977 21.6491 125.203C20.7871 125.447 19.8839 125.509 18.9969 125.384V125.384C18.0521 125.253 17.1397 124.947 16.3066 124.481C15.4695 124.015 14.7166 123.411 14.0795 122.693C13.4397 121.978 12.9264 121.158 12.5618 120.269C12.1961 119.381 12.0054 118.431 12.0002 117.471Z" fill="#E4E4E4"/>
<path d="M13.6951 62.4692C13.688 61.5628 13.879 60.6659 14.2547 59.8416C14.6058 59.0802 15.1247 58.4087 15.7721 57.878C16.4239 57.3474 17.1848 56.9685 18.0001 56.7686C18.8821 56.5551 19.7986 56.5274 20.6918 56.6872C21.6287 56.851 22.5276 57.1859 23.344 57.6753C24.1505 58.1569 24.8725 58.7686 25.481 59.4858C26.0843 60.1928 26.5664 60.9955 26.9075 61.8611C27.2475 62.72 27.4239 63.6353 27.4278 64.5596C27.4342 65.4336 27.2569 66.2992 26.9075 67.0999C26.5794 67.8439 26.0924 68.5065 25.481 69.0408C24.8612 69.579 24.132 69.9749 23.344 70.201C22.482 70.4452 21.5788 70.5068 20.6918 70.3818V70.3818C19.747 70.2512 18.8346 69.9451 18.0015 69.4791C17.1644 69.013 16.4115 68.4087 15.7744 67.6916C15.1346 66.9759 14.6213 66.1558 14.2566 65.2667C13.891 64.3794 13.7003 63.4294 13.6951 62.4692V62.4692Z" fill="#0A9E8B"/>
<path d="M13.6951 89.7827C13.6907 88.8629 13.8815 87.9527 14.2547 87.1126C14.609 86.3211 15.1262 85.6139 15.7721 85.0372C16.4183 84.4611 17.1771 84.0265 18.0001 83.7614C18.8687 83.484 19.7848 83.3883 20.6918 83.4805C21.6182 83.5715 22.5185 83.8402 23.344 84.2718C24.1479 84.6916 24.8714 85.2509 25.481 85.9238C26.0864 86.5892 26.5694 87.3571 26.9075 88.1919C27.2499 89.0378 27.4265 89.942 27.4275 90.855C27.4314 91.7416 27.2543 92.6196 26.9072 93.4349C26.5743 94.2108 26.0863 94.9098 25.4734 95.4887C24.8604 96.0676 24.1356 96.514 23.3437 96.8003C22.4946 97.1065 21.592 97.2349 20.6915 97.1776V97.1776C19.7579 97.12 18.8442 96.8813 18.0012 96.4745C16.3181 95.6623 14.9872 94.263 14.2569 92.5379C13.8889 91.6662 13.6979 90.7295 13.6951 89.7827V89.7827Z" fill="#0A9E8B"/>
<path d="M13.6951 117.096C13.6939 116.181 13.8773 115.275 14.2343 114.433C14.5913 113.591 15.1144 112.831 15.7721 112.197C16.581 111.42 17.5662 110.852 18.6426 110.542C19.7191 110.233 20.8545 110.191 21.9507 110.42C23.0468 110.65 24.0709 111.144 24.9342 111.86C25.7976 112.575 26.4744 113.491 26.9061 114.528C27.3304 115.56 27.4964 116.681 27.3896 117.792C27.2828 118.903 26.9064 119.971 26.2933 120.903C25.6802 121.835 24.8491 122.601 23.8727 123.136C22.8962 123.671 21.8041 123.957 20.6918 123.97C19.3301 123.99 17.9929 123.606 16.848 122.866C15.7032 122.126 14.8017 121.062 14.2569 119.81C13.8864 118.953 13.6951 118.03 13.6951 117.096V117.096Z" fill="#0A9E8B"/>
<path d="M17.9631 62.4381L20.0144 62.7545V60.7245C20.0134 60.6366 20.0314 60.5496 20.067 60.4693C20.1003 60.3951 20.1498 60.3294 20.2119 60.2771C20.2746 60.2246 20.3481 60.1868 20.4271 60.1663C20.5132 60.1442 20.603 60.1403 20.6907 60.1549C20.7836 60.17 20.8729 60.2021 20.9542 60.2496C21.0353 60.2968 21.108 60.3572 21.1695 60.4282C21.2308 60.4986 21.28 60.5788 21.315 60.6655C21.3498 60.7515 21.3682 60.8434 21.3689 60.9363V62.9634L23.3813 63.2733C23.4727 63.2878 23.5607 63.3192 23.6406 63.366C23.8009 63.4594 23.9256 63.6039 23.9948 63.7765C24.029 63.8619 24.0467 63.953 24.0471 64.045C24.0478 64.132 24.0299 64.2181 23.9948 64.2976C23.9624 64.371 23.9142 64.4363 23.8536 64.4887C23.7921 64.5411 23.7199 64.5793 23.642 64.6004C23.5575 64.6231 23.4692 64.6277 23.3827 64.614L21.3675 64.3115V66.3341C21.3682 66.422 21.3501 66.509 21.3144 66.5893C21.281 66.6638 21.2316 66.7299 21.1698 66.7829C21.1073 66.836 21.034 66.8747 20.9551 66.8963C20.8693 66.9196 20.7797 66.9249 20.6918 66.9116C20.599 66.8981 20.5096 66.8673 20.428 66.8209C20.3468 66.7748 20.274 66.7154 20.2124 66.6451C20.151 66.5753 20.1018 66.4956 20.067 66.4092C20.0323 66.323 20.0145 66.2309 20.0144 66.1379V64.108L17.9631 63.7989C17.8688 63.7844 17.778 63.7526 17.6953 63.7051C17.6129 63.6581 17.5389 63.5976 17.4763 63.5262C17.4141 63.4559 17.3642 63.3756 17.3286 63.2886C17.2931 63.2016 17.2747 63.1085 17.2744 63.0144C17.2737 62.9258 17.2922 62.8381 17.3286 62.7573C17.3628 62.6824 17.4133 62.6161 17.4763 62.5634C17.5401 62.5099 17.6149 62.4712 17.6953 62.45C17.7828 62.4276 17.8739 62.4235 17.9631 62.4381V62.4381Z" fill="white"/>
<path d="M19.4028 92.143L25.0993 92.5575H25.1202L22.4488 87.6895C22.4322 87.659 22.4085 87.6329 22.3796 87.6136C22.3655 87.6041 22.3502 87.5964 22.3341 87.5906C22.318 87.5848 22.3012 87.581 22.2841 87.5795C22.2675 87.578 22.2508 87.5788 22.2344 87.5818C22.2186 87.5848 22.2033 87.5899 22.1889 87.5971C22.1602 87.6114 22.1361 87.6338 22.1197 87.6615L20.302 90.6605L20.2144 90.8048L19.4028 92.143Z" fill="white"/>
<path d="M16.1518 91.9063L21.1777 92.272L20.2144 90.8045L20.1449 90.6985L18.8817 88.7737C18.8593 88.7439 18.8314 88.7186 18.7995 88.6994C18.784 88.6901 18.7676 88.6824 18.7506 88.6762C18.733 88.6699 18.7149 88.6654 18.6964 88.6629C18.6785 88.6603 18.6604 88.6596 18.6424 88.6609C18.6249 88.6621 18.6076 88.6651 18.5907 88.6699C18.5741 88.6748 18.5581 88.6814 18.543 88.6898C18.5278 88.6982 18.5135 88.7082 18.5006 88.7198L18.4964 88.725L18.491 88.7301L18.4868 88.7354L18.4825 88.7408L16.1518 91.9063Z" fill="white"/>
<path d="M19.9526 86.8883C20.0684 86.8984 20.1813 86.9308 20.285 86.9836C20.3867 87.0355 20.4785 87.1051 20.5559 87.1891C20.6333 87.2727 20.6951 87.3695 20.7384 87.4749C20.7824 87.5815 20.8051 87.6958 20.8054 87.8112C20.8059 87.923 20.7831 88.0336 20.7384 88.1361C20.696 88.233 20.6339 88.3199 20.5559 88.3912C20.4776 88.4627 20.3854 88.517 20.285 88.5509C20.1781 88.5867 20.0649 88.6001 19.9526 88.5903C19.8365 88.5805 19.7235 88.5485 19.6195 88.4959C19.5173 88.4442 19.4251 88.3747 19.3472 88.2906C19.2693 88.207 19.207 88.11 19.1633 88.0042C19.1189 87.8971 19.096 87.7823 19.0958 87.6663C19.0953 87.5541 19.1183 87.443 19.1633 87.3403C19.2061 87.2432 19.2688 87.1563 19.3472 87.0851C19.4261 87.014 19.5188 86.9601 19.6195 86.9269C19.7267 86.8913 19.8401 86.8782 19.9526 86.8883V86.8883Z" fill="white"/>
<path d="M81.4232 106.294L137.829 52.5797L138.071 53.005L81.7757 106.748L81.4232 106.294Z" fill="#E6E6E6"/>
<path d="M81.4323 45.4136L81.7859 44.9883L138.065 103.626L137.823 104.03L81.4323 45.4136Z" fill="#E6E6E6"/>
<path d="M137.258 51.7955L82.4289 44.2353C82.1754 44.199 81.9169 44.2211 81.6732 44.3C81.4412 44.3767 81.2295 44.505 81.0537 44.6753C80.872 44.8515 80.7291 45.064 80.6343 45.2991C80.5305 45.5584 80.478 45.8356 80.4797 46.115V105.353C80.479 105.636 80.5314 105.917 80.6343 106.18C80.7299 106.426 80.8723 106.65 81.0535 106.84C81.2282 107.024 81.4392 107.169 81.6729 107.266C81.9123 107.364 82.1704 107.407 82.4286 107.393L137.258 104.362C137.443 104.35 137.622 104.291 137.779 104.192C137.945 104.087 138.089 103.95 138.203 103.789C138.328 103.613 138.425 103.418 138.488 103.211C138.558 102.987 138.593 102.753 138.593 102.518V53.7478C138.593 53.5098 138.558 53.2731 138.488 53.0455C138.424 52.8319 138.328 52.6292 138.203 52.4445C138.089 52.2741 137.946 52.1257 137.779 52.0065C137.625 51.8958 137.446 51.8235 137.258 51.7955V51.7955ZM82.4289 106.783C82.2445 106.793 82.0603 106.762 81.8896 106.691C81.7228 106.622 81.5723 106.518 81.4478 106.387C81.3185 106.25 81.217 106.09 81.1489 105.914C81.0756 105.726 81.0383 105.526 81.0388 105.324V46.1885C81.0377 45.9893 81.0751 45.7918 81.1489 45.607C81.2164 45.4389 81.3182 45.2868 81.4478 45.1607C81.5732 45.0392 81.7242 44.9477 81.8896 44.8928C82.0634 44.8361 82.2479 44.8199 82.4289 44.8454L137.258 52.3033C137.392 52.3232 137.52 52.3749 137.631 52.4541C137.75 52.5389 137.853 52.6446 137.934 52.766C138.023 52.898 138.092 53.0428 138.138 53.1955C138.188 53.3582 138.213 53.5274 138.213 53.6976V102.538C138.214 102.706 138.188 102.873 138.138 103.034C138.093 103.182 138.024 103.321 137.934 103.447C137.853 103.562 137.75 103.659 137.631 103.734C137.518 103.805 137.39 103.846 137.258 103.854L82.4289 106.783Z" fill="#E6E6E6"/>
<path d="M80.6125 113.648C80.4668 113.664 80.3277 113.719 80.2094 113.806C80.0788 113.902 79.9678 114.022 79.8823 114.16C79.7851 114.314 79.7116 114.482 79.6642 114.659C79.6118 114.851 79.5864 115.05 79.5888 115.249C79.59 115.44 79.6185 115.63 79.6736 115.812C79.7215 115.973 79.796 116.124 79.8939 116.26C79.9793 116.38 80.0899 116.479 80.2179 116.55C80.3388 116.617 80.4758 116.648 80.6134 116.64L176.601 108.662C176.677 108.656 176.749 108.623 176.804 108.569C176.874 108.502 176.93 108.422 176.971 108.334C177.022 108.226 177.06 108.112 177.084 107.994C177.112 107.858 177.127 107.72 177.128 107.581C177.129 107.443 177.117 107.306 177.09 107.171C177.068 107.056 177.032 106.945 176.982 106.84C176.944 106.755 176.888 106.68 176.82 106.619C176.764 106.569 176.692 106.543 176.618 106.544H176.601L80.6125 113.648Z" fill="#E6E6E6"/>
<path d="M80.6125 122.727C80.466 122.747 80.3271 122.805 80.2094 122.895C80.0789 122.994 79.968 123.117 79.8823 123.257C79.7853 123.413 79.7118 123.583 79.6642 123.761C79.6118 123.955 79.5864 124.155 79.5888 124.355C79.5898 124.546 79.6184 124.735 79.6735 124.916C79.7212 125.075 79.7957 125.225 79.8939 125.358C79.9791 125.475 80.0897 125.572 80.2173 125.639C80.339 125.703 80.4762 125.73 80.6128 125.718L176.601 115.09C176.678 115.081 176.75 115.046 176.804 114.991C176.874 114.922 176.93 114.841 176.971 114.752C177.022 114.642 177.06 114.526 177.084 114.407C177.112 114.27 177.127 114.131 177.128 113.992C177.129 113.855 177.117 113.718 177.09 113.583C177.069 113.47 177.032 113.359 176.982 113.255C176.943 113.172 176.888 113.099 176.819 113.039C176.763 112.991 176.691 112.966 176.617 112.97H176.6L80.6125 122.727Z" fill="#E6E6E6"/>
<path d="M80.6125 131.658C80.4652 131.682 80.3266 131.744 80.2094 131.837C80.0789 131.94 79.9681 132.066 79.8823 132.208C79.7855 132.367 79.712 132.539 79.6642 132.719C79.6119 132.913 79.5865 133.113 79.5888 133.314C79.5897 133.504 79.6183 133.692 79.6735 133.873C79.721 134.03 79.7956 134.178 79.8939 134.309C79.9791 134.424 80.0899 134.517 80.2173 134.581C80.3399 134.641 80.4772 134.665 80.6128 134.649L176.601 121.414C176.678 121.403 176.75 121.366 176.804 121.309C176.874 121.239 176.93 121.156 176.971 121.065C177.022 120.954 177.059 120.837 177.084 120.717C177.112 120.58 177.127 120.441 177.128 120.301C177.129 120.165 177.117 120.028 177.09 119.894C177.069 119.781 177.032 119.671 176.982 119.568C176.944 119.487 176.888 119.415 176.819 119.357C176.762 119.311 176.69 119.288 176.617 119.293H176.6L80.6125 131.658Z" fill="#E6E6E6"/>
<path d="M23.4302 114.22L17.9506 114.154C17.8593 114.151 17.768 114.164 17.6811 114.192C17.5971 114.22 17.5185 114.262 17.4487 114.316C17.3791 114.37 17.3194 114.436 17.2724 114.511C17.2242 114.588 17.1902 114.672 17.1721 114.761C17.154 114.867 17.1595 114.976 17.1882 115.08C17.2025 115.132 17.2224 115.182 17.2475 115.229C17.2987 115.326 17.3704 115.411 17.4574 115.477C17.588 115.576 17.747 115.631 17.9108 115.632L19.5588 115.647C19.6365 115.647 19.7124 115.671 19.7771 115.714C19.8418 115.757 19.8926 115.818 19.9232 115.89C19.9437 115.938 19.9543 115.991 19.9543 116.043V119.288C19.9502 119.467 20.0096 119.642 20.122 119.781C20.2345 119.92 20.3925 120.016 20.5681 120.05C20.7272 120.077 20.8908 120.051 21.0336 119.975C21.1765 119.9 21.2908 119.78 21.359 119.633C21.404 119.536 21.4273 119.431 21.4274 119.324V116.052C21.4274 116.001 21.4375 115.951 21.457 115.904C21.4765 115.856 21.505 115.814 21.541 115.778C21.577 115.741 21.6197 115.713 21.6667 115.693C21.7137 115.674 21.7641 115.664 21.8149 115.664L21.8186 115.664L23.3929 115.676C23.5686 115.682 23.7407 115.625 23.8785 115.515C24.0162 115.406 24.1107 115.25 24.1451 115.077C24.1624 114.973 24.1569 114.865 24.1291 114.763C24.1012 114.66 24.0517 114.565 23.9838 114.484C23.9159 114.402 23.8313 114.337 23.7357 114.291C23.6402 114.245 23.536 114.221 23.4302 114.22V114.22Z" fill="white"/>
<path d="M23.4304 118.591C23.5867 118.591 23.7388 118.641 23.8642 118.735C23.9897 118.828 24.0818 118.96 24.1269 119.11C24.172 119.26 24.1678 119.421 24.1148 119.568C24.0618 119.716 23.9629 119.842 23.8327 119.929C23.7025 120.016 23.548 120.058 23.3919 120.05C23.2359 120.041 23.0867 119.983 22.9664 119.883C22.8462 119.783 22.7612 119.646 22.7242 119.494C22.6871 119.342 22.6999 119.181 22.7607 119.037C22.8161 118.905 22.9092 118.792 23.0284 118.712C23.1475 118.633 23.2874 118.591 23.4304 118.591V118.591Z" fill="white"/>
<path d="M151.859 75.5936C151.834 75.7916 151.793 75.9871 151.737 76.1786L163.159 89.9052L167.425 89.1674L169.376 95.4836L161.95 97.5263C161.35 97.6913 160.713 97.6566 160.135 97.4273C159.556 97.198 159.067 96.7866 158.742 96.2547L148.126 78.9209C147.36 78.9231 146.611 78.6912 145.98 78.256C145.349 77.8208 144.864 77.2031 144.591 76.4848C144.318 75.7666 144.27 74.982 144.452 74.2353C144.634 73.4887 145.038 72.8154 145.611 72.3049C146.184 71.7945 146.897 71.4712 147.658 71.378C148.418 71.2848 149.189 71.426 149.867 71.7831C150.545 72.1401 151.099 72.6959 151.455 73.3766C151.811 74.0573 151.952 74.8306 151.859 75.5936V75.5936Z" fill="#FFB6B6"/>
<path d="M163.665 89.1399C163.787 88.9415 163.95 88.7718 164.143 88.6425C164.337 88.5131 164.556 88.4272 164.785 88.3905L172.799 87.1079C173.932 86.7488 175.162 86.8557 176.217 87.4049C177.272 87.9542 178.068 88.901 178.428 90.0379C178.789 91.1747 178.686 92.4088 178.142 93.4695C177.598 94.5302 176.656 95.3309 175.525 95.6962L168.203 99.269C167.994 99.3709 167.765 99.4265 167.533 99.4318C167.301 99.4372 167.07 99.3923 166.857 99.3001C166.643 99.2079 166.452 99.0706 166.296 98.8976C166.141 98.7246 166.024 98.5199 165.954 98.2975L163.498 90.481C163.428 90.2586 163.407 90.0236 163.436 89.7922C163.464 89.5607 163.543 89.3382 163.665 89.1399V89.1399Z" fill="#3F3D56"/>
<path d="M164.112 200.328H160.648L159.001 186.921L164.112 186.921L164.112 200.328Z" fill="#FFB6B6"/>
<path d="M164.995 203.697L153.828 203.697V203.555C153.828 202.398 154.286 201.289 155.101 200.471C155.916 199.653 157.022 199.193 158.174 199.193H158.175L164.995 199.193L164.995 203.697Z" fill="#2F2E41"/>
<path d="M200.269 200.328H196.806L195.158 186.921L200.27 186.921L200.269 200.328Z" fill="#FFB6B6"/>
<path d="M201.152 203.697L189.985 203.697V203.555C189.986 202.398 190.444 201.289 191.259 200.471C192.074 199.653 193.179 199.193 194.332 199.193H194.332L201.152 199.193L201.152 203.697Z" fill="#2F2E41"/>
<path d="M165.464 118.662L180.471 114.31C185.937 118.201 189.712 126.002 188.49 136.095C186.519 152.359 197.924 173.272 202.843 194.462L194.338 194.73L175.714 149.997L164.795 195.661L157.198 195.901L162.278 133.026L165.464 118.662Z" fill="#2F2E41"/>
<path d="M172.146 79.108C176.434 79.108 179.909 75.6196 179.909 71.3165C179.909 67.0134 176.434 63.525 172.146 63.525C167.859 63.525 164.383 67.0134 164.383 71.3165C164.383 75.6196 167.859 79.108 172.146 79.108Z" fill="#FFB6B6"/>
<path d="M164.247 105.963C162.531 102.94 161.684 99.2683 163.177 96.1285C163.553 95.338 164.578 94.5907 165.115 93.8998L171.113 84.9239L177.886 83.8304C183.747 88.7642 178.74 105.62 183.542 116.678L163.486 127.451C164.92 121.956 166.855 110.557 164.247 105.963Z" fill="#3F3D56"/>
<path d="M164.334 68.1966C164.334 68.1966 164.86 67.2194 168.006 68.4801C169.107 68.9214 169.624 68.8199 169.695 69.7801C169.951 73.3937 171.267 76.8502 173.48 79.7129L173.503 79.7439L175.077 78.303L177.099 79.924L185.64 80.1041C185.64 80.1041 186.988 73.4402 182.493 65.8757C177.998 58.3112 168.784 62.4537 168.784 62.4537C162.491 62.8139 164.334 68.1966 164.334 68.1966Z" fill="#2F2E41"/>
<path d="M144.515 58.2374L89.6858 50.6772C89.4323 50.6409 89.1739 50.663 88.9302 50.7419C88.6982 50.8186 88.4864 50.9469 88.3107 51.1172C88.1289 51.2934 87.986 51.5059 87.8912 51.741C87.7875 52.0003 87.735 52.2774 87.7367 52.5569V111.794C87.7359 112.078 87.7883 112.359 87.8912 112.622C87.9869 112.868 88.1293 113.092 88.3104 113.282C88.4851 113.466 88.6961 113.611 88.9299 113.708C89.1692 113.806 89.4274 113.849 89.6855 113.835L144.515 110.804C144.7 110.792 144.879 110.733 145.036 110.634C145.202 110.529 145.346 110.392 145.46 110.231C145.585 110.055 145.682 109.86 145.745 109.653C145.815 109.429 145.85 109.195 145.85 108.96V60.1897C145.85 59.9517 145.815 59.715 145.745 59.4874C145.681 59.2738 145.585 59.0711 145.46 58.8864C145.346 58.716 145.203 58.5676 145.036 58.4483C144.882 58.3377 144.703 58.2654 144.515 58.2374Z" fill="#0A9E8B"/>
<path opacity="0.2" d="M144.515 58.2374L89.6858 50.6772C89.4323 50.6409 89.1739 50.663 88.9302 50.7419C88.6982 50.8186 88.4864 50.9469 88.3107 51.1172C88.1289 51.2934 87.986 51.5059 87.8912 51.741C87.7875 52.0003 87.735 52.2774 87.7367 52.5569V111.794C87.7359 112.078 87.7883 112.359 87.8912 112.622C87.9869 112.868 88.1293 113.092 88.3104 113.282C88.4851 113.466 88.6961 113.611 88.9299 113.708C89.1692 113.806 89.4274 113.849 89.6855 113.835L144.515 110.804C144.7 110.792 144.879 110.733 145.036 110.634C145.202 110.529 145.346 110.392 145.46 110.231C145.585 110.055 145.682 109.86 145.745 109.653C145.815 109.429 145.85 109.195 145.85 108.96V60.1897C145.85 59.9517 145.815 59.715 145.745 59.4874C145.681 59.2738 145.585 59.0711 145.46 58.8864C145.346 58.716 145.203 58.5676 145.036 58.4483C144.882 58.3377 144.703 58.2654 144.515 58.2374Z" fill="black"/>
<path d="M146.775 58.2374L91.9456 50.6772C91.6921 50.6409 91.4337 50.663 91.19 50.7419C90.958 50.8186 90.7463 50.9469 90.5705 51.1172C90.3888 51.2934 90.2459 51.5059 90.151 51.741C90.0473 52.0003 89.9948 52.2774 89.9965 52.5569V111.794C89.9957 112.078 90.0482 112.359 90.151 112.622C90.2467 112.868 90.3891 113.092 90.5702 113.282C90.745 113.466 90.956 113.611 91.1897 113.708C91.4291 113.806 91.6872 113.849 91.9454 113.835L146.775 110.804C146.96 110.792 147.139 110.733 147.296 110.634C147.462 110.529 147.606 110.392 147.72 110.231C147.845 110.055 147.942 109.86 148.005 109.653C148.075 109.429 148.11 109.195 148.11 108.96V60.1897C148.11 59.9517 148.074 59.715 148.005 59.4874C147.941 59.2738 147.845 59.0711 147.72 58.8864C147.606 58.716 147.462 58.5676 147.296 58.4483C147.141 58.3377 146.963 58.2654 146.775 58.2374Z" fill="#0A9E8B"/>
<path d="M146.54 105.596C146.689 105.728 146.827 105.871 146.954 106.025L164.681 104.206L166.459 100.245L172.766 102.157L170.297 109.477C170.098 110.068 169.712 110.579 169.199 110.932C168.686 111.285 168.073 111.461 167.451 111.434L147.198 110.563C146.771 111.202 146.16 111.694 145.448 111.976C144.735 112.257 143.954 112.315 143.208 112.14C142.462 111.965 141.787 111.566 141.273 110.997C140.758 110.428 140.428 109.714 140.327 108.952C140.226 108.19 140.359 107.416 140.707 106.731C141.056 106.047 141.604 105.485 142.278 105.12C142.953 104.756 143.722 104.606 144.483 104.691C145.244 104.776 145.961 105.092 146.54 105.596V105.596Z" fill="#FFB6B6"/>
<path d="M164.332 103.358C164.236 103.145 164.188 102.914 164.189 102.681C164.19 102.448 164.242 102.218 164.34 102.006L167.766 94.6229C168.104 93.4789 168.88 92.5161 169.924 91.9456C170.968 91.3752 172.195 91.2436 173.336 91.5797C174.477 91.9158 175.438 92.6923 176.009 93.7387C176.58 94.7852 176.715 96.0163 176.383 97.1621L175.235 105.252C175.202 105.483 175.121 105.704 174.995 105.9C174.869 106.096 174.703 106.263 174.508 106.389C174.312 106.515 174.092 106.597 173.862 106.629C173.632 106.662 173.397 106.645 173.175 106.579L165.346 104.247C165.123 104.18 164.917 104.067 164.742 103.913C164.567 103.76 164.427 103.57 164.332 103.358V103.358Z" fill="#3F3D56"/>
<path d="M247.718 204H140.093C140.018 204 139.946 203.97 139.893 203.917C139.84 203.864 139.81 203.792 139.81 203.716C139.81 203.641 139.84 203.569 139.893 203.516C139.946 203.463 140.018 203.433 140.093 203.433H247.718C247.792 203.433 247.864 203.463 247.917 203.516C247.97 203.569 248 203.641 248 203.716C248 203.792 247.97 203.864 247.917 203.917C247.864 203.97 247.792 204 247.718 204Z" fill="#CACACA"/>
</g>
</g>
<defs>
<filter id="filter0_d_520_1353" x="61" y="-5" width="342" height="232" filterUnits="userSpaceOnUse" color-interpolation-filters="sRGB">
<feFlood flood-opacity="0" result="BackgroundImageFix"/>
<feColorMatrix in="SourceAlpha" type="matrix" values="0 0 0 0 0 0 0 0 0 0 0 0 0 0 0 0 0 0 127 0" result="hardAlpha"/>
<feOffset dx="-2"/>
<feGaussianBlur stdDeviation="2.5"/>
<feComposite in2="hardAlpha" operator="out"/>
<feColorMatrix type="matrix" values="0 0 0 0 0 0 0 0 0 0 0 0 0 0 0 0 0 0 0.15 0"/>
<feBlend mode="normal" in2="BackgroundImageFix" result="effect1_dropShadow_520_1353"/>
<feBlend mode="normal" in="SourceGraphic" in2="effect1_dropShadow_520_1353" result="shape"/>
</filter>
<filter id="filter1_d_520_1353" x="213.15" y="78.85" width="177.554" height="66.16" filterUnits="userSpaceOnUse" color-interpolation-filters="sRGB">
<feFlood flood-opacity="0" result="BackgroundImageFix"/>
<feColorMatrix in="SourceAlpha" type="matrix" values="0 0 0 0 0 0 0 0 0 0 0 0 0 0 0 0 0 0 127 0" result="hardAlpha"/>
<feOffset dx="2" dy="2"/>
<feComposite in2="hardAlpha" operator="out"/>
<feColorMatrix type="matrix" values="0 0 0 0 0 0 0 0 0 0 0 0 0 0 0 0 0 0 1 0"/>
<feBlend mode="normal" in2="BackgroundImageFix" result="effect1_dropShadow_520_1353"/>
<feBlend mode="normal" in="SourceGraphic" in2="effect1_dropShadow_520_1353" result="shape"/>
</filter>
<filter id="filter2_d_520_1353" x="329.899" y="158.16" width="59.3459" height="17.984" filterUnits="userSpaceOnUse" color-interpolation-filters="sRGB">
<feFlood flood-opacity="0" result="BackgroundImageFix"/>
<feColorMatrix in="SourceAlpha" type="matrix" values="0 0 0 0 0 0 0 0 0 0 0 0 0 0 0 0 0 0 127 0" result="hardAlpha"/>
<feOffset dx="1" dy="2"/>
<feComposite in2="hardAlpha" operator="out"/>
<feColorMatrix type="matrix" values="0 0 0 0 0 0 0 0 0 0 0 0 0 0 0 0 0 0 1 0"/>
<feBlend mode="normal" in2="BackgroundImageFix" result="effect1_dropShadow_520_1353"/>
<feBlend mode="normal" in="SourceGraphic" in2="effect1_dropShadow_520_1353" result="shape"/>
</filter>
<filter id="filter3_d_520_1353" x="214.009" y="46.16" width="88.4764" height="13.984" filterUnits="userSpaceOnUse" color-interpolation-filters="sRGB">
<feFlood flood-opacity="0" result="BackgroundImageFix"/>
<feColorMatrix in="SourceAlpha" type="matrix" values="0 0 0 0 0 0 0 0 0 0 0 0 0 0 0 0 0 0 127 0" result="hardAlpha"/>
<feOffset dx="1" dy="2"/>
<feComposite in2="hardAlpha" operator="out"/>
<feColorMatrix type="matrix" values="0 0 0 0 0 0 0 0 0 0 0 0 0 0 0 0 0 0 1 0"/>
<feBlend mode="normal" in2="BackgroundImageFix" result="effect1_dropShadow_520_1353"/>
<feBlend mode="normal" in="SourceGraphic" in2="effect1_dropShadow_520_1353" result="shape"/>
</filter>
<linearGradient id="paint0_linear_520_1353" x1="0" y1="0" x2="400" y2="241" gradientUnits="userSpaceOnUse">
<stop stop-color="#3C82F6"/>
<stop offset="1" stop-color="#3C78D2"/>
</linearGradient>
<linearGradient id="paint1_linear_520_1353" x1="348.318" y1="14.877" x2="356.117" y2="14.877" gradientUnits="userSpaceOnUse">
<stop stop-color="#1884E8"/>
<stop offset="0.453125" stop-color="#149BBE"/>
<stop offset="1" stop-color="#14BD80"/>
</linearGradient>
<linearGradient id="paint2_linear_520_1353" x1="348.318" y1="16.2444" x2="357.615" y2="16.2444" gradientUnits="userSpaceOnUse">
<stop stop-color="#1884E8"/>
<stop offset="0.453125" stop-color="#149BBE"/>
<stop offset="1" stop-color="#14BD80"/>
</linearGradient>
<linearGradient id="paint3_linear_520_1353" x1="348.318" y1="17.6119" x2="359.118" y2="17.6119" gradientUnits="userSpaceOnUse">
<stop stop-color="#1884E8"/>
<stop offset="0.453125" stop-color="#149BBE"/>
<stop offset="1" stop-color="#14BD80"/>
</linearGradient>
<linearGradient id="paint4_linear_520_1353" x1="348.318" y1="18.9793" x2="360.616" y2="18.9793" gradientUnits="userSpaceOnUse">
<stop stop-color="#1884E8"/>
<stop offset="0.453125" stop-color="#149BBE"/>
<stop offset="1" stop-color="#14BD80"/>
</linearGradient>
<linearGradient id="paint5_linear_520_1353" x1="348.318" y1="20.3447" x2="362.114" y2="20.3447" gradientUnits="userSpaceOnUse">
<stop stop-color="#1884E8"/>
<stop offset="0.453125" stop-color="#149BBE"/>
<stop offset="1" stop-color="#14BD80"/>
</linearGradient>
<linearGradient id="paint6_linear_520_1353" x1="348.318" y1="21.7121" x2="363.616" y2="21.7121" gradientUnits="userSpaceOnUse">
<stop stop-color="#1884E8"/>
<stop offset="0.453125" stop-color="#149BBE"/>
<stop offset="1" stop-color="#14BD80"/>
</linearGradient>
<linearGradient id="paint7_linear_520_1353" x1="348.318" y1="23.0796" x2="365.115" y2="23.0796" gradientUnits="userSpaceOnUse">
<stop stop-color="#1884E8"/>
<stop offset="0.453125" stop-color="#149BBE"/>
<stop offset="1" stop-color="#14BD80"/>
</linearGradient>
<linearGradient id="paint8_linear_520_1353" x1="348.318" y1="24.4471" x2="366.613" y2="24.4471" gradientUnits="userSpaceOnUse">
<stop stop-color="#1884E8"/>
<stop offset="0.453125" stop-color="#149BBE"/>
<stop offset="1" stop-color="#14BD80"/>
</linearGradient>
<linearGradient id="paint9_linear_520_1353" x1="348.318" y1="25.8124" x2="368.115" y2="25.8124" gradientUnits="userSpaceOnUse">
<stop stop-color="#1884E8"/>
<stop offset="0.453125" stop-color="#149BBE"/>
<stop offset="1" stop-color="#14BD80"/>
</linearGradient>
<linearGradient id="paint10_linear_520_1353" x1="348.318" y1="27.1799" x2="369.613" y2="27.1799" gradientUnits="userSpaceOnUse">
<stop stop-color="#1884E8"/>
<stop offset="0.453125" stop-color="#149BBE"/>
<stop offset="1" stop-color="#14BD80"/>
</linearGradient>
<linearGradient id="paint11_linear_520_1353" x1="348.318" y1="28.5473" x2="371.116" y2="28.5473" gradientUnits="userSpaceOnUse">
<stop stop-color="#1884E8"/>
<stop offset="0.453125" stop-color="#149BBE"/>
<stop offset="1" stop-color="#14BD80"/>
</linearGradient>
<linearGradient id="paint12_linear_520_1353" x1="348.318" y1="29.9148" x2="372.614" y2="29.9148" gradientUnits="userSpaceOnUse">
<stop stop-color="#1884E8"/>
<stop offset="0.453125" stop-color="#149BBE"/>
<stop offset="1" stop-color="#14BD80"/>
</linearGradient>
<linearGradient id="paint13_linear_520_1353" x1="348.318" y1="31.2822" x2="374.112" y2="31.2822" gradientUnits="userSpaceOnUse">
<stop stop-color="#1884E8"/>
<stop offset="0.453125" stop-color="#149BBE"/>
<stop offset="1" stop-color="#14BD80"/>
</linearGradient>
<linearGradient id="paint14_linear_520_1353" x1="348.318" y1="32.6476" x2="375.615" y2="32.6476" gradientUnits="userSpaceOnUse">
<stop stop-color="#1884E8"/>
<stop offset="0.453125" stop-color="#149BBE"/>
<stop offset="1" stop-color="#14BD80"/>
</linearGradient>
<linearGradient id="paint15_linear_520_1353" x1="348.318" y1="34.0151" x2="377.113" y2="34.0151" gradientUnits="userSpaceOnUse">
<stop stop-color="#1884E8"/>
<stop offset="0.453125" stop-color="#149BBE"/>
<stop offset="1" stop-color="#14BD80"/>
</linearGradient>
<linearGradient id="paint16_linear_520_1353" x1="348.318" y1="35.3825" x2="378.611" y2="35.3825" gradientUnits="userSpaceOnUse">
<stop stop-color="#1884E8"/>
<stop offset="0.453125" stop-color="#149BBE"/>
<stop offset="1" stop-color="#14BD80"/>
</linearGradient>
<linearGradient id="paint17_linear_520_1353" x1="348.318" y1="36.75" x2="380.114" y2="36.75" gradientUnits="userSpaceOnUse">
<stop stop-color="#1884E8"/>
<stop offset="0.453125" stop-color="#149BBE"/>
<stop offset="1" stop-color="#14BD80"/>
</linearGradient>
<linearGradient id="paint18_linear_520_1353" x1="348.318" y1="38.1154" x2="381.612" y2="38.1154" gradientUnits="userSpaceOnUse">
<stop stop-color="#1884E8"/>
<stop offset="0.453125" stop-color="#149BBE"/>
<stop offset="1" stop-color="#14BD80"/>
</linearGradient>
<clipPath id="clip0_520_1353">
<rect width="400" height="222.11" fill="white"/>
</clipPath>
<clipPath id="clip1_520_1353">
<rect width="236" height="183" fill="white" transform="translate(12 21)"/>
</clipPath>
</defs>
</svg>
