<svg width="400" height="223" viewBox="0 0 400 223" fill="none" xmlns="http://www.w3.org/2000/svg">
<g clip-path="url(#clip0_518_572)">
<rect width="400" height="222.11" fill="white"/>
<rect width="400" height="222.111" fill="url(#paint0_linear_518_572)"/>
<g filter="url(#filter0_d_518_572)">
<path d="M68 222L199.573 0H400V222H68Z" fill="#1253E0"/>
</g>
<g filter="url(#filter1_d_518_572)">
<path d="M198.877 88.35L198.417 91.041H203.592L202.971 94.468H197.796L197.267 97.412H203.132L202.511 101H192.115L194.99 84.785H205.363L204.742 88.35H198.877ZM214.399 94.675L217.826 101H212.766L211.018 97.757L208.603 101H203.681L209.132 94.307L205.774 88.097H210.834L212.582 91.34L215.02 88.097H219.965L214.399 94.675ZM225.644 89.891C226.104 89.293 226.687 88.8177 227.392 88.465C228.097 88.1123 228.887 87.936 229.761 87.936C231.11 87.936 232.191 88.3807 233.004 89.27C233.832 90.1593 234.246 91.3783 234.246 92.927C234.246 93.4177 234.2 93.9543 234.108 94.537C233.863 95.871 233.41 97.044 232.751 98.056C232.092 99.0527 231.294 99.8193 230.359 100.356C229.439 100.893 228.465 101.161 227.438 101.161C226.564 101.161 225.836 100.985 225.253 100.632C224.686 100.279 224.272 99.804 224.011 99.206L222.608 107.164H218.1L221.458 88.097H225.966L225.644 89.891ZM229.508 94.537C229.554 94.307 229.577 94.0847 229.577 93.87C229.577 93.2413 229.393 92.7507 229.025 92.398C228.672 92.0453 228.212 91.869 227.645 91.869C226.986 91.869 226.38 92.1067 225.828 92.582C225.291 93.0573 224.954 93.709 224.816 94.537C224.77 94.767 224.747 94.9817 224.747 95.181C224.747 95.825 224.923 96.331 225.276 96.699C225.644 97.0517 226.112 97.228 226.679 97.228C227.354 97.228 227.959 96.9903 228.496 96.515C229.033 96.0243 229.37 95.365 229.508 94.537ZM240.794 101.161C239.674 101.161 238.678 100.939 237.804 100.494C236.945 100.049 236.278 99.4207 235.803 98.608C235.327 97.7953 235.09 96.8447 235.09 95.756C235.09 94.284 235.435 92.95 236.125 91.754C236.83 90.558 237.796 89.6227 239.023 88.948C240.249 88.2733 241.622 87.936 243.14 87.936C244.259 87.936 245.248 88.1583 246.107 88.603C246.981 89.0477 247.655 89.684 248.131 90.512C248.621 91.3247 248.867 92.2753 248.867 93.364C248.867 94.8513 248.514 96.193 247.809 97.389C247.103 98.5697 246.137 99.4973 244.911 100.172C243.684 100.831 242.312 101.161 240.794 101.161ZM241.484 97.274C242.02 97.274 242.496 97.1053 242.91 96.768C243.339 96.4307 243.661 95.9937 243.876 95.457C244.106 94.9203 244.221 94.3683 244.221 93.801C244.221 93.157 244.052 92.6663 243.715 92.329C243.393 91.9917 242.971 91.823 242.45 91.823C241.898 91.823 241.415 91.9917 241.001 92.329C240.602 92.6663 240.288 93.1033 240.058 93.64C239.843 94.1767 239.736 94.7363 239.736 95.319C239.736 95.963 239.897 96.4537 240.219 96.791C240.541 97.113 240.962 97.274 241.484 97.274ZM255.807 90.443C256.436 89.6917 257.149 89.0937 257.946 88.649C258.743 88.2043 259.556 87.982 260.384 87.982L259.556 92.789H258.291C257.34 92.789 256.597 92.9653 256.06 93.318C255.523 93.6707 255.163 94.284 254.979 95.158L253.944 101H249.413L251.713 88.097H256.221L255.807 90.443ZM265.795 96.17C265.78 96.2467 265.772 96.3387 265.772 96.446C265.772 96.6913 265.841 96.8753 265.979 96.998C266.132 97.1053 266.378 97.159 266.715 97.159H268.026L267.336 101H265.358C262.552 101 261.149 99.8193 261.149 97.458C261.149 97.0593 261.195 96.607 261.287 96.101L262.046 91.846H260.459L261.126 88.097H262.713L263.265 84.969H267.796L267.244 88.097H269.567L268.9 91.846H266.577L265.795 96.17ZM290.66 93.893C289.908 95.135 289.103 96.2467 288.245 97.228L291.465 101H286.359L285.278 99.758C283.637 100.755 281.812 101.253 279.804 101.253C278.056 101.253 276.668 100.877 275.641 100.126C274.629 99.3747 274.123 98.3627 274.123 97.09C274.123 95.9247 274.498 94.8743 275.25 93.939C276.016 93.0037 277.036 92.2447 278.309 91.662C277.849 90.9567 277.619 90.2513 277.619 89.546C277.619 88.58 277.879 87.729 278.401 86.993C278.922 86.2417 279.635 85.6667 280.54 85.268C281.46 84.854 282.495 84.647 283.645 84.647C285.132 84.647 286.274 84.9767 287.072 85.636C287.869 86.28 288.268 87.108 288.268 88.12C288.268 88.3193 288.245 88.5493 288.199 88.81H284.013C284.028 88.7487 284.036 88.672 284.036 88.58C284.036 88.3193 283.951 88.12 283.783 87.982C283.614 87.844 283.399 87.775 283.139 87.775C282.786 87.775 282.487 87.89 282.242 88.12C282.012 88.3347 281.897 88.6183 281.897 88.971C281.897 89.4923 282.165 90.075 282.702 90.719L285.876 94.422C286.014 94.2227 286.221 93.893 286.497 93.433L287.072 92.605H291.534L290.66 93.893ZM280.747 97.642C281.513 97.642 282.257 97.4733 282.978 97.136L280.31 94.077C279.819 94.353 279.436 94.675 279.16 95.043C278.899 95.411 278.769 95.7943 278.769 96.193C278.769 96.6223 278.937 96.975 279.275 97.251C279.627 97.5117 280.118 97.642 280.747 97.642ZM297.961 94.537C298.206 93.203 298.658 92.0377 299.318 91.041C299.977 90.0443 300.774 89.2777 301.71 88.741C302.645 88.2043 303.626 87.936 304.654 87.936C305.482 87.936 306.187 88.1123 306.77 88.465C307.368 88.8023 307.797 89.27 308.058 89.868L309.093 83.98H313.624L310.611 101H306.08L306.425 99.206C305.965 99.804 305.382 100.279 304.677 100.632C303.971 100.985 303.182 101.161 302.308 101.161C300.958 101.161 299.87 100.716 299.042 99.827C298.229 98.9223 297.823 97.6957 297.823 96.147C297.823 95.641 297.869 95.1043 297.961 94.537ZM307.253 94.537C307.299 94.307 307.322 94.0923 307.322 93.893C307.322 93.249 307.138 92.7507 306.77 92.398C306.417 92.0453 305.957 91.869 305.39 91.869C304.715 91.869 304.109 92.1067 303.573 92.582C303.036 93.042 302.699 93.6937 302.561 94.537C302.515 94.767 302.492 94.9893 302.492 95.204C302.492 95.848 302.668 96.3463 303.021 96.699C303.389 97.0517 303.856 97.228 304.424 97.228C305.098 97.228 305.704 96.9903 306.241 96.515C306.777 96.0397 307.115 95.3803 307.253 94.537ZM321.321 87.936C323.008 87.936 324.342 88.3883 325.323 89.293C326.32 90.1977 326.818 91.432 326.818 92.996C326.818 93.5173 326.78 93.9773 326.703 94.376C326.611 94.8667 326.519 95.2193 326.427 95.434H317.894C317.879 95.526 317.871 95.664 317.871 95.848C317.871 96.4307 318.009 96.86 318.285 97.136C318.577 97.412 318.96 97.55 319.435 97.55C320.187 97.55 320.785 97.2127 321.229 96.538H326.013C325.661 97.4273 325.132 98.2247 324.426 98.93C323.736 99.62 322.916 100.164 321.965 100.563C321.03 100.962 320.033 101.161 318.975 101.161C317.289 101.161 315.947 100.701 314.95 99.781C313.954 98.861 313.455 97.596 313.455 95.986C313.455 95.526 313.501 95.043 313.593 94.537C313.839 93.1877 314.322 92.0223 315.042 91.041C315.778 90.0443 316.683 89.2777 317.756 88.741C318.845 88.2043 320.033 87.936 321.321 87.936ZM322.264 93.41C322.295 93.1953 322.31 93.0573 322.31 92.996C322.31 92.5053 322.157 92.1373 321.85 91.892C321.544 91.6313 321.145 91.501 320.654 91.501C320.087 91.501 319.596 91.662 319.182 91.984C318.768 92.306 318.462 92.7813 318.262 93.41H322.264ZM333.838 89.891C334.298 89.293 334.881 88.8177 335.586 88.465C336.292 88.1123 337.081 87.936 337.955 87.936C339.305 87.936 340.386 88.3807 341.198 89.27C342.026 90.1593 342.44 91.3783 342.44 92.927C342.44 93.4177 342.394 93.9543 342.302 94.537C342.057 95.871 341.605 97.044 340.945 98.056C340.286 99.0527 339.489 99.8193 338.553 100.356C337.633 100.893 336.66 101.161 335.632 101.161C334.758 101.161 334.03 100.985 333.447 100.632C332.88 100.279 332.466 99.804 332.205 99.206L330.802 107.164H326.294L329.652 88.097H334.16L333.838 89.891ZM337.702 94.537C337.748 94.307 337.771 94.0847 337.771 93.87C337.771 93.2413 337.587 92.7507 337.219 92.398C336.867 92.0453 336.407 91.869 335.839 91.869C335.18 91.869 334.574 92.1067 334.022 92.582C333.486 93.0573 333.148 93.709 333.01 94.537C332.964 94.767 332.941 94.9817 332.941 95.181C332.941 95.825 333.118 96.331 333.47 96.699C333.838 97.0517 334.306 97.228 334.873 97.228C335.548 97.228 336.154 96.9903 336.69 96.515C337.227 96.0243 337.564 95.365 337.702 94.537ZM350.529 83.98L347.516 101H342.985L345.998 83.98H350.529ZM356.063 101.161C354.944 101.161 353.947 100.939 353.073 100.494C352.215 100.049 351.548 99.4207 351.072 98.608C350.597 97.7953 350.359 96.8447 350.359 95.756C350.359 94.284 350.704 92.95 351.394 91.754C352.1 90.558 353.066 89.6227 354.292 88.948C355.519 88.2733 356.891 87.936 358.409 87.936C359.529 87.936 360.518 88.1583 361.376 88.603C362.25 89.0477 362.925 89.684 363.4 90.512C363.891 91.3247 364.136 92.2753 364.136 93.364C364.136 94.8513 363.784 96.193 363.078 97.389C362.373 98.5697 361.407 99.4973 360.18 100.172C358.954 100.831 357.581 101.161 356.063 101.161ZM356.753 97.274C357.29 97.274 357.765 97.1053 358.179 96.768C358.609 96.4307 358.931 95.9937 359.145 95.457C359.375 94.9203 359.49 94.3683 359.49 93.801C359.49 93.157 359.322 92.6663 358.984 92.329C358.662 91.9917 358.241 91.823 357.719 91.823C357.167 91.823 356.684 91.9917 356.27 92.329C355.872 92.6663 355.557 93.1033 355.327 93.64C355.113 94.1767 355.005 94.7363 355.005 95.319C355.005 95.963 355.166 96.4537 355.488 96.791C355.81 97.113 356.232 97.274 356.753 97.274ZM370.593 88.097L371.996 95.411L375.906 88.097H380.851L369.328 107.141H364.429L368.684 100.448L365.579 88.097H370.593ZM198.026 118.097L199.429 125.411L203.339 118.097H208.284L196.761 137.141H191.862L196.117 130.448L193.012 118.097H198.026ZM213.189 131.161C212.07 131.161 211.073 130.939 210.199 130.494C209.341 130.049 208.674 129.421 208.198 128.608C207.723 127.795 207.485 126.845 207.485 125.756C207.485 124.284 207.83 122.95 208.52 121.754C209.226 120.558 210.192 119.623 211.418 118.948C212.645 118.273 214.017 117.936 215.535 117.936C216.655 117.936 217.644 118.158 218.502 118.603C219.376 119.048 220.051 119.684 220.526 120.512C221.017 121.325 221.262 122.275 221.262 123.364C221.262 124.851 220.91 126.193 220.204 127.389C219.499 128.57 218.533 129.497 217.306 130.172C216.08 130.831 214.707 131.161 213.189 131.161ZM213.879 127.274C214.416 127.274 214.891 127.105 215.305 126.768C215.735 126.431 216.057 125.994 216.271 125.457C216.501 124.92 216.616 124.368 216.616 123.801C216.616 123.157 216.448 122.666 216.11 122.329C215.788 121.992 215.367 121.823 214.845 121.823C214.293 121.823 213.81 121.992 213.396 122.329C212.998 122.666 212.683 123.103 212.453 123.64C212.239 124.177 212.131 124.736 212.131 125.319C212.131 125.963 212.292 126.454 212.614 126.791C212.936 127.113 213.358 127.274 213.879 127.274ZM237.31 118.097L235.01 131H230.502L230.824 129.16C230.318 129.743 229.697 130.218 228.961 130.586C228.241 130.939 227.443 131.115 226.569 131.115C225.297 131.115 224.308 130.755 223.602 130.034C222.897 129.313 222.544 128.309 222.544 127.021C222.544 126.576 222.59 126.101 222.682 125.595L223.993 118.097H228.501L227.282 125.02C227.236 125.219 227.213 125.419 227.213 125.618C227.213 126.17 227.374 126.607 227.696 126.929C228.018 127.236 228.455 127.389 229.007 127.389C229.651 127.389 230.196 127.19 230.64 126.791C231.085 126.392 231.384 125.84 231.537 125.135L232.779 118.097H237.31ZM243.97 120.443C244.599 119.692 245.312 119.094 246.109 118.649C246.906 118.204 247.719 117.982 248.547 117.982L247.719 122.789H246.454C245.503 122.789 244.76 122.965 244.223 123.318C243.686 123.671 243.326 124.284 243.142 125.158L242.107 131H237.576L239.876 118.097H244.384L243.97 120.443ZM258.976 119.891C259.421 119.293 259.996 118.818 260.701 118.465C261.422 118.112 262.219 117.936 263.093 117.936C264.442 117.936 265.523 118.381 266.336 119.27C267.164 120.159 267.578 121.378 267.578 122.927C267.578 123.418 267.532 123.954 267.44 124.537C267.195 125.871 266.742 127.044 266.083 128.056C265.424 129.053 264.626 129.819 263.691 130.356C262.771 130.893 261.797 131.161 260.77 131.161C259.881 131.161 259.145 130.992 258.562 130.655C257.995 130.302 257.588 129.819 257.343 129.206L257.021 131H252.49L255.503 113.98H260.034L258.976 119.891ZM262.84 124.537C262.886 124.307 262.909 124.085 262.909 123.87C262.909 123.241 262.725 122.751 262.357 122.398C262.004 122.045 261.544 121.869 260.977 121.869C260.318 121.869 259.712 122.107 259.16 122.582C258.623 123.057 258.286 123.709 258.148 124.537C258.102 124.767 258.079 124.982 258.079 125.181C258.079 125.825 258.255 126.331 258.608 126.699C258.976 127.052 259.444 127.228 260.011 127.228C260.686 127.228 261.291 126.99 261.828 126.515C262.365 126.024 262.702 125.365 262.84 124.537ZM275.667 113.98L272.654 131H268.123L271.136 113.98H275.667ZM281.201 131.161C280.082 131.161 279.085 130.939 278.211 130.494C277.352 130.049 276.685 129.421 276.21 128.608C275.735 127.795 275.497 126.845 275.497 125.756C275.497 124.284 275.842 122.95 276.532 121.754C277.237 120.558 278.203 119.623 279.43 118.948C280.657 118.273 282.029 117.936 283.547 117.936C284.666 117.936 285.655 118.158 286.514 118.603C287.388 119.048 288.063 119.684 288.538 120.512C289.029 121.325 289.274 122.275 289.274 123.364C289.274 124.851 288.921 126.193 288.216 127.389C287.511 128.57 286.545 129.497 285.318 130.172C284.091 130.831 282.719 131.161 281.201 131.161ZM281.891 127.274C282.428 127.274 282.903 127.105 283.317 126.768C283.746 126.431 284.068 125.994 284.283 125.457C284.513 124.92 284.628 124.368 284.628 123.801C284.628 123.157 284.459 122.666 284.122 122.329C283.8 121.992 283.378 121.823 282.857 121.823C282.305 121.823 281.822 121.992 281.408 122.329C281.009 122.666 280.695 123.103 280.465 123.64C280.25 124.177 280.143 124.736 280.143 125.319C280.143 125.963 280.304 126.454 280.626 126.791C280.948 127.113 281.37 127.274 281.891 127.274ZM296.904 117.936C297.778 117.936 298.506 118.112 299.089 118.465C299.687 118.818 300.101 119.293 300.331 119.891L300.653 118.097H305.161L302.907 130.862C302.692 132.073 302.271 133.162 301.642 134.128C301.013 135.109 300.162 135.891 299.089 136.474C298.016 137.057 296.735 137.348 295.248 137.348C293.362 137.348 291.898 136.919 290.855 136.06C289.828 135.217 289.314 134.059 289.314 132.587L289.337 132.127H293.776C293.807 132.541 293.983 132.863 294.305 133.093C294.642 133.323 295.095 133.438 295.662 133.438C297.195 133.438 298.108 132.579 298.399 130.862L298.698 129.206C298.253 129.804 297.671 130.279 296.95 130.632C296.245 130.985 295.455 131.161 294.581 131.161C293.232 131.161 292.143 130.716 291.315 129.827C290.502 128.922 290.096 127.696 290.096 126.147C290.096 125.641 290.142 125.104 290.234 124.537C290.479 123.203 290.932 122.038 291.591 121.041C292.25 120.044 293.04 119.278 293.96 118.741C294.895 118.204 295.877 117.936 296.904 117.936ZM299.526 124.537C299.572 124.307 299.595 124.092 299.595 123.893C299.595 123.249 299.411 122.751 299.043 122.398C298.69 122.045 298.23 121.869 297.663 121.869C296.988 121.869 296.383 122.107 295.846 122.582C295.309 123.042 294.972 123.694 294.834 124.537C294.788 124.767 294.765 124.989 294.765 125.204C294.765 125.848 294.941 126.346 295.294 126.699C295.662 127.052 296.13 127.228 296.697 127.228C297.372 127.228 297.977 126.99 298.514 126.515C299.051 126.04 299.388 125.38 299.526 124.537Z" fill="white"/>
</g>
<g filter="url(#filter2_d_518_572)">
<path d="M198.762 57.04C199.647 57.04 200.357 57.2907 200.89 57.792C201.423 58.2827 201.69 58.9867 201.69 59.904C201.69 60.1493 201.663 60.448 201.61 60.8L200.682 66H198.874L199.754 61.072C199.797 60.7733 199.818 60.56 199.818 60.432C199.818 59.8453 199.653 59.3973 199.322 59.088C199.002 58.7787 198.554 58.624 197.978 58.624C197.285 58.624 196.698 58.8373 196.218 59.264C195.749 59.68 195.45 60.2827 195.322 61.072V61.04L194.442 66H192.618L194.714 54.16H196.538L195.818 58.208C196.191 57.8347 196.634 57.5467 197.146 57.344C197.658 57.1413 198.197 57.04 198.762 57.04ZM206.865 66.144C206.118 66.144 205.462 65.9893 204.897 65.68C204.331 65.3707 203.889 64.9333 203.569 64.368C203.259 63.8027 203.105 63.1573 203.105 62.432C203.105 61.44 203.334 60.5333 203.793 59.712C204.262 58.8907 204.902 58.24 205.713 57.76C206.534 57.28 207.446 57.04 208.449 57.04C209.195 57.04 209.857 57.2 210.433 57.52C211.009 57.8293 211.457 58.2667 211.777 58.832C212.107 59.3867 212.273 60.032 212.273 60.768C212.273 61.76 212.033 62.6667 211.553 63.488C211.073 64.3093 210.422 64.96 209.601 65.44C208.779 65.9093 207.867 66.144 206.865 66.144ZM207.089 64.608C207.697 64.608 208.251 64.4373 208.753 64.096C209.265 63.744 209.665 63.2853 209.953 62.72C210.241 62.144 210.385 61.5307 210.385 60.88C210.385 60.144 210.177 59.5787 209.761 59.184C209.345 58.7787 208.822 58.576 208.193 58.576C207.574 58.576 207.019 58.752 206.529 59.104C206.049 59.4453 205.67 59.9093 205.393 60.496C205.126 61.072 204.993 61.6907 204.993 62.352C204.993 63.0667 205.185 63.6213 205.569 64.016C205.963 64.4107 206.47 64.608 207.089 64.608ZM226.604 57.184L222.316 66H220.396L219.788 59.488L216.844 66H214.924L213.724 57.184H215.58L216.188 64.272L219.292 57.184H221.196L221.756 64.24L224.812 57.184H226.604ZM233.772 63.552C233.75 63.7013 233.74 63.7973 233.74 63.84C233.74 64.064 233.809 64.2293 233.948 64.336C234.086 64.432 234.316 64.48 234.636 64.48H235.756L235.484 66H234.044C233.34 66 232.801 65.8613 232.428 65.584C232.054 65.296 231.868 64.8427 231.868 64.224C231.868 63.9893 231.889 63.7653 231.932 63.552L232.796 58.672H231.756L232.012 57.184H233.068L233.452 54.992H235.292L234.908 57.184H237.036L236.78 58.672H234.636L233.772 63.552ZM241.021 66.144C240.274 66.144 239.618 65.9893 239.053 65.68C238.488 65.3707 238.045 64.9333 237.725 64.368C237.416 63.8027 237.261 63.1573 237.261 62.432C237.261 61.44 237.49 60.5333 237.949 59.712C238.418 58.8907 239.058 58.24 239.869 57.76C240.69 57.28 241.602 57.04 242.605 57.04C243.352 57.04 244.013 57.2 244.589 57.52C245.165 57.8293 245.613 58.2667 245.933 58.832C246.264 59.3867 246.429 60.032 246.429 60.768C246.429 61.76 246.189 62.6667 245.709 63.488C245.229 64.3093 244.578 64.96 243.757 65.44C242.936 65.9093 242.024 66.144 241.021 66.144ZM241.245 64.608C241.853 64.608 242.408 64.4373 242.909 64.096C243.421 63.744 243.821 63.2853 244.109 62.72C244.397 62.144 244.541 61.5307 244.541 60.88C244.541 60.144 244.333 59.5787 243.917 59.184C243.501 58.7787 242.978 58.576 242.349 58.576C241.73 58.576 241.176 58.752 240.685 59.104C240.205 59.4453 239.826 59.9093 239.549 60.496C239.282 61.072 239.149 61.6907 239.149 62.352C239.149 63.0667 239.341 63.6213 239.725 64.016C240.12 64.4107 240.626 64.608 241.245 64.608Z" fill="white"/>
</g>
<mask id="mask0_518_572" style="mask-type:alpha" maskUnits="userSpaceOnUse" x="352" y="13" width="24" height="24">
<circle r="11.6056" transform="matrix(-4.37114e-08 1 1 4.37114e-08 363.959 24.6056)" fill="#C4C4C4"/>
</mask>
<g mask="url(#mask0_518_572)">
<path d="M356.117 8.81607C356.117 8.81607 355.226 13.624 352.109 14.8645C349.121 16.0509 348.318 20.9379 348.318 20.9379" stroke="url(#paint1_linear_518_572)" stroke-width="0.25" stroke-miterlimit="10"/>
<path d="M357.615 8.81607C357.615 8.81607 356.587 14.7146 352.825 16.234C349.233 17.6827 348.318 23.6728 348.318 23.6728" stroke="url(#paint2_linear_518_572)" stroke-width="0.25" stroke-miterlimit="10"/>
<path d="M359.118 8.81607C359.118 8.81607 357.948 15.8011 353.549 17.5994C349.342 19.3145 348.318 26.4077 348.318 26.4077" stroke="url(#paint3_linear_518_572)" stroke-width="0.25" stroke-miterlimit="10"/>
<path d="M360.616 8.81607C360.616 8.81607 359.309 16.8917 354.265 18.9689C349.454 20.9462 348.318 29.1426 348.318 29.1426" stroke="url(#paint4_linear_518_572)" stroke-width="0.25" stroke-miterlimit="10"/>
<path d="M362.114 8.81607C362.114 8.81607 360.67 17.9824 354.985 20.3385C349.566 22.578 348.318 31.8734 348.318 31.8734" stroke="url(#paint5_linear_518_572)" stroke-width="0.25" stroke-miterlimit="10"/>
<path d="M363.616 8.81607C363.616 8.81607 362.035 19.0689 355.705 21.7039C349.674 24.214 348.318 34.6083 348.318 34.6083" stroke="url(#paint6_linear_518_572)" stroke-width="0.25" stroke-miterlimit="10"/>
<path d="M365.115 8.81607C365.115 8.81607 363.392 20.1595 356.425 23.0734C349.787 25.8458 348.318 37.3432 348.318 37.3432" stroke="url(#paint7_linear_518_572)" stroke-width="0.25" stroke-miterlimit="10"/>
<path d="M366.613 8.81607C366.613 8.81607 364.753 21.2501 357.141 24.4388C349.899 27.4775 348.318 40.0781 348.318 40.0781" stroke="url(#paint8_linear_518_572)" stroke-width="0.25" stroke-miterlimit="10"/>
<path d="M368.115 8.81607C368.115 8.81607 366.118 22.3366 357.865 25.8083C350.007 29.1093 348.318 42.8089 348.318 42.8089" stroke="url(#paint9_linear_518_572)" stroke-width="0.25" stroke-miterlimit="10"/>
<path d="M369.613 8.81607C369.613 8.81607 367.478 23.4272 358.585 27.1737C350.12 30.7411 348.318 45.5438 348.318 45.5438" stroke="url(#paint10_linear_518_572)" stroke-width="0.25" stroke-miterlimit="10"/>
<path d="M371.116 8.81607C371.116 8.81607 368.839 24.5178 359.305 28.5432C350.232 32.3729 348.318 48.2787 348.318 48.2787" stroke="url(#paint11_linear_518_572)" stroke-width="0.25" stroke-miterlimit="10"/>
<path d="M372.614 8.81607C372.614 8.81607 370.2 25.6043 360.025 29.9086C350.34 34.0047 348.318 51.0135 348.318 51.0135" stroke="url(#paint12_linear_518_572)" stroke-width="0.25" stroke-miterlimit="10"/>
<path d="M374.112 8.81607C374.112 8.81607 371.561 26.6949 360.741 31.2781C350.453 35.6365 348.318 53.7484 348.318 53.7484" stroke="url(#paint13_linear_518_572)" stroke-width="0.25" stroke-miterlimit="10"/>
<path d="M375.615 8.81607C375.615 8.81607 372.922 27.7856 361.465 32.6477C350.565 37.2683 348.318 56.4792 348.318 56.4792" stroke="url(#paint14_linear_518_572)" stroke-width="0.25" stroke-miterlimit="10"/>
<path d="M377.113 8.81607C377.113 8.81607 374.283 28.8721 362.181 34.013C350.673 38.9001 348.318 59.2141 348.318 59.2141" stroke="url(#paint15_linear_518_572)" stroke-width="0.25" stroke-miterlimit="10"/>
<path d="M378.611 8.81607C378.611 8.81607 375.644 29.9627 362.901 35.3826C350.786 40.5318 348.318 61.949 348.318 61.949" stroke="url(#paint16_linear_518_572)" stroke-width="0.25" stroke-miterlimit="10"/>
<path d="M380.114 8.81607C380.114 8.81607 377.009 31.0533 363.621 36.7479C350.898 42.1636 348.318 64.6839 348.318 64.6839" stroke="url(#paint17_linear_518_572)" stroke-width="0.25" stroke-miterlimit="10"/>
<path d="M381.612 8.81607C381.612 8.81607 378.366 32.1398 364.341 38.1175C351.006 43.7954 348.318 67.4148 348.318 67.4148" stroke="url(#paint18_linear_518_572)" stroke-width="0.25" stroke-miterlimit="10"/>
</g>
<path fill-rule="evenodd" clip-rule="evenodd" d="M340.112 18.0548H338L338.988 25.9609H340.826L343.053 21.1663H343.115L343.737 25.9609H345.578L349.187 18.0548H347.08L345.026 23.247H344.964L344.455 18.0548H342.733L340.517 23.2354H340.451L340.112 18.0548ZM342.835 18.2101L340.619 23.3907H340.306L339.966 18.2101H338.176L339.125 25.8056H340.727L342.954 21.011H343.251L343.873 25.8056H345.478L348.946 18.2101H347.185L345.131 23.4023H344.823L344.314 18.2101H342.835ZM350.432 20.3402C349.948 20.5949 349.547 20.9527 349.228 21.4133C348.911 21.8714 348.702 22.4068 348.599 23.0193C348.493 23.6498 348.523 24.1941 348.687 24.6522C348.852 25.1077 349.138 25.459 349.544 25.7061C349.954 25.9506 350.468 26.0728 351.089 26.0728C351.608 26.0728 352.077 25.9943 352.494 25.8373C352.913 25.6778 353.268 25.4552 353.559 25.1695C353.811 24.9199 354.006 24.6327 354.144 24.3078C354.165 24.2575 354.185 24.2063 354.204 24.1542L352.482 24.104C352.41 24.2353 352.316 24.3472 352.2 24.4399C352.087 24.53 351.958 24.5982 351.814 24.6445C351.67 24.6882 351.516 24.7101 351.351 24.7101C351.104 24.7101 350.902 24.6638 350.745 24.5711C350.588 24.4759 350.477 24.3395 350.413 24.1619C350.356 24.0051 350.34 23.8201 350.366 23.6069C350.369 23.5788 350.373 23.5502 350.378 23.5211L350.391 23.4516H354.339L354.412 22.9807C354.495 22.4943 354.497 22.0632 354.42 21.6874C354.343 21.3117 354.197 20.9951 353.984 20.7378C353.77 20.4778 353.5 20.2823 353.173 20.151C352.846 20.0197 352.472 19.9541 352.05 19.9541C351.455 19.9541 350.916 20.0828 350.432 20.3402ZM354.206 23.2963L354.259 22.9547C354.339 22.4821 354.34 22.0711 354.268 21.7187C354.195 21.3642 354.059 21.072 353.864 20.837C353.668 20.5981 353.419 20.4171 353.115 20.2951C352.81 20.1726 352.456 20.1094 352.05 20.1094C351.479 20.1094 350.965 20.2328 350.505 20.4773C350.044 20.7201 349.661 21.0611 349.356 21.5018C349.053 21.939 348.851 22.4524 348.752 23.045C348.649 23.6571 348.68 24.1731 348.833 24.5995C348.986 25.0221 349.249 25.3448 349.625 25.5731C350.003 25.7993 350.488 25.9175 351.089 25.9175C351.593 25.9175 352.042 25.8414 352.439 25.6921C352.84 25.5394 353.176 25.3279 353.45 25.0589C353.673 24.8381 353.848 24.5864 353.976 24.303L352.569 24.2619C352.495 24.3758 352.404 24.4758 352.297 24.5612C352.169 24.6634 352.023 24.7405 351.862 24.7923L351.859 24.7931C351.699 24.8417 351.53 24.8654 351.351 24.8654C351.086 24.8654 350.854 24.8158 350.666 24.7049L350.664 24.7039C350.476 24.5898 350.343 24.4247 350.267 24.2148C350.202 24.0346 350.185 23.8305 350.21 23.6069H349.007L349.23 22.2H350.473C350.524 22.0387 350.602 21.8898 350.707 21.7542C350.847 21.575 351.017 21.432 351.216 21.3264C351.422 21.2166 351.642 21.1615 351.876 21.1615C352.104 21.1615 352.308 21.2115 352.479 21.3201C352.651 21.4249 352.777 21.5728 352.854 21.7598C352.931 21.9476 352.948 22.1558 352.914 22.3789L352.893 22.5106H350.72L350.577 23.2963H354.206ZM350.404 22.5106L350.261 23.2963H349.371L349.496 22.5106H350.404ZM350.592 22.3553C350.603 22.3021 350.618 22.2503 350.637 22.2C350.682 22.0741 350.746 21.9573 350.83 21.8496C350.956 21.6874 351.109 21.5588 351.289 21.4635C351.472 21.3657 351.668 21.3168 351.876 21.3168C352.082 21.3168 352.256 21.3619 352.397 21.4519C352.541 21.5395 352.646 21.6617 352.71 21.8187C352.774 21.9757 352.791 22.1545 352.76 22.3553H350.592ZM358.409 18.0548H356.521L355.208 25.9609H357.077L357.231 24.9996H357.305C357.306 25.0037 357.307 25.0078 357.308 25.0119C357.322 25.0666 357.34 25.1203 357.361 25.1729C357.408 25.2916 357.472 25.405 357.552 25.5131C357.673 25.6726 357.834 25.8013 358.034 25.8991C358.238 25.9969 358.489 26.0458 358.787 26.0458C359.225 26.0458 359.641 25.9326 360.038 25.7061C360.437 25.4796 360.78 25.1399 361.069 24.687C361.357 24.234 361.556 23.6717 361.667 23C361.783 22.3025 361.767 21.7286 361.621 21.2782C361.474 20.8279 361.24 20.4946 360.918 20.2784C360.596 20.0622 360.23 19.9541 359.818 19.9541C359.506 19.9541 359.23 20.0082 358.988 20.1163C358.746 20.2218 358.539 20.3582 358.366 20.5255C358.272 20.6182 358.188 20.7129 358.115 20.8095C358.056 20.8873 358.003 20.9663 357.957 21.0466H357.918L358.409 18.0548ZM358.475 20.6364C358.314 20.7951 358.187 20.9576 358.092 21.1237L358.047 21.2019H357.736L358.226 18.2101H356.653L355.392 25.8056H356.945L357.099 24.8443H357.426L357.455 24.9615C357.496 25.1232 357.569 25.2758 357.676 25.4198C357.78 25.5574 357.921 25.6711 358.102 25.7593C358.278 25.8442 358.505 25.8905 358.787 25.8905C359.196 25.8905 359.587 25.7849 359.961 25.5713C360.334 25.3593 360.661 25.0388 360.938 24.6036C361.212 24.1724 361.406 23.6311 361.514 22.9747C361.627 22.2907 361.609 21.7442 361.473 21.3263C361.335 20.9014 361.118 20.6001 360.831 20.4073C360.537 20.2094 360.201 20.1094 359.818 20.1094C359.524 20.1094 359.27 20.1603 359.051 20.258L359.05 20.2586C358.824 20.3573 358.633 20.4836 358.475 20.6364ZM357.826 24.382C357.687 24.2507 357.593 24.0667 357.544 23.8299C357.498 23.5932 357.5 23.3152 357.552 22.9961C357.603 22.6718 357.691 22.3926 357.814 22.1584C357.94 21.9242 358.095 21.7441 358.277 21.6179C358.463 21.4918 358.671 21.4288 358.903 21.4288C359.137 21.4288 359.324 21.4931 359.463 21.6218C359.602 21.7505 359.693 21.9319 359.737 22.1661C359.783 22.4003 359.78 22.677 359.729 22.9961C359.678 23.3152 359.59 23.5932 359.466 23.8299C359.343 24.0667 359.19 24.2507 359.007 24.382C358.824 24.5107 358.617 24.575 358.386 24.575C358.154 24.575 357.967 24.5107 357.826 24.382ZM359.889 22.137C359.94 22.3942 359.936 22.69 359.882 23.0208C359.829 23.3531 359.737 23.6475 359.604 23.9018C359.471 24.1561 359.304 24.3603 359.098 24.5081L359.097 24.509C358.887 24.6568 358.648 24.7303 358.386 24.7303C358.124 24.7303 357.897 24.6568 357.721 24.4969L357.719 24.4949C357.552 24.3366 357.446 24.121 357.392 23.8614L357.392 23.8598C357.341 23.6001 357.345 23.303 357.398 22.9717" fill="#39EFAD"/>
<path fill-rule="evenodd" clip-rule="evenodd" d="M365.212 23.6444H368.814L369.076 22.0926H363.564L362.251 29.9986H367.764L368.026 28.4468H364.424L364.687 26.8215H368.007L368.269 25.2658H364.949L365.212 23.6444ZM368.086 25.4211H364.767L365.08 23.4891H368.682L368.892 22.2479H363.695L362.434 29.8433H367.632L367.842 28.6021H364.242L364.555 26.6662H367.876L368.086 25.4211ZM371.881 24.0691H369.966L371.109 27.0339L368.893 29.9986H370.808L372.193 28.0298L372.958 29.9986H374.845L373.622 27.0339L375.772 24.0691H373.869L372.529 26.0224L371.881 24.0691ZM373.951 24.2244L372.48 26.3682L371.769 24.2244H370.192L371.284 27.0581L369.203 29.8433H370.727L372.233 27.7034L373.064 29.8433H374.613L373.445 27.0129L375.467 24.2244H373.951ZM378.848 24.0691H376.979L375.613 32.2222H377.508L378.033 29.0374H378.087C378.088 29.0405 378.089 29.0436 378.09 29.0467C378.107 29.1137 378.129 29.1792 378.157 29.2431C378.202 29.3501 378.261 29.4526 378.334 29.5508C378.453 29.7104 378.613 29.8391 378.817 29.9369C379.023 30.0347 379.275 30.0836 379.573 30.0836C380.008 30.0836 380.424 29.9703 380.82 29.7438C381.217 29.5174 381.559 29.1777 381.847 28.7247C382.138 28.2717 382.339 27.7094 382.449 27.0377C382.565 26.3403 382.55 25.7664 382.403 25.316C382.256 24.8656 382.022 24.5323 381.7 24.3161C381.379 24.1 381.012 23.9919 380.6 23.9919C380.289 23.9919 380.012 24.0459 379.77 24.154C379.528 24.2595 379.321 24.3959 379.149 24.5632C379.044 24.6665 378.952 24.7723 378.872 24.8805C378.823 24.9475 378.779 25.0155 378.74 25.0844H378.682L378.848 24.0691ZM379.257 24.6743C379.096 24.8329 378.969 24.9954 378.874 25.1614L378.83 25.2397H378.499L378.665 24.2244H377.111L375.796 32.0669H377.376L377.901 28.8821H378.208L378.238 28.9992C378.279 29.1613 378.352 29.3141 378.459 29.4583C378.56 29.595 378.7 29.7085 378.884 29.7968C379.063 29.882 379.291 29.9283 379.573 29.9283C379.98 29.9283 380.369 29.8228 380.743 29.609C381.114 29.3971 381.439 29.0767 381.716 28.6413L381.716 28.6408C381.993 28.2097 382.188 27.6686 382.296 27.0125C382.41 26.3285 382.391 25.7819 382.255 25.3641C382.117 24.9392 381.901 24.6379 381.614 24.445C381.319 24.2472 380.983 24.1472 380.6 24.1472C380.307 24.1472 380.052 24.198 379.834 24.2958L379.832 24.2964C379.606 24.3951 379.415 24.5214 379.257 24.6743ZM378.608 28.4197C378.467 28.2885 378.373 28.1045 378.326 27.8677C378.28 27.6309 378.283 27.353 378.334 27.0339C378.386 26.7096 378.473 26.4303 378.597 26.1961C378.72 25.962 378.875 25.7818 379.06 25.6557C379.248 25.5296 379.456 25.4665 379.685 25.4665C379.92 25.4665 380.106 25.5309 380.245 25.6596C380.384 25.7882 380.475 25.9697 380.519 26.2039C380.566 26.4381 380.564 26.7147 380.515 27.0339C380.459 27.353 380.369 27.6309 380.245 27.8677C380.122 28.1045 379.968 28.2885 379.786 28.4197C379.606 28.5484 379.4 28.6127 379.168 28.6127C378.939 28.6127 378.752 28.5484 378.608 28.4197ZM378.181 27.0095C378.127 27.3408 378.123 27.6379 378.174 27.8975C378.225 28.1584 378.332 28.3749 378.503 28.5336L378.505 28.5356C378.683 28.6942 378.908 28.768 379.168 28.768C379.43 28.768 379.668 28.6945 379.876 28.5461L379.876 28.5459C380.082 28.398 380.25 28.1938 380.383 27.9395C380.515 27.6861 380.609 27.3925 380.668 27.061L380.669 27.0574C380.72 26.7266 380.722 26.4312 380.672 26.1745C380.623 25.9164 380.52 25.7021 380.351 25.5456C380.177 25.3844 379.949 25.3112 379.685 25.3112C379.426 25.3112 379.187 25.3832 378.973 25.5267L378.973 25.5273C378.763 25.6701 378.593 25.8711 378.459 26.1237C378.326 26.376 378.234 26.6723 378.181 27.0095ZM385.373 24.3779C384.889 24.6327 384.487 24.9904 384.168 25.4511C383.852 25.9092 383.642 26.4445 383.539 27.057C383.433 27.6875 383.463 28.2319 383.628 28.69C383.792 29.1455 384.078 29.4968 384.485 29.7438C384.894 29.9883 385.409 30.1106 386.029 30.1106C386.549 30.1106 387.017 30.0321 387.434 29.8751C387.854 29.7155 388.209 29.4929 388.499 29.2072C388.751 28.9577 388.946 28.6704 389.084 28.3456C389.106 28.2953 389.126 28.2441 389.144 28.192L387.422 28.1418C387.35 28.273 387.256 28.385 387.141 28.4776C387.027 28.5677 386.899 28.6359 386.755 28.6822C386.61 28.726 386.456 28.7479 386.291 28.7479C386.044 28.7479 385.842 28.7015 385.685 28.6089C385.528 28.5137 385.418 28.3773 385.353 28.1997C385.296 28.0428 385.281 27.8578 385.306 27.6447C385.31 27.6166 385.314 27.588 385.319 27.5589L385.331 27.4894H389.279L389.353 27.0184C389.435 26.532 389.438 26.1009 389.36 25.7252C389.283 25.3494 389.138 25.0329 388.924 24.7755C388.711 24.5156 388.44 24.32 388.113 24.1887C387.787 24.0575 387.412 23.9919 386.99 23.9919C386.396 23.9919 385.856 24.1205 385.373 24.3779ZM389.146 27.3341L389.2 26.9925C389.28 26.5199 389.281 26.1088 389.208 25.7564C389.135 25.402 389 25.1097 388.805 24.8747L388.804 24.8741C388.608 24.6353 388.359 24.4549 388.056 24.3329C387.75 24.2103 387.396 24.1472 386.99 24.1472C386.419 24.1472 385.905 24.2706 385.446 24.515L385.445 24.5153C384.984 24.7582 384.601 25.0989 384.296 25.5395C383.994 25.9768 383.792 26.4901 383.692 27.0826C383.59 27.6948 383.62 28.2109 383.774 28.6373C383.927 29.0599 384.189 29.3825 384.565 29.6108C384.944 29.837 385.429 29.9553 386.029 29.9553C386.533 29.9553 386.982 29.8792 387.379 29.7299C387.78 29.5772 388.117 29.3657 388.39 29.0966C388.613 28.8758 388.788 28.6241 388.917 28.3407L387.509 28.2997C387.435 28.4136 387.344 28.5135 387.238 28.5989L387.237 28.5992C387.109 28.7014 386.963 28.7783 386.802 28.8301L386.8 28.8309C386.64 28.8794 386.47 28.9032 386.291 28.9032C386.026 28.9032 385.794 28.8535 385.606 28.7426L385.605 28.7417C385.417 28.6275 385.283 28.4624 385.207 28.2526C385.142 28.0724 385.125 27.8682 385.15 27.6447H383.948L384.171 26.2377H385.413C385.464 26.0764 385.542 25.9276 385.648 25.792C385.787 25.6127 385.957 25.4697 386.157 25.3642C386.362 25.2544 386.583 25.1993 386.816 25.1993C387.044 25.1993 387.248 25.2492 387.42 25.3578C387.592 25.4626 387.717 25.6105 387.794 25.7975C387.871 25.9854 387.888 26.1935 387.854 26.4166L387.834 26.5483H385.66L385.517 27.3341H389.146ZM385.345 26.5483L385.202 27.3341H384.311L384.436 26.5483H385.345ZM385.532 26.393C385.544 26.3398 385.559 26.288 385.577 26.2377C385.622 26.1118 385.686 25.995 385.77 25.8873C385.896 25.7252 386.049 25.5965 386.23 25.5013C386.412 25.4035 386.608 25.3546 386.816 25.3546C387.022 25.3546 387.196 25.3996 387.338 25.4897C387.482 25.5772 387.586 25.6994 387.65 25.8564C387.715 26.0134 387.731 26.1923 387.7 26.393H385.532Z" fill="#39EFAD"/>
<path d="M339.609 25.3397L338.621 17.4336H340.733L341.073 22.6143H341.138L343.354 17.4336H345.076L345.585 22.6258H345.647L347.701 17.4336H349.809L346.199 25.3397H344.358L343.736 20.5451H343.674L341.447 25.3397H339.609Z" fill="white"/>
<path d="M351.71 25.4516C351.09 25.4516 350.575 25.3294 350.166 25.0849C349.759 24.8378 349.473 24.4865 349.309 24.031C349.144 23.5729 349.114 23.0286 349.22 22.3981C349.323 21.7856 349.533 21.2503 349.849 20.7922C350.168 20.3315 350.57 19.9738 351.053 19.719C351.537 19.4616 352.076 19.3329 352.671 19.3329C353.093 19.3329 353.468 19.3986 353.794 19.5298C354.121 19.6611 354.391 19.8567 354.605 20.1166C354.819 20.374 354.964 20.6905 355.041 21.0662C355.118 21.442 355.116 21.8731 355.034 22.3595L354.96 22.8304H349.81L349.984 21.7341H353.381C353.412 21.5334 353.395 21.3545 353.331 21.1975C353.267 21.0405 353.163 20.9183 353.018 20.8308C352.877 20.7407 352.703 20.6956 352.497 20.6956C352.289 20.6956 352.093 20.7445 351.91 20.8423C351.73 20.9376 351.577 21.0662 351.451 21.2284C351.325 21.3905 351.243 21.5732 351.204 21.7766L350.999 22.8999C350.958 23.1496 350.97 23.3632 351.034 23.5408C351.099 23.7183 351.209 23.8547 351.366 23.95C351.523 24.0426 351.725 24.0889 351.972 24.0889C352.137 24.0889 352.291 24.0671 352.436 24.0233C352.58 23.977 352.708 23.9088 352.822 23.8187C352.937 23.7261 353.031 23.6141 353.103 23.4828L354.825 23.533C354.686 23.9216 354.471 24.2601 354.18 24.5483C353.89 24.834 353.534 25.0566 353.115 25.2162C352.698 25.3731 352.23 25.4516 351.71 25.4516Z" fill="white"/>
<path d="M355.83 25.3397L357.142 17.4336H359.03L358.54 20.4254H358.578C358.681 20.2453 358.818 20.0716 358.987 19.9043C359.16 19.737 359.367 19.6006 359.609 19.4951C359.851 19.387 360.128 19.3329 360.439 19.3329C360.851 19.3329 361.217 19.441 361.539 19.6572C361.861 19.8734 362.095 20.2067 362.242 20.657C362.388 21.1074 362.404 21.6813 362.288 22.3788C362.177 23.0505 361.978 23.6128 361.69 24.0658C361.401 24.5187 361.058 24.8584 360.659 25.0849C360.263 25.3114 359.846 25.4246 359.408 25.4246C359.11 25.4246 358.859 25.3757 358.655 25.2779C358.455 25.1801 358.294 25.0515 358.173 24.8919C358.055 24.7323 357.972 24.5612 357.926 24.3785H357.853L357.698 25.3397H355.83ZM358.173 22.3749C358.121 22.694 358.119 22.972 358.165 23.2088C358.214 23.4455 358.308 23.6295 358.447 23.7608C358.589 23.8895 358.775 23.9538 359.007 23.9538C359.238 23.9538 359.446 23.8895 359.628 23.7608C359.811 23.6295 359.964 23.4455 360.088 23.2088C360.211 22.972 360.299 22.694 360.35 22.3749C360.402 22.0558 360.404 21.7791 360.358 21.5449C360.314 21.3107 360.223 21.1293 360.084 21.0006C359.945 20.8719 359.758 20.8076 359.524 20.8076C359.292 20.8076 359.084 20.8707 358.899 20.9968C358.716 21.1229 358.562 21.303 358.435 21.5372C358.312 21.7714 358.224 22.0506 358.173 22.3749Z" fill="white"/>
<path d="M362.872 29.3774L364.185 21.4714H369.697L369.435 23.0232H365.833L365.571 24.6446H368.891L368.628 26.2003H365.308L365.046 27.8256H368.647L368.385 29.3774H362.872Z" fill="white"/>
<path d="M372.502 23.4479L373.15 25.4012L374.49 23.4479H376.393L374.243 26.4127L375.467 29.3774H373.579L372.815 27.4086L371.429 29.3774H369.514L371.73 26.4127L370.587 23.4479H372.502Z" fill="white"/>
<path d="M376.234 31.601L377.6 23.4479H379.469L379.303 24.4632H379.361C379.464 24.283 379.6 24.1093 379.77 23.942C379.942 23.7747 380.15 23.6383 380.391 23.5328C380.633 23.4247 380.91 23.3707 381.221 23.3707C381.633 23.3707 382 23.4788 382.322 23.695C382.643 23.9111 382.878 24.2444 383.024 24.6948C383.171 25.1452 383.186 25.7191 383.071 26.4165C382.96 27.0882 382.759 27.6506 382.468 28.1035C382.18 28.5565 381.838 28.8962 381.441 29.1227C381.045 29.3491 380.63 29.4624 380.195 29.4624C379.896 29.4624 379.644 29.4135 379.438 29.3157C379.235 29.2179 379.074 29.0892 378.955 28.9296C378.837 28.7701 378.755 28.5989 378.708 28.4162H378.654L378.129 31.601H376.234ZM378.955 26.4127C378.904 26.7318 378.901 27.0097 378.948 27.2465C378.994 27.4833 379.088 27.6673 379.229 27.7985C379.374 27.9272 379.56 27.9916 379.789 27.9916C380.021 27.9916 380.227 27.9272 380.407 27.7985C380.59 27.6673 380.743 27.4833 380.866 27.2465C380.99 27.0097 381.08 26.7318 381.137 26.4127C381.185 26.0935 381.187 25.8169 381.14 25.5827C381.097 25.3485 381.005 25.167 380.866 25.0384C380.727 24.9097 380.541 24.8454 380.307 24.8454C380.077 24.8454 379.869 24.9084 379.681 25.0345C379.496 25.1606 379.341 25.3408 379.218 25.575C379.094 25.8092 379.007 26.0884 378.955 26.4127Z" fill="white"/>
<path d="M386.65 29.4894C386.03 29.4894 385.515 29.3671 385.106 29.1227C384.699 28.8756 384.414 28.5243 384.249 28.0688C384.084 27.6107 384.055 27.0664 384.16 26.4358C384.263 25.8233 384.473 25.288 384.789 24.8299C385.108 24.3692 385.51 24.0115 385.994 23.7567C386.478 23.4994 387.017 23.3707 387.611 23.3707C388.033 23.3707 388.408 23.4363 388.735 23.5676C389.062 23.6988 389.332 23.8944 389.545 24.1543C389.759 24.4117 389.904 24.7283 389.982 25.104C390.059 25.4797 390.056 25.9108 389.974 26.3972L389.9 26.8682H384.751L384.924 25.7718H388.322C388.352 25.5711 388.336 25.3922 388.271 25.2352C388.207 25.0783 388.103 24.956 387.959 24.8685C387.817 24.7784 387.643 24.7334 387.438 24.7334C387.229 24.7334 387.034 24.7823 386.851 24.8801C386.671 24.9753 386.518 25.104 386.391 25.2661C386.265 25.4283 386.183 25.611 386.144 25.8143L385.94 26.9377C385.899 27.1873 385.91 27.4009 385.974 27.5785C386.039 27.7561 386.149 27.8925 386.306 27.9877C386.463 28.0804 386.665 28.1267 386.913 28.1267C387.077 28.1267 387.232 28.1048 387.376 28.0611C387.52 28.0147 387.649 27.9465 387.762 27.8565C387.878 27.7638 387.972 27.6518 388.044 27.5206L389.765 27.5708C389.626 27.9594 389.412 28.2978 389.121 28.5861C388.83 28.8717 388.475 29.0943 388.055 29.2539C387.638 29.4109 387.17 29.4894 386.65 29.4894Z" fill="white"/>
<g filter="url(#filter3_d_518_572)">
<path d="M334.006 158.552C333.985 158.701 333.974 158.797 333.974 158.84C333.974 159.064 334.043 159.229 334.182 159.336C334.321 159.432 334.55 159.48 334.87 159.48H335.99L335.718 161H334.278C333.574 161 333.035 160.861 332.662 160.584C332.289 160.296 332.102 159.843 332.102 159.224C332.102 158.989 332.123 158.765 332.166 158.552L333.03 153.672H331.99L332.246 152.184H333.302L333.686 149.992H335.526L335.142 152.184H337.27L337.014 153.672H334.87L334.006 158.552ZM346.935 152.184L345.383 161H343.559L343.735 159.96C343.383 160.323 342.957 160.611 342.455 160.824C341.965 161.027 341.458 161.128 340.935 161.128C340.007 161.128 339.266 160.877 338.711 160.376C338.157 159.875 337.879 159.165 337.879 158.248C337.879 158.003 337.906 157.709 337.959 157.368L338.871 152.184H340.679L339.815 157.096C339.773 157.395 339.751 157.608 339.751 157.736C339.751 158.323 339.911 158.771 340.231 159.08C340.562 159.389 341.015 159.544 341.591 159.544C342.263 159.544 342.834 159.347 343.303 158.952C343.773 158.547 344.082 157.965 344.231 157.208L345.111 152.184H346.935ZM350.35 158.552C350.329 158.701 350.318 158.797 350.318 158.84C350.318 159.064 350.387 159.229 350.526 159.336C350.665 159.432 350.894 159.48 351.214 159.48H352.334L352.062 161H350.622C349.918 161 349.379 160.861 349.006 160.584C348.633 160.296 348.446 159.843 348.446 159.224C348.446 158.989 348.467 158.765 348.51 158.552L349.374 153.672H348.334L348.59 152.184H349.646L350.03 149.992H351.87L351.486 152.184H353.614L353.358 153.672H351.214L350.35 158.552ZM357.599 161.144C356.852 161.144 356.196 160.989 355.631 160.68C355.066 160.371 354.623 159.933 354.303 159.368C353.994 158.803 353.839 158.157 353.839 157.432C353.839 156.44 354.068 155.533 354.527 154.712C354.996 153.891 355.636 153.24 356.447 152.76C357.268 152.28 358.18 152.04 359.183 152.04C359.93 152.04 360.591 152.2 361.167 152.52C361.743 152.829 362.191 153.267 362.511 153.832C362.842 154.387 363.007 155.032 363.007 155.768C363.007 156.76 362.767 157.667 362.287 158.488C361.807 159.309 361.156 159.96 360.335 160.44C359.514 160.909 358.602 161.144 357.599 161.144ZM357.823 159.608C358.431 159.608 358.986 159.437 359.487 159.096C359.999 158.744 360.399 158.285 360.687 157.72C360.975 157.144 361.119 156.531 361.119 155.88C361.119 155.144 360.911 154.579 360.495 154.184C360.079 153.779 359.556 153.576 358.927 153.576C358.308 153.576 357.754 153.752 357.263 154.104C356.783 154.445 356.404 154.909 356.127 155.496C355.86 156.072 355.727 156.691 355.727 157.352C355.727 158.067 355.919 158.621 356.303 159.016C356.698 159.411 357.204 159.608 357.823 159.608ZM367.05 153.736C367.413 153.203 367.839 152.787 368.33 152.488C368.831 152.189 369.386 152.04 369.994 152.04L369.658 153.928H369.194C368.49 153.928 367.925 154.104 367.498 154.456C367.071 154.808 366.773 155.416 366.602 156.28L365.77 161H363.946L365.498 152.184H367.322L367.05 153.736ZM372.775 151.016C372.487 151.016 372.252 150.925 372.071 150.744C371.889 150.563 371.799 150.333 371.799 150.056C371.799 149.683 371.937 149.363 372.215 149.096C372.503 148.819 372.828 148.68 373.191 148.68C373.479 148.68 373.708 148.771 373.879 148.952C374.06 149.133 374.151 149.363 374.151 149.64C374.151 150.013 374.012 150.339 373.735 150.616C373.457 150.883 373.137 151.016 372.775 151.016ZM373.463 152.184L371.911 161H370.087L371.639 152.184H373.463ZM374.482 156.552C374.642 155.667 374.962 154.883 375.442 154.2C375.932 153.517 376.53 152.989 377.234 152.616C377.938 152.232 378.674 152.04 379.442 152.04C380.135 152.04 380.716 152.179 381.186 152.456C381.655 152.723 382.007 153.059 382.242 153.464L382.466 152.184H384.306L382.753 161H380.914L381.154 159.688C380.77 160.104 380.284 160.451 379.698 160.728C379.122 161.005 378.492 161.144 377.81 161.144C377.148 161.144 376.556 160.995 376.034 160.696C375.522 160.397 375.116 159.976 374.818 159.432C374.53 158.877 374.386 158.243 374.386 157.528C374.386 157.208 374.418 156.883 374.482 156.552ZM381.698 156.584C381.74 156.381 381.762 156.163 381.762 155.928C381.762 155.213 381.548 154.653 381.122 154.248C380.706 153.832 380.183 153.624 379.554 153.624C379.084 153.624 378.626 153.741 378.178 153.976C377.73 154.2 377.34 154.536 377.01 154.984C376.679 155.421 376.46 155.944 376.354 156.552C376.311 156.755 376.289 156.973 376.289 157.208C376.289 157.933 376.498 158.509 376.914 158.936C377.34 159.352 377.868 159.56 378.498 159.56C378.967 159.56 379.426 159.443 379.874 159.208C380.322 158.973 380.711 158.632 381.042 158.184C381.372 157.725 381.591 157.192 381.698 156.584ZM389.069 149.16L386.973 161H385.149L387.245 149.16H389.069Z" fill="white"/>
</g>
<path d="M340.397 201.608L339.133 206H338.349L337.141 202.424L335.925 206H335.133L333.885 201.608H334.621L335.557 205.304L336.773 201.608H337.533L338.757 205.296L339.701 201.608H340.397ZM345.116 203.56C345.116 203.715 345.106 203.848 345.084 203.96H341.572C341.588 204.461 341.73 204.837 341.996 205.088C342.268 205.339 342.599 205.464 342.988 205.464C343.34 205.464 343.634 205.376 343.868 205.2C344.108 205.019 344.255 204.779 344.308 204.48H345.084C345.031 204.784 344.911 205.056 344.724 205.296C344.543 205.536 344.306 205.723 344.012 205.856C343.719 205.989 343.388 206.056 343.02 206.056C342.599 206.056 342.226 205.965 341.9 205.784C341.575 205.603 341.319 205.344 341.132 205.008C340.951 204.667 340.86 204.267 340.86 203.808C340.86 203.349 340.951 202.949 341.132 202.608C341.319 202.267 341.575 202.005 341.9 201.824C342.226 201.643 342.599 201.552 343.02 201.552C343.447 201.552 343.818 201.643 344.132 201.824C344.452 202.005 344.695 202.248 344.86 202.552C345.031 202.856 345.116 203.192 345.116 203.56ZM344.38 203.608C344.396 203.283 344.343 203.011 344.22 202.792C344.098 202.573 343.93 202.411 343.716 202.304C343.503 202.197 343.271 202.144 343.02 202.144C342.62 202.144 342.284 202.269 342.012 202.52C341.74 202.765 341.594 203.128 341.572 203.608H344.38ZM348.492 201.552C348.882 201.552 349.228 201.643 349.532 201.824C349.836 202.005 350.074 202.267 350.244 202.608C350.42 202.949 350.508 203.349 350.508 203.808C350.508 204.267 350.42 204.667 350.244 205.008C350.074 205.344 349.836 205.603 349.532 205.784C349.228 205.965 348.882 206.056 348.492 206.056C348.066 206.056 347.703 205.949 347.404 205.736C347.111 205.517 346.908 205.232 346.796 204.88V206H346.068V200.08H346.796V202.728C346.908 202.376 347.111 202.093 347.404 201.88C347.703 201.661 348.066 201.552 348.492 201.552ZM348.284 202.2C348.002 202.2 347.746 202.267 347.516 202.4C347.287 202.528 347.108 202.715 346.98 202.96C346.852 203.205 346.788 203.488 346.788 203.808C346.788 204.128 346.852 204.411 346.98 204.656C347.108 204.896 347.287 205.083 347.516 205.216C347.746 205.349 348.002 205.416 348.284 205.416C348.738 205.416 349.098 205.275 349.364 204.992C349.636 204.704 349.772 204.309 349.772 203.808C349.772 203.307 349.636 202.915 349.364 202.632C349.098 202.344 348.738 202.2 348.284 202.2ZM355.499 203.56C355.499 203.715 355.488 203.848 355.467 203.96H351.955C351.971 204.461 352.112 204.837 352.379 205.088C352.651 205.339 352.982 205.464 353.371 205.464C353.723 205.464 354.016 205.376 354.251 205.2C354.491 205.019 354.638 204.779 354.691 204.48H355.467C355.414 204.784 355.294 205.056 355.107 205.296C354.926 205.536 354.688 205.723 354.395 205.856C354.102 205.989 353.771 206.056 353.403 206.056C352.982 206.056 352.608 205.965 352.283 205.784C351.958 205.603 351.702 205.344 351.515 205.008C351.334 204.667 351.243 204.267 351.243 203.808C351.243 203.349 351.334 202.949 351.515 202.608C351.702 202.267 351.958 202.005 352.283 201.824C352.608 201.643 352.982 201.552 353.403 201.552C353.83 201.552 354.2 201.643 354.515 201.824C354.835 202.005 355.078 202.248 355.243 202.552C355.414 202.856 355.499 203.192 355.499 203.56ZM354.763 203.608C354.779 203.283 354.726 203.011 354.603 202.792C354.48 202.573 354.312 202.411 354.099 202.304C353.886 202.197 353.654 202.144 353.403 202.144C353.003 202.144 352.667 202.269 352.395 202.52C352.123 202.765 351.976 203.128 351.955 203.608H354.763ZM358.979 206L357.835 204.32L356.803 206H355.995L357.435 203.736L355.987 201.608H356.819L357.931 203.24L358.947 201.608H359.755L358.323 203.816L359.811 206H358.979ZM362.914 201.552C363.304 201.552 363.65 201.643 363.954 201.824C364.258 202.005 364.496 202.267 364.666 202.608C364.842 202.949 364.93 203.349 364.93 203.808C364.93 204.267 364.842 204.667 364.666 205.008C364.496 205.344 364.258 205.603 363.954 205.784C363.65 205.965 363.304 206.056 362.914 206.056C362.488 206.056 362.125 205.949 361.826 205.736C361.533 205.517 361.33 205.232 361.218 204.88V208.08H360.49V201.608H361.218V202.728C361.33 202.376 361.533 202.093 361.826 201.88C362.125 201.661 362.488 201.552 362.914 201.552ZM362.706 202.2C362.424 202.2 362.168 202.267 361.938 202.4C361.709 202.528 361.53 202.715 361.402 202.96C361.274 203.205 361.21 203.488 361.21 203.808C361.21 204.128 361.274 204.411 361.402 204.656C361.53 204.896 361.709 205.083 361.938 205.216C362.168 205.349 362.424 205.416 362.706 205.416C363.16 205.416 363.52 205.275 363.786 204.992C364.058 204.704 364.194 204.309 364.194 203.808C364.194 203.307 364.058 202.915 363.786 202.632C363.52 202.344 363.16 202.2 362.706 202.2ZM369.921 203.56C369.921 203.715 369.91 203.848 369.889 203.96H366.377C366.393 204.461 366.534 204.837 366.801 205.088C367.073 205.339 367.404 205.464 367.793 205.464C368.145 205.464 368.438 205.376 368.673 205.2C368.913 205.019 369.06 204.779 369.113 204.48H369.889C369.836 204.784 369.716 205.056 369.529 205.296C369.348 205.536 369.11 205.723 368.817 205.856C368.524 205.989 368.193 206.056 367.825 206.056C367.404 206.056 367.03 205.965 366.705 205.784C366.38 205.603 366.124 205.344 365.937 205.008C365.756 204.667 365.665 204.267 365.665 203.808C365.665 203.349 365.756 202.949 365.937 202.608C366.124 202.267 366.38 202.005 366.705 201.824C367.03 201.643 367.404 201.552 367.825 201.552C368.252 201.552 368.622 201.643 368.937 201.824C369.257 202.005 369.5 202.248 369.665 202.552C369.836 202.856 369.921 203.192 369.921 203.56ZM369.185 203.608C369.201 203.283 369.148 203.011 369.025 202.792C368.902 202.573 368.734 202.411 368.521 202.304C368.308 202.197 368.076 202.144 367.825 202.144C367.425 202.144 367.089 202.269 366.817 202.52C366.545 202.765 366.398 203.128 366.377 203.608H369.185ZM371.409 205.144V206H370.529V205.144H371.409ZM374.184 201.552C374.744 201.552 375.208 201.701 375.576 202C375.944 202.299 376.171 202.699 376.256 203.2H375.488C375.435 202.885 375.288 202.64 375.048 202.464C374.814 202.283 374.52 202.192 374.168 202.192C373.912 202.192 373.678 202.251 373.464 202.368C373.256 202.485 373.088 202.667 372.96 202.912C372.832 203.152 372.768 203.451 372.768 203.808C372.768 204.165 372.832 204.467 372.96 204.712C373.088 204.952 373.256 205.131 373.464 205.248C373.678 205.365 373.912 205.424 374.168 205.424C374.52 205.424 374.814 205.333 375.048 205.152C375.288 204.971 375.435 204.723 375.488 204.408H376.256C376.171 204.915 375.944 205.317 375.576 205.616C375.208 205.909 374.744 206.056 374.184 206.056C373.763 206.056 373.39 205.965 373.064 205.784C372.739 205.603 372.483 205.344 372.296 205.008C372.115 204.667 372.024 204.267 372.024 203.808C372.024 203.349 372.115 202.949 372.296 202.608C372.483 202.267 372.739 202.005 373.064 201.824C373.39 201.643 373.763 201.552 374.184 201.552ZM379.201 201.552C379.622 201.552 379.998 201.643 380.329 201.824C380.665 202.005 380.926 202.267 381.113 202.608C381.305 202.949 381.401 203.349 381.401 203.808C381.401 204.267 381.305 204.667 381.113 205.008C380.926 205.344 380.665 205.603 380.329 205.784C379.998 205.965 379.622 206.056 379.201 206.056C378.78 206.056 378.401 205.965 378.065 205.784C377.734 205.603 377.473 205.344 377.281 205.008C377.089 204.667 376.993 204.267 376.993 203.808C376.993 203.349 377.089 202.949 377.281 202.608C377.473 202.267 377.734 202.005 378.065 201.824C378.401 201.643 378.78 201.552 379.201 201.552ZM379.201 202.192C378.94 202.192 378.697 202.251 378.473 202.368C378.254 202.485 378.076 202.667 377.937 202.912C377.804 203.152 377.737 203.451 377.737 203.808C377.737 204.16 377.804 204.459 377.937 204.704C378.076 204.944 378.254 205.123 378.473 205.24C378.697 205.357 378.94 205.416 379.201 205.416C379.462 205.416 379.702 205.357 379.921 205.24C380.145 205.123 380.324 204.944 380.457 204.704C380.596 204.459 380.665 204.16 380.665 203.808C380.665 203.451 380.596 203.152 380.457 202.912C380.324 202.667 380.145 202.485 379.921 202.368C379.702 202.251 379.462 202.192 379.201 202.192ZM387.75 201.536C388.262 201.536 388.672 201.701 388.982 202.032C389.296 202.357 389.454 202.829 389.454 203.448V206H388.726V203.512C388.726 203.08 388.619 202.749 388.406 202.52C388.198 202.291 387.91 202.176 387.542 202.176C387.158 202.176 386.848 202.304 386.614 202.56C386.384 202.811 386.27 203.181 386.27 203.672V206H385.542V203.512C385.542 203.08 385.435 202.749 385.222 202.52C385.008 202.291 384.72 202.176 384.358 202.176C383.968 202.176 383.656 202.304 383.422 202.56C383.192 202.811 383.078 203.181 383.078 203.672V206H382.35V201.608H383.078V202.608C383.184 202.261 383.374 201.997 383.646 201.816C383.923 201.629 384.24 201.536 384.598 201.536C384.971 201.536 385.294 201.632 385.566 201.824C385.843 202.011 386.04 202.288 386.158 202.656C386.28 202.299 386.486 202.024 386.774 201.832C387.062 201.635 387.387 201.536 387.75 201.536Z" fill="white"/>
<path d="M38 162L58.6449 30.2181C58.8972 28.6019 60.1572 27.3279 61.7738 27.0539C63.3904 26.7799 65.0013 27.5681 65.7742 29.0106L87.1246 68.7352L95.6348 52.5714C96.2939 51.3216 97.5932 50.539 99.009 50.539C100.425 50.539 101.724 51.3216 102.383 52.5714L160 162H38V162Z" fill="#FFA000"/>
<path d="M109 110.822L86.8925 69L38 162L109 110.822Z" fill="#F57C00"/>
<path d="M160 161.705L144.188 64.1658C143.949 62.7651 142.946 61.6145 141.588 61.1807C140.23 60.747 138.744 61.108 137.735 62.1122L38 161.703L93.186 192.553C96.6515 194.482 100.872 194.482 104.337 192.553L160 161.703V161.705Z" fill="#FFCA28"/>
<path d="M144.196 64.294C143.957 62.8958 142.955 61.7472 141.598 61.3142C140.241 60.8813 138.755 61.2417 137.747 62.2441L117.963 81.9915L102.405 52.5043C101.747 51.2577 100.448 50.4771 99.0332 50.4771C97.6182 50.4771 96.3197 51.2577 95.6609 52.5043L87.1554 68.6275L65.8158 29.0034C65.042 27.5642 63.43 26.7792 61.8125 27.0545C60.1949 27.3298 58.9398 28.6039 58.6904 30.2173L38.0665 161.659H38L38.0665 161.734L38.6095 162L137.718 63.2128C138.726 62.2049 140.215 61.8426 141.576 62.2743C142.937 62.7059 143.941 63.859 144.177 65.2613L159.848 161.753L160 161.658L144.196 64.2937L144.196 64.294ZM38.2475 161.478L58.7 31.1469C58.9491 29.5335 60.2072 28.2594 61.8233 27.9841C63.4395 27.7088 65.0516 28.4935 65.8267 29.9329L87.164 69.5577L95.6695 53.4346C96.3282 52.1879 97.6268 51.4073 99.0418 51.4073C100.457 51.4073 101.755 52.1879 102.414 53.4346L117.656 82.2949L38.2466 161.478H38.2475Z" fill="white" fill-opacity="0.2"/>
<path opacity="0.2" d="M104.338 191.643C100.872 193.562 96.6516 193.562 93.1861 191.643L38.1335 161.028L38 161.87L93.186 192.56C96.6515 194.48 100.872 194.48 104.337 192.56L160 161.87L159.857 161L104.338 191.643V191.643Z" fill="#A52714"/>
<path d="M143.317 64.319C143.08 62.9197 142.085 61.7694 140.739 61.3385C139.392 60.9076 137.918 61.2659 136.917 62.2691L117.283 82.0284L101.846 52.5223C101.193 51.2748 99.904 50.4936 98.5 50.4936C97.096 50.4936 95.8074 51.2748 95.1537 52.5223L86.7121 68.6563L65.5371 29.0047C64.769 27.5646 63.1695 26.7789 61.5657 27.0547C59.9619 27.3304 58.7134 28.6048 58.4662 30.2196L38 161.749L92.7337 192.555C96.1707 194.482 100.357 194.482 103.794 192.555L159 161.749L143.317 64.3188V64.319Z" fill="url(#paint19_linear_518_572)"/>
</g>
<defs>
<filter id="filter0_d_518_572" x="61" y="-5" width="342" height="232" filterUnits="userSpaceOnUse" color-interpolation-filters="sRGB">
<feFlood flood-opacity="0" result="BackgroundImageFix"/>
<feColorMatrix in="SourceAlpha" type="matrix" values="0 0 0 0 0 0 0 0 0 0 0 0 0 0 0 0 0 0 127 0" result="hardAlpha"/>
<feOffset dx="-2"/>
<feGaussianBlur stdDeviation="2.5"/>
<feComposite in2="hardAlpha" operator="out"/>
<feColorMatrix type="matrix" values="0 0 0 0 0 0 0 0 0 0 0 0 0 0 0 0 0 0 0.15 0"/>
<feBlend mode="normal" in2="BackgroundImageFix" result="effect1_dropShadow_518_572"/>
<feBlend mode="normal" in="SourceGraphic" in2="effect1_dropShadow_518_572" result="shape"/>
</filter>
<filter id="filter1_d_518_572" x="191.862" y="83.98" width="190.989" height="55.368" filterUnits="userSpaceOnUse" color-interpolation-filters="sRGB">
<feFlood flood-opacity="0" result="BackgroundImageFix"/>
<feColorMatrix in="SourceAlpha" type="matrix" values="0 0 0 0 0 0 0 0 0 0 0 0 0 0 0 0 0 0 127 0" result="hardAlpha"/>
<feOffset dx="2" dy="2"/>
<feComposite in2="hardAlpha" operator="out"/>
<feColorMatrix type="matrix" values="0 0 0 0 0 0 0 0 0 0 0 0 0 0 0 0 0 0 1 0"/>
<feBlend mode="normal" in2="BackgroundImageFix" result="effect1_dropShadow_518_572"/>
<feBlend mode="normal" in="SourceGraphic" in2="effect1_dropShadow_518_572" result="shape"/>
</filter>
<filter id="filter2_d_518_572" x="192.618" y="54.16" width="54.8109" height="13.984" filterUnits="userSpaceOnUse" color-interpolation-filters="sRGB">
<feFlood flood-opacity="0" result="BackgroundImageFix"/>
<feColorMatrix in="SourceAlpha" type="matrix" values="0 0 0 0 0 0 0 0 0 0 0 0 0 0 0 0 0 0 127 0" result="hardAlpha"/>
<feOffset dx="1" dy="2"/>
<feComposite in2="hardAlpha" operator="out"/>
<feColorMatrix type="matrix" values="0 0 0 0 0 0 0 0 0 0 0 0 0 0 0 0 0 0 1 0"/>
<feBlend mode="normal" in2="BackgroundImageFix" result="effect1_dropShadow_518_572"/>
<feBlend mode="normal" in="SourceGraphic" in2="effect1_dropShadow_518_572" result="shape"/>
</filter>
<filter id="filter3_d_518_572" x="331.99" y="148.68" width="58.0791" height="14.464" filterUnits="userSpaceOnUse" color-interpolation-filters="sRGB">
<feFlood flood-opacity="0" result="BackgroundImageFix"/>
<feColorMatrix in="SourceAlpha" type="matrix" values="0 0 0 0 0 0 0 0 0 0 0 0 0 0 0 0 0 0 127 0" result="hardAlpha"/>
<feOffset dx="1" dy="2"/>
<feComposite in2="hardAlpha" operator="out"/>
<feColorMatrix type="matrix" values="0 0 0 0 0 0 0 0 0 0 0 0 0 0 0 0 0 0 1 0"/>
<feBlend mode="normal" in2="BackgroundImageFix" result="effect1_dropShadow_518_572"/>
<feBlend mode="normal" in="SourceGraphic" in2="effect1_dropShadow_518_572" result="shape"/>
</filter>
<linearGradient id="paint0_linear_518_572" x1="0" y1="0" x2="400" y2="241" gradientUnits="userSpaceOnUse">
<stop stop-color="#3C82F6"/>
<stop offset="1" stop-color="#3C78D2"/>
</linearGradient>
<linearGradient id="paint1_linear_518_572" x1="348.318" y1="14.877" x2="356.117" y2="14.877" gradientUnits="userSpaceOnUse">
<stop stop-color="#1884E8"/>
<stop offset="0.453125" stop-color="#149BBE"/>
<stop offset="1" stop-color="#14BD80"/>
</linearGradient>
<linearGradient id="paint2_linear_518_572" x1="348.318" y1="16.2444" x2="357.615" y2="16.2444" gradientUnits="userSpaceOnUse">
<stop stop-color="#1884E8"/>
<stop offset="0.453125" stop-color="#149BBE"/>
<stop offset="1" stop-color="#14BD80"/>
</linearGradient>
<linearGradient id="paint3_linear_518_572" x1="348.318" y1="17.6119" x2="359.118" y2="17.6119" gradientUnits="userSpaceOnUse">
<stop stop-color="#1884E8"/>
<stop offset="0.453125" stop-color="#149BBE"/>
<stop offset="1" stop-color="#14BD80"/>
</linearGradient>
<linearGradient id="paint4_linear_518_572" x1="348.318" y1="18.9794" x2="360.616" y2="18.9794" gradientUnits="userSpaceOnUse">
<stop stop-color="#1884E8"/>
<stop offset="0.453125" stop-color="#149BBE"/>
<stop offset="1" stop-color="#14BD80"/>
</linearGradient>
<linearGradient id="paint5_linear_518_572" x1="348.318" y1="20.3447" x2="362.114" y2="20.3447" gradientUnits="userSpaceOnUse">
<stop stop-color="#1884E8"/>
<stop offset="0.453125" stop-color="#149BBE"/>
<stop offset="1" stop-color="#14BD80"/>
</linearGradient>
<linearGradient id="paint6_linear_518_572" x1="348.318" y1="21.7122" x2="363.616" y2="21.7122" gradientUnits="userSpaceOnUse">
<stop stop-color="#1884E8"/>
<stop offset="0.453125" stop-color="#149BBE"/>
<stop offset="1" stop-color="#14BD80"/>
</linearGradient>
<linearGradient id="paint7_linear_518_572" x1="348.318" y1="23.0796" x2="365.115" y2="23.0796" gradientUnits="userSpaceOnUse">
<stop stop-color="#1884E8"/>
<stop offset="0.453125" stop-color="#149BBE"/>
<stop offset="1" stop-color="#14BD80"/>
</linearGradient>
<linearGradient id="paint8_linear_518_572" x1="348.318" y1="24.4471" x2="366.613" y2="24.4471" gradientUnits="userSpaceOnUse">
<stop stop-color="#1884E8"/>
<stop offset="0.453125" stop-color="#149BBE"/>
<stop offset="1" stop-color="#14BD80"/>
</linearGradient>
<linearGradient id="paint9_linear_518_572" x1="348.318" y1="25.8125" x2="368.115" y2="25.8125" gradientUnits="userSpaceOnUse">
<stop stop-color="#1884E8"/>
<stop offset="0.453125" stop-color="#149BBE"/>
<stop offset="1" stop-color="#14BD80"/>
</linearGradient>
<linearGradient id="paint10_linear_518_572" x1="348.318" y1="27.1799" x2="369.613" y2="27.1799" gradientUnits="userSpaceOnUse">
<stop stop-color="#1884E8"/>
<stop offset="0.453125" stop-color="#149BBE"/>
<stop offset="1" stop-color="#14BD80"/>
</linearGradient>
<linearGradient id="paint11_linear_518_572" x1="348.318" y1="28.5474" x2="371.116" y2="28.5474" gradientUnits="userSpaceOnUse">
<stop stop-color="#1884E8"/>
<stop offset="0.453125" stop-color="#149BBE"/>
<stop offset="1" stop-color="#14BD80"/>
</linearGradient>
<linearGradient id="paint12_linear_518_572" x1="348.318" y1="29.9148" x2="372.614" y2="29.9148" gradientUnits="userSpaceOnUse">
<stop stop-color="#1884E8"/>
<stop offset="0.453125" stop-color="#149BBE"/>
<stop offset="1" stop-color="#14BD80"/>
</linearGradient>
<linearGradient id="paint13_linear_518_572" x1="348.318" y1="31.2822" x2="374.112" y2="31.2822" gradientUnits="userSpaceOnUse">
<stop stop-color="#1884E8"/>
<stop offset="0.453125" stop-color="#149BBE"/>
<stop offset="1" stop-color="#14BD80"/>
</linearGradient>
<linearGradient id="paint14_linear_518_572" x1="348.318" y1="32.6477" x2="375.615" y2="32.6477" gradientUnits="userSpaceOnUse">
<stop stop-color="#1884E8"/>
<stop offset="0.453125" stop-color="#149BBE"/>
<stop offset="1" stop-color="#14BD80"/>
</linearGradient>
<linearGradient id="paint15_linear_518_572" x1="348.318" y1="34.0151" x2="377.113" y2="34.0151" gradientUnits="userSpaceOnUse">
<stop stop-color="#1884E8"/>
<stop offset="0.453125" stop-color="#149BBE"/>
<stop offset="1" stop-color="#14BD80"/>
</linearGradient>
<linearGradient id="paint16_linear_518_572" x1="348.318" y1="35.3826" x2="378.611" y2="35.3826" gradientUnits="userSpaceOnUse">
<stop stop-color="#1884E8"/>
<stop offset="0.453125" stop-color="#149BBE"/>
<stop offset="1" stop-color="#14BD80"/>
</linearGradient>
<linearGradient id="paint17_linear_518_572" x1="348.318" y1="36.75" x2="380.114" y2="36.75" gradientUnits="userSpaceOnUse">
<stop stop-color="#1884E8"/>
<stop offset="0.453125" stop-color="#149BBE"/>
<stop offset="1" stop-color="#14BD80"/>
</linearGradient>
<linearGradient id="paint18_linear_518_572" x1="348.318" y1="38.1154" x2="381.612" y2="38.1154" gradientUnits="userSpaceOnUse">
<stop stop-color="#1884E8"/>
<stop offset="0.453125" stop-color="#149BBE"/>
<stop offset="1" stop-color="#14BD80"/>
</linearGradient>
<linearGradient id="paint19_linear_518_572" x1="33.7771" y1="55.4234" x2="184.832" y2="135.033" gradientUnits="userSpaceOnUse">
<stop stop-color="white" stop-opacity="0.1"/>
<stop offset="0.14" stop-color="white" stop-opacity="0.08"/>
<stop offset="0.61" stop-color="white" stop-opacity="0.02"/>
<stop offset="1" stop-color="white" stop-opacity="0"/>
</linearGradient>
<clipPath id="clip0_518_572">
<rect width="400" height="222.11" fill="white"/>
</clipPath>
</defs>
</svg>
