<svg width="400" height="223" viewBox="0 0 400 223" fill="none" xmlns="http://www.w3.org/2000/svg">
<g clip-path="url(#clip0_521_1915)">
<rect width="400" height="222.11" fill="white"/>
<rect width="400" height="222.111" fill="url(#paint0_linear_521_1915)"/>
<g filter="url(#filter0_d_521_1915)">
<path d="M68 222L199.573 0H400V222H68Z" fill="#1253E0"/>
</g>
<g filter="url(#filter1_d_521_1915)">
<path d="M232.278 87.635L225.706 125H215.265L221.89 87.635H232.278ZM232.523 110.107C233.088 106.998 234.201 104.312 235.862 102.051C237.558 99.7543 239.642 97.9877 242.116 96.751C244.624 95.5143 247.345 94.896 250.278 94.896C254.058 94.896 257.062 95.9383 259.288 98.023C261.514 100.072 262.68 102.952 262.786 106.662H251.709C251.426 104.719 250.348 103.747 248.476 103.747C247.168 103.747 246.038 104.295 245.084 105.39C244.13 106.45 243.476 108.022 243.123 110.107C242.981 110.814 242.911 111.52 242.911 112.227C242.911 113.64 243.211 114.718 243.812 115.46C244.412 116.167 245.225 116.52 246.25 116.52C248.158 116.52 249.553 115.548 250.437 113.605H261.514C260.136 117.28 257.963 120.159 254.995 122.244C252.062 124.329 248.688 125.371 244.872 125.371C240.985 125.371 237.893 124.311 235.597 122.191C233.335 120.071 232.205 117.156 232.205 113.446C232.205 112.386 232.311 111.273 232.523 110.107ZM277.595 125.371C275.016 125.371 272.719 124.859 270.705 123.834C268.726 122.809 267.189 121.361 266.094 119.488C264.999 117.615 264.451 115.425 264.451 112.916C264.451 109.524 265.246 106.45 266.836 103.694C268.461 100.938 270.687 98.7827 273.514 97.228C276.341 95.6733 279.503 94.896 283.001 94.896C285.58 94.896 287.859 95.4083 289.838 96.433C291.852 97.4577 293.407 98.924 294.502 100.832C295.633 102.705 296.198 104.895 296.198 107.404C296.198 110.831 295.385 113.923 293.76 116.679C292.135 119.4 289.909 121.537 287.082 123.092C284.255 124.611 281.093 125.371 277.595 125.371ZM279.185 116.414C280.422 116.414 281.517 116.025 282.471 115.248C283.46 114.471 284.202 113.464 284.697 112.227C285.227 110.99 285.492 109.718 285.492 108.411C285.492 106.927 285.103 105.796 284.326 105.019C283.584 104.242 282.612 103.853 281.411 103.853C280.139 103.853 279.026 104.242 278.072 105.019C277.153 105.796 276.429 106.803 275.899 108.04C275.404 109.277 275.157 110.566 275.157 111.909C275.157 113.393 275.528 114.524 276.27 115.301C277.012 116.043 277.984 116.414 279.185 116.414ZM322.26 95.002C325.158 95.002 327.419 95.85 329.044 97.546C330.705 99.2067 331.535 101.521 331.535 104.489C331.535 105.478 331.429 106.538 331.217 107.669L328.143 125H317.755L320.564 109.047C320.67 108.517 320.723 108.04 320.723 107.616C320.723 106.344 320.352 105.355 319.61 104.648C318.904 103.941 317.897 103.588 316.589 103.588C315.105 103.588 313.851 104.047 312.826 104.966C311.802 105.885 311.113 107.157 310.759 108.782L307.897 125H297.456L302.756 95.267H313.144L312.402 99.507C313.568 98.1643 314.999 97.0867 316.695 96.274C318.391 95.426 320.246 95.002 322.26 95.002ZM346.775 125.371C344.302 125.371 342.094 125 340.15 124.258C338.207 123.516 336.688 122.474 335.592 121.131C334.497 119.753 333.949 118.181 333.949 116.414C333.949 116.096 333.985 115.619 334.055 114.983H344.072C344.037 115.972 344.337 116.732 344.973 117.262C345.609 117.792 346.493 118.057 347.623 118.057C348.507 118.057 349.231 117.88 349.796 117.527C350.397 117.174 350.697 116.714 350.697 116.149C350.697 115.478 350.326 114.965 349.584 114.612C348.842 114.223 347.606 113.746 345.874 113.181C343.86 112.545 342.2 111.927 340.892 111.326C339.585 110.725 338.437 109.842 337.447 108.676C336.493 107.51 336.016 106.008 336.016 104.171C336.016 102.404 336.529 100.814 337.553 99.401C338.613 97.9877 340.097 96.8923 342.005 96.115C343.913 95.3023 346.122 94.896 348.63 94.896C351.316 94.896 353.63 95.3553 355.573 96.274C357.552 97.1573 359.018 98.394 359.972 99.984C360.962 101.574 361.403 103.341 361.297 105.284H351.969C352.005 104.33 351.722 103.588 351.121 103.058C350.521 102.493 349.655 102.21 348.524 102.21C347.712 102.21 347.04 102.387 346.51 102.74C345.98 103.093 345.715 103.553 345.715 104.118C345.715 104.789 346.086 105.319 346.828 105.708C347.606 106.097 348.895 106.591 350.697 107.192C352.676 107.828 354.319 108.464 355.626 109.1C356.969 109.701 358.117 110.566 359.071 111.697C360.025 112.792 360.502 114.206 360.502 115.937C360.502 118.87 359.23 121.184 356.686 122.88C354.142 124.541 350.839 125.371 346.775 125.371Z" fill="white"/>
</g>
<mask id="mask0_521_1915" style="mask-type:alpha" maskUnits="userSpaceOnUse" x="352" y="13" width="24" height="24">
<circle r="11.6056" transform="matrix(-4.37114e-08 1 1 4.37114e-08 363.96 24.6056)" fill="#C4C4C4"/>
</mask>
<g mask="url(#mask0_521_1915)">
<path d="M356.117 8.81607C356.117 8.81607 355.226 13.624 352.109 14.8645C349.121 16.0509 348.318 20.9379 348.318 20.9379" stroke="url(#paint1_linear_521_1915)" stroke-width="0.25" stroke-miterlimit="10"/>
<path d="M357.615 8.81607C357.615 8.81607 356.587 14.7146 352.825 16.234C349.233 17.6827 348.318 23.6728 348.318 23.6728" stroke="url(#paint2_linear_521_1915)" stroke-width="0.25" stroke-miterlimit="10"/>
<path d="M359.117 8.81607C359.117 8.81607 357.948 15.8011 353.549 17.5994C349.342 19.3145 348.318 26.4077 348.318 26.4077" stroke="url(#paint3_linear_521_1915)" stroke-width="0.25" stroke-miterlimit="10"/>
<path d="M360.616 8.81607C360.616 8.81607 359.309 16.8917 354.265 18.9689C349.454 20.9462 348.318 29.1426 348.318 29.1426" stroke="url(#paint4_linear_521_1915)" stroke-width="0.25" stroke-miterlimit="10"/>
<path d="M362.114 8.81607C362.114 8.81607 360.67 17.9824 354.985 20.3385C349.566 22.578 348.318 31.8734 348.318 31.8734" stroke="url(#paint5_linear_521_1915)" stroke-width="0.25" stroke-miterlimit="10"/>
<path d="M363.616 8.81607C363.616 8.81607 362.035 19.0689 355.705 21.7039C349.674 24.214 348.318 34.6083 348.318 34.6083" stroke="url(#paint6_linear_521_1915)" stroke-width="0.25" stroke-miterlimit="10"/>
<path d="M365.115 8.81607C365.115 8.81607 363.392 20.1595 356.425 23.0734C349.787 25.8458 348.318 37.3432 348.318 37.3432" stroke="url(#paint7_linear_521_1915)" stroke-width="0.25" stroke-miterlimit="10"/>
<path d="M366.613 8.81607C366.613 8.81607 364.753 21.2501 357.141 24.4388C349.899 27.4775 348.318 40.0781 348.318 40.0781" stroke="url(#paint8_linear_521_1915)" stroke-width="0.25" stroke-miterlimit="10"/>
<path d="M368.115 8.81607C368.115 8.81607 366.118 22.3366 357.865 25.8083C350.007 29.1093 348.318 42.8089 348.318 42.8089" stroke="url(#paint9_linear_521_1915)" stroke-width="0.25" stroke-miterlimit="10"/>
<path d="M369.613 8.81607C369.613 8.81607 367.478 23.4272 358.585 27.1737C350.12 30.7411 348.318 45.5438 348.318 45.5438" stroke="url(#paint10_linear_521_1915)" stroke-width="0.25" stroke-miterlimit="10"/>
<path d="M371.116 8.81607C371.116 8.81607 368.839 24.5178 359.305 28.5432C350.232 32.3729 348.318 48.2787 348.318 48.2787" stroke="url(#paint11_linear_521_1915)" stroke-width="0.25" stroke-miterlimit="10"/>
<path d="M372.614 8.81607C372.614 8.81607 370.2 25.6043 360.025 29.9086C350.34 34.0047 348.318 51.0135 348.318 51.0135" stroke="url(#paint12_linear_521_1915)" stroke-width="0.25" stroke-miterlimit="10"/>
<path d="M374.112 8.81607C374.112 8.81607 371.561 26.6949 360.741 31.2781C350.453 35.6365 348.318 53.7484 348.318 53.7484" stroke="url(#paint13_linear_521_1915)" stroke-width="0.25" stroke-miterlimit="10"/>
<path d="M375.615 8.81607C375.615 8.81607 372.922 27.7856 361.465 32.6477C350.565 37.2683 348.318 56.4792 348.318 56.4792" stroke="url(#paint14_linear_521_1915)" stroke-width="0.25" stroke-miterlimit="10"/>
<path d="M377.113 8.81607C377.113 8.81607 374.283 28.8721 362.181 34.013C350.673 38.9001 348.318 59.2141 348.318 59.2141" stroke="url(#paint15_linear_521_1915)" stroke-width="0.25" stroke-miterlimit="10"/>
<path d="M378.611 8.81607C378.611 8.81607 375.644 29.9627 362.901 35.3826C350.786 40.5318 348.318 61.949 348.318 61.949" stroke="url(#paint16_linear_521_1915)" stroke-width="0.25" stroke-miterlimit="10"/>
<path d="M380.114 8.81607C380.114 8.81607 377.009 31.0533 363.621 36.7479C350.898 42.1636 348.318 64.6839 348.318 64.6839" stroke="url(#paint17_linear_521_1915)" stroke-width="0.25" stroke-miterlimit="10"/>
<path d="M381.612 8.81607C381.612 8.81607 378.366 32.1398 364.34 38.1175C351.006 43.7954 348.318 67.4148 348.318 67.4148" stroke="url(#paint18_linear_521_1915)" stroke-width="0.25" stroke-miterlimit="10"/>
</g>
<path fill-rule="evenodd" clip-rule="evenodd" d="M340.112 18.0548H338L338.988 25.9609H340.826L343.053 21.1663H343.115L343.737 25.9609H345.578L349.187 18.0548H347.08L345.026 23.247H344.964L344.455 18.0548H342.733L340.517 23.2354H340.451L340.112 18.0548ZM342.835 18.2101L340.619 23.3907H340.306L339.966 18.2101H338.176L339.125 25.8056H340.727L342.954 21.011H343.251L343.873 25.8056H345.478L348.946 18.2101H347.185L345.131 23.4023H344.823L344.314 18.2101H342.835ZM350.432 20.3402C349.948 20.5949 349.547 20.9527 349.228 21.4133C348.911 21.8714 348.702 22.4068 348.599 23.0193C348.493 23.6498 348.523 24.1941 348.687 24.6522C348.852 25.1077 349.138 25.459 349.544 25.7061C349.954 25.9506 350.468 26.0728 351.089 26.0728C351.608 26.0728 352.077 25.9943 352.494 25.8373C352.913 25.6778 353.268 25.4552 353.559 25.1695C353.811 24.9199 354.006 24.6327 354.144 24.3078C354.165 24.2575 354.185 24.2063 354.204 24.1542L352.482 24.104C352.41 24.2353 352.316 24.3472 352.2 24.4399C352.087 24.53 351.958 24.5982 351.814 24.6445C351.67 24.6882 351.516 24.7101 351.351 24.7101C351.104 24.7101 350.902 24.6638 350.745 24.5711C350.588 24.4759 350.477 24.3395 350.413 24.1619C350.356 24.0051 350.34 23.8201 350.366 23.6069C350.369 23.5788 350.373 23.5502 350.378 23.5211L350.391 23.4516H354.339L354.412 22.9807C354.495 22.4943 354.497 22.0632 354.42 21.6874C354.343 21.3117 354.197 20.9951 353.984 20.7378C353.77 20.4778 353.5 20.2823 353.173 20.151C352.846 20.0197 352.472 19.9541 352.05 19.9541C351.455 19.9541 350.916 20.0828 350.432 20.3402ZM354.206 23.2963L354.259 22.9547C354.339 22.4821 354.34 22.0711 354.268 21.7187C354.195 21.3642 354.059 21.072 353.864 20.837C353.668 20.5981 353.419 20.4171 353.115 20.2951C352.81 20.1726 352.456 20.1094 352.05 20.1094C351.479 20.1094 350.965 20.2328 350.505 20.4773C350.044 20.7201 349.661 21.0611 349.356 21.5018C349.053 21.939 348.851 22.4524 348.752 23.045C348.649 23.6571 348.68 24.1731 348.833 24.5995C348.986 25.0221 349.249 25.3448 349.625 25.5731C350.003 25.7993 350.488 25.9175 351.089 25.9175C351.593 25.9175 352.042 25.8414 352.439 25.6921C352.84 25.5394 353.176 25.3279 353.45 25.0589C353.673 24.8381 353.848 24.5864 353.976 24.303L352.569 24.2619C352.495 24.3758 352.404 24.4758 352.297 24.5612C352.169 24.6634 352.023 24.7405 351.862 24.7923L351.859 24.7931C351.699 24.8417 351.53 24.8654 351.351 24.8654C351.086 24.8654 350.854 24.8158 350.666 24.7049L350.664 24.7039C350.476 24.5898 350.343 24.4247 350.267 24.2148C350.202 24.0346 350.185 23.8305 350.21 23.6069H349.007L349.23 22.2H350.473C350.524 22.0387 350.602 21.8898 350.707 21.7542C350.847 21.575 351.017 21.432 351.216 21.3264C351.422 21.2166 351.642 21.1615 351.876 21.1615C352.104 21.1615 352.308 21.2115 352.479 21.3201C352.651 21.4249 352.777 21.5728 352.854 21.7598C352.931 21.9476 352.948 22.1558 352.914 22.3789L352.893 22.5106H350.72L350.577 23.2963H354.206ZM350.404 22.5106L350.261 23.2963H349.371L349.496 22.5106H350.404ZM350.592 22.3553C350.603 22.3021 350.618 22.2503 350.637 22.2C350.682 22.0741 350.746 21.9573 350.83 21.8496C350.956 21.6874 351.109 21.5588 351.289 21.4635C351.472 21.3657 351.668 21.3168 351.876 21.3168C352.082 21.3168 352.256 21.3619 352.397 21.4519C352.541 21.5395 352.646 21.6617 352.71 21.8187C352.774 21.9757 352.791 22.1545 352.76 22.3553H350.592ZM358.409 18.0548H356.521L355.208 25.9609H357.077L357.231 24.9996H357.305C357.306 25.0037 357.307 25.0078 357.308 25.0119C357.322 25.0666 357.34 25.1203 357.361 25.1729C357.408 25.2916 357.472 25.405 357.552 25.5131C357.673 25.6726 357.834 25.8013 358.034 25.8991C358.238 25.9969 358.489 26.0458 358.787 26.0458C359.225 26.0458 359.641 25.9326 360.038 25.7061C360.437 25.4796 360.78 25.1399 361.069 24.687C361.357 24.234 361.556 23.6717 361.667 23C361.783 22.3025 361.767 21.7286 361.621 21.2782C361.474 20.8279 361.24 20.4946 360.918 20.2784C360.596 20.0622 360.23 19.9541 359.818 19.9541C359.506 19.9541 359.23 20.0082 358.988 20.1163C358.746 20.2218 358.539 20.3582 358.366 20.5255C358.272 20.6182 358.188 20.7129 358.115 20.8095C358.056 20.8873 358.003 20.9663 357.957 21.0466H357.918L358.409 18.0548ZM358.475 20.6364C358.314 20.7951 358.187 20.9576 358.092 21.1237L358.047 21.2019H357.736L358.226 18.2101H356.653L355.392 25.8056H356.945L357.099 24.8443H357.426L357.455 24.9615C357.496 25.1232 357.569 25.2758 357.676 25.4198C357.78 25.5574 357.921 25.6711 358.102 25.7593C358.278 25.8442 358.505 25.8905 358.787 25.8905C359.196 25.8905 359.587 25.7849 359.961 25.5713C360.334 25.3593 360.661 25.0388 360.938 24.6036C361.212 24.1724 361.406 23.6311 361.514 22.9747C361.627 22.2907 361.609 21.7442 361.473 21.3263C361.335 20.9014 361.118 20.6001 360.831 20.4073C360.537 20.2094 360.201 20.1094 359.818 20.1094C359.524 20.1094 359.27 20.1603 359.051 20.258L359.05 20.2586C358.824 20.3573 358.633 20.4836 358.475 20.6364ZM357.826 24.382C357.687 24.2507 357.593 24.0667 357.544 23.8299C357.498 23.5932 357.5 23.3152 357.552 22.9961C357.603 22.6718 357.691 22.3926 357.814 22.1584C357.94 21.9242 358.095 21.7441 358.277 21.6179C358.463 21.4918 358.671 21.4288 358.903 21.4288C359.137 21.4288 359.324 21.4931 359.463 21.6218C359.602 21.7505 359.693 21.9319 359.737 22.1661C359.783 22.4003 359.78 22.677 359.729 22.9961C359.678 23.3152 359.59 23.5932 359.466 23.8299C359.343 24.0667 359.19 24.2507 359.007 24.382C358.824 24.5107 358.617 24.575 358.386 24.575C358.154 24.575 357.967 24.5107 357.826 24.382ZM359.889 22.137C359.94 22.3942 359.936 22.69 359.882 23.0208C359.829 23.3531 359.737 23.6475 359.604 23.9018C359.471 24.1561 359.304 24.3603 359.098 24.5081L359.097 24.509C358.887 24.6568 358.648 24.7303 358.386 24.7303C358.124 24.7303 357.897 24.6568 357.721 24.4969L357.719 24.4949C357.552 24.3366 357.446 24.121 357.392 23.8614L357.392 23.8598C357.341 23.6001 357.345 23.303 357.398 22.9717" fill="#39EFAD"/>
<path fill-rule="evenodd" clip-rule="evenodd" d="M365.212 23.6444H368.814L369.076 22.0926H363.564L362.251 29.9986H367.764L368.026 28.4468H364.424L364.687 26.8215H368.007L368.269 25.2658H364.949L365.212 23.6444ZM368.086 25.4211H364.767L365.08 23.4891H368.682L368.892 22.2479H363.695L362.434 29.8433H367.632L367.842 28.6021H364.242L364.555 26.6662H367.876L368.086 25.4211ZM371.881 24.0691H369.966L371.109 27.0339L368.893 29.9986H370.807L372.193 28.0298L372.958 29.9986H374.845L373.622 27.0339L375.772 24.0691H373.869L372.529 26.0224L371.881 24.0691ZM373.951 24.2244L372.48 26.3682L371.769 24.2244H370.192L371.284 27.0581L369.203 29.8433H370.727L372.233 27.7034L373.064 29.8433H374.613L373.445 27.0129L375.467 24.2244H373.951ZM378.848 24.0691H376.979L375.613 32.2222H377.508L378.033 29.0374H378.087C378.088 29.0405 378.089 29.0436 378.089 29.0467C378.107 29.1137 378.129 29.1792 378.157 29.2431C378.202 29.3501 378.261 29.4526 378.334 29.5508C378.453 29.7104 378.613 29.8391 378.817 29.9369C379.023 30.0347 379.275 30.0836 379.573 30.0836C380.008 30.0836 380.424 29.9703 380.82 29.7438C381.217 29.5174 381.559 29.1777 381.847 28.7247C382.138 28.2717 382.339 27.7094 382.449 27.0377C382.565 26.3403 382.55 25.7664 382.403 25.316C382.256 24.8656 382.022 24.5323 381.7 24.3161C381.379 24.1 381.012 23.9919 380.6 23.9919C380.289 23.9919 380.012 24.0459 379.77 24.154C379.528 24.2595 379.321 24.3959 379.149 24.5632C379.044 24.6665 378.952 24.7723 378.872 24.8805C378.823 24.9475 378.779 25.0155 378.739 25.0844H378.682L378.848 24.0691ZM379.257 24.6743C379.096 24.8329 378.969 24.9954 378.874 25.1614L378.83 25.2397H378.499L378.665 24.2244H377.111L375.796 32.0669H377.376L377.901 28.8821H378.208L378.238 28.9992C378.279 29.1613 378.352 29.3141 378.459 29.4583C378.56 29.595 378.7 29.7085 378.884 29.7968C379.063 29.882 379.291 29.9283 379.573 29.9283C379.98 29.9283 380.369 29.8228 380.743 29.609C381.114 29.3971 381.439 29.0767 381.716 28.6413L381.716 28.6408C381.993 28.2097 382.188 27.6686 382.296 27.0125C382.41 26.3285 382.391 25.7819 382.255 25.3641C382.117 24.9392 381.901 24.6379 381.614 24.445C381.319 24.2472 380.983 24.1472 380.6 24.1472C380.307 24.1472 380.052 24.198 379.834 24.2958L379.832 24.2964C379.606 24.3951 379.415 24.5214 379.257 24.6743ZM378.608 28.4197C378.467 28.2885 378.373 28.1045 378.326 27.8677C378.28 27.6309 378.283 27.353 378.334 27.0339C378.386 26.7096 378.473 26.4303 378.597 26.1961C378.72 25.962 378.875 25.7818 379.06 25.6557C379.248 25.5296 379.456 25.4665 379.685 25.4665C379.919 25.4665 380.106 25.5309 380.245 25.6596C380.384 25.7882 380.475 25.9697 380.519 26.2039C380.565 26.4381 380.564 26.7147 380.515 27.0339C380.459 27.353 380.369 27.6309 380.245 27.8677C380.122 28.1045 379.968 28.2885 379.786 28.4197C379.606 28.5484 379.4 28.6127 379.168 28.6127C378.939 28.6127 378.752 28.5484 378.608 28.4197ZM378.181 27.0095C378.127 27.3408 378.123 27.6379 378.174 27.8975C378.225 28.1584 378.332 28.3749 378.503 28.5336L378.505 28.5356C378.683 28.6942 378.908 28.768 379.168 28.768C379.43 28.768 379.668 28.6945 379.876 28.5461L379.876 28.5459C380.082 28.398 380.25 28.1938 380.383 27.9395C380.515 27.6861 380.609 27.3925 380.668 27.061L380.669 27.0574C380.719 26.7266 380.722 26.4312 380.672 26.1745C380.623 25.9164 380.52 25.7021 380.351 25.5456C380.176 25.3844 379.949 25.3112 379.685 25.3112C379.426 25.3112 379.187 25.3832 378.973 25.5267L378.973 25.5273C378.763 25.6701 378.593 25.8711 378.459 26.1237C378.326 26.376 378.234 26.6723 378.181 27.0095ZM385.373 24.3779C384.889 24.6327 384.487 24.9904 384.168 25.4511C383.852 25.9092 383.642 26.4445 383.539 27.057C383.433 27.6875 383.463 28.2319 383.628 28.69C383.792 29.1455 384.078 29.4968 384.485 29.7438C384.894 29.9883 385.409 30.1106 386.029 30.1106C386.549 30.1106 387.017 30.0321 387.434 29.8751C387.853 29.7155 388.209 29.4929 388.499 29.2072C388.751 28.9577 388.946 28.6704 389.084 28.3456C389.105 28.2953 389.125 28.2441 389.144 28.192L387.422 28.1418C387.35 28.273 387.256 28.385 387.141 28.4776C387.027 28.5677 386.899 28.6359 386.755 28.6822C386.61 28.726 386.456 28.7479 386.291 28.7479C386.044 28.7479 385.842 28.7015 385.685 28.6089C385.528 28.5137 385.418 28.3773 385.353 28.1997C385.296 28.0428 385.281 27.8578 385.306 27.6447C385.31 27.6166 385.314 27.588 385.318 27.5589L385.331 27.4894H389.279L389.353 27.0184C389.435 26.532 389.438 26.1009 389.36 25.7252C389.283 25.3494 389.138 25.0329 388.924 24.7755C388.71 24.5156 388.44 24.32 388.113 24.1887C387.787 24.0575 387.412 23.9919 386.99 23.9919C386.396 23.9919 385.856 24.1205 385.373 24.3779ZM389.146 27.3341L389.199 26.9925C389.279 26.5199 389.281 26.1088 389.208 25.7564C389.135 25.402 389 25.1097 388.805 24.8747L388.804 24.8741C388.608 24.6353 388.359 24.4549 388.056 24.3329C387.75 24.2103 387.396 24.1472 386.99 24.1472C386.419 24.1472 385.905 24.2706 385.445 24.515L385.445 24.5153C384.984 24.7582 384.601 25.0989 384.296 25.5395C383.994 25.9768 383.792 26.4901 383.692 27.0826C383.59 27.6948 383.62 28.2109 383.774 28.6373C383.927 29.0599 384.189 29.3825 384.565 29.6108C384.944 29.837 385.429 29.9553 386.029 29.9553C386.533 29.9553 386.982 29.8792 387.379 29.7299C387.78 29.5772 388.116 29.3657 388.39 29.0966C388.613 28.8758 388.788 28.6241 388.917 28.3407L387.509 28.2997C387.435 28.4136 387.344 28.5135 387.238 28.5989L387.237 28.5992C387.109 28.7014 386.963 28.7783 386.802 28.8301L386.8 28.8309C386.64 28.8794 386.47 28.9032 386.291 28.9032C386.026 28.9032 385.794 28.8535 385.606 28.7426L385.605 28.7417C385.416 28.6275 385.283 28.4624 385.207 28.2526C385.142 28.0724 385.125 27.8682 385.15 27.6447H383.948L384.171 26.2377H385.413C385.464 26.0764 385.542 25.9276 385.648 25.792C385.787 25.6127 385.957 25.4697 386.157 25.3642C386.362 25.2544 386.583 25.1993 386.816 25.1993C387.044 25.1993 387.248 25.2492 387.419 25.3578C387.591 25.4626 387.717 25.6105 387.794 25.7975C387.871 25.9854 387.888 26.1935 387.854 26.4166L387.834 26.5483H385.66L385.517 27.3341H389.146ZM385.345 26.5483L385.202 27.3341H384.311L384.436 26.5483H385.345ZM385.532 26.393C385.544 26.3398 385.559 26.288 385.577 26.2377C385.622 26.1118 385.686 25.995 385.77 25.8873C385.896 25.7252 386.049 25.5965 386.23 25.5013C386.412 25.4035 386.608 25.3546 386.816 25.3546C387.022 25.3546 387.196 25.3996 387.337 25.4897C387.482 25.5772 387.586 25.6994 387.65 25.8564C387.714 26.0134 387.731 26.1923 387.7 26.393H385.532Z" fill="#39EFAD"/>
<path d="M339.609 25.3397L338.621 17.4336H340.733L341.073 22.6143H341.138L343.354 17.4336H345.076L345.585 22.6258H345.647L347.701 17.4336H349.809L346.199 25.3397H344.358L343.736 20.5451H343.674L341.447 25.3397H339.609Z" fill="white"/>
<path d="M351.71 25.4516C351.09 25.4516 350.575 25.3294 350.166 25.0849C349.759 24.8378 349.473 24.4865 349.309 24.031C349.144 23.5729 349.114 23.0286 349.22 22.3981C349.323 21.7856 349.533 21.2503 349.849 20.7922C350.168 20.3315 350.57 19.9738 351.054 19.719C351.537 19.4616 352.077 19.3329 352.671 19.3329C353.093 19.3329 353.468 19.3986 353.794 19.5298C354.121 19.6611 354.391 19.8567 354.605 20.1166C354.819 20.374 354.964 20.6905 355.041 21.0662C355.118 21.442 355.116 21.8731 355.034 22.3595L354.96 22.8304H349.81L349.984 21.7341H353.381C353.412 21.5334 353.395 21.3545 353.331 21.1975C353.267 21.0405 353.163 20.9183 353.018 20.8308C352.877 20.7407 352.703 20.6956 352.497 20.6956C352.289 20.6956 352.093 20.7445 351.911 20.8423C351.73 20.9376 351.577 21.0662 351.451 21.2284C351.325 21.3905 351.243 21.5732 351.204 21.7766L350.999 22.8999C350.958 23.1496 350.97 23.3632 351.034 23.5408C351.099 23.7183 351.209 23.8547 351.366 23.95C351.523 24.0426 351.725 24.0889 351.972 24.0889C352.137 24.0889 352.291 24.0671 352.436 24.0233C352.58 23.977 352.708 23.9088 352.822 23.8187C352.937 23.7261 353.031 23.6141 353.103 23.4828L354.825 23.533C354.686 23.9216 354.471 24.2601 354.18 24.5483C353.89 24.834 353.534 25.0566 353.115 25.2162C352.698 25.3731 352.23 25.4516 351.71 25.4516Z" fill="white"/>
<path d="M355.83 25.3397L357.142 17.4336H359.03L358.54 20.4254H358.578C358.681 20.2453 358.818 20.0716 358.987 19.9043C359.16 19.737 359.367 19.6006 359.609 19.4951C359.851 19.387 360.128 19.3329 360.439 19.3329C360.851 19.3329 361.218 19.441 361.539 19.6572C361.861 19.8734 362.095 20.2067 362.242 20.657C362.388 21.1074 362.404 21.6813 362.288 22.3788C362.177 23.0505 361.978 23.6128 361.69 24.0658C361.402 24.5187 361.058 24.8584 360.659 25.0849C360.263 25.3114 359.846 25.4246 359.408 25.4246C359.11 25.4246 358.859 25.3757 358.655 25.2779C358.455 25.1801 358.294 25.0515 358.173 24.8919C358.055 24.7323 357.972 24.5612 357.926 24.3785H357.853L357.698 25.3397H355.83ZM358.173 22.3749C358.121 22.694 358.119 22.972 358.165 23.2088C358.214 23.4455 358.308 23.6295 358.447 23.7608C358.589 23.8895 358.775 23.9538 359.007 23.9538C359.238 23.9538 359.446 23.8895 359.628 23.7608C359.811 23.6295 359.964 23.4455 360.088 23.2088C360.211 22.972 360.299 22.694 360.35 22.3749C360.402 22.0558 360.404 21.7791 360.358 21.5449C360.314 21.3107 360.223 21.1293 360.084 21.0006C359.945 20.8719 359.758 20.8076 359.524 20.8076C359.292 20.8076 359.084 20.8707 358.899 20.9968C358.716 21.1229 358.562 21.303 358.435 21.5372C358.312 21.7714 358.224 22.0506 358.173 22.3749Z" fill="white"/>
<path d="M362.872 29.3774L364.185 21.4714H369.697L369.435 23.0232H365.833L365.571 24.6446H368.891L368.628 26.2003H365.308L365.046 27.8256H368.647L368.385 29.3774H362.872Z" fill="white"/>
<path d="M372.502 23.4479L373.15 25.4012L374.49 23.4479H376.393L374.243 26.4127L375.467 29.3774H373.579L372.815 27.4086L371.429 29.3774H369.514L371.73 26.4127L370.587 23.4479H372.502Z" fill="white"/>
<path d="M376.234 31.601L377.6 23.4479H379.469L379.303 24.4632H379.361C379.464 24.283 379.6 24.1093 379.77 23.942C379.942 23.7747 380.15 23.6383 380.391 23.5328C380.633 23.4247 380.91 23.3707 381.221 23.3707C381.633 23.3707 382 23.4788 382.322 23.695C382.643 23.9111 382.878 24.2444 383.024 24.6948C383.171 25.1452 383.186 25.7191 383.071 26.4165C382.96 27.0882 382.759 27.6506 382.468 28.1035C382.18 28.5565 381.838 28.8962 381.441 29.1227C381.045 29.3491 380.629 29.4624 380.195 29.4624C379.896 29.4624 379.644 29.4135 379.438 29.3157C379.235 29.2179 379.074 29.0892 378.955 28.9296C378.837 28.7701 378.755 28.5989 378.708 28.4162H378.654L378.129 31.601H376.234ZM378.955 26.4127C378.904 26.7318 378.901 27.0097 378.948 27.2465C378.994 27.4833 379.088 27.6673 379.229 27.7985C379.374 27.9272 379.56 27.9916 379.789 27.9916C380.021 27.9916 380.227 27.9272 380.407 27.7985C380.59 27.6673 380.743 27.4833 380.866 27.2465C380.99 27.0097 381.08 26.7318 381.136 26.4127C381.185 26.0935 381.187 25.8169 381.14 25.5827C381.097 25.3485 381.005 25.167 380.866 25.0384C380.727 24.9097 380.541 24.8454 380.307 24.8454C380.077 24.8454 379.869 24.9084 379.681 25.0345C379.496 25.1606 379.341 25.3408 379.218 25.575C379.094 25.8092 379.007 26.0884 378.955 26.4127Z" fill="white"/>
<path d="M386.65 29.4894C386.03 29.4894 385.515 29.3671 385.106 29.1227C384.699 28.8756 384.414 28.5243 384.249 28.0688C384.084 27.6107 384.055 27.0664 384.16 26.4358C384.263 25.8233 384.473 25.288 384.789 24.8299C385.108 24.3692 385.51 24.0115 385.994 23.7567C386.478 23.4994 387.017 23.3707 387.611 23.3707C388.033 23.3707 388.408 23.4363 388.735 23.5676C389.061 23.6988 389.332 23.8944 389.545 24.1543C389.759 24.4117 389.904 24.7283 389.982 25.104C390.059 25.4797 390.056 25.9108 389.974 26.3972L389.9 26.8682H384.751L384.924 25.7718H388.322C388.352 25.5711 388.336 25.3922 388.271 25.2352C388.207 25.0783 388.103 24.956 387.959 24.8685C387.817 24.7784 387.643 24.7334 387.438 24.7334C387.229 24.7334 387.033 24.7823 386.851 24.8801C386.671 24.9753 386.517 25.104 386.391 25.2661C386.265 25.4283 386.183 25.611 386.144 25.8143L385.94 26.9377C385.899 27.1873 385.91 27.4009 385.974 27.5785C386.039 27.7561 386.149 27.8925 386.306 27.9877C386.463 28.0804 386.665 28.1267 386.913 28.1267C387.077 28.1267 387.232 28.1048 387.376 28.0611C387.52 28.0147 387.649 27.9465 387.762 27.8565C387.878 27.7638 387.972 27.6518 388.044 27.5206L389.765 27.5708C389.626 27.9594 389.411 28.2978 389.121 28.5861C388.83 28.8717 388.475 29.0943 388.055 29.2539C387.638 29.4109 387.17 29.4894 386.65 29.4894Z" fill="white"/>
<g filter="url(#filter2_d_521_1915)">
<path d="M334.006 167.552C333.985 167.701 333.974 167.797 333.974 167.84C333.974 168.064 334.043 168.229 334.182 168.336C334.321 168.432 334.55 168.48 334.87 168.48H335.99L335.718 170H334.278C333.574 170 333.035 169.861 332.662 169.584C332.289 169.296 332.102 168.843 332.102 168.224C332.102 167.989 332.123 167.765 332.166 167.552L333.03 162.672H331.99L332.246 161.184H333.302L333.686 158.992H335.526L335.142 161.184H337.27L337.014 162.672H334.87L334.006 167.552ZM346.935 161.184L345.383 170H343.559L343.735 168.96C343.383 169.323 342.957 169.611 342.455 169.824C341.965 170.027 341.458 170.128 340.935 170.128C340.007 170.128 339.266 169.877 338.711 169.376C338.157 168.875 337.879 168.165 337.879 167.248C337.879 167.003 337.906 166.709 337.959 166.368L338.871 161.184H340.679L339.815 166.096C339.773 166.395 339.751 166.608 339.751 166.736C339.751 167.323 339.911 167.771 340.231 168.08C340.562 168.389 341.015 168.544 341.591 168.544C342.263 168.544 342.834 168.347 343.303 167.952C343.773 167.547 344.082 166.965 344.231 166.208L345.111 161.184H346.935ZM350.35 167.552C350.329 167.701 350.318 167.797 350.318 167.84C350.318 168.064 350.387 168.229 350.526 168.336C350.665 168.432 350.894 168.48 351.214 168.48H352.334L352.062 170H350.622C349.918 170 349.379 169.861 349.006 169.584C348.633 169.296 348.446 168.843 348.446 168.224C348.446 167.989 348.467 167.765 348.51 167.552L349.374 162.672H348.334L348.59 161.184H349.646L350.03 158.992H351.87L351.486 161.184H353.614L353.358 162.672H351.214L350.35 167.552ZM357.599 170.144C356.852 170.144 356.196 169.989 355.631 169.68C355.066 169.371 354.623 168.933 354.303 168.368C353.994 167.803 353.839 167.157 353.839 166.432C353.839 165.44 354.068 164.533 354.527 163.712C354.996 162.891 355.636 162.24 356.447 161.76C357.268 161.28 358.18 161.04 359.183 161.04C359.93 161.04 360.591 161.2 361.167 161.52C361.743 161.829 362.191 162.267 362.511 162.832C362.842 163.387 363.007 164.032 363.007 164.768C363.007 165.76 362.767 166.667 362.287 167.488C361.807 168.309 361.156 168.96 360.335 169.44C359.514 169.909 358.602 170.144 357.599 170.144ZM357.823 168.608C358.431 168.608 358.986 168.437 359.487 168.096C359.999 167.744 360.399 167.285 360.687 166.72C360.975 166.144 361.119 165.531 361.119 164.88C361.119 164.144 360.911 163.579 360.495 163.184C360.079 162.779 359.556 162.576 358.927 162.576C358.308 162.576 357.754 162.752 357.263 163.104C356.783 163.445 356.404 163.909 356.127 164.496C355.86 165.072 355.727 165.691 355.727 166.352C355.727 167.067 355.919 167.621 356.303 168.016C356.698 168.411 357.204 168.608 357.823 168.608ZM367.05 162.736C367.413 162.203 367.839 161.787 368.33 161.488C368.831 161.189 369.386 161.04 369.994 161.04L369.658 162.928H369.194C368.49 162.928 367.925 163.104 367.498 163.456C367.071 163.808 366.773 164.416 366.602 165.28L365.77 170H363.946L365.498 161.184H367.322L367.05 162.736ZM372.775 160.016C372.487 160.016 372.252 159.925 372.071 159.744C371.889 159.563 371.799 159.333 371.799 159.056C371.799 158.683 371.937 158.363 372.215 158.096C372.503 157.819 372.828 157.68 373.191 157.68C373.479 157.68 373.708 157.771 373.879 157.952C374.06 158.133 374.151 158.363 374.151 158.64C374.151 159.013 374.012 159.339 373.735 159.616C373.457 159.883 373.137 160.016 372.775 160.016ZM373.463 161.184L371.911 170H370.087L371.639 161.184H373.463ZM374.482 165.552C374.642 164.667 374.962 163.883 375.442 163.2C375.932 162.517 376.53 161.989 377.234 161.616C377.938 161.232 378.674 161.04 379.442 161.04C380.135 161.04 380.716 161.179 381.186 161.456C381.655 161.723 382.007 162.059 382.242 162.464L382.466 161.184H384.306L382.753 170H380.914L381.154 168.688C380.77 169.104 380.284 169.451 379.698 169.728C379.122 170.005 378.492 170.144 377.81 170.144C377.148 170.144 376.556 169.995 376.034 169.696C375.522 169.397 375.116 168.976 374.818 168.432C374.53 167.877 374.386 167.243 374.386 166.528C374.386 166.208 374.418 165.883 374.482 165.552ZM381.698 165.584C381.74 165.381 381.762 165.163 381.762 164.928C381.762 164.213 381.548 163.653 381.122 163.248C380.706 162.832 380.183 162.624 379.554 162.624C379.084 162.624 378.626 162.741 378.178 162.976C377.73 163.2 377.34 163.536 377.01 163.984C376.679 164.421 376.46 164.944 376.354 165.552C376.311 165.755 376.289 165.973 376.289 166.208C376.289 166.933 376.498 167.509 376.914 167.936C377.34 168.352 377.868 168.56 378.498 168.56C378.967 168.56 379.426 168.443 379.874 168.208C380.322 167.973 380.711 167.632 381.042 167.184C381.372 166.725 381.591 166.192 381.698 165.584ZM389.069 158.16L386.973 170H385.149L387.245 158.16H389.069Z" fill="white"/>
</g>
<g filter="url(#filter3_d_521_1915)">
<path d="M221.153 48.04C222.038 48.04 222.747 48.2907 223.281 48.792C223.814 49.2827 224.081 49.9867 224.081 50.904C224.081 51.1493 224.054 51.448 224.001 51.8L223.073 57H221.265L222.145 52.072C222.187 51.7733 222.209 51.56 222.209 51.432C222.209 50.8453 222.043 50.3973 221.713 50.088C221.393 49.7787 220.945 49.624 220.369 49.624C219.675 49.624 219.089 49.8373 218.609 50.264C218.139 50.68 217.841 51.2827 217.713 52.072V52.04L216.833 57H215.009L217.105 45.16H218.929L218.209 49.208C218.582 48.8347 219.025 48.5467 219.537 48.344C220.049 48.1413 220.587 48.04 221.153 48.04ZM229.255 57.144C228.509 57.144 227.853 56.9893 227.287 56.68C226.722 56.3707 226.279 55.9333 225.959 55.368C225.65 54.8027 225.495 54.1573 225.495 53.432C225.495 52.44 225.725 51.5333 226.183 50.712C226.653 49.8907 227.293 49.24 228.103 48.76C228.925 48.28 229.837 48.04 230.839 48.04C231.586 48.04 232.247 48.2 232.823 48.52C233.399 48.8293 233.847 49.2667 234.167 49.832C234.498 50.3867 234.663 51.032 234.663 51.768C234.663 52.76 234.423 53.6667 233.943 54.488C233.463 55.3093 232.813 55.96 231.991 56.44C231.17 56.9093 230.258 57.144 229.255 57.144ZM229.479 55.608C230.087 55.608 230.642 55.4373 231.143 55.096C231.655 54.744 232.055 54.2853 232.343 53.72C232.631 53.144 232.775 52.5307 232.775 51.88C232.775 51.144 232.567 50.5787 232.151 50.184C231.735 49.7787 231.213 49.576 230.583 49.576C229.965 49.576 229.41 49.752 228.919 50.104C228.439 50.4453 228.061 50.9093 227.783 51.496C227.517 52.072 227.383 52.6907 227.383 53.352C227.383 54.0667 227.575 54.6213 227.959 55.016C228.354 55.4107 228.861 55.608 229.479 55.608ZM248.994 48.184L244.706 57H242.786L242.178 50.488L239.234 57H237.314L236.114 48.184H237.97L238.578 55.272L241.682 48.184H243.586L244.146 55.24L247.202 48.184H248.994ZM256.162 54.552C256.141 54.7013 256.13 54.7973 256.13 54.84C256.13 55.064 256.2 55.2293 256.338 55.336C256.477 55.432 256.706 55.48 257.026 55.48H258.146L257.874 57H256.434C255.73 57 255.192 56.8613 254.818 56.584C254.445 56.296 254.258 55.8427 254.258 55.224C254.258 54.9893 254.28 54.7653 254.322 54.552L255.186 49.672H254.146L254.402 48.184H255.458L255.842 45.992H257.682L257.298 48.184H259.426L259.17 49.672H257.026L256.162 54.552ZM263.411 57.144C262.665 57.144 262.009 56.9893 261.444 56.68C260.878 56.3707 260.436 55.9333 260.116 55.368C259.806 54.8027 259.652 54.1573 259.652 53.432C259.652 52.44 259.881 51.5333 260.34 50.712C260.809 49.8907 261.449 49.24 262.26 48.76C263.081 48.28 263.993 48.04 264.996 48.04C265.742 48.04 266.404 48.2 266.98 48.52C267.556 48.8293 268.004 49.2667 268.324 49.832C268.654 50.3867 268.82 51.032 268.82 51.768C268.82 52.76 268.58 53.6667 268.1 54.488C267.62 55.3093 266.969 55.96 266.148 56.44C265.326 56.9093 264.414 57.144 263.411 57.144ZM263.636 55.608C264.244 55.608 264.798 55.4373 265.3 55.096C265.812 54.744 266.212 54.2853 266.5 53.72C266.788 53.144 266.932 52.5307 266.932 51.88C266.932 51.144 266.724 50.5787 266.308 50.184C265.892 49.7787 265.369 49.576 264.74 49.576C264.121 49.576 263.566 49.752 263.076 50.104C262.596 50.4453 262.217 50.9093 261.94 51.496C261.673 52.072 261.539 52.6907 261.539 53.352C261.539 54.0667 261.732 54.6213 262.116 55.016C262.51 55.4107 263.017 55.608 263.636 55.608ZM284.092 48.184L282.54 57H280.716L280.892 55.96C280.54 56.3227 280.113 56.6107 279.612 56.824C279.121 57.0267 278.614 57.128 278.092 57.128C277.164 57.128 276.422 56.8773 275.868 56.376C275.313 55.8747 275.036 55.1653 275.036 54.248C275.036 54.0027 275.062 53.7093 275.116 53.368L276.028 48.184H277.836L276.972 53.096C276.929 53.3947 276.908 53.608 276.908 53.736C276.908 54.3227 277.068 54.7707 277.388 55.08C277.718 55.3893 278.172 55.544 278.748 55.544C279.42 55.544 279.99 55.3467 280.46 54.952C280.929 54.5467 281.238 53.9653 281.388 53.208L282.267 48.184H284.092ZM288.194 57.144C287.586 57.144 287.031 57.0427 286.53 56.84C286.029 56.6267 285.634 56.3333 285.346 55.96C285.058 55.576 284.914 55.1387 284.914 54.648C284.914 54.5627 284.925 54.4453 284.946 54.296H286.722C286.679 54.7013 286.802 55.0373 287.09 55.304C287.378 55.5707 287.783 55.704 288.306 55.704C288.818 55.704 289.239 55.6133 289.57 55.432C289.901 55.2507 290.066 54.984 290.066 54.632C290.066 54.3333 289.927 54.0933 289.65 53.912C289.383 53.7307 288.951 53.528 288.354 53.304C287.789 53.08 287.33 52.872 286.978 52.68C286.626 52.488 286.322 52.2267 286.066 51.896C285.81 51.5547 285.682 51.1333 285.682 50.632C285.682 50.12 285.826 49.672 286.114 49.288C286.413 48.8933 286.823 48.5893 287.346 48.376C287.879 48.152 288.487 48.04 289.17 48.04C289.789 48.04 290.338 48.1467 290.818 48.36C291.309 48.5627 291.687 48.856 291.954 49.24C292.231 49.6133 292.37 50.0453 292.37 50.536C292.37 50.6853 292.365 50.7973 292.354 50.872H290.626C290.669 50.456 290.546 50.12 290.258 49.864C289.981 49.608 289.581 49.48 289.058 49.48C288.599 49.48 288.226 49.576 287.938 49.768C287.661 49.96 287.522 50.2213 287.522 50.552C287.522 50.8827 287.666 51.1493 287.954 51.352C288.242 51.544 288.685 51.7573 289.282 51.992C289.826 52.2053 290.269 52.408 290.61 52.6C290.951 52.792 291.245 53.048 291.49 53.368C291.735 53.688 291.858 54.088 291.858 54.568C291.858 55.0907 291.698 55.5493 291.378 55.944C291.069 56.328 290.637 56.6267 290.082 56.84C289.527 57.0427 288.898 57.144 288.194 57.144ZM298.869 48.04C299.968 48.04 300.842 48.3493 301.493 48.968C302.154 49.5867 302.485 50.4187 302.485 51.464C302.485 51.7093 302.458 52.0027 302.405 52.344C302.362 52.5787 302.288 52.8667 302.181 53.208H295.445C295.434 53.2827 295.429 53.3947 295.429 53.544C295.429 54.1733 295.621 54.6747 296.005 55.048C296.4 55.4213 296.912 55.608 297.541 55.608C298.533 55.608 299.296 55.1973 299.829 54.376H301.797C301.392 55.1867 300.794 55.8533 300.005 56.376C299.216 56.888 298.304 57.144 297.269 57.144C296.533 57.144 295.888 57 295.333 56.712C294.778 56.424 294.346 56.0133 294.037 55.48C293.728 54.936 293.573 54.3013 293.573 53.576C293.573 53.2667 293.605 52.936 293.669 52.584C293.829 51.6773 294.154 50.8827 294.645 50.2C295.136 49.5067 295.744 48.9733 296.469 48.6C297.205 48.2267 298.005 48.04 298.869 48.04ZM300.581 51.896C300.602 51.704 300.613 51.5653 300.613 51.48C300.613 50.8933 300.416 50.4293 300.021 50.088C299.637 49.7467 299.136 49.576 298.517 49.576C297.866 49.576 297.28 49.784 296.757 50.2C296.234 50.616 295.877 51.1813 295.685 51.896H300.581Z" fill="white"/>
</g>
<path d="M340.397 201.608L339.133 206H338.349L337.141 202.424L335.925 206H335.133L333.885 201.608H334.621L335.557 205.304L336.773 201.608H337.533L338.757 205.296L339.701 201.608H340.397ZM345.116 203.56C345.116 203.715 345.106 203.848 345.084 203.96H341.572C341.588 204.461 341.73 204.837 341.996 205.088C342.268 205.339 342.599 205.464 342.988 205.464C343.34 205.464 343.634 205.376 343.868 205.2C344.108 205.019 344.255 204.779 344.308 204.48H345.084C345.031 204.784 344.911 205.056 344.724 205.296C344.543 205.536 344.306 205.723 344.012 205.856C343.719 205.989 343.388 206.056 343.02 206.056C342.599 206.056 342.226 205.965 341.9 205.784C341.575 205.603 341.319 205.344 341.132 205.008C340.951 204.667 340.86 204.267 340.86 203.808C340.86 203.349 340.951 202.949 341.132 202.608C341.319 202.267 341.575 202.005 341.9 201.824C342.226 201.643 342.599 201.552 343.02 201.552C343.447 201.552 343.818 201.643 344.132 201.824C344.452 202.005 344.695 202.248 344.86 202.552C345.031 202.856 345.116 203.192 345.116 203.56ZM344.38 203.608C344.396 203.283 344.343 203.011 344.22 202.792C344.098 202.573 343.93 202.411 343.716 202.304C343.503 202.197 343.271 202.144 343.02 202.144C342.62 202.144 342.284 202.269 342.012 202.52C341.74 202.765 341.594 203.128 341.572 203.608H344.38ZM348.492 201.552C348.882 201.552 349.228 201.643 349.532 201.824C349.836 202.005 350.074 202.267 350.244 202.608C350.42 202.949 350.508 203.349 350.508 203.808C350.508 204.267 350.42 204.667 350.244 205.008C350.074 205.344 349.836 205.603 349.532 205.784C349.228 205.965 348.882 206.056 348.492 206.056C348.066 206.056 347.703 205.949 347.404 205.736C347.111 205.517 346.908 205.232 346.796 204.88V206H346.068V200.08H346.796V202.728C346.908 202.376 347.111 202.093 347.404 201.88C347.703 201.661 348.066 201.552 348.492 201.552ZM348.284 202.2C348.002 202.2 347.746 202.267 347.516 202.4C347.287 202.528 347.108 202.715 346.98 202.96C346.852 203.205 346.788 203.488 346.788 203.808C346.788 204.128 346.852 204.411 346.98 204.656C347.108 204.896 347.287 205.083 347.516 205.216C347.746 205.349 348.002 205.416 348.284 205.416C348.738 205.416 349.098 205.275 349.364 204.992C349.636 204.704 349.772 204.309 349.772 203.808C349.772 203.307 349.636 202.915 349.364 202.632C349.098 202.344 348.738 202.2 348.284 202.2ZM355.499 203.56C355.499 203.715 355.488 203.848 355.467 203.96H351.955C351.971 204.461 352.112 204.837 352.379 205.088C352.651 205.339 352.982 205.464 353.371 205.464C353.723 205.464 354.016 205.376 354.251 205.2C354.491 205.019 354.638 204.779 354.691 204.48H355.467C355.414 204.784 355.294 205.056 355.107 205.296C354.926 205.536 354.688 205.723 354.395 205.856C354.102 205.989 353.771 206.056 353.403 206.056C352.982 206.056 352.608 205.965 352.283 205.784C351.958 205.603 351.702 205.344 351.515 205.008C351.334 204.667 351.243 204.267 351.243 203.808C351.243 203.349 351.334 202.949 351.515 202.608C351.702 202.267 351.958 202.005 352.283 201.824C352.608 201.643 352.982 201.552 353.403 201.552C353.83 201.552 354.2 201.643 354.515 201.824C354.835 202.005 355.078 202.248 355.243 202.552C355.414 202.856 355.499 203.192 355.499 203.56ZM354.763 203.608C354.779 203.283 354.726 203.011 354.603 202.792C354.48 202.573 354.312 202.411 354.099 202.304C353.886 202.197 353.654 202.144 353.403 202.144C353.003 202.144 352.667 202.269 352.395 202.52C352.123 202.765 351.976 203.128 351.955 203.608H354.763ZM358.979 206L357.835 204.32L356.803 206H355.995L357.435 203.736L355.987 201.608H356.819L357.931 203.24L358.947 201.608H359.755L358.323 203.816L359.811 206H358.979ZM362.914 201.552C363.304 201.552 363.65 201.643 363.954 201.824C364.258 202.005 364.496 202.267 364.666 202.608C364.842 202.949 364.93 203.349 364.93 203.808C364.93 204.267 364.842 204.667 364.666 205.008C364.496 205.344 364.258 205.603 363.954 205.784C363.65 205.965 363.304 206.056 362.914 206.056C362.488 206.056 362.125 205.949 361.826 205.736C361.533 205.517 361.33 205.232 361.218 204.88V208.08H360.49V201.608H361.218V202.728C361.33 202.376 361.533 202.093 361.826 201.88C362.125 201.661 362.488 201.552 362.914 201.552ZM362.706 202.2C362.424 202.2 362.168 202.267 361.938 202.4C361.709 202.528 361.53 202.715 361.402 202.96C361.274 203.205 361.21 203.488 361.21 203.808C361.21 204.128 361.274 204.411 361.402 204.656C361.53 204.896 361.709 205.083 361.938 205.216C362.168 205.349 362.424 205.416 362.706 205.416C363.16 205.416 363.52 205.275 363.786 204.992C364.058 204.704 364.194 204.309 364.194 203.808C364.194 203.307 364.058 202.915 363.786 202.632C363.52 202.344 363.16 202.2 362.706 202.2ZM369.921 203.56C369.921 203.715 369.91 203.848 369.889 203.96H366.377C366.393 204.461 366.534 204.837 366.801 205.088C367.073 205.339 367.404 205.464 367.793 205.464C368.145 205.464 368.438 205.376 368.673 205.2C368.913 205.019 369.06 204.779 369.113 204.48H369.889C369.836 204.784 369.716 205.056 369.529 205.296C369.348 205.536 369.11 205.723 368.817 205.856C368.524 205.989 368.193 206.056 367.825 206.056C367.404 206.056 367.03 205.965 366.705 205.784C366.38 205.603 366.124 205.344 365.937 205.008C365.756 204.667 365.665 204.267 365.665 203.808C365.665 203.349 365.756 202.949 365.937 202.608C366.124 202.267 366.38 202.005 366.705 201.824C367.03 201.643 367.404 201.552 367.825 201.552C368.252 201.552 368.622 201.643 368.937 201.824C369.257 202.005 369.5 202.248 369.665 202.552C369.836 202.856 369.921 203.192 369.921 203.56ZM369.185 203.608C369.201 203.283 369.148 203.011 369.025 202.792C368.902 202.573 368.734 202.411 368.521 202.304C368.308 202.197 368.076 202.144 367.825 202.144C367.425 202.144 367.089 202.269 366.817 202.52C366.545 202.765 366.398 203.128 366.377 203.608H369.185ZM371.409 205.144V206H370.529V205.144H371.409ZM374.184 201.552C374.744 201.552 375.208 201.701 375.576 202C375.944 202.299 376.171 202.699 376.256 203.2H375.488C375.435 202.885 375.288 202.64 375.048 202.464C374.814 202.283 374.52 202.192 374.168 202.192C373.912 202.192 373.678 202.251 373.464 202.368C373.256 202.485 373.088 202.667 372.96 202.912C372.832 203.152 372.768 203.451 372.768 203.808C372.768 204.165 372.832 204.467 372.96 204.712C373.088 204.952 373.256 205.131 373.464 205.248C373.678 205.365 373.912 205.424 374.168 205.424C374.52 205.424 374.814 205.333 375.048 205.152C375.288 204.971 375.435 204.723 375.488 204.408H376.256C376.171 204.915 375.944 205.317 375.576 205.616C375.208 205.909 374.744 206.056 374.184 206.056C373.763 206.056 373.39 205.965 373.064 205.784C372.739 205.603 372.483 205.344 372.296 205.008C372.115 204.667 372.024 204.267 372.024 203.808C372.024 203.349 372.115 202.949 372.296 202.608C372.483 202.267 372.739 202.005 373.064 201.824C373.39 201.643 373.763 201.552 374.184 201.552ZM379.201 201.552C379.622 201.552 379.998 201.643 380.329 201.824C380.665 202.005 380.926 202.267 381.113 202.608C381.305 202.949 381.401 203.349 381.401 203.808C381.401 204.267 381.305 204.667 381.113 205.008C380.926 205.344 380.665 205.603 380.329 205.784C379.998 205.965 379.622 206.056 379.201 206.056C378.78 206.056 378.401 205.965 378.065 205.784C377.734 205.603 377.473 205.344 377.281 205.008C377.089 204.667 376.993 204.267 376.993 203.808C376.993 203.349 377.089 202.949 377.281 202.608C377.473 202.267 377.734 202.005 378.065 201.824C378.401 201.643 378.78 201.552 379.201 201.552ZM379.201 202.192C378.94 202.192 378.697 202.251 378.473 202.368C378.254 202.485 378.076 202.667 377.937 202.912C377.804 203.152 377.737 203.451 377.737 203.808C377.737 204.16 377.804 204.459 377.937 204.704C378.076 204.944 378.254 205.123 378.473 205.24C378.697 205.357 378.94 205.416 379.201 205.416C379.462 205.416 379.702 205.357 379.921 205.24C380.145 205.123 380.324 204.944 380.457 204.704C380.596 204.459 380.665 204.16 380.665 203.808C380.665 203.451 380.596 203.152 380.457 202.912C380.324 202.667 380.145 202.485 379.921 202.368C379.702 202.251 379.462 202.192 379.201 202.192ZM387.75 201.536C388.262 201.536 388.672 201.701 388.982 202.032C389.296 202.357 389.454 202.829 389.454 203.448V206H388.726V203.512C388.726 203.08 388.619 202.749 388.406 202.52C388.198 202.291 387.91 202.176 387.542 202.176C387.158 202.176 386.848 202.304 386.614 202.56C386.384 202.811 386.27 203.181 386.27 203.672V206H385.542V203.512C385.542 203.08 385.435 202.749 385.222 202.52C385.008 202.291 384.72 202.176 384.358 202.176C383.968 202.176 383.656 202.304 383.422 202.56C383.192 202.811 383.078 203.181 383.078 203.672V206H382.35V201.608H383.078V202.608C383.184 202.261 383.374 201.997 383.646 201.816C383.923 201.629 384.24 201.536 384.598 201.536C384.971 201.536 385.294 201.632 385.566 201.824C385.843 202.011 386.04 202.288 386.158 202.656C386.28 202.299 386.486 202.024 386.774 201.832C387.062 201.635 387.387 201.536 387.75 201.536Z" fill="white"/>
<path d="M64.0297 208.698L67.4552 209.715L73.0202 197.034L67.9645 195.534L64.0297 208.698Z" fill="#A0616A"/>
<path d="M68.2798 207.836L68.2764 207.835L64.5505 206.965L64.5471 206.964L63.6842 206.764L60.7182 214.319L60.5587 214.724L62.9924 215.448L63.1926 215.057L64.1092 213.286L64.4591 215.434L64.5341 215.903L70.9838 217.82C71.3673 217.934 71.7638 217.887 72.0975 217.714C72.4549 217.537 72.7406 217.217 72.8618 216.803C73.512 215.618 68.9692 211.286 68.503 210.359L69.1958 208.047L68.2798 207.836V207.836Z" fill="#2F2E41"/>
<path d="M85.9715 167.282L85.5727 168.307L84.4124 171.282L71.9651 202.967L63.2147 200.824C64.8617 188.852 66.0251 181.439 70.183 175.069C71.3344 173.304 72.7193 171.617 74.4059 169.935C74.4059 169.935 67.7624 169.915 59.96 169.756C59.2753 169.742 58.5792 169.728 57.8774 169.708C51.418 169.557 44.5135 169.31 40.0783 168.899C37.3795 168.649 35.5164 167.365 34.295 165.558C30.7995 160.413 32.4642 151.022 34.6247 149.234L49.2293 143.447L55.119 153.997L55.7353 155.099L77.6717 156.632C80.8724 156.855 83.5919 159.047 84.4796 162.119L85.9715 167.282H85.9715Z" fill="#2F2E41"/>
<path d="M27.7624 12L26.6913 186.666L177 160.698V12H27.7624ZM52.5164 159.986H28.4765V136.033H52.5164V159.986ZM52.5164 135.322H28.4765V111.369H52.5164V135.322ZM52.5164 110.657H28.4765V86.7046H52.5164V110.657ZM52.5164 85.9931H28.4765V62.0401H52.5164V85.9931ZM52.5164 61.3287H28.4765V37.3759H52.5164V61.3287V61.3287ZM52.5164 36.6644H28.4765V36.6644C28.4765 23.4356 39.2395 12.7115 52.5164 12.7115H52.5164V36.6644V36.6644ZM77.2702 159.986H53.2305V136.033H77.2702V159.986ZM77.2702 135.322H53.2305V111.369H77.2702V135.322ZM77.2702 110.657H53.2305V86.7046H77.2702V110.657ZM77.2702 85.9931H53.2305V62.0401H77.2702V85.9931ZM77.2702 61.3287H53.2305V61.3286C53.2305 48.0999 63.9934 37.3759 77.2702 37.3759H77.2702V61.3287ZM77.2702 36.6644H53.2305V12.7115H77.2702V36.6644V36.6644ZM102.024 159.986H77.9843V136.033H102.024V159.986ZM102.024 135.322H77.9843V111.369H102.024V135.322ZM102.024 110.657H77.9843V86.7046H102.024V110.657ZM102.024 85.9931H77.9843V62.0401H102.024V85.9931ZM102.024 61.3287H77.9843V37.3759H102.024V61.3287V61.3287ZM102.024 36.6644H77.9843V12.7115H102.024V36.6644V36.6644ZM126.778 159.986H102.738V136.033H126.778V159.986ZM126.778 135.322H102.738V111.369H126.778V135.322ZM126.778 110.657H102.738V86.7046H126.778V110.657ZM126.778 85.9931H102.738V62.0401H126.778V85.9931ZM126.778 61.3287H102.738V37.3759H126.778V61.3287V61.3287ZM126.778 36.6644H102.738V12.7115H126.778V36.6644V36.6644ZM151.532 159.986H151.532C138.255 159.986 127.492 149.262 127.492 136.033V136.033H151.532V159.986ZM151.532 135.322H127.492V111.369H151.532V135.322ZM151.532 110.657H127.492V86.7045H151.532V110.657ZM151.532 85.9931H127.492V62.0401H151.532V85.9931ZM151.532 61.3287H127.492V37.3759H151.532V61.3287V61.3287ZM151.532 36.6644H127.492V12.7115H151.532V36.6644V36.6644ZM152.246 159.986H152.246V136.033H176.286V136.033C176.286 149.262 165.523 159.986 152.246 159.986ZM176.286 135.322H152.246V111.369H176.286V135.322ZM176.286 110.657H152.246V86.7045H176.286V110.657ZM176.286 85.9931H152.246V62.0401H176.286V85.9931ZM176.286 61.3286H152.246V61.3286C152.246 48.0999 163.009 37.3759 176.286 37.3759H176.286V61.3286ZM176.286 36.6644H152.246V12.7115H176.286V36.6644V36.6644Z" fill="#5B86F5" fill-opacity="0.5"/>
<path d="M69.3207 86.9752L66.3866 95.1153L61.4857 94.094L64.8952 85.5977C64.8008 85.3346 64.7426 85.0536 64.7286 84.7599C64.6524 83.1629 65.89 81.8066 67.4928 81.7306C69.0957 81.6546 70.4569 82.8877 70.5332 84.4848C70.5818 85.5033 70.0948 86.4222 69.3207 86.9752H69.3207Z" fill="#A0616A"/>
<path d="M69.8082 89.1833L63.1648 106.984L62.2046 109.553C61.3377 111.876 58.9515 113.266 56.492 112.885L41.0629 110.483L39.9226 103.436L56.5663 104.895L59.3493 97.6215L63.0418 87.9666L63.8844 88.1171L68.6033 88.9655L69.8082 89.1833V89.1833Z" fill="#0A9E8B"/>
<path d="M40.9354 207.771L43.8079 209.89L53.3779 199.859L49.1383 196.732L40.9354 207.771Z" fill="#A0616A"/>
<path d="M44.5722 210.853L46.0141 208.913L45.2248 208.402L42.016 206.316L41.2722 205.834L35.8994 211.931L35.6114 212.258L37.651 213.763L37.9736 213.465L39.4384 212.111L39.0347 214.248L38.9452 214.718L44.3525 218.707C44.6755 218.945 45.0627 219.036 45.4335 218.987C45.8326 218.941 46.2102 218.736 46.4673 218.39C47.4847 217.497 44.694 211.883 44.5722 210.853H44.5722Z" fill="#2F2E41"/>
<path d="M102.738 135.796C75.5709 135.796 53.4684 113.774 53.4684 86.7046C53.4684 59.6353 75.5709 37.613 102.738 37.613C129.906 37.613 152.008 59.6355 152.008 86.7046C152.008 113.774 129.906 135.796 102.738 135.796V135.796ZM102.738 38.3245C75.9645 38.3245 67.0355 58.9605 67.0355 85.6374C67.0355 112.314 75.9645 135.085 102.738 135.085C129.512 135.085 151.294 113.381 151.294 86.7046C151.294 60.0279 129.512 38.3245 102.738 38.3245V38.3245Z" fill="white"/>
<path d="M126.081 84.7223L104.246 62.9667C104.183 62.8836 104.115 62.8025 104.039 62.7266C103.582 62.2708 102.981 62.0458 102.381 62.0501C101.782 62.0458 101.181 62.2708 100.723 62.7266C100.647 62.8025 100.58 62.8836 100.516 62.9667L78.6817 84.7223C77.7754 85.6253 77.7754 87.0893 78.6817 87.9924C79.588 88.8954 81.0574 88.8954 81.9637 87.9924L100.061 69.961V108.227C100.061 109.504 101.1 110.539 102.381 110.539C103.663 110.539 104.702 109.504 104.702 108.227V69.961L122.799 87.9924C123.705 88.8954 125.174 88.8954 126.081 87.9924C126.987 87.0893 126.987 85.6253 126.081 84.7223V84.7223Z" fill="white"/>
<path d="M45.9708 133.662L49.4905 145.099L33.4749 146.824L39.1873 132.239L45.9708 133.662Z" fill="#A0616A"/>
<path d="M75.9612 177.773L75.2364 178.602L73.1299 181.007L50.6122 206.588L43.1146 201.607C48.7485 190.907 52.3723 184.329 58.4561 179.747C60.1413 178.477 62.0192 177.36 64.1792 176.35C64.1792 176.35 57.9384 174.08 50.655 171.288C50.016 171.042 49.3662 170.793 48.7128 170.537C42.6897 168.207 36.2811 165.635 32.2503 163.746C29.7975 162.597 28.4836 160.758 27.9517 158.645C26.42 152.622 31.1899 144.355 33.8319 143.405L49.5411 142.911L51.4798 154.828L51.6833 156.073C51.6833 156.073 57.4386 158.844 63.4795 161.615C64.3863 162.028 65.2967 162.444 66.1965 162.85C67.6246 163.49 69.017 164.109 70.3094 164.668C70.3389 164.68 70.3685 164.693 70.3981 164.706C74.1435 166.318 76.475 170.093 76.2036 174.149L75.9612 177.773V177.773Z" fill="#2F2E41"/>
<path d="M49.891 124.811C49.509 127.529 49.4197 130.097 49.8981 131.527C50.0253 131.908 51.9303 134.687 52.0403 135.085C53.0236 138.636 48.827 139.354 48.827 139.354L32.7276 144.679C31.8005 144.986 31.0202 143.916 31.6125 143.142C32.933 141.416 34.1392 138.924 34.0532 135.622C33.9193 130.477 31.634 122.294 30.3709 118.133C29.8511 116.421 29.9764 114.581 30.7208 112.954L32.518 109.023L35.1315 103.314L35.974 99.1553L43.4716 99.5111L44.3963 102.894L51.3727 113.506C51.6547 113.936 51.8404 114.416 51.9225 114.911C52.0332 115.53 51.9796 116.177 51.7618 116.786C51.0371 118.81 50.298 121.894 49.891 124.811H49.891Z" fill="#0A9E8B"/>
<path d="M93.6283 111.729L85.0838 113.255L83.5282 108.513L92.6196 107.22C92.8015 107.007 93.0169 106.817 93.2654 106.659C94.6167 105.796 96.4137 106.189 97.2792 107.535C98.1446 108.882 97.7507 110.672 96.3994 111.534C95.5376 112.084 94.4954 112.122 93.6283 111.729V111.729Z" fill="#A0616A"/>
<path d="M36.3972 111.671L37.4805 112.831C40.1076 115.643 43.7081 117.357 47.5545 117.625L61.9222 118.629L88.6083 113.631L86.9834 107.274L61.7561 111.606L36.3972 111.671H36.3972Z" fill="#0A9E8B"/>
<path d="M18.0034 93.3917C17.9261 96.7072 19.1696 99.9175 20.9561 102.737C21.4869 101.091 22.4411 99.5929 23.4363 98.1647C22.9168 101.224 23.4856 104.445 24.9566 107.179C25.0118 107.218 25.0636 107.252 25.1194 107.283C26.5756 108.156 28.4217 108.509 29.997 107.879C26.7422 104.383 26.328 98.5915 29.0568 94.6705C29.8293 93.5579 30.8284 92.5739 31.3069 91.3078C32.0624 89.2876 31.3362 87.0633 30.8781 84.957C30.4497 82.9967 30.3747 80.6639 31.6946 79.2272C31.4236 78.8412 30.9088 78.5743 30.4233 78.644C29.6095 78.7586 29.0172 79.4634 28.6399 80.1893C28.2626 80.9152 28.0138 81.7197 27.488 82.3467C26.5143 83.5202 24.8561 83.7977 23.4587 84.4161C20.0746 85.9181 18.0845 89.7024 18.0034 93.3917Z" fill="#2F2E41"/>
<path d="M46.4897 91.496C46.2963 90.8216 47.6292 94.9441 46.986 95.0185C44.0565 95.3534 40.035 97.0967 37.9946 97.9099C37.9028 97.8993 37.8109 97.8887 37.7217 97.8754C37.5028 97.8515 37.2893 97.8169 37.0785 97.7771C32.3275 96.8814 30.5005 89.6097 30.5005 89.5432C30.5005 89.2163 31.2879 80.2378 32.5284 80.1049C32.85 80.0704 33.177 80.0517 33.5094 80.0517H36.5875C37.2415 79.9135 37.8901 79.8179 38.5198 79.7727H38.5252C44.7221 79.3023 49.6082 83.0656 49.1515 87.6449C49.1488 87.6502 49.1434 87.6556 49.1407 87.6609C49.0082 87.8576 48.892 88.0436 48.7893 88.2217C48.6893 88.3891 48.6056 88.5486 48.5326 88.7001C47.9678 89.8695 49.4197 91.341 48.4569 91.6156C47.1765 91.9809 51.8245 103.987 46.7564 103.987C49.2216 104.686 47.0232 93.3564 46.4897 91.496L46.4897 91.496Z" fill="#2F2E41"/>
<path d="M40.9578 98.5409C44.9828 98.5409 48.2457 95.2898 48.2457 91.2794C48.2457 87.269 44.9828 84.0179 40.9578 84.0179C36.9328 84.0179 33.6699 87.269 33.6699 91.2794C33.6699 95.2898 36.9328 98.5409 40.9578 98.5409Z" fill="#A0616A"/>
<path d="M49.1514 88.0409C49.0298 88.1047 48.9109 88.1632 48.7893 88.2217C48.6623 88.2828 48.5352 88.3439 48.4082 88.3997C45.9679 89.5027 43.9815 89.6249 42.7762 88.0409C42.7438 87.2117 42.5573 86.3878 42.2222 85.6224C42.2844 86.4702 42.0519 87.334 41.579 88.0409H39.1521C36.6523 89.694 35.3686 89.8668 37.1036 95.2939C37.5874 96.8062 39.5109 105.606 38.7542 106.911C38.5353 106.887 36.2064 97.2485 35.9956 97.2087C31.2446 96.313 28.2259 88.514 28.6124 88.0728C28.6124 86.7758 28.9151 85.5506 29.4583 84.4556C30.1609 83.0337 31.2662 81.8377 32.631 81.0165C33.4363 80.6258 34.2849 80.3095 35.1659 80.0677C35.1876 80.0624 35.2065 80.0571 35.2281 80.0517C35.4956 79.98 35.7686 79.9135 36.0415 79.8577C36.601 79.7408 37.1685 79.6531 37.7495 79.5999C37.7901 79.5973 37.8306 79.5946 37.8684 79.5946C38.1063 79.5946 38.3279 79.661 38.5197 79.7727C38.5224 79.7727 38.5224 79.7753 38.5252 79.7753C38.6657 79.8577 38.79 79.9667 38.8873 80.0969C39.0548 80.3095 39.1521 80.5753 39.1521 80.865H41.8546C41.9546 80.865 42.0546 80.8677 42.1546 80.873C45.9192 81.0218 48.946 83.9719 49.1406 87.6609C49.1487 87.7885 49.1514 87.9134 49.1514 88.0409L49.1514 88.0409Z" fill="#2F2E41"/>
<path d="M38.0181 80.9357C38.0181 83.5778 35.8685 85.7196 33.2168 85.7196C30.5651 85.7196 28.4155 83.5778 28.4155 80.9357C28.4155 78.2935 30.5651 76.1517 33.2168 76.1517C35.8685 76.1517 38.0181 78.2935 38.0181 80.9357Z" fill="#2F2E41"/>
</g>
<defs>
<filter id="filter0_d_521_1915" x="61" y="-5" width="342" height="232" filterUnits="userSpaceOnUse" color-interpolation-filters="sRGB">
<feFlood flood-opacity="0" result="BackgroundImageFix"/>
<feColorMatrix in="SourceAlpha" type="matrix" values="0 0 0 0 0 0 0 0 0 0 0 0 0 0 0 0 0 0 127 0" result="hardAlpha"/>
<feOffset dx="-2"/>
<feGaussianBlur stdDeviation="2.5"/>
<feComposite in2="hardAlpha" operator="out"/>
<feColorMatrix type="matrix" values="0 0 0 0 0 0 0 0 0 0 0 0 0 0 0 0 0 0 0.15 0"/>
<feBlend mode="normal" in2="BackgroundImageFix" result="effect1_dropShadow_521_1915"/>
<feBlend mode="normal" in="SourceGraphic" in2="effect1_dropShadow_521_1915" result="shape"/>
</filter>
<filter id="filter1_d_521_1915" x="215.265" y="87.635" width="148.191" height="39.736" filterUnits="userSpaceOnUse" color-interpolation-filters="sRGB">
<feFlood flood-opacity="0" result="BackgroundImageFix"/>
<feColorMatrix in="SourceAlpha" type="matrix" values="0 0 0 0 0 0 0 0 0 0 0 0 0 0 0 0 0 0 127 0" result="hardAlpha"/>
<feOffset dx="2" dy="2"/>
<feComposite in2="hardAlpha" operator="out"/>
<feColorMatrix type="matrix" values="0 0 0 0 0 0 0 0 0 0 0 0 0 0 0 0 0 0 1 0"/>
<feBlend mode="normal" in2="BackgroundImageFix" result="effect1_dropShadow_521_1915"/>
<feBlend mode="normal" in="SourceGraphic" in2="effect1_dropShadow_521_1915" result="shape"/>
</filter>
<filter id="filter2_d_521_1915" x="331.99" y="157.68" width="58.0791" height="14.464" filterUnits="userSpaceOnUse" color-interpolation-filters="sRGB">
<feFlood flood-opacity="0" result="BackgroundImageFix"/>
<feColorMatrix in="SourceAlpha" type="matrix" values="0 0 0 0 0 0 0 0 0 0 0 0 0 0 0 0 0 0 127 0" result="hardAlpha"/>
<feOffset dx="1" dy="2"/>
<feComposite in2="hardAlpha" operator="out"/>
<feColorMatrix type="matrix" values="0 0 0 0 0 0 0 0 0 0 0 0 0 0 0 0 0 0 1 0"/>
<feBlend mode="normal" in2="BackgroundImageFix" result="effect1_dropShadow_521_1915"/>
<feBlend mode="normal" in="SourceGraphic" in2="effect1_dropShadow_521_1915" result="shape"/>
</filter>
<filter id="filter3_d_521_1915" x="215.009" y="45.16" width="88.4764" height="13.984" filterUnits="userSpaceOnUse" color-interpolation-filters="sRGB">
<feFlood flood-opacity="0" result="BackgroundImageFix"/>
<feColorMatrix in="SourceAlpha" type="matrix" values="0 0 0 0 0 0 0 0 0 0 0 0 0 0 0 0 0 0 127 0" result="hardAlpha"/>
<feOffset dx="1" dy="2"/>
<feComposite in2="hardAlpha" operator="out"/>
<feColorMatrix type="matrix" values="0 0 0 0 0 0 0 0 0 0 0 0 0 0 0 0 0 0 1 0"/>
<feBlend mode="normal" in2="BackgroundImageFix" result="effect1_dropShadow_521_1915"/>
<feBlend mode="normal" in="SourceGraphic" in2="effect1_dropShadow_521_1915" result="shape"/>
</filter>
<linearGradient id="paint0_linear_521_1915" x1="0" y1="0" x2="400" y2="241" gradientUnits="userSpaceOnUse">
<stop stop-color="#3C82F6"/>
<stop offset="1" stop-color="#3C78D2"/>
</linearGradient>
<linearGradient id="paint1_linear_521_1915" x1="348.318" y1="14.877" x2="356.117" y2="14.877" gradientUnits="userSpaceOnUse">
<stop stop-color="#1884E8"/>
<stop offset="0.453125" stop-color="#149BBE"/>
<stop offset="1" stop-color="#14BD80"/>
</linearGradient>
<linearGradient id="paint2_linear_521_1915" x1="348.318" y1="16.2444" x2="357.615" y2="16.2444" gradientUnits="userSpaceOnUse">
<stop stop-color="#1884E8"/>
<stop offset="0.453125" stop-color="#149BBE"/>
<stop offset="1" stop-color="#14BD80"/>
</linearGradient>
<linearGradient id="paint3_linear_521_1915" x1="348.318" y1="17.6119" x2="359.117" y2="17.6119" gradientUnits="userSpaceOnUse">
<stop stop-color="#1884E8"/>
<stop offset="0.453125" stop-color="#149BBE"/>
<stop offset="1" stop-color="#14BD80"/>
</linearGradient>
<linearGradient id="paint4_linear_521_1915" x1="348.318" y1="18.9794" x2="360.616" y2="18.9794" gradientUnits="userSpaceOnUse">
<stop stop-color="#1884E8"/>
<stop offset="0.453125" stop-color="#149BBE"/>
<stop offset="1" stop-color="#14BD80"/>
</linearGradient>
<linearGradient id="paint5_linear_521_1915" x1="348.318" y1="20.3447" x2="362.114" y2="20.3447" gradientUnits="userSpaceOnUse">
<stop stop-color="#1884E8"/>
<stop offset="0.453125" stop-color="#149BBE"/>
<stop offset="1" stop-color="#14BD80"/>
</linearGradient>
<linearGradient id="paint6_linear_521_1915" x1="348.318" y1="21.7122" x2="363.616" y2="21.7122" gradientUnits="userSpaceOnUse">
<stop stop-color="#1884E8"/>
<stop offset="0.453125" stop-color="#149BBE"/>
<stop offset="1" stop-color="#14BD80"/>
</linearGradient>
<linearGradient id="paint7_linear_521_1915" x1="348.318" y1="23.0796" x2="365.115" y2="23.0796" gradientUnits="userSpaceOnUse">
<stop stop-color="#1884E8"/>
<stop offset="0.453125" stop-color="#149BBE"/>
<stop offset="1" stop-color="#14BD80"/>
</linearGradient>
<linearGradient id="paint8_linear_521_1915" x1="348.318" y1="24.4471" x2="366.613" y2="24.4471" gradientUnits="userSpaceOnUse">
<stop stop-color="#1884E8"/>
<stop offset="0.453125" stop-color="#149BBE"/>
<stop offset="1" stop-color="#14BD80"/>
</linearGradient>
<linearGradient id="paint9_linear_521_1915" x1="348.318" y1="25.8125" x2="368.115" y2="25.8125" gradientUnits="userSpaceOnUse">
<stop stop-color="#1884E8"/>
<stop offset="0.453125" stop-color="#149BBE"/>
<stop offset="1" stop-color="#14BD80"/>
</linearGradient>
<linearGradient id="paint10_linear_521_1915" x1="348.318" y1="27.1799" x2="369.613" y2="27.1799" gradientUnits="userSpaceOnUse">
<stop stop-color="#1884E8"/>
<stop offset="0.453125" stop-color="#149BBE"/>
<stop offset="1" stop-color="#14BD80"/>
</linearGradient>
<linearGradient id="paint11_linear_521_1915" x1="348.318" y1="28.5474" x2="371.116" y2="28.5474" gradientUnits="userSpaceOnUse">
<stop stop-color="#1884E8"/>
<stop offset="0.453125" stop-color="#149BBE"/>
<stop offset="1" stop-color="#14BD80"/>
</linearGradient>
<linearGradient id="paint12_linear_521_1915" x1="348.318" y1="29.9148" x2="372.614" y2="29.9148" gradientUnits="userSpaceOnUse">
<stop stop-color="#1884E8"/>
<stop offset="0.453125" stop-color="#149BBE"/>
<stop offset="1" stop-color="#14BD80"/>
</linearGradient>
<linearGradient id="paint13_linear_521_1915" x1="348.318" y1="31.2822" x2="374.112" y2="31.2822" gradientUnits="userSpaceOnUse">
<stop stop-color="#1884E8"/>
<stop offset="0.453125" stop-color="#149BBE"/>
<stop offset="1" stop-color="#14BD80"/>
</linearGradient>
<linearGradient id="paint14_linear_521_1915" x1="348.318" y1="32.6477" x2="375.615" y2="32.6477" gradientUnits="userSpaceOnUse">
<stop stop-color="#1884E8"/>
<stop offset="0.453125" stop-color="#149BBE"/>
<stop offset="1" stop-color="#14BD80"/>
</linearGradient>
<linearGradient id="paint15_linear_521_1915" x1="348.318" y1="34.0151" x2="377.113" y2="34.0151" gradientUnits="userSpaceOnUse">
<stop stop-color="#1884E8"/>
<stop offset="0.453125" stop-color="#149BBE"/>
<stop offset="1" stop-color="#14BD80"/>
</linearGradient>
<linearGradient id="paint16_linear_521_1915" x1="348.318" y1="35.3826" x2="378.611" y2="35.3826" gradientUnits="userSpaceOnUse">
<stop stop-color="#1884E8"/>
<stop offset="0.453125" stop-color="#149BBE"/>
<stop offset="1" stop-color="#14BD80"/>
</linearGradient>
<linearGradient id="paint17_linear_521_1915" x1="348.318" y1="36.75" x2="380.114" y2="36.75" gradientUnits="userSpaceOnUse">
<stop stop-color="#1884E8"/>
<stop offset="0.453125" stop-color="#149BBE"/>
<stop offset="1" stop-color="#14BD80"/>
</linearGradient>
<linearGradient id="paint18_linear_521_1915" x1="348.318" y1="38.1154" x2="381.612" y2="38.1154" gradientUnits="userSpaceOnUse">
<stop stop-color="#1884E8"/>
<stop offset="0.453125" stop-color="#149BBE"/>
<stop offset="1" stop-color="#14BD80"/>
</linearGradient>
<clipPath id="clip0_521_1915">
<rect width="400" height="222.11" fill="white"/>
</clipPath>
</defs>
</svg>
