<svg width="400" height="223" viewBox="0 0 400 223" fill="none" xmlns="http://www.w3.org/2000/svg">
<g clip-path="url(#clip0_519_929)">
<rect width="400" height="222.11" fill="white"/>
<rect width="400" height="222.111" fill="url(#paint0_linear_519_929)"/>
<g filter="url(#filter0_d_519_929)">
<path d="M68 222L199.573 0H400V222H68Z" fill="#1253E0"/>
</g>
<g filter="url(#filter1_d_519_929)">
<path d="M224.801 77.231C222.117 77.231 219.95 76.681 218.3 75.581C216.672 74.459 215.858 72.831 215.858 70.697C215.858 70.521 215.88 70.213 215.924 69.773H222.755C222.689 70.521 222.843 71.104 223.217 71.522C223.591 71.94 224.163 72.149 224.933 72.149C225.571 72.149 226.077 72.006 226.451 71.72C226.847 71.434 227.045 71.027 227.045 70.499C227.045 69.883 226.759 69.377 226.187 68.981C225.637 68.585 224.735 68.123 223.481 67.595C222.227 67.067 221.193 66.572 220.379 66.11C219.565 65.626 218.861 64.977 218.267 64.163C217.673 63.327 217.376 62.293 217.376 61.061C217.376 59.455 217.772 58.08 218.564 56.936C219.356 55.77 220.456 54.89 221.864 54.296C223.294 53.68 224.922 53.372 226.748 53.372C228.398 53.372 229.861 53.636 231.137 54.164C232.413 54.67 233.403 55.407 234.107 56.375C234.833 57.343 235.196 58.487 235.196 59.807C235.196 60.159 235.185 60.423 235.163 60.599H228.2C228.222 60.489 228.233 60.335 228.233 60.137C228.233 59.609 228.068 59.202 227.738 58.916C227.408 58.608 226.957 58.454 226.385 58.454C225.791 58.454 225.307 58.608 224.933 58.916C224.581 59.202 224.405 59.609 224.405 60.137C224.405 60.709 224.68 61.204 225.23 61.622C225.802 62.018 226.682 62.491 227.87 63.041C229.146 63.635 230.191 64.196 231.005 64.724C231.841 65.23 232.556 65.912 233.15 66.77C233.744 67.628 234.041 68.684 234.041 69.938C234.041 71.324 233.667 72.578 232.919 73.7C232.171 74.8 231.104 75.669 229.718 76.307C228.332 76.923 226.693 77.231 224.801 77.231ZM244.761 70.07C244.739 70.18 244.728 70.312 244.728 70.466C244.728 70.818 244.827 71.082 245.025 71.258C245.245 71.412 245.597 71.489 246.081 71.489H247.962L246.972 77H244.134C240.108 77 238.095 75.306 238.095 71.918C238.095 71.346 238.161 70.697 238.293 69.971L239.382 63.866H237.105L238.062 58.487H240.339L241.131 53.999H247.632L246.84 58.487H250.173L249.216 63.866H245.883L244.761 70.07ZM258.386 58.487L260.399 68.981L266.009 58.487H273.104L256.571 85.811H249.542L255.647 76.208L251.192 58.487H258.386ZM282.353 52.58L278.03 77H271.529L275.852 52.58H282.353ZM293.363 58.256C295.783 58.256 297.697 58.905 299.105 60.203C300.535 61.501 301.25 63.272 301.25 65.516C301.25 66.264 301.195 66.924 301.085 67.496C300.953 68.2 300.821 68.706 300.689 69.014H288.446C288.424 69.146 288.413 69.344 288.413 69.608C288.413 70.444 288.611 71.06 289.007 71.456C289.425 71.852 289.975 72.05 290.657 72.05C291.735 72.05 292.593 71.566 293.231 70.598H300.095C299.589 71.874 298.83 73.018 297.818 74.03C296.828 75.02 295.651 75.801 294.287 76.373C292.945 76.945 291.515 77.231 289.997 77.231C287.577 77.231 285.652 76.571 284.222 75.251C282.792 73.931 282.077 72.116 282.077 69.806C282.077 69.146 282.143 68.453 282.275 67.727C282.627 65.791 283.32 64.119 284.354 62.711C285.41 61.281 286.708 60.181 288.248 59.411C289.81 58.641 291.515 58.256 293.363 58.256ZM294.716 66.11C294.76 65.802 294.782 65.604 294.782 65.516C294.782 64.812 294.562 64.284 294.122 63.932C293.682 63.558 293.11 63.371 292.406 63.371C291.592 63.371 290.888 63.602 290.294 64.064C289.7 64.526 289.26 65.208 288.974 66.11H294.716ZM249.645 105.318C250.041 103.03 250.888 100.995 252.186 99.213C253.484 97.409 255.112 96.012 257.07 95.022C259.028 94.01 261.173 93.504 263.505 93.504C266.431 93.504 268.719 94.208 270.369 95.616C272.041 97.024 272.899 98.949 272.943 101.391H265.98C265.738 100.775 265.32 100.302 264.726 99.972C264.132 99.642 263.384 99.477 262.482 99.477C260.876 99.477 259.501 100.005 258.357 101.061C257.235 102.117 256.52 103.536 256.212 105.318C256.102 105.978 256.047 106.528 256.047 106.968C256.047 108.442 256.465 109.564 257.301 110.334C258.137 111.082 259.369 111.456 260.997 111.456C263.263 111.456 265.067 110.433 266.409 108.387H259.908L260.733 103.734H272.811L271.689 110.004C270.545 111.962 268.906 113.645 266.772 115.053C264.638 116.461 262.174 117.165 259.38 117.165C257.312 117.165 255.53 116.78 254.034 116.01C252.538 115.218 251.394 114.118 250.602 112.71C249.81 111.302 249.414 109.674 249.414 107.826C249.414 106.946 249.491 106.11 249.645 105.318ZM295.576 98.487L292.276 117H285.808L286.27 114.36C285.544 115.196 284.653 115.878 283.597 116.406C282.563 116.912 281.419 117.165 280.165 117.165C278.339 117.165 276.92 116.648 275.908 115.614C274.896 114.58 274.39 113.139 274.39 111.291C274.39 110.653 274.456 109.971 274.588 109.245L276.469 98.487H282.937L281.188 108.42C281.122 108.706 281.089 108.992 281.089 109.278C281.089 110.07 281.32 110.697 281.782 111.159C282.244 111.599 282.871 111.819 283.663 111.819C284.587 111.819 285.368 111.533 286.006 110.961C286.644 110.389 287.073 109.597 287.293 108.585L289.075 98.487H295.576ZM302.821 96.771C301.809 96.771 301.006 96.518 300.412 96.012C299.84 95.506 299.554 94.857 299.554 94.065C299.554 93.361 299.741 92.712 300.115 92.118C300.511 91.502 301.039 91.018 301.699 90.666C302.381 90.292 303.14 90.105 303.976 90.105C304.988 90.105 305.78 90.369 306.352 90.897C306.946 91.403 307.243 92.063 307.243 92.877C307.243 93.581 307.045 94.23 306.649 94.824C306.275 95.418 305.747 95.891 305.065 96.243C304.383 96.595 303.635 96.771 302.821 96.771ZM305.725 98.487L302.458 117H295.957L299.257 98.487H305.725ZM306.702 107.727C307.054 105.813 307.703 104.141 308.649 102.711C309.595 101.281 310.739 100.181 312.081 99.411C313.423 98.641 314.831 98.256 316.305 98.256C317.493 98.256 318.505 98.509 319.341 99.015C320.199 99.499 320.815 100.17 321.189 101.028L322.674 92.58H329.175L324.852 117H318.351L318.846 114.426C318.186 115.284 317.35 115.966 316.338 116.472C315.326 116.978 314.193 117.231 312.939 117.231C311.003 117.231 309.441 116.593 308.253 115.317C307.087 114.019 306.504 112.259 306.504 110.037C306.504 109.311 306.57 108.541 306.702 107.727ZM320.034 107.727C320.1 107.397 320.133 107.089 320.133 106.803C320.133 105.879 319.869 105.164 319.341 104.658C318.835 104.152 318.175 103.899 317.361 103.899C316.393 103.899 315.524 104.24 314.754 104.922C313.984 105.582 313.5 106.517 313.302 107.727C313.236 108.057 313.203 108.376 313.203 108.684C313.203 109.608 313.456 110.323 313.962 110.829C314.49 111.335 315.161 111.588 315.975 111.588C316.943 111.588 317.812 111.247 318.582 110.565C319.352 109.883 319.836 108.937 320.034 107.727ZM340.22 98.256C342.64 98.256 344.554 98.905 345.962 100.203C347.392 101.501 348.107 103.272 348.107 105.516C348.107 106.264 348.052 106.924 347.942 107.496C347.81 108.2 347.678 108.706 347.546 109.014H335.303C335.281 109.146 335.27 109.344 335.27 109.608C335.27 110.444 335.468 111.06 335.864 111.456C336.282 111.852 336.832 112.05 337.514 112.05C338.592 112.05 339.45 111.566 340.088 110.598H346.952C346.446 111.874 345.687 113.018 344.675 114.03C343.685 115.02 342.508 115.801 341.144 116.373C339.802 116.945 338.372 117.231 336.854 117.231C334.434 117.231 332.509 116.571 331.079 115.251C329.649 113.931 328.934 112.116 328.934 109.806C328.934 109.146 329 108.453 329.132 107.727C329.484 105.791 330.177 104.119 331.211 102.711C332.267 101.281 333.565 100.181 335.105 99.411C336.667 98.641 338.372 98.256 340.22 98.256ZM341.573 106.11C341.617 105.802 341.639 105.604 341.639 105.516C341.639 104.812 341.419 104.284 340.979 103.932C340.539 103.558 339.967 103.371 339.263 103.371C338.449 103.371 337.745 103.602 337.151 104.064C336.557 104.526 336.117 105.208 335.831 106.11H341.573Z" fill="white"/>
</g>
<mask id="mask0_519_929" style="mask-type:alpha" maskUnits="userSpaceOnUse" x="352" y="13" width="24" height="24">
<circle r="11.6056" transform="matrix(-4.37114e-08 1 1 4.37114e-08 363.959 24.6056)" fill="#C4C4C4"/>
</mask>
<g mask="url(#mask0_519_929)">
<path d="M356.117 8.81607C356.117 8.81607 355.226 13.624 352.109 14.8645C349.121 16.0509 348.318 20.9379 348.318 20.9379" stroke="url(#paint1_linear_519_929)" stroke-width="0.25" stroke-miterlimit="10"/>
<path d="M357.615 8.81607C357.615 8.81607 356.587 14.7146 352.825 16.234C349.233 17.6827 348.318 23.6728 348.318 23.6728" stroke="url(#paint2_linear_519_929)" stroke-width="0.25" stroke-miterlimit="10"/>
<path d="M359.117 8.81607C359.117 8.81607 357.948 15.8011 353.549 17.5994C349.342 19.3145 348.318 26.4077 348.318 26.4077" stroke="url(#paint3_linear_519_929)" stroke-width="0.25" stroke-miterlimit="10"/>
<path d="M360.616 8.81607C360.616 8.81607 359.309 16.8917 354.265 18.9689C349.454 20.9462 348.318 29.1426 348.318 29.1426" stroke="url(#paint4_linear_519_929)" stroke-width="0.25" stroke-miterlimit="10"/>
<path d="M362.114 8.81607C362.114 8.81607 360.67 17.9824 354.985 20.3385C349.566 22.578 348.318 31.8734 348.318 31.8734" stroke="url(#paint5_linear_519_929)" stroke-width="0.25" stroke-miterlimit="10"/>
<path d="M363.616 8.81607C363.616 8.81607 362.035 19.0689 355.705 21.7039C349.674 24.214 348.318 34.6083 348.318 34.6083" stroke="url(#paint6_linear_519_929)" stroke-width="0.25" stroke-miterlimit="10"/>
<path d="M365.115 8.81607C365.115 8.81607 363.392 20.1595 356.425 23.0734C349.787 25.8458 348.318 37.3432 348.318 37.3432" stroke="url(#paint7_linear_519_929)" stroke-width="0.25" stroke-miterlimit="10"/>
<path d="M366.613 8.81607C366.613 8.81607 364.753 21.2501 357.141 24.4388C349.899 27.4775 348.318 40.0781 348.318 40.0781" stroke="url(#paint8_linear_519_929)" stroke-width="0.25" stroke-miterlimit="10"/>
<path d="M368.115 8.81607C368.115 8.81607 366.118 22.3366 357.865 25.8083C350.007 29.1093 348.318 42.8089 348.318 42.8089" stroke="url(#paint9_linear_519_929)" stroke-width="0.25" stroke-miterlimit="10"/>
<path d="M369.613 8.81607C369.613 8.81607 367.478 23.4272 358.585 27.1737C350.12 30.7411 348.318 45.5438 348.318 45.5438" stroke="url(#paint10_linear_519_929)" stroke-width="0.25" stroke-miterlimit="10"/>
<path d="M371.116 8.81607C371.116 8.81607 368.839 24.5178 359.305 28.5432C350.232 32.3729 348.318 48.2787 348.318 48.2787" stroke="url(#paint11_linear_519_929)" stroke-width="0.25" stroke-miterlimit="10"/>
<path d="M372.614 8.81607C372.614 8.81607 370.2 25.6043 360.025 29.9086C350.34 34.0047 348.318 51.0135 348.318 51.0135" stroke="url(#paint12_linear_519_929)" stroke-width="0.25" stroke-miterlimit="10"/>
<path d="M374.112 8.81607C374.112 8.81607 371.561 26.6949 360.741 31.2781C350.453 35.6365 348.318 53.7484 348.318 53.7484" stroke="url(#paint13_linear_519_929)" stroke-width="0.25" stroke-miterlimit="10"/>
<path d="M375.615 8.81607C375.615 8.81607 372.922 27.7856 361.465 32.6477C350.565 37.2683 348.318 56.4792 348.318 56.4792" stroke="url(#paint14_linear_519_929)" stroke-width="0.25" stroke-miterlimit="10"/>
<path d="M377.113 8.81607C377.113 8.81607 374.283 28.8721 362.181 34.013C350.673 38.9001 348.318 59.2141 348.318 59.2141" stroke="url(#paint15_linear_519_929)" stroke-width="0.25" stroke-miterlimit="10"/>
<path d="M378.611 8.81607C378.611 8.81607 375.644 29.9627 362.901 35.3826C350.786 40.5318 348.318 61.949 348.318 61.949" stroke="url(#paint16_linear_519_929)" stroke-width="0.25" stroke-miterlimit="10"/>
<path d="M380.114 8.81607C380.114 8.81607 377.009 31.0533 363.621 36.7479C350.898 42.1636 348.318 64.6839 348.318 64.6839" stroke="url(#paint17_linear_519_929)" stroke-width="0.25" stroke-miterlimit="10"/>
<path d="M381.612 8.81607C381.612 8.81607 378.366 32.1398 364.34 38.1175C351.006 43.7954 348.318 67.4148 348.318 67.4148" stroke="url(#paint18_linear_519_929)" stroke-width="0.25" stroke-miterlimit="10"/>
</g>
<path fill-rule="evenodd" clip-rule="evenodd" d="M340.112 18.0548H338L338.988 25.9609H340.826L343.053 21.1663H343.115L343.737 25.9609H345.578L349.187 18.0548H347.08L345.026 23.247H344.964L344.455 18.0548H342.733L340.517 23.2354H340.451L340.112 18.0548ZM342.835 18.2101L340.619 23.3907H340.306L339.966 18.2101H338.176L339.125 25.8056H340.727L342.954 21.011H343.251L343.873 25.8056H345.478L348.946 18.2101H347.185L345.131 23.4023H344.823L344.314 18.2101H342.835ZM350.432 20.3402C349.948 20.5949 349.547 20.9527 349.228 21.4133C348.911 21.8714 348.702 22.4068 348.599 23.0193C348.493 23.6498 348.523 24.1941 348.687 24.6522C348.852 25.1077 349.138 25.459 349.544 25.7061C349.954 25.9506 350.468 26.0728 351.089 26.0728C351.608 26.0728 352.077 25.9943 352.494 25.8373C352.913 25.6778 353.268 25.4552 353.559 25.1695C353.811 24.9199 354.006 24.6327 354.144 24.3078C354.165 24.2575 354.185 24.2063 354.204 24.1542L352.482 24.104C352.41 24.2353 352.316 24.3472 352.2 24.4399C352.087 24.53 351.958 24.5982 351.814 24.6445C351.67 24.6882 351.516 24.7101 351.351 24.7101C351.104 24.7101 350.902 24.6638 350.745 24.5711C350.588 24.4759 350.477 24.3395 350.413 24.1619C350.356 24.0051 350.34 23.8201 350.366 23.6069C350.369 23.5788 350.373 23.5502 350.378 23.5211L350.391 23.4516H354.339L354.412 22.9807C354.495 22.4943 354.497 22.0632 354.42 21.6874C354.343 21.3117 354.197 20.9951 353.984 20.7378C353.77 20.4778 353.5 20.2823 353.173 20.151C352.846 20.0197 352.472 19.9541 352.05 19.9541C351.455 19.9541 350.916 20.0828 350.432 20.3402ZM354.206 23.2963L354.259 22.9547C354.339 22.4821 354.34 22.0711 354.268 21.7187C354.195 21.3642 354.059 21.072 353.864 20.837C353.668 20.5981 353.419 20.4171 353.115 20.2951C352.81 20.1726 352.456 20.1094 352.05 20.1094C351.479 20.1094 350.965 20.2328 350.505 20.4773C350.044 20.7201 349.661 21.0611 349.356 21.5018C349.053 21.939 348.851 22.4524 348.752 23.045C348.649 23.6571 348.68 24.1731 348.833 24.5995C348.986 25.0221 349.249 25.3448 349.625 25.5731C350.003 25.7993 350.488 25.9175 351.089 25.9175C351.593 25.9175 352.042 25.8414 352.439 25.6921C352.84 25.5394 353.176 25.3279 353.45 25.0589C353.673 24.8381 353.848 24.5864 353.976 24.303L352.569 24.2619C352.495 24.3758 352.404 24.4758 352.297 24.5612C352.169 24.6634 352.023 24.7405 351.862 24.7923L351.859 24.7931C351.699 24.8417 351.53 24.8654 351.351 24.8654C351.086 24.8654 350.854 24.8158 350.666 24.7049L350.664 24.7039C350.476 24.5898 350.343 24.4247 350.267 24.2148C350.202 24.0346 350.185 23.8305 350.21 23.6069H349.007L349.23 22.2H350.473C350.524 22.0387 350.602 21.8898 350.707 21.7542C350.847 21.575 351.017 21.432 351.216 21.3264C351.422 21.2166 351.642 21.1615 351.876 21.1615C352.104 21.1615 352.308 21.2115 352.479 21.3201C352.651 21.4249 352.777 21.5728 352.854 21.7598C352.931 21.9476 352.948 22.1558 352.914 22.3789L352.893 22.5106H350.72L350.577 23.2963H354.206ZM350.404 22.5106L350.261 23.2963H349.371L349.496 22.5106H350.404ZM350.592 22.3553C350.603 22.3021 350.618 22.2503 350.637 22.2C350.682 22.0741 350.746 21.9573 350.83 21.8496C350.956 21.6874 351.109 21.5588 351.289 21.4635C351.472 21.3657 351.668 21.3168 351.876 21.3168C352.082 21.3168 352.256 21.3619 352.397 21.4519C352.541 21.5395 352.646 21.6617 352.71 21.8187C352.774 21.9757 352.791 22.1545 352.76 22.3553H350.592ZM358.409 18.0548H356.521L355.208 25.9609H357.077L357.231 24.9996H357.305C357.306 25.0037 357.307 25.0078 357.308 25.0119C357.322 25.0666 357.34 25.1203 357.361 25.1729C357.408 25.2916 357.472 25.405 357.552 25.5131C357.673 25.6726 357.834 25.8013 358.034 25.8991C358.238 25.9969 358.489 26.0458 358.787 26.0458C359.225 26.0458 359.641 25.9326 360.038 25.7061C360.437 25.4796 360.78 25.1399 361.069 24.687C361.357 24.234 361.556 23.6717 361.667 23C361.783 22.3025 361.767 21.7286 361.621 21.2782C361.474 20.8279 361.24 20.4946 360.918 20.2784C360.596 20.0622 360.23 19.9541 359.818 19.9541C359.506 19.9541 359.23 20.0082 358.988 20.1163C358.746 20.2218 358.539 20.3582 358.366 20.5255C358.272 20.6182 358.188 20.7129 358.115 20.8095C358.056 20.8873 358.003 20.9663 357.957 21.0466H357.918L358.409 18.0548ZM358.475 20.6364C358.314 20.7951 358.187 20.9576 358.092 21.1237L358.047 21.2019H357.736L358.226 18.2101H356.653L355.392 25.8056H356.945L357.099 24.8443H357.426L357.455 24.9615C357.496 25.1232 357.569 25.2758 357.676 25.4198C357.78 25.5574 357.921 25.6711 358.102 25.7593C358.278 25.8442 358.505 25.8905 358.787 25.8905C359.196 25.8905 359.587 25.7849 359.961 25.5713C360.334 25.3593 360.661 25.0388 360.938 24.6036C361.212 24.1724 361.406 23.6311 361.514 22.9747C361.627 22.2907 361.609 21.7442 361.473 21.3263C361.335 20.9014 361.118 20.6001 360.831 20.4073C360.537 20.2094 360.201 20.1094 359.818 20.1094C359.524 20.1094 359.27 20.1603 359.051 20.258L359.05 20.2586C358.824 20.3573 358.633 20.4836 358.475 20.6364ZM357.826 24.382C357.687 24.2507 357.593 24.0667 357.544 23.8299C357.498 23.5932 357.5 23.3152 357.552 22.9961C357.603 22.6718 357.691 22.3926 357.814 22.1584C357.94 21.9242 358.095 21.7441 358.277 21.6179C358.463 21.4918 358.671 21.4288 358.903 21.4288C359.137 21.4288 359.324 21.4931 359.463 21.6218C359.602 21.7505 359.693 21.9319 359.737 22.1661C359.783 22.4003 359.78 22.677 359.729 22.9961C359.678 23.3152 359.59 23.5932 359.466 23.8299C359.343 24.0667 359.19 24.2507 359.007 24.382C358.824 24.5107 358.617 24.575 358.386 24.575C358.154 24.575 357.967 24.5107 357.826 24.382ZM359.889 22.137C359.94 22.3942 359.936 22.69 359.882 23.0208C359.829 23.3531 359.737 23.6475 359.604 23.9018C359.471 24.1561 359.304 24.3603 359.098 24.5081L359.097 24.509C358.887 24.6568 358.648 24.7303 358.386 24.7303C358.124 24.7303 357.897 24.6568 357.721 24.4969L357.719 24.4949C357.552 24.3366 357.446 24.121 357.392 23.8614L357.392 23.8598C357.341 23.6001 357.345 23.303 357.398 22.9717" fill="#39EFAD"/>
<path fill-rule="evenodd" clip-rule="evenodd" d="M365.212 23.6444H368.814L369.076 22.0926H363.564L362.251 29.9986H367.764L368.026 28.4468H364.424L364.687 26.8215H368.007L368.269 25.2658H364.949L365.212 23.6444ZM368.086 25.4211H364.767L365.08 23.4891H368.682L368.892 22.2479H363.695L362.434 29.8433H367.632L367.842 28.6021H364.242L364.555 26.6662H367.876L368.086 25.4211ZM371.881 24.0691H369.966L371.109 27.0339L368.893 29.9986H370.808L372.193 28.0298L372.958 29.9986H374.845L373.622 27.0339L375.772 24.0691H373.869L372.529 26.0224L371.881 24.0691ZM373.951 24.2244L372.48 26.3682L371.769 24.2244H370.192L371.284 27.0581L369.203 29.8433H370.727L372.233 27.7034L373.064 29.8433H374.613L373.445 27.0129L375.467 24.2244H373.951ZM378.848 24.0691H376.979L375.613 32.2222H377.508L378.033 29.0374H378.087C378.088 29.0405 378.089 29.0436 378.09 29.0467C378.107 29.1137 378.129 29.1792 378.157 29.2431C378.202 29.3501 378.261 29.4526 378.334 29.5508C378.453 29.7104 378.613 29.8391 378.817 29.9369C379.023 30.0347 379.275 30.0836 379.573 30.0836C380.008 30.0836 380.424 29.9703 380.82 29.7438C381.217 29.5174 381.559 29.1777 381.847 28.7247C382.138 28.2717 382.339 27.7094 382.449 27.0377C382.565 26.3403 382.55 25.7664 382.403 25.316C382.256 24.8656 382.022 24.5323 381.7 24.3161C381.379 24.1 381.012 23.9919 380.6 23.9919C380.289 23.9919 380.012 24.0459 379.77 24.154C379.528 24.2595 379.321 24.3959 379.149 24.5632C379.044 24.6665 378.952 24.7723 378.872 24.8805C378.823 24.9475 378.779 25.0155 378.74 25.0844H378.682L378.848 24.0691ZM379.257 24.6743C379.096 24.8329 378.969 24.9954 378.874 25.1614L378.83 25.2397H378.499L378.665 24.2244H377.111L375.796 32.0669H377.376L377.901 28.8821H378.208L378.238 28.9992C378.279 29.1613 378.352 29.3141 378.459 29.4583C378.56 29.595 378.7 29.7085 378.884 29.7968C379.063 29.882 379.291 29.9283 379.573 29.9283C379.98 29.9283 380.369 29.8228 380.743 29.609C381.114 29.3971 381.439 29.0767 381.716 28.6413L381.716 28.6408C381.993 28.2097 382.188 27.6686 382.296 27.0125C382.41 26.3285 382.391 25.7819 382.255 25.3641C382.117 24.9392 381.901 24.6379 381.614 24.445C381.319 24.2472 380.983 24.1472 380.6 24.1472C380.307 24.1472 380.052 24.198 379.834 24.2958L379.832 24.2964C379.606 24.3951 379.415 24.5214 379.257 24.6743ZM378.608 28.4197C378.467 28.2885 378.373 28.1045 378.326 27.8677C378.28 27.6309 378.283 27.353 378.334 27.0339C378.386 26.7096 378.473 26.4303 378.597 26.1961C378.72 25.962 378.875 25.7818 379.06 25.6557C379.248 25.5296 379.456 25.4665 379.685 25.4665C379.92 25.4665 380.106 25.5309 380.245 25.6596C380.384 25.7882 380.475 25.9697 380.519 26.2039C380.566 26.4381 380.564 26.7147 380.515 27.0339C380.459 27.353 380.369 27.6309 380.245 27.8677C380.122 28.1045 379.968 28.2885 379.786 28.4197C379.606 28.5484 379.4 28.6127 379.168 28.6127C378.939 28.6127 378.752 28.5484 378.608 28.4197ZM378.181 27.0095C378.127 27.3408 378.123 27.6379 378.174 27.8975C378.225 28.1584 378.332 28.3749 378.503 28.5336L378.505 28.5356C378.683 28.6942 378.908 28.768 379.168 28.768C379.43 28.768 379.668 28.6945 379.876 28.5461L379.876 28.5459C380.082 28.398 380.25 28.1938 380.383 27.9395C380.515 27.6861 380.609 27.3925 380.668 27.061L380.669 27.0574C380.72 26.7266 380.722 26.4312 380.672 26.1745C380.623 25.9164 380.52 25.7021 380.351 25.5456C380.177 25.3844 379.949 25.3112 379.685 25.3112C379.426 25.3112 379.187 25.3832 378.973 25.5267L378.973 25.5273C378.763 25.6701 378.593 25.8711 378.459 26.1237C378.326 26.376 378.234 26.6723 378.181 27.0095ZM385.373 24.3779C384.889 24.6327 384.487 24.9904 384.168 25.4511C383.852 25.9092 383.642 26.4445 383.539 27.057C383.433 27.6875 383.463 28.2319 383.628 28.69C383.792 29.1455 384.078 29.4968 384.485 29.7438C384.894 29.9883 385.409 30.1106 386.029 30.1106C386.549 30.1106 387.017 30.0321 387.434 29.8751C387.854 29.7155 388.209 29.4929 388.499 29.2072C388.751 28.9577 388.946 28.6704 389.084 28.3456C389.106 28.2953 389.126 28.2441 389.144 28.192L387.422 28.1418C387.35 28.273 387.256 28.385 387.141 28.4776C387.027 28.5677 386.899 28.6359 386.755 28.6822C386.61 28.726 386.456 28.7479 386.291 28.7479C386.044 28.7479 385.842 28.7015 385.685 28.6089C385.528 28.5137 385.418 28.3773 385.353 28.1997C385.296 28.0428 385.281 27.8578 385.306 27.6447C385.31 27.6166 385.314 27.588 385.319 27.5589L385.331 27.4894H389.279L389.353 27.0184C389.435 26.532 389.438 26.1009 389.36 25.7252C389.283 25.3494 389.138 25.0329 388.924 24.7755C388.711 24.5156 388.44 24.32 388.113 24.1887C387.787 24.0575 387.412 23.9919 386.99 23.9919C386.396 23.9919 385.856 24.1205 385.373 24.3779ZM389.146 27.3341L389.2 26.9925C389.28 26.5199 389.281 26.1088 389.208 25.7564C389.135 25.402 389 25.1097 388.805 24.8747L388.804 24.8741C388.608 24.6353 388.359 24.4549 388.056 24.3329C387.75 24.2103 387.396 24.1472 386.99 24.1472C386.419 24.1472 385.905 24.2706 385.446 24.515L385.445 24.5153C384.984 24.7582 384.601 25.0989 384.296 25.5395C383.994 25.9768 383.792 26.4901 383.692 27.0826C383.59 27.6948 383.62 28.2109 383.774 28.6373C383.927 29.0599 384.189 29.3825 384.565 29.6108C384.944 29.837 385.429 29.9553 386.029 29.9553C386.533 29.9553 386.982 29.8792 387.379 29.7299C387.78 29.5772 388.117 29.3657 388.39 29.0966C388.613 28.8758 388.788 28.6241 388.917 28.3407L387.509 28.2997C387.435 28.4136 387.344 28.5135 387.238 28.5989L387.237 28.5992C387.109 28.7014 386.963 28.7783 386.802 28.8301L386.8 28.8309C386.64 28.8794 386.47 28.9032 386.291 28.9032C386.026 28.9032 385.794 28.8535 385.606 28.7426L385.605 28.7417C385.417 28.6275 385.283 28.4624 385.207 28.2526C385.142 28.0724 385.125 27.8682 385.15 27.6447H383.948L384.171 26.2377H385.413C385.464 26.0764 385.542 25.9276 385.648 25.792C385.787 25.6127 385.957 25.4697 386.157 25.3642C386.362 25.2544 386.583 25.1993 386.816 25.1993C387.044 25.1993 387.248 25.2492 387.42 25.3578C387.592 25.4626 387.717 25.6105 387.794 25.7975C387.871 25.9854 387.888 26.1935 387.854 26.4166L387.834 26.5483H385.66L385.517 27.3341H389.146ZM385.345 26.5483L385.202 27.3341H384.311L384.436 26.5483H385.345ZM385.532 26.393C385.544 26.3398 385.559 26.288 385.577 26.2377C385.622 26.1118 385.686 25.995 385.77 25.8873C385.896 25.7252 386.049 25.5965 386.23 25.5013C386.412 25.4035 386.608 25.3546 386.816 25.3546C387.022 25.3546 387.196 25.3996 387.338 25.4897C387.482 25.5772 387.586 25.6994 387.65 25.8564C387.715 26.0134 387.731 26.1923 387.7 26.393H385.532Z" fill="#39EFAD"/>
<path d="M339.609 25.3397L338.621 17.4336H340.733L341.073 22.6143H341.138L343.354 17.4336H345.076L345.585 22.6258H345.647L347.701 17.4336H349.809L346.199 25.3397H344.358L343.736 20.5451H343.674L341.447 25.3397H339.609Z" fill="white"/>
<path d="M351.71 25.4516C351.09 25.4516 350.575 25.3294 350.166 25.0849C349.759 24.8378 349.473 24.4865 349.309 24.031C349.144 23.5729 349.114 23.0286 349.22 22.3981C349.323 21.7856 349.533 21.2503 349.849 20.7922C350.168 20.3315 350.57 19.9738 351.054 19.719C351.537 19.4616 352.077 19.3329 352.671 19.3329C353.093 19.3329 353.468 19.3986 353.794 19.5298C354.121 19.6611 354.391 19.8567 354.605 20.1166C354.819 20.374 354.964 20.6905 355.041 21.0662C355.118 21.442 355.116 21.8731 355.034 22.3595L354.96 22.8304H349.81L349.984 21.7341H353.381C353.412 21.5334 353.395 21.3545 353.331 21.1975C353.267 21.0405 353.163 20.9183 353.018 20.8308C352.877 20.7407 352.703 20.6956 352.497 20.6956C352.289 20.6956 352.093 20.7445 351.911 20.8423C351.73 20.9376 351.577 21.0662 351.451 21.2284C351.325 21.3905 351.243 21.5732 351.204 21.7766L350.999 22.8999C350.958 23.1496 350.97 23.3632 351.034 23.5408C351.099 23.7183 351.209 23.8547 351.366 23.95C351.523 24.0426 351.725 24.0889 351.972 24.0889C352.137 24.0889 352.291 24.0671 352.436 24.0233C352.58 23.977 352.708 23.9088 352.822 23.8187C352.937 23.7261 353.031 23.6141 353.103 23.4828L354.825 23.533C354.686 23.9216 354.471 24.2601 354.18 24.5483C353.89 24.834 353.534 25.0566 353.115 25.2162C352.698 25.3731 352.23 25.4516 351.71 25.4516Z" fill="white"/>
<path d="M355.83 25.3397L357.142 17.4336H359.03L358.54 20.4254H358.578C358.681 20.2453 358.818 20.0716 358.987 19.9043C359.16 19.737 359.367 19.6006 359.609 19.4951C359.851 19.387 360.128 19.3329 360.439 19.3329C360.851 19.3329 361.218 19.441 361.539 19.6572C361.861 19.8734 362.095 20.2067 362.242 20.657C362.388 21.1074 362.404 21.6813 362.288 22.3788C362.177 23.0505 361.978 23.6128 361.69 24.0658C361.402 24.5187 361.058 24.8584 360.659 25.0849C360.263 25.3114 359.846 25.4246 359.408 25.4246C359.11 25.4246 358.859 25.3757 358.655 25.2779C358.455 25.1801 358.294 25.0515 358.173 24.8919C358.055 24.7323 357.972 24.5612 357.926 24.3785H357.853L357.698 25.3397H355.83ZM358.173 22.3749C358.121 22.694 358.119 22.972 358.165 23.2088C358.214 23.4455 358.308 23.6295 358.447 23.7608C358.589 23.8895 358.775 23.9538 359.007 23.9538C359.238 23.9538 359.446 23.8895 359.628 23.7608C359.811 23.6295 359.964 23.4455 360.088 23.2088C360.211 22.972 360.299 22.694 360.35 22.3749C360.402 22.0558 360.404 21.7791 360.358 21.5449C360.314 21.3107 360.223 21.1293 360.084 21.0006C359.945 20.8719 359.758 20.8076 359.524 20.8076C359.292 20.8076 359.084 20.8707 358.899 20.9968C358.716 21.1229 358.562 21.303 358.435 21.5372C358.312 21.7714 358.224 22.0506 358.173 22.3749Z" fill="white"/>
<path d="M362.872 29.3774L364.185 21.4714H369.697L369.435 23.0232H365.833L365.571 24.6446H368.891L368.628 26.2003H365.308L365.046 27.8256H368.647L368.385 29.3774H362.872Z" fill="white"/>
<path d="M372.502 23.4479L373.15 25.4012L374.49 23.4479H376.393L374.243 26.4127L375.467 29.3774H373.579L372.815 27.4086L371.429 29.3774H369.514L371.73 26.4127L370.587 23.4479H372.502Z" fill="white"/>
<path d="M376.234 31.601L377.6 23.4479H379.469L379.303 24.4632H379.361C379.464 24.283 379.6 24.1093 379.77 23.942C379.942 23.7747 380.15 23.6383 380.391 23.5328C380.633 23.4247 380.91 23.3707 381.221 23.3707C381.633 23.3707 382 23.4788 382.322 23.695C382.643 23.9111 382.878 24.2444 383.024 24.6948C383.171 25.1452 383.186 25.7191 383.071 26.4165C382.96 27.0882 382.759 27.6506 382.468 28.1035C382.18 28.5565 381.838 28.8962 381.442 29.1227C381.045 29.3491 380.63 29.4624 380.195 29.4624C379.896 29.4624 379.644 29.4135 379.438 29.3157C379.235 29.2179 379.074 29.0892 378.955 28.9296C378.837 28.7701 378.755 28.5989 378.708 28.4162H378.654L378.129 31.601H376.234ZM378.955 26.4127C378.904 26.7318 378.901 27.0097 378.948 27.2465C378.994 27.4833 379.088 27.6673 379.23 27.7985C379.374 27.9272 379.56 27.9916 379.789 27.9916C380.021 27.9916 380.227 27.9272 380.407 27.7985C380.59 27.6673 380.743 27.4833 380.866 27.2465C380.99 27.0097 381.08 26.7318 381.137 26.4127C381.185 26.0935 381.187 25.8169 381.14 25.5827C381.097 25.3485 381.005 25.167 380.866 25.0384C380.727 24.9097 380.541 24.8454 380.307 24.8454C380.078 24.8454 379.869 24.9084 379.681 25.0345C379.496 25.1606 379.341 25.3408 379.218 25.575C379.094 25.8092 379.007 26.0884 378.955 26.4127Z" fill="white"/>
<path d="M386.65 29.4894C386.03 29.4894 385.515 29.3671 385.106 29.1227C384.699 28.8756 384.414 28.5243 384.249 28.0688C384.084 27.6107 384.055 27.0664 384.16 26.4358C384.263 25.8233 384.473 25.288 384.789 24.8299C385.108 24.3692 385.51 24.0115 385.994 23.7567C386.478 23.4994 387.017 23.3707 387.611 23.3707C388.033 23.3707 388.408 23.4363 388.735 23.5676C389.062 23.6988 389.332 23.8944 389.545 24.1543C389.759 24.4117 389.904 24.7283 389.982 25.104C390.059 25.4797 390.056 25.9108 389.974 26.3972L389.901 26.8682H384.751L384.924 25.7718H388.322C388.352 25.5711 388.336 25.3922 388.271 25.2352C388.207 25.0783 388.103 24.956 387.959 24.8685C387.817 24.7784 387.643 24.7334 387.438 24.7334C387.229 24.7334 387.034 24.7823 386.851 24.8801C386.671 24.9753 386.518 25.104 386.391 25.2661C386.265 25.4283 386.183 25.611 386.144 25.8143L385.94 26.9377C385.899 27.1873 385.91 27.4009 385.974 27.5785C386.039 27.7561 386.15 27.8925 386.306 27.9877C386.463 28.0804 386.666 28.1267 386.913 28.1267C387.077 28.1267 387.232 28.1048 387.376 28.0611C387.52 28.0147 387.649 27.9465 387.762 27.8565C387.878 27.7638 387.972 27.6518 388.044 27.5206L389.765 27.5708C389.626 27.9594 389.412 28.2978 389.121 28.5861C388.83 28.8717 388.475 29.0943 388.055 29.2539C387.638 29.4109 387.17 29.4894 386.65 29.4894Z" fill="white"/>
<g filter="url(#filter2_d_519_929)">
<path d="M334.006 158.552C333.985 158.701 333.974 158.797 333.974 158.84C333.974 159.064 334.043 159.229 334.182 159.336C334.321 159.432 334.55 159.48 334.87 159.48H335.99L335.718 161H334.278C333.574 161 333.035 160.861 332.662 160.584C332.289 160.296 332.102 159.843 332.102 159.224C332.102 158.989 332.123 158.765 332.166 158.552L333.03 153.672H331.99L332.246 152.184H333.302L333.686 149.992H335.526L335.142 152.184H337.27L337.014 153.672H334.87L334.006 158.552ZM346.935 152.184L345.383 161H343.559L343.735 159.96C343.383 160.323 342.957 160.611 342.455 160.824C341.965 161.027 341.458 161.128 340.935 161.128C340.007 161.128 339.266 160.877 338.711 160.376C338.157 159.875 337.879 159.165 337.879 158.248C337.879 158.003 337.906 157.709 337.959 157.368L338.871 152.184H340.679L339.815 157.096C339.773 157.395 339.751 157.608 339.751 157.736C339.751 158.323 339.911 158.771 340.231 159.08C340.562 159.389 341.015 159.544 341.591 159.544C342.263 159.544 342.834 159.347 343.303 158.952C343.773 158.547 344.082 157.965 344.231 157.208L345.111 152.184H346.935ZM350.35 158.552C350.329 158.701 350.318 158.797 350.318 158.84C350.318 159.064 350.387 159.229 350.526 159.336C350.665 159.432 350.894 159.48 351.214 159.48H352.334L352.062 161H350.622C349.918 161 349.379 160.861 349.006 160.584C348.633 160.296 348.446 159.843 348.446 159.224C348.446 158.989 348.467 158.765 348.51 158.552L349.374 153.672H348.334L348.59 152.184H349.646L350.03 149.992H351.87L351.486 152.184H353.614L353.358 153.672H351.214L350.35 158.552ZM357.599 161.144C356.852 161.144 356.196 160.989 355.631 160.68C355.066 160.371 354.623 159.933 354.303 159.368C353.994 158.803 353.839 158.157 353.839 157.432C353.839 156.44 354.068 155.533 354.527 154.712C354.996 153.891 355.636 153.24 356.447 152.76C357.268 152.28 358.18 152.04 359.183 152.04C359.93 152.04 360.591 152.2 361.167 152.52C361.743 152.829 362.191 153.267 362.511 153.832C362.842 154.387 363.007 155.032 363.007 155.768C363.007 156.76 362.767 157.667 362.287 158.488C361.807 159.309 361.156 159.96 360.335 160.44C359.514 160.909 358.602 161.144 357.599 161.144ZM357.823 159.608C358.431 159.608 358.986 159.437 359.487 159.096C359.999 158.744 360.399 158.285 360.687 157.72C360.975 157.144 361.119 156.531 361.119 155.88C361.119 155.144 360.911 154.579 360.495 154.184C360.079 153.779 359.556 153.576 358.927 153.576C358.308 153.576 357.754 153.752 357.263 154.104C356.783 154.445 356.404 154.909 356.127 155.496C355.86 156.072 355.727 156.691 355.727 157.352C355.727 158.067 355.919 158.621 356.303 159.016C356.698 159.411 357.204 159.608 357.823 159.608ZM367.05 153.736C367.413 153.203 367.839 152.787 368.33 152.488C368.831 152.189 369.386 152.04 369.994 152.04L369.658 153.928H369.194C368.49 153.928 367.925 154.104 367.498 154.456C367.071 154.808 366.773 155.416 366.602 156.28L365.77 161H363.946L365.498 152.184H367.322L367.05 153.736ZM372.775 151.016C372.487 151.016 372.252 150.925 372.071 150.744C371.889 150.563 371.799 150.333 371.799 150.056C371.799 149.683 371.937 149.363 372.215 149.096C372.503 148.819 372.828 148.68 373.191 148.68C373.479 148.68 373.708 148.771 373.879 148.952C374.06 149.133 374.151 149.363 374.151 149.64C374.151 150.013 374.012 150.339 373.735 150.616C373.457 150.883 373.137 151.016 372.775 151.016ZM373.463 152.184L371.911 161H370.087L371.639 152.184H373.463ZM374.482 156.552C374.642 155.667 374.962 154.883 375.442 154.2C375.932 153.517 376.53 152.989 377.234 152.616C377.938 152.232 378.674 152.04 379.442 152.04C380.135 152.04 380.716 152.179 381.186 152.456C381.655 152.723 382.007 153.059 382.242 153.464L382.466 152.184H384.306L382.753 161H380.914L381.154 159.688C380.77 160.104 380.284 160.451 379.698 160.728C379.122 161.005 378.492 161.144 377.81 161.144C377.148 161.144 376.556 160.995 376.034 160.696C375.522 160.397 375.116 159.976 374.818 159.432C374.53 158.877 374.386 158.243 374.386 157.528C374.386 157.208 374.418 156.883 374.482 156.552ZM381.698 156.584C381.74 156.381 381.762 156.163 381.762 155.928C381.762 155.213 381.548 154.653 381.122 154.248C380.706 153.832 380.183 153.624 379.554 153.624C379.084 153.624 378.626 153.741 378.178 153.976C377.73 154.2 377.34 154.536 377.01 154.984C376.679 155.421 376.46 155.944 376.354 156.552C376.311 156.755 376.289 156.973 376.289 157.208C376.289 157.933 376.498 158.509 376.914 158.936C377.34 159.352 377.868 159.56 378.498 159.56C378.967 159.56 379.426 159.443 379.874 159.208C380.322 158.973 380.711 158.632 381.042 158.184C381.372 157.725 381.591 157.192 381.698 156.584ZM389.069 149.16L386.973 161H385.149L387.245 149.16H389.069Z" fill="white"/>
</g>
<path d="M340.397 201.608L339.133 206H338.349L337.141 202.424L335.925 206H335.133L333.885 201.608H334.621L335.557 205.304L336.773 201.608H337.533L338.757 205.296L339.701 201.608H340.397ZM345.116 203.56C345.116 203.715 345.106 203.848 345.084 203.96H341.572C341.588 204.461 341.73 204.837 341.996 205.088C342.268 205.339 342.599 205.464 342.988 205.464C343.34 205.464 343.634 205.376 343.868 205.2C344.108 205.019 344.255 204.779 344.308 204.48H345.084C345.031 204.784 344.911 205.056 344.724 205.296C344.543 205.536 344.306 205.723 344.012 205.856C343.719 205.989 343.388 206.056 343.02 206.056C342.599 206.056 342.226 205.965 341.9 205.784C341.575 205.603 341.319 205.344 341.132 205.008C340.951 204.667 340.86 204.267 340.86 203.808C340.86 203.349 340.951 202.949 341.132 202.608C341.319 202.267 341.575 202.005 341.9 201.824C342.226 201.643 342.599 201.552 343.02 201.552C343.447 201.552 343.818 201.643 344.132 201.824C344.452 202.005 344.695 202.248 344.86 202.552C345.031 202.856 345.116 203.192 345.116 203.56ZM344.38 203.608C344.396 203.283 344.343 203.011 344.22 202.792C344.098 202.573 343.93 202.411 343.716 202.304C343.503 202.197 343.271 202.144 343.02 202.144C342.62 202.144 342.284 202.269 342.012 202.52C341.74 202.765 341.594 203.128 341.572 203.608H344.38ZM348.492 201.552C348.882 201.552 349.228 201.643 349.532 201.824C349.836 202.005 350.074 202.267 350.244 202.608C350.42 202.949 350.508 203.349 350.508 203.808C350.508 204.267 350.42 204.667 350.244 205.008C350.074 205.344 349.836 205.603 349.532 205.784C349.228 205.965 348.882 206.056 348.492 206.056C348.066 206.056 347.703 205.949 347.404 205.736C347.111 205.517 346.908 205.232 346.796 204.88V206H346.068V200.08H346.796V202.728C346.908 202.376 347.111 202.093 347.404 201.88C347.703 201.661 348.066 201.552 348.492 201.552ZM348.284 202.2C348.002 202.2 347.746 202.267 347.516 202.4C347.287 202.528 347.108 202.715 346.98 202.96C346.852 203.205 346.788 203.488 346.788 203.808C346.788 204.128 346.852 204.411 346.98 204.656C347.108 204.896 347.287 205.083 347.516 205.216C347.746 205.349 348.002 205.416 348.284 205.416C348.738 205.416 349.098 205.275 349.364 204.992C349.636 204.704 349.772 204.309 349.772 203.808C349.772 203.307 349.636 202.915 349.364 202.632C349.098 202.344 348.738 202.2 348.284 202.2ZM355.499 203.56C355.499 203.715 355.488 203.848 355.467 203.96H351.955C351.971 204.461 352.112 204.837 352.379 205.088C352.651 205.339 352.982 205.464 353.371 205.464C353.723 205.464 354.016 205.376 354.251 205.2C354.491 205.019 354.638 204.779 354.691 204.48H355.467C355.414 204.784 355.294 205.056 355.107 205.296C354.926 205.536 354.688 205.723 354.395 205.856C354.102 205.989 353.771 206.056 353.403 206.056C352.982 206.056 352.608 205.965 352.283 205.784C351.958 205.603 351.702 205.344 351.515 205.008C351.334 204.667 351.243 204.267 351.243 203.808C351.243 203.349 351.334 202.949 351.515 202.608C351.702 202.267 351.958 202.005 352.283 201.824C352.608 201.643 352.982 201.552 353.403 201.552C353.83 201.552 354.2 201.643 354.515 201.824C354.835 202.005 355.078 202.248 355.243 202.552C355.414 202.856 355.499 203.192 355.499 203.56ZM354.763 203.608C354.779 203.283 354.726 203.011 354.603 202.792C354.48 202.573 354.312 202.411 354.099 202.304C353.886 202.197 353.654 202.144 353.403 202.144C353.003 202.144 352.667 202.269 352.395 202.52C352.123 202.765 351.976 203.128 351.955 203.608H354.763ZM358.979 206L357.835 204.32L356.803 206H355.995L357.435 203.736L355.987 201.608H356.819L357.931 203.24L358.947 201.608H359.755L358.323 203.816L359.811 206H358.979ZM362.914 201.552C363.304 201.552 363.65 201.643 363.954 201.824C364.258 202.005 364.496 202.267 364.666 202.608C364.842 202.949 364.93 203.349 364.93 203.808C364.93 204.267 364.842 204.667 364.666 205.008C364.496 205.344 364.258 205.603 363.954 205.784C363.65 205.965 363.304 206.056 362.914 206.056C362.488 206.056 362.125 205.949 361.826 205.736C361.533 205.517 361.33 205.232 361.218 204.88V208.08H360.49V201.608H361.218V202.728C361.33 202.376 361.533 202.093 361.826 201.88C362.125 201.661 362.488 201.552 362.914 201.552ZM362.706 202.2C362.424 202.2 362.168 202.267 361.938 202.4C361.709 202.528 361.53 202.715 361.402 202.96C361.274 203.205 361.21 203.488 361.21 203.808C361.21 204.128 361.274 204.411 361.402 204.656C361.53 204.896 361.709 205.083 361.938 205.216C362.168 205.349 362.424 205.416 362.706 205.416C363.16 205.416 363.52 205.275 363.786 204.992C364.058 204.704 364.194 204.309 364.194 203.808C364.194 203.307 364.058 202.915 363.786 202.632C363.52 202.344 363.16 202.2 362.706 202.2ZM369.921 203.56C369.921 203.715 369.91 203.848 369.889 203.96H366.377C366.393 204.461 366.534 204.837 366.801 205.088C367.073 205.339 367.404 205.464 367.793 205.464C368.145 205.464 368.438 205.376 368.673 205.2C368.913 205.019 369.06 204.779 369.113 204.48H369.889C369.836 204.784 369.716 205.056 369.529 205.296C369.348 205.536 369.11 205.723 368.817 205.856C368.524 205.989 368.193 206.056 367.825 206.056C367.404 206.056 367.03 205.965 366.705 205.784C366.38 205.603 366.124 205.344 365.937 205.008C365.756 204.667 365.665 204.267 365.665 203.808C365.665 203.349 365.756 202.949 365.937 202.608C366.124 202.267 366.38 202.005 366.705 201.824C367.03 201.643 367.404 201.552 367.825 201.552C368.252 201.552 368.622 201.643 368.937 201.824C369.257 202.005 369.5 202.248 369.665 202.552C369.836 202.856 369.921 203.192 369.921 203.56ZM369.185 203.608C369.201 203.283 369.148 203.011 369.025 202.792C368.902 202.573 368.734 202.411 368.521 202.304C368.308 202.197 368.076 202.144 367.825 202.144C367.425 202.144 367.089 202.269 366.817 202.52C366.545 202.765 366.398 203.128 366.377 203.608H369.185ZM371.409 205.144V206H370.529V205.144H371.409ZM374.184 201.552C374.744 201.552 375.208 201.701 375.576 202C375.944 202.299 376.171 202.699 376.256 203.2H375.488C375.435 202.885 375.288 202.64 375.048 202.464C374.814 202.283 374.52 202.192 374.168 202.192C373.912 202.192 373.678 202.251 373.464 202.368C373.256 202.485 373.088 202.667 372.96 202.912C372.832 203.152 372.768 203.451 372.768 203.808C372.768 204.165 372.832 204.467 372.96 204.712C373.088 204.952 373.256 205.131 373.464 205.248C373.678 205.365 373.912 205.424 374.168 205.424C374.52 205.424 374.814 205.333 375.048 205.152C375.288 204.971 375.435 204.723 375.488 204.408H376.256C376.171 204.915 375.944 205.317 375.576 205.616C375.208 205.909 374.744 206.056 374.184 206.056C373.763 206.056 373.39 205.965 373.064 205.784C372.739 205.603 372.483 205.344 372.296 205.008C372.115 204.667 372.024 204.267 372.024 203.808C372.024 203.349 372.115 202.949 372.296 202.608C372.483 202.267 372.739 202.005 373.064 201.824C373.39 201.643 373.763 201.552 374.184 201.552ZM379.201 201.552C379.622 201.552 379.998 201.643 380.329 201.824C380.665 202.005 380.926 202.267 381.113 202.608C381.305 202.949 381.401 203.349 381.401 203.808C381.401 204.267 381.305 204.667 381.113 205.008C380.926 205.344 380.665 205.603 380.329 205.784C379.998 205.965 379.622 206.056 379.201 206.056C378.78 206.056 378.401 205.965 378.065 205.784C377.734 205.603 377.473 205.344 377.281 205.008C377.089 204.667 376.993 204.267 376.993 203.808C376.993 203.349 377.089 202.949 377.281 202.608C377.473 202.267 377.734 202.005 378.065 201.824C378.401 201.643 378.78 201.552 379.201 201.552ZM379.201 202.192C378.94 202.192 378.697 202.251 378.473 202.368C378.254 202.485 378.076 202.667 377.937 202.912C377.804 203.152 377.737 203.451 377.737 203.808C377.737 204.16 377.804 204.459 377.937 204.704C378.076 204.944 378.254 205.123 378.473 205.24C378.697 205.357 378.94 205.416 379.201 205.416C379.462 205.416 379.702 205.357 379.921 205.24C380.145 205.123 380.324 204.944 380.457 204.704C380.596 204.459 380.665 204.16 380.665 203.808C380.665 203.451 380.596 203.152 380.457 202.912C380.324 202.667 380.145 202.485 379.921 202.368C379.702 202.251 379.462 202.192 379.201 202.192ZM387.75 201.536C388.262 201.536 388.672 201.701 388.982 202.032C389.296 202.357 389.454 202.829 389.454 203.448V206H388.726V203.512C388.726 203.08 388.619 202.749 388.406 202.52C388.198 202.291 387.91 202.176 387.542 202.176C387.158 202.176 386.848 202.304 386.614 202.56C386.384 202.811 386.27 203.181 386.27 203.672V206H385.542V203.512C385.542 203.08 385.435 202.749 385.222 202.52C385.008 202.291 384.72 202.176 384.358 202.176C383.968 202.176 383.656 202.304 383.422 202.56C383.192 202.811 383.078 203.181 383.078 203.672V206H382.35V201.608H383.078V202.608C383.184 202.261 383.374 201.997 383.646 201.816C383.923 201.629 384.24 201.536 384.598 201.536C384.971 201.536 385.294 201.632 385.566 201.824C385.843 202.011 386.04 202.288 386.158 202.656C386.28 202.299 386.486 202.024 386.774 201.832C387.062 201.635 387.387 201.536 387.75 201.536Z" fill="white"/>
<path d="M267 177.56H253.66V178.127H267V177.56Z" fill="#3F3D56"/>
<path d="M226.084 170.326C226.084 178.651 232.289 178.2 239.943 178.2C247.597 178.2 253.802 178.651 253.802 170.326C253.802 162.001 247.597 148.052 239.943 148.052C232.289 148.052 226.084 162.001 226.084 170.326Z" fill="#3F3D56"/>
<path d="M193.494 101.58C193.501 101.556 193.509 101.532 193.517 101.509C193.513 101.519 193.509 101.529 193.506 101.539L193.494 101.58Z" fill="#2F2E41"/>
<path d="M219.126 157.025L223.859 161.525L227.69 157.475L221.831 154.55L219.126 157.025Z" fill="#FFB9B9"/>
<path d="M225.225 157.914C225.225 157.914 219.492 157.54 220.162 159.211C220.832 160.882 219.412 167.024 219.412 167.024C219.412 167.024 217.282 178.054 224.017 173.665C230.753 169.276 229.287 166.226 229.287 166.226C229.287 166.226 231.253 163.259 230.834 162.215C230.415 161.171 227.087 157.16 226.449 157.662C226.285 157.807 226.085 157.907 225.871 157.951C225.656 157.995 225.433 157.982 225.225 157.914V157.914Z" fill="#2F2E41"/>
<path d="M227.239 139.251C227.239 139.251 202 137.226 199.972 142.401C197.944 147.576 202 151.4 202 151.4L218.45 159.5L223.697 154.814L220.704 152.075C220.704 152.075 237.605 155.225 238.055 152.75C238.506 150.275 236.253 137.226 227.239 139.251Z" fill="#2F2E41"/>
<path d="M197.944 143.751C197.944 143.751 193.437 156.35 197.944 155.675C202.451 155 202 144.876 202 144.876L197.944 143.751Z" fill="#FFB9B9"/>
<path d="M207.972 117.99C207.972 117.99 205.155 119.452 205.606 121.252C206.056 123.052 203.803 134.301 203.803 134.301L197.043 144.201L202.676 146.226C202.676 146.226 209.887 141.501 211.014 138.126C212.141 134.751 213.718 129.577 213.718 129.577L207.972 117.99Z" fill="#E6E6E6"/>
<path d="M209.437 112.703C213.544 112.703 216.873 109.379 216.873 105.278C216.873 101.178 213.544 97.8539 209.437 97.8539C205.33 97.8539 202 101.178 202 105.278C202 109.379 205.33 112.703 209.437 112.703Z" fill="#FFB9B9"/>
<path d="M208.873 110.566C208.873 110.566 209.775 117.99 209.324 120.915C208.873 123.84 218.338 110.341 218.338 110.341C218.338 110.341 214.282 107.416 214.282 106.291C214.282 105.166 208.873 110.566 208.873 110.566Z" fill="#FFB9B9"/>
<path d="M200.439 102.422C201.161 102.336 201.891 102.341 202.613 102.437C203.341 102.538 204.004 102.908 204.471 103.474C204.985 104.162 205.156 105.206 205.962 105.504C206.442 105.682 206.998 105.513 207.479 105.689C208.056 105.901 208.349 106.538 208.502 107.133C208.656 107.727 208.461 107.521 208.853 107.993C209.246 108.465 210.657 107.866 210.806 107.341C210.869 107.075 210.997 106.828 211.178 106.623C211.36 106.418 211.59 106.262 211.848 106.168C212.733 105.912 213.557 106.68 214.154 107.382C214.75 108.084 215.549 108.867 216.444 108.647C217.383 108.417 217.704 107.263 217.808 106.302C218.043 104.114 218.008 101.791 216.948 99.8618C215.415 97.0693 211.913 95.7141 208.753 96.1519C205.594 96.5898 202.805 98.559 200.767 101.009C200.404 101.383 200.151 101.849 200.038 102.357" fill="#2F2E41"/>
<path d="M210 119.34L212.479 116.865L216.76 108.316L228.253 111.915C228.253 111.915 232.309 113.04 234.788 120.24C234.788 120.24 249.661 139.364 247.182 142.513C244.703 145.663 244.253 145.438 240.196 142.963C237.652 141.433 234.927 140.224 232.084 139.364L221.267 140.489L214.732 132.389C214.732 132.389 205.042 126.089 206.62 118.89L209.324 115.29L210 119.34Z" fill="#575A89"/>
<path d="M211.69 141.951L210.338 142.851C210.338 142.851 202.902 152.075 206.507 153.875C210.113 155.675 213.718 144.876 213.718 144.876L211.69 141.951Z" fill="#FFB9B9"/>
<path d="M221.909 112.165C221.64 112.185 221.379 112.261 221.141 112.388C220.904 112.515 220.695 112.69 220.529 112.901C219.635 114.037 218.303 116.708 220.253 121.252C221.836 124.891 223.117 128.654 224.084 132.502C224.084 132.502 222.957 132.277 222.957 133.177C222.957 134.076 223.859 133.626 222.957 134.076C222.056 134.526 222.281 133.851 222.056 134.526C221.821 135.231 222.077 135.2 221.541 135.458C221.003 135.754 220.534 136.162 220.164 136.653C220.063 136.787 219.941 136.905 219.802 137.001L211.465 141.276C211.465 141.276 210.338 145.776 213.718 145.776C213.718 145.776 234.45 139.926 233.999 135.426C233.559 131.027 232.687 111.36 221.909 112.165Z" fill="#E6E6E6"/>
<path d="M226.338 168.949V174.799L232.647 174.349L231.295 168.499L226.338 168.949Z" fill="#FFB9B9"/>
<path d="M230.844 171.649C230.844 171.649 225.661 169.174 225.661 170.974C225.661 172.774 222.056 177.948 222.056 177.948C222.056 177.948 215.972 187.398 223.859 185.823C231.746 184.248 231.52 180.873 231.52 180.873C231.52 180.873 234.45 178.848 234.45 177.723C234.45 176.599 232.853 171.64 232.074 171.87C231.868 171.943 231.646 171.961 231.43 171.923C231.214 171.884 231.012 171.79 230.844 171.649V171.649Z" fill="#2F2E41"/>
<path d="M237.154 139.701C237.154 139.701 221.155 136.101 221.831 141.951C222.507 147.801 223.183 151.175 223.183 151.175L225.887 170.299L232.197 169.624L232.647 166.024C232.647 166.024 233.999 164.674 233.323 163.774C232.647 162.874 234.45 154.1 234.45 154.1C234.45 154.1 245.267 156.35 246.168 149.825C247.069 143.301 244.816 141.276 244.816 141.276L237.154 139.701Z" fill="#2F2E41"/>
<path d="M263.138 170.825C264.269 174.243 261.953 178.081 261.953 178.081C261.953 178.081 257.801 176.377 256.67 172.959C255.539 169.542 257.856 165.704 257.856 165.704C257.856 165.704 262.007 167.408 263.138 170.825Z" fill="#0A9E8B"/>
<path d="M180.069 45.0928H16.07V149.957H180.069V45.0928Z" fill="#E6E6E6"/>
<path d="M175.38 58.2454H20.7595V143.753H175.38V58.2454Z" fill="white"/>
<path d="M179.999 45H16V51.9561H179.999V45Z" fill="#0A9E8B"/>
<path d="M21.1775 49.8456C21.8907 49.8456 22.4689 49.2684 22.4689 48.5563C22.4689 47.8443 21.8907 47.2671 21.1775 47.2671C20.4643 47.2671 19.8862 47.8443 19.8862 48.5563C19.8862 49.2684 20.4643 49.8456 21.1775 49.8456Z" fill="white"/>
<path d="M26.0791 49.8456C26.7923 49.8456 27.3704 49.2684 27.3704 48.5563C27.3704 47.8443 26.7923 47.2671 26.0791 47.2671C25.3659 47.2671 24.7878 47.8443 24.7878 48.5563C24.7878 49.2684 25.3659 49.8456 26.0791 49.8456Z" fill="white"/>
<path d="M30.9807 49.8456C31.6939 49.8456 32.272 49.2684 32.272 48.5563C32.272 47.8443 31.6939 47.2671 30.9807 47.2671C30.2675 47.2671 29.6893 47.8443 29.6893 48.5563C29.6893 49.2684 30.2675 49.8456 30.9807 49.8456Z" fill="white"/>
<path d="M162.907 76.8088H105.015V83.0431H162.907V76.8088Z" fill="#0A9E8B"/>
<path d="M162.907 94.1161H105.015V97.2332H162.907V94.1161Z" fill="#E6E6E6"/>
<path d="M162.907 103.63H105.015V106.747H162.907V103.63Z" fill="#E6E6E6"/>
<path d="M162.907 113.265H105.015V116.382H162.907V113.265Z" fill="#E6E6E6"/>
<path d="M82.0547 73.8444H31.1791V124.638H82.0547V73.8444Z" fill="#E6E6E6"/>
<path d="M31.6013 73.4436L30.7986 74.245L81.6043 124.969L82.407 124.168L31.6013 73.4436Z" fill="white"/>
<path d="M81.6043 73.4436L30.7986 124.168L31.6013 124.969L82.407 74.245L81.6043 73.4436Z" fill="white"/>
<path d="M198.693 118.521H136.694V182.355H198.693V118.521Z" fill="#3F3D56"/>
<path d="M167.701 135.39C161.483 135.39 157.597 138.494 156.043 144.702C158.374 141.598 161.095 140.434 164.204 141.21C165.978 141.653 167.245 142.937 168.649 144.36C170.935 146.676 173.581 149.358 179.36 149.358C185.578 149.358 189.464 146.254 191.018 140.046C188.687 143.15 185.966 144.314 182.857 143.538C181.084 143.095 179.816 141.81 178.412 140.388C176.126 138.071 173.48 135.39 167.701 135.39ZM156.043 149.358C149.825 149.358 145.939 152.462 144.384 158.67C146.716 155.566 149.436 154.402 152.545 155.178C154.319 155.62 155.587 156.905 156.99 158.327C159.276 160.644 161.922 163.326 167.701 163.326C173.919 163.326 177.805 160.222 179.36 154.014C177.028 157.118 174.308 158.282 171.199 157.506C169.425 157.063 168.157 155.778 166.754 154.356C164.468 152.039 161.822 149.358 156.043 149.358Z" fill="url(#paint19_linear_519_929)"/>
</g>
<defs>
<filter id="filter0_d_519_929" x="61" y="-5" width="342" height="232" filterUnits="userSpaceOnUse" color-interpolation-filters="sRGB">
<feFlood flood-opacity="0" result="BackgroundImageFix"/>
<feColorMatrix in="SourceAlpha" type="matrix" values="0 0 0 0 0 0 0 0 0 0 0 0 0 0 0 0 0 0 127 0" result="hardAlpha"/>
<feOffset dx="-2"/>
<feGaussianBlur stdDeviation="2.5"/>
<feComposite in2="hardAlpha" operator="out"/>
<feColorMatrix type="matrix" values="0 0 0 0 0 0 0 0 0 0 0 0 0 0 0 0 0 0 0.15 0"/>
<feBlend mode="normal" in2="BackgroundImageFix" result="effect1_dropShadow_519_929"/>
<feBlend mode="normal" in="SourceGraphic" in2="effect1_dropShadow_519_929" result="shape"/>
</filter>
<filter id="filter1_d_519_929" x="215.858" y="52.58" width="134.249" height="66.651" filterUnits="userSpaceOnUse" color-interpolation-filters="sRGB">
<feFlood flood-opacity="0" result="BackgroundImageFix"/>
<feColorMatrix in="SourceAlpha" type="matrix" values="0 0 0 0 0 0 0 0 0 0 0 0 0 0 0 0 0 0 127 0" result="hardAlpha"/>
<feOffset dx="2" dy="2"/>
<feComposite in2="hardAlpha" operator="out"/>
<feColorMatrix type="matrix" values="0 0 0 0 0 0 0 0 0 0 0 0 0 0 0 0 0 0 1 0"/>
<feBlend mode="normal" in2="BackgroundImageFix" result="effect1_dropShadow_519_929"/>
<feBlend mode="normal" in="SourceGraphic" in2="effect1_dropShadow_519_929" result="shape"/>
</filter>
<filter id="filter2_d_519_929" x="331.99" y="148.68" width="58.0792" height="14.464" filterUnits="userSpaceOnUse" color-interpolation-filters="sRGB">
<feFlood flood-opacity="0" result="BackgroundImageFix"/>
<feColorMatrix in="SourceAlpha" type="matrix" values="0 0 0 0 0 0 0 0 0 0 0 0 0 0 0 0 0 0 127 0" result="hardAlpha"/>
<feOffset dx="1" dy="2"/>
<feComposite in2="hardAlpha" operator="out"/>
<feColorMatrix type="matrix" values="0 0 0 0 0 0 0 0 0 0 0 0 0 0 0 0 0 0 1 0"/>
<feBlend mode="normal" in2="BackgroundImageFix" result="effect1_dropShadow_519_929"/>
<feBlend mode="normal" in="SourceGraphic" in2="effect1_dropShadow_519_929" result="shape"/>
</filter>
<linearGradient id="paint0_linear_519_929" x1="0" y1="0" x2="400" y2="241" gradientUnits="userSpaceOnUse">
<stop stop-color="#3C82F6"/>
<stop offset="1" stop-color="#3C78D2"/>
</linearGradient>
<linearGradient id="paint1_linear_519_929" x1="348.318" y1="14.877" x2="356.117" y2="14.877" gradientUnits="userSpaceOnUse">
<stop stop-color="#1884E8"/>
<stop offset="0.453125" stop-color="#149BBE"/>
<stop offset="1" stop-color="#14BD80"/>
</linearGradient>
<linearGradient id="paint2_linear_519_929" x1="348.318" y1="16.2444" x2="357.615" y2="16.2444" gradientUnits="userSpaceOnUse">
<stop stop-color="#1884E8"/>
<stop offset="0.453125" stop-color="#149BBE"/>
<stop offset="1" stop-color="#14BD80"/>
</linearGradient>
<linearGradient id="paint3_linear_519_929" x1="348.318" y1="17.6119" x2="359.117" y2="17.6119" gradientUnits="userSpaceOnUse">
<stop stop-color="#1884E8"/>
<stop offset="0.453125" stop-color="#149BBE"/>
<stop offset="1" stop-color="#14BD80"/>
</linearGradient>
<linearGradient id="paint4_linear_519_929" x1="348.318" y1="18.9794" x2="360.616" y2="18.9794" gradientUnits="userSpaceOnUse">
<stop stop-color="#1884E8"/>
<stop offset="0.453125" stop-color="#149BBE"/>
<stop offset="1" stop-color="#14BD80"/>
</linearGradient>
<linearGradient id="paint5_linear_519_929" x1="348.318" y1="20.3447" x2="362.114" y2="20.3447" gradientUnits="userSpaceOnUse">
<stop stop-color="#1884E8"/>
<stop offset="0.453125" stop-color="#149BBE"/>
<stop offset="1" stop-color="#14BD80"/>
</linearGradient>
<linearGradient id="paint6_linear_519_929" x1="348.318" y1="21.7122" x2="363.616" y2="21.7122" gradientUnits="userSpaceOnUse">
<stop stop-color="#1884E8"/>
<stop offset="0.453125" stop-color="#149BBE"/>
<stop offset="1" stop-color="#14BD80"/>
</linearGradient>
<linearGradient id="paint7_linear_519_929" x1="348.318" y1="23.0796" x2="365.115" y2="23.0796" gradientUnits="userSpaceOnUse">
<stop stop-color="#1884E8"/>
<stop offset="0.453125" stop-color="#149BBE"/>
<stop offset="1" stop-color="#14BD80"/>
</linearGradient>
<linearGradient id="paint8_linear_519_929" x1="348.318" y1="24.4471" x2="366.613" y2="24.4471" gradientUnits="userSpaceOnUse">
<stop stop-color="#1884E8"/>
<stop offset="0.453125" stop-color="#149BBE"/>
<stop offset="1" stop-color="#14BD80"/>
</linearGradient>
<linearGradient id="paint9_linear_519_929" x1="348.318" y1="25.8125" x2="368.115" y2="25.8125" gradientUnits="userSpaceOnUse">
<stop stop-color="#1884E8"/>
<stop offset="0.453125" stop-color="#149BBE"/>
<stop offset="1" stop-color="#14BD80"/>
</linearGradient>
<linearGradient id="paint10_linear_519_929" x1="348.318" y1="27.1799" x2="369.613" y2="27.1799" gradientUnits="userSpaceOnUse">
<stop stop-color="#1884E8"/>
<stop offset="0.453125" stop-color="#149BBE"/>
<stop offset="1" stop-color="#14BD80"/>
</linearGradient>
<linearGradient id="paint11_linear_519_929" x1="348.318" y1="28.5474" x2="371.116" y2="28.5474" gradientUnits="userSpaceOnUse">
<stop stop-color="#1884E8"/>
<stop offset="0.453125" stop-color="#149BBE"/>
<stop offset="1" stop-color="#14BD80"/>
</linearGradient>
<linearGradient id="paint12_linear_519_929" x1="348.318" y1="29.9148" x2="372.614" y2="29.9148" gradientUnits="userSpaceOnUse">
<stop stop-color="#1884E8"/>
<stop offset="0.453125" stop-color="#149BBE"/>
<stop offset="1" stop-color="#14BD80"/>
</linearGradient>
<linearGradient id="paint13_linear_519_929" x1="348.318" y1="31.2822" x2="374.112" y2="31.2822" gradientUnits="userSpaceOnUse">
<stop stop-color="#1884E8"/>
<stop offset="0.453125" stop-color="#149BBE"/>
<stop offset="1" stop-color="#14BD80"/>
</linearGradient>
<linearGradient id="paint14_linear_519_929" x1="348.318" y1="32.6477" x2="375.615" y2="32.6477" gradientUnits="userSpaceOnUse">
<stop stop-color="#1884E8"/>
<stop offset="0.453125" stop-color="#149BBE"/>
<stop offset="1" stop-color="#14BD80"/>
</linearGradient>
<linearGradient id="paint15_linear_519_929" x1="348.318" y1="34.0151" x2="377.113" y2="34.0151" gradientUnits="userSpaceOnUse">
<stop stop-color="#1884E8"/>
<stop offset="0.453125" stop-color="#149BBE"/>
<stop offset="1" stop-color="#14BD80"/>
</linearGradient>
<linearGradient id="paint16_linear_519_929" x1="348.318" y1="35.3826" x2="378.611" y2="35.3826" gradientUnits="userSpaceOnUse">
<stop stop-color="#1884E8"/>
<stop offset="0.453125" stop-color="#149BBE"/>
<stop offset="1" stop-color="#14BD80"/>
</linearGradient>
<linearGradient id="paint17_linear_519_929" x1="348.318" y1="36.75" x2="380.114" y2="36.75" gradientUnits="userSpaceOnUse">
<stop stop-color="#1884E8"/>
<stop offset="0.453125" stop-color="#149BBE"/>
<stop offset="1" stop-color="#14BD80"/>
</linearGradient>
<linearGradient id="paint18_linear_519_929" x1="348.318" y1="38.1154" x2="381.612" y2="38.1154" gradientUnits="userSpaceOnUse">
<stop stop-color="#1884E8"/>
<stop offset="0.453125" stop-color="#149BBE"/>
<stop offset="1" stop-color="#14BD80"/>
</linearGradient>
<linearGradient id="paint19_linear_519_929" x1="143.126" y1="144.264" x2="183.371" y2="167.505" gradientUnits="userSpaceOnUse">
<stop stop-color="#2298BD"/>
<stop offset="1" stop-color="#0ED7B5"/>
</linearGradient>
<clipPath id="clip0_519_929">
<rect width="400" height="222.11" fill="white"/>
</clipPath>
</defs>
</svg>
